<svg xmlns="http://www.w3.org/2000/svg" xmlns:xlink="http://www.w3.org/1999/xlink" width="2400" zoomAndPan="magnify" viewBox="0 0 1800 1799.999925" height="2400" preserveAspectRatio="xMidYMid meet" version="1.0"><path fill="#000000" d="M 1066.835938 59.132812 C 891.425781 1.691406 688.582031 33.414062 549.867188 158.070312 C 476.308594 224.253906 427.785156 316.332031 413.210938 414.066406 C 404.292969 473.738281 402.234375 533.75 417.152344 592.5625 C 424.355469 620.511719 433.957031 649.832031 451.960938 672.636719 C 468.9375 694.242188 488.996094 712.074219 512.144531 726.648438 C 534.777344 740.878906 559.296875 713.273438 547.46875 691.328125 C 537.691406 673.492188 532.035156 654.976562 528.433594 634.914062 C 524.492188 613.136719 519.003906 593.761719 517.804688 572.5 C 516.601562 550.726562 517.289062 528.433594 517.976562 506.65625 C 518.316406 496.714844 519.003906 486.769531 519.859375 476.824219 C 520.375 471.335938 520.890625 465.847656 521.574219 460.363281 C 521.917969 456.933594 522.089844 455.5625 522.089844 454.875 C 522.089844 454.53125 522.433594 453.332031 522.949219 450.589844 C 526.546875 431.042969 530.664062 412.007812 536.835938 393.148438 C 539.578125 384.574219 542.664062 376.171875 545.921875 367.941406 C 546.78125 366.054688 547.980469 362.96875 548.496094 361.941406 C 551.410156 355.941406 554.152344 350.109375 557.242188 344.28125 C 565.472656 328.675781 574.902344 313.757812 585.019531 299.355469 C 587.074219 296.441406 589.132812 293.699219 591.191406 290.78125 C 592.390625 289.238281 594.792969 286.324219 595.648438 285.296875 C 602.335938 277.75 608.851562 270.035156 615.882812 262.835938 C 622.226562 256.320312 628.914062 249.972656 635.773438 243.972656 C 639.199219 240.886719 642.800781 237.972656 646.230469 235.058594 C 647.089844 234.371094 649.316406 232.65625 650.859375 231.285156 C 666.464844 219.625 682.925781 209.164062 700.070312 199.734375 C 707.445312 195.792969 714.816406 192.019531 722.363281 188.417969 C 725.621094 186.875 728.707031 185.503906 731.964844 184.132812 C 733.851562 183.445312 737.449219 181.902344 738.824219 181.558594 C 757.683594 174.871094 776.542969 168.871094 795.921875 164.242188 C 805.351562 162.011719 814.78125 160.125 824.210938 158.582031 C 823.699219 158.582031 829.871094 157.726562 833.472656 157.210938 C 837.070312 156.867188 843.246094 156.183594 842.730469 156.183594 C 864.507812 154.125 886.453125 153.609375 908.230469 154.640625 C 917.488281 154.980469 926.578125 155.667969 935.835938 156.527344 C 939.78125 156.867188 943.722656 157.382812 947.667969 157.898438 C 949.554688 158.238281 954.527344 158.925781 956.070312 159.097656 C 977.332031 162.699219 998.421875 167.5 1019.167969 173.671875 C 1028.941406 176.585938 1038.714844 179.84375 1048.488281 183.445312 C 1053.289062 185.160156 1058.089844 187.046875 1062.890625 188.933594 C 1063.578125 189.273438 1063.921875 189.273438 1064.265625 189.445312 C 1065.292969 189.960938 1066.148438 190.304688 1067.691406 191.160156 C 1087.070312 200.59375 1105.929688 210.367188 1123.761719 222.195312 C 1140.910156 233.511719 1143.308594 235.058594 1161.3125 251.859375 C 1168.6875 258.71875 1175.886719 265.921875 1182.746094 273.464844 C 1186.863281 277.921875 1190.804688 282.722656 1194.75 287.355469 C 1196.121094 289.066406 1196.808594 289.753906 1197.320312 290.269531 C 1197.664062 290.953125 1198.351562 291.984375 1199.722656 294.039062 C 1225.613281 333.304688 1240.703125 363.828125 1250.304688 409.265625 C 1251.332031 414.066406 1252.191406 419.039062 1253.046875 423.839844 C 1253.21875 425.382812 1253.5625 426.925781 1253.5625 427.613281 C 1254.417969 438.242188 1255.105469 448.875 1255.105469 459.503906 C 1255.105469 469.964844 1254.417969 480.421875 1253.5625 490.882812 C 1253.5625 492.425781 1253.390625 493.457031 1253.21875 494.484375 C 1253.046875 495.339844 1252.703125 496.542969 1252.363281 498.085938 C 1251.160156 504.085938 1250.132812 510.257812 1248.589844 516.429688 C 1230.242188 595.648438 1183.433594 663.890625 1129.078125 723.90625 C 1068.550781 790.433594 997.734375 844.789062 930.863281 904.457031 C 856.621094 970.644531 787.175781 1044.886719 736.421875 1130.964844 C 682.238281 1222.699219 651.890625 1328.148438 645.203125 1434.285156 C 642.457031 1477.496094 685.152344 1518.820312 727.847656 1516.933594 C 771.058594 1515.046875 812.382812 1480.582031 810.496094 1434.285156 C 809.464844 1409.765625 809.636719 1385.246094 811.867188 1360.726562 C 812.382812 1355.582031 812.894531 1350.441406 813.410156 1345.46875 C 813.410156 1344.78125 813.753906 1344.09375 813.925781 1343.238281 C 816.324219 1330.722656 818.554688 1318.546875 822.15625 1306.375 C 825.582031 1294.542969 829.355469 1282.710938 833.644531 1271.050781 C 835.015625 1267.277344 836.558594 1263.335938 837.929688 1259.5625 C 838.445312 1258.363281 838.785156 1257.503906 838.957031 1256.648438 C 839.300781 1256.132812 839.472656 1255.621094 839.816406 1254.933594 C 849.246094 1234.699219 859.191406 1214.640625 870.679688 1195.433594 C 882.167969 1176.058594 894.511719 1157.371094 907.886719 1139.367188 C 909.085938 1137.824219 910.289062 1136.109375 911.488281 1134.566406 C 910.460938 1135.9375 918.003906 1126.164062 919.03125 1124.960938 C 926.921875 1115.1875 934.980469 1105.757812 943.210938 1096.328125 C 973.902344 1061.347656 1007.164062 1028.425781 1041.628906 997.050781 C 1112.789062 931.894531 1187.03125 871.535156 1248.074219 796.09375 C 1311.34375 717.902344 1365.871094 628.398438 1380.789062 527.234375 C 1396.390625 421.097656 1370.671875 311.359375 1305.6875 225.285156 C 1245.675781 145.378906 1161.484375 90.167969 1066.835938 59.304688 Z M 1066.835938 59.132812 " fill-opacity="1" fill-rule="nonzero"/><path fill="#000000" d="M 792.492188 1640.558594 C 791.460938 1639.359375 790.261719 1638.160156 789.0625 1637.128906 C 785.117188 1634.042969 779.117188 1628.558594 773.628906 1625.8125 C 768.65625 1623.414062 763.171875 1621.183594 758.027344 1619.125 C 757.167969 1618.785156 756.484375 1618.613281 755.625 1618.269531 C 754.769531 1618.097656 754.082031 1617.925781 753.226562 1617.753906 C 747.394531 1616.726562 741.222656 1615.867188 735.222656 1615.355469 C 734.363281 1615.355469 733.507812 1615.355469 732.820312 1615.355469 C 726.820312 1615.523438 720.476562 1616.726562 714.472656 1617.753906 C 712.589844 1618.097656 710.703125 1618.613281 708.816406 1619.125 C 694.414062 1624.269531 695.097656 1624.097656 685.496094 1631.472656 C 682.753906 1633.527344 679.667969 1635.757812 677.09375 1638.160156 C 676.410156 1638.84375 675.722656 1639.53125 675.039062 1640.214844 C 670.75 1645.015625 666.976562 1650.332031 663.207031 1655.304688 C 657.71875 1662.851562 654.289062 1672.28125 651.375 1681.023438 C 650.859375 1682.738281 650.347656 1684.453125 650.175781 1686.339844 C 649.144531 1692.855469 648.117188 1699.714844 647.601562 1706.402344 C 647.601562 1707.601562 647.601562 1708.632812 647.601562 1709.832031 C 647.601562 1710.6875 647.601562 1711.71875 647.773438 1712.574219 C 648.460938 1719.089844 649.316406 1725.949219 650.519531 1732.464844 C 650.859375 1734.351562 651.546875 1736.238281 652.230469 1737.953125 C 654.632812 1744.125 657.546875 1752.871094 661.835938 1759.042969 C 664.40625 1762.644531 669.894531 1770.359375 674.351562 1774.988281 C 683.953125 1784.761719 687.898438 1785.960938 698.355469 1790.421875 C 701.101562 1791.621094 705.558594 1793.847656 709.160156 1794.707031 C 709.5 1794.707031 710.015625 1794.878906 710.53125 1795.050781 C 713.789062 1795.5625 717.046875 1795.90625 720.304688 1796.421875 C 723.390625 1796.9375 726.648438 1797.449219 729.734375 1797.621094 C 730.078125 1797.621094 730.59375 1797.621094 730.933594 1797.621094 C 731.277344 1797.621094 731.449219 1797.621094 731.792969 1797.621094 C 737.964844 1796.765625 743.964844 1795.90625 750.140625 1795.222656 C 751.167969 1795.222656 752.023438 1794.878906 752.882812 1794.535156 C 757.339844 1792.992188 765.570312 1789.5625 769.6875 1787.503906 C 770.199219 1787.332031 770.542969 1786.992188 771.058594 1786.820312 C 776.542969 1783.390625 781.6875 1779.273438 786.488281 1774.988281 C 789.234375 1772.585938 791.121094 1769.5 793.519531 1766.414062 C 800.378906 1757.5 797.976562 1761.441406 802.4375 1750.984375 C 806.722656 1740.867188 808.09375 1737.953125 808.265625 1724.578125 C 808.265625 1723.71875 808.265625 1723.035156 808.265625 1722.175781 C 808.265625 1720.804688 807.921875 1718.40625 807.578125 1716.003906 C 808.265625 1714.117188 808.953125 1712.058594 809.464844 1710.175781 C 811.179688 1704.171875 811.695312 1697.65625 812.382812 1691.484375 C 812.382812 1690.285156 812.382812 1689.253906 812.382812 1688.054688 C 812.210938 1682.910156 811.179688 1677.253906 810.324219 1672.109375 C 807.921875 1659.933594 800.550781 1649.648438 792.664062 1640.558594 Z M 792.492188 1640.558594 " fill-opacity="1" fill-rule="nonzero"/></svg>