<svg xmlns="http://www.w3.org/2000/svg" xmlns:xlink="http://www.w3.org/1999/xlink" width="2400" zoomAndPan="magnify" viewBox="0 0 1800 1799.999925" height="2400" preserveAspectRatio="xMidYMid meet" version="1.0"><defs><clipPath id="2d103af7ab"><path d="M 2 112 L 1798 112 L 1798 1688.625 L 2 1688.625 Z M 2 112 " clip-rule="nonzero"/></clipPath></defs><g clip-path="url(#2d103af7ab)"><path fill="#000000" d="M 995.777344 386.65625 C 822.914062 520.199219 639.835938 608.003906 454.136719 683.941406 C 454.578125 681.960938 454.5 679.863281 453.8125 677.84375 C 452.117188 673.160156 447.554688 670.417969 442.953125 671.386719 L 314.171875 698.109375 C 314.171875 698.109375 185.433594 673.808594 185.433594 673.808594 C 180.75 672.917969 176.148438 675.824219 174.613281 680.628906 C 173.082031 685.433594 175.058594 690.683594 179.257812 693.0625 L 250.710938 733.109375 L 91.535156 820.957031 L 72.234375 810.175781 C 70.902344 809.449219 69.492188 809.085938 68.078125 809.007812 L 67.632812 809.007812 C 64.203125 809.085938 60.933594 811.066406 59.238281 814.535156 C 56.773438 819.582031 58.589844 825.800781 63.3125 828.421875 L 72.800781 833.710938 L 66.542969 841.101562 C 62.949219 845.296875 63.234375 851.796875 67.148438 855.632812 C 71.105469 859.46875 77.203125 859.144531 80.753906 854.945312 L 89.757812 844.410156 L 259.835938 844.410156 L 256.203125 1040.125 L 29.203125 1128.53125 C 28.554688 1128.777344 27.992188 1129.097656 27.464844 1129.460938 L 19.433594 1118.683594 C 17.695312 1116.339844 15.152344 1115.007812 12.527344 1114.847656 L 12.085938 1114.808594 C 9.90625 1114.765625 7.726562 1115.492188 5.910156 1117.066406 C 1.75 1120.582031 1.0625 1127.078125 4.375 1131.519531 L 11.359375 1140.886719 L 4.375 1150.292969 C 1.0625 1154.734375 1.75 1161.191406 5.910156 1164.746094 C 10.066406 1168.296875 16.121094 1167.53125 19.433594 1163.089844 L 30.492188 1148.273438 C 31.140625 1148.433594 31.785156 1148.515625 32.472656 1148.515625 L 251.074219 1148.515625 L 223.058594 1342.976562 L 223.019531 1342.976562 L 51.726562 1444.023438 L 36.589844 1426.746094 L 22.539062 1440.835938 L 34.371094 1454.316406 L 22.097656 1470.304688 C 18.746094 1474.703125 19.3125 1481.203125 23.429688 1484.796875 C 27.546875 1488.390625 33.644531 1487.742188 36.992188 1483.382812 L 49.304688 1467.355469 C 49.386719 1467.355469 49.46875 1467.355469 49.546875 1467.355469 L 205.132812 1467.355469 L 174.210938 1682.003906 C 173.402344 1687.613281 177.035156 1692.902344 182.285156 1693.75 C 187.53125 1694.597656 192.457031 1690.765625 193.265625 1685.152344 L 193.347656 1684.546875 C 194.074219 1684.789062 194.839844 1684.910156 195.566406 1684.910156 C 197.101562 1684.992188 198.675781 1684.628906 200.046875 1683.902344 C 200.8125 1683.496094 201.542969 1683.011719 202.226562 1682.367188 L 319.785156 1572.761719 L 438.1875 1691.085938 L 444.769531 1683.578125 L 445.011719 1685.152344 C 445.820312 1690.765625 450.742188 1694.640625 456.03125 1693.75 C 461.28125 1692.863281 464.875 1687.613281 464.066406 1682.003906 L 432.859375 1467.355469 L 576.292969 1467.355469 L 586.0625 1482.65625 C 589.089844 1487.339844 595.066406 1488.550781 599.464844 1485.320312 C 603.867188 1482.132812 604.996094 1475.714844 601.96875 1471.03125 L 592.605469 1456.375 C 793.082031 1449.230469 990.972656 1431.386719 1187.574219 1407.890625 L 1151.441406 1682.285156 C 1150.675781 1687.777344 1154.59375 1692.863281 1160.121094 1693.589844 C 1160.96875 1693.710938 1161.777344 1693.710938 1162.585938 1693.628906 C 1164.242188 1693.792969 1165.976562 1693.589844 1167.589844 1692.902344 L 1357.492188 1614.546875 L 1540.164062 1690.804688 C 1542.222656 1692.78125 1545.089844 1693.914062 1548.15625 1693.628906 C 1552.4375 1694.035156 1556.675781 1691.652344 1558.410156 1687.453125 C 1559.988281 1683.699219 1559.097656 1679.542969 1556.472656 1676.714844 L 1538.265625 1539.660156 C 1540.609375 1537.921875 1542.140625 1535.257812 1542.386719 1532.3125 C 1542.707031 1528.519531 1540.851562 1524.882812 1537.660156 1522.90625 L 1535.886719 1521.816406 L 1514.933594 1364.089844 C 1567.332031 1356.5 1619.652344 1348.667969 1671.972656 1340.757812 L 1722.113281 1340.757812 L 1737.25 1366.59375 C 1740.035156 1371.398438 1746.253906 1373.011719 1751.054688 1370.1875 C 1755.859375 1367.359375 1757.476562 1361.183594 1754.648438 1356.378906 L 1736.925781 1326.0625 L 1754.328125 1299.984375 L 1737.574219 1288.761719 L 1719.769531 1315.324219 L 1487.722656 1159.214844 L 1459.464844 946.503906 C 1557.765625 915.460938 1655.300781 881.992188 1752.1875 846.792969 C 1753.234375 846.429688 1753.761719 845.257812 1753.398438 844.207031 C 1753.359375 844.128906 1753.316406 844.046875 1753.277344 843.964844 L 1754.527344 843.964844 C 1754.851562 844.410156 1755.214844 844.855469 1755.660156 845.257812 L 1780.769531 869.882812 C 1784.765625 873.757812 1791.144531 873.71875 1795.058594 869.722656 C 1798.933594 865.726562 1798.894531 859.347656 1794.898438 855.472656 L 1775.761719 836.699219 L 1792.03125 812.355469 L 1775.238281 801.132812 L 1761.148438 822.246094 L 1438.996094 684.988281 L 1438.878906 680.75 C 1437.949219 645.710938 1436.980469 610.710938 1436.011719 575.707031 L 1435.929688 572.601562 C 1438.269531 570.5 1439.480469 567.433594 1439.199219 564.285156 C 1438.957031 561.578125 1437.625 559.074219 1435.527344 557.339844 L 1435.242188 547.691406 C 1434.878906 533.523438 1434.476562 519.351562 1434.113281 505.222656 L 1433.910156 497.996094 C 1436.777344 496.460938 1438.753906 493.597656 1439.160156 490.367188 C 1439.5625 487.097656 1438.351562 483.828125 1435.929688 481.648438 L 1433.386719 479.34375 L 1433.304688 476.882812 L 1432.941406 463.964844 C 1498.824219 433.566406 1564.953125 402.238281 1631.277344 370.1875 L 1647.183594 370.1875 L 1667.933594 389.199219 C 1672.054688 392.953125 1678.429688 392.671875 1682.1875 388.554688 C 1685.941406 384.4375 1685.65625 378.058594 1681.578125 374.304688 L 1661.152344 355.613281 L 1680.851562 340.554688 L 1668.621094 324.527344 L 1644.195312 343.136719 L 1438.59375 206.324219 C 1438.996094 205.234375 1439.238281 204.0625 1439.238281 202.851562 C 1439.238281 201.519531 1438.996094 200.269531 1438.511719 199.097656 L 1538.996094 130.628906 C 1542.992188 127.886719 1544.484375 122.679688 1542.546875 118.238281 C 1540.648438 113.796875 1535.804688 111.375 1531.082031 112.425781 L 1347.277344 154.125 C 1347.277344 154.125 1163.472656 116.21875 1163.472656 116.21875 C 1158.667969 115.25 1153.867188 117.832031 1152.050781 122.394531 C 1150.234375 126.957031 1151.96875 132.164062 1156.167969 134.707031 L 1267.144531 202.769531 L 1030.011719 345.84375 L 1001.46875 328.402344 L 990.933594 345.640625 L 1010.59375 357.628906 L 996.625 375.554688 C 994.042969 378.824219 993.839844 383.226562 995.777344 386.65625 Z M 1173.566406 1668.601562 L 1331.167969 1603.566406 L 1189.914062 1544.585938 Z M 334.359375 1559.15625 L 442.386719 1667.105469 L 415.703125 1483.304688 Z M 1383.851562 1603.6875 L 1534.796875 1666.664062 L 1519.011719 1547.894531 Z M 196.898438 1660.042969 L 305.613281 1558.632812 L 223.339844 1476.398438 Z M 1359.632812 1436.554688 L 1206.832031 1529.769531 L 1357.53125 1592.707031 L 1510.25 1529.6875 Z M 242.476562 1467.355469 L 320.226562 1545.027344 L 403.511719 1467.355469 Z M 1292.171875 1394.8125 C 1264.195312 1398.445312 1236.21875 1401.957031 1208.242188 1405.390625 L 1193.953125 1513.984375 L 1340.375 1424.644531 Z M 1494.949219 1367 C 1485.625 1368.328125 1476.300781 1369.664062 1467.015625 1370.996094 L 1378.925781 1424.765625 L 1513.722656 1508.089844 Z M 949.269531 1333.207031 C 810.679688 1368.855469 666.078125 1391.382812 518.847656 1408.214844 L 575.164062 1442.851562 L 586.425781 1427.429688 C 588.363281 1424.765625 591.3125 1423.433594 594.257812 1423.476562 L 594.703125 1423.515625 C 596.558594 1423.636719 598.375 1424.363281 599.949219 1425.65625 C 604.148438 1429.167969 604.917969 1435.625 601.605469 1440.105469 L 592.683594 1452.339844 C 793.28125 1445.195312 991.335938 1427.308594 1188.097656 1403.734375 L 1196.414062 1340.757812 L 970.261719 1340.757812 C 969.738281 1340.757812 969.253906 1340.71875 968.730469 1340.636719 L 949.996094 1367.28125 C 946.808594 1371.84375 940.511719 1372.933594 935.949219 1369.742188 C 931.386719 1366.554688 930.296875 1360.253906 933.488281 1355.695312 Z M 209.414062 1437.605469 C 173.28125 1440.671875 137.109375 1443.699219 100.980469 1446.769531 L 208.121094 1446.769531 Z M 345.703125 1425.777344 C 326.042969 1427.554688 306.382812 1429.289062 286.679688 1431.023438 L 261.003906 1446.769531 L 383.003906 1446.769531 Z M 486.1875 1411.847656 C 466.085938 1414.027344 445.898438 1416.128906 425.714844 1418.144531 L 429.871094 1446.769531 L 542.910156 1446.769531 Z M 92.582031 1443.457031 C 131.699219 1440.066406 170.859375 1436.835938 210.019531 1433.527344 L 219.34375 1368.652344 Z M 241.507812 1434.898438 L 229.152344 1435.949219 L 228.105469 1443.175781 L 241.667969 1434.898438 Z M 406.5 1420.042969 C 398.0625 1420.890625 389.625 1421.699219 381.144531 1422.464844 L 409.121094 1438.25 Z M 240.980469 1430.902344 C 243.445312 1430.703125 245.867188 1430.5 248.328125 1430.296875 L 249.339844 1430.175781 L 299.234375 1399.617188 L 239.246094 1365.828125 L 229.757812 1431.871094 Z M 294.390625 1426.300781 C 309.449219 1425.007812 324.46875 1423.636719 339.523438 1422.304688 L 319.421875 1410.960938 Z M 405.894531 1416.046875 L 398.183594 1362.757812 L 339.203125 1398.847656 L 375.011719 1419.035156 C 385.304688 1418.023438 395.597656 1417.054688 405.894531 1416.046875 Z M 425.148438 1414.148438 C 443.640625 1412.332031 462.128906 1410.394531 480.578125 1408.417969 L 418.769531 1370.386719 Z M 1416.671875 1378.058594 C 1385.75 1382.378906 1354.785156 1386.578125 1323.824219 1390.695312 L 1359.671875 1412.859375 Z M 1239.8125 1011.257812 C 1038.488281 1066.121094 833.167969 1109.316406 621.953125 1135.515625 L 619.125 1139.394531 L 629.621094 1148.796875 C 633.699219 1152.433594 634.226562 1158.929688 630.792969 1163.292969 C 627.402344 1167.652344 621.304688 1168.21875 617.230469 1164.582031 L 599.585938 1148.796875 C 599.507812 1148.675781 599.386719 1148.597656 599.304688 1148.515625 L 386.515625 1148.515625 L 414.976562 1344.308594 L 513.277344 1404.785156 C 663.695312 1387.707031 811.40625 1364.816406 952.863281 1328.121094 L 954.277344 1326.101562 L 933.890625 1300.710938 L 949.632812 1288.074219 L 972.847656 1316.980469 L 1218.539062 1158.488281 C 1219.144531 1158.085938 1219.828125 1157.71875 1220.554688 1157.476562 Z M 1208.808594 1401.230469 C 1234.808594 1398.082031 1260.765625 1394.8125 1286.722656 1391.460938 L 1215.875 1347.660156 Z M 319.015625 1387.503906 L 358.457031 1363.363281 L 274.894531 1362.636719 Z M 1425.3125 1372.8125 L 1477.792969 1340.757812 L 1243.082031 1340.757812 L 1318.414062 1387.34375 C 1354.058594 1382.621094 1389.707031 1377.777344 1425.3125 1372.8125 Z M 1475.734375 1365.664062 L 1481.789062 1364.816406 C 1484.65625 1364.375 1487.5625 1363.96875 1490.429688 1363.566406 L 1494.425781 1363 L 1493.375 1354.925781 Z M 1644.964844 1340.757812 L 1515.214844 1340.757812 C 1514.488281 1341.726562 1513.5625 1342.574219 1512.472656 1343.261719 L 1512.1875 1343.421875 L 1514.410156 1360.09375 C 1557.96875 1353.757812 1601.488281 1347.296875 1644.964844 1340.757812 Z M 253.296875 1341.726562 L 376.179688 1341.726562 L 317.363281 1238.417969 Z M 329.109375 1219.488281 L 393.863281 1333.128906 L 368.1875 1156.507812 Z M 1491.277344 1185.898438 L 1509.160156 1320.574219 L 1691.390625 1320.574219 Z M 1253.136719 1320.574219 L 1465.117188 1320.574219 L 1354.707031 1252.550781 Z M 1004.539062 1320.574219 L 1199.078125 1320.574219 L 1217.125 1183.394531 Z M 1219.667969 1318.714844 L 1335.773438 1240.921875 L 1237.875 1180.609375 Z M 246.511719 1315.363281 L 306.300781 1219 L 269.683594 1154.691406 Z M 1373.113281 1240.195312 L 1487.480469 1310.640625 L 1469.71875 1177.058594 L 1467.335938 1177.058594 C 1467.175781 1177.21875 1466.972656 1177.339844 1466.730469 1177.5 Z M 1270.574219 1177.058594 L 1354.222656 1228.570312 L 1431.125 1177.058594 Z M 288.699219 1148.515625 L 318.046875 1200.027344 L 350.019531 1148.515625 Z M 1381.511719 1080.128906 L 1462.855469 1156.871094 L 1467.054688 1156.871094 L 1450.664062 1033.421875 Z M 1267.910156 1156.871094 L 1433.425781 1156.871094 L 1364.355469 1091.714844 Z M 1270.171875 1002.902344 C 1267.101562 1003.75 1263.996094 1004.597656 1260.925781 1005.445312 L 1241.871094 1150.132812 L 1349.296875 1077.546875 Z M 16.890625 1133.578125 L 16 1134.667969 C 16.285156 1134.265625 16.566406 1133.941406 16.890625 1133.578125 Z M 23.914062 1130.632812 L 23.832031 1130.59375 C 22.175781 1130.59375 20.523438 1130.996094 18.988281 1131.882812 C 20.523438 1130.996094 22.21875 1130.550781 23.914062 1130.632812 Z M 1240.378906 1006.898438 L 1261.855469 843.964844 L 945.960938 843.964844 C 944.589844 843.964844 943.257812 843.683594 942.085938 843.199219 C 941.964844 843.359375 941.84375 843.5625 941.722656 843.722656 L 924.96875 868.351562 C 921.820312 872.953125 915.5625 874.121094 910.960938 871.015625 C 907.488281 868.671875 905.953125 864.554688 906.722656 860.679688 C 755.820312 947.636719 583.074219 1002.136719 405.207031 1049.125 L 604.027344 1126.59375 L 612.910156 1114.484375 L 628.089844 1127.121094 L 625.222656 1131.035156 C 835.46875 1104.753906 1039.902344 1061.640625 1240.378906 1006.898438 Z M 24.238281 1130.632812 C 24.359375 1130.632812 24.480469 1130.632812 24.601562 1130.671875 C 24.722656 1130.671875 24.84375 1130.671875 24.921875 1130.714844 Z M 381.671875 1061.84375 C 382.71875 1096.84375 383.449219 1121.953125 383.609375 1127.929688 L 551.265625 1127.929688 Z M 297.902344 1127.929688 L 350.949219 1127.929688 L 323.539062 1104.835938 Z M 255.3125 1087.234375 C 201.5 1100.636719 147.648438 1113.960938 94.199219 1127.929688 L 254.023438 1127.929688 L 254.628906 1123.769531 Z M 287.8125 1079.121094 C 285.347656 1079.726562 282.847656 1080.371094 280.382812 1080.976562 L 274.691406 1082.390625 L 273.925781 1122.640625 L 308.078125 1091.796875 L 291.847656 1078.109375 Z M 104.773438 1121.023438 C 154.753906 1108.066406 205.09375 1095.589844 255.394531 1083.078125 L 255.796875 1062.164062 Z M 362.65625 1069.511719 L 338.554688 1091.273438 L 363.910156 1112.667969 C 363.585938 1102.132812 363.183594 1087.273438 362.65625 1069.511719 Z M 335.449219 1067.128906 C 328.90625 1068.785156 322.367188 1070.441406 315.789062 1072.097656 L 323.09375 1078.230469 Z M 274.730469 1078.230469 C 279.171875 1077.140625 283.613281 1076.050781 288.054688 1074.921875 L 275.015625 1063.941406 Z M 341.828125 1061.359375 L 345.296875 1058.210938 L 299.316406 1058.210938 L 312.035156 1068.90625 C 321.964844 1066.40625 331.894531 1063.902344 341.828125 1061.359375 Z M 1395.882812 966.207031 C 1361.648438 976.621094 1327.292969 986.714844 1292.820312 996.523438 L 1366.453125 1065.960938 L 1441.5 1015.253906 Z M 1270.734375 537.359375 C 1023.753906 646.519531 780.886719 741.832031 544.121094 816.554688 L 549.328125 825.03125 L 540 831.574219 L 550.011719 839.929688 C 554.171875 843.441406 554.898438 849.902344 551.628906 854.382812 C 548.359375 858.820312 542.300781 859.628906 538.105469 856.117188 L 524.136719 844.410156 L 375.132812 844.410156 C 377.027344 906.335938 379.289062 981.949219 381.023438 1039.679688 L 398.828125 1046.621094 C 580.453125 998.863281 756.949219 943.476562 910.355469 853.9375 L 921.171875 838.074219 L 908.296875 819.140625 C 905.148438 814.535156 906.316406 808.238281 910.960938 805.128906 C 912.65625 803.917969 914.632812 803.355469 916.570312 803.355469 L 917.054688 803.355469 C 920.125 803.515625 923.113281 805.050781 924.96875 807.753906 L 938.289062 827.332031 C 939.257812 826.164062 940.511719 825.234375 942.003906 824.589844 L 1268.191406 685.59375 Z M 286.480469 1037.621094 L 356.078125 1037.621094 L 319.460938 959.464844 Z M 275.984375 1012.429688 L 308.359375 935.726562 L 278.605469 872.183594 Z M 356.882812 870.933594 L 329.675781 935.28125 L 360.71875 1001.53125 C 359.507812 959.746094 358.136719 913.242188 356.882812 870.933594 Z M 1261.492188 1001.085938 L 1264.679688 1000.199219 L 1267.265625 999.511719 C 1265.246094 995.835938 1265.691406 991.15625 1268.636719 987.882812 L 1341.140625 907.347656 L 1282.203125 844.007812 Z M 1291.445312 992.6875 C 1325.355469 983.082031 1359.148438 973.148438 1392.816406 962.9375 L 1354.90625 922.160156 Z M 1439.925781 952.640625 C 1432.378906 954.984375 1424.867188 957.324219 1417.359375 959.664062 L 1444.769531 989.09375 Z M 1439.363281 948.605469 L 1425.472656 843.964844 L 1425.3125 843.964844 L 1368.472656 907.105469 L 1414.292969 956.355469 C 1422.6875 953.773438 1431.042969 951.1875 1439.363281 948.605469 Z M 1445.820312 843.964844 L 1458.898438 942.425781 C 1556.109375 911.746094 1652.433594 878.722656 1748.109375 843.964844 Z M 287.164062 844.410156 L 318.574219 911.546875 L 346.914062 844.410156 Z M 1309.734375 843.964844 L 1354.664062 892.289062 L 1398.144531 843.964844 Z M 372.105469 751.277344 C 372.707031 767.910156 373.515625 793.542969 374.484375 823.863281 L 491.355469 823.863281 Z M 261.367188 763.992188 C 233.957031 774.53125 206.546875 785.105469 179.175781 795.765625 L 128.230469 823.863281 L 260.238281 823.863281 Z M 317.363281 799.277344 L 294.351562 823.863281 L 339.324219 823.863281 Z M 995.375 823.78125 L 1264.480469 823.78125 L 1266.054688 812.035156 L 1267.828125 707.71875 Z M 1311.144531 823.78125 L 1413.324219 823.78125 L 1360.519531 775.09375 Z M 1439.601562 707.191406 C 1441.257812 769.96875 1442.46875 814.335938 1442.589844 819.664062 L 1443.15625 823.78125 L 1713.269531 823.78125 Z M 1288.015625 708.28125 L 1286.199219 812.960938 C 1286.199219 813.324219 1286.199219 813.730469 1286.117188 814.09375 L 1285.230469 821.035156 L 1345.664062 761.410156 Z M 1270.816406 532.917969 L 1273.601562 370.1875 L 1026.378906 370.1875 L 1012.53125 387.949219 C 1009.140625 392.347656 1002.800781 393.117188 998.402344 389.722656 C 823.558594 524.84375 638.34375 613.171875 450.5 689.753906 C 450.21875 689.996094 449.9375 690.195312 449.652344 690.359375 L 381.308594 732.988281 C 381.308594 733.03125 381.308594 733.109375 381.308594 733.191406 L 522.5625 819.140625 L 538.789062 807.835938 L 541.9375 813.003906 C 779.476562 738.117188 1023.105469 642.441406 1270.816406 532.917969 Z M 279.777344 810.296875 L 304.039062 784.378906 L 280.746094 758.34375 Z M 330.964844 784.742188 L 351.394531 807.59375 L 350.101562 764.277344 Z M 1419.703125 716.679688 L 1374.890625 760.925781 L 1422.003906 804.324219 L 1421.757812 794.511719 C 1421.152344 771.503906 1420.546875 748.453125 1419.941406 725.398438 Z M 205.539062 781.191406 C 224.148438 774.003906 242.796875 766.820312 261.449219 759.671875 L 261.609375 750.269531 Z M 314.617188 743.484375 C 309.53125 745.464844 304.445312 747.402344 299.355469 749.378906 L 317.644531 769.847656 L 342.351562 743.484375 Z M 1312.398438 703.316406 L 1360.035156 747.199219 L 1404.523438 703.316406 Z M 294.109375 743.484375 L 296.492188 746.148438 L 300.851562 744.496094 L 303.433594 743.484375 Z M 363.910156 719.992188 L 390.914062 703.15625 L 316.109375 718.65625 C 314.941406 718.898438 313.769531 718.898438 312.597656 718.699219 C 312.597656 718.699219 243.082031 705.578125 243.082031 705.578125 L 273.964844 722.898438 L 356.441406 722.898438 L 361.929688 720.757812 Z M 1312.882812 683.132812 L 1402.785156 683.132812 L 1357.855469 642.761719 Z M 1288.539062 677.882812 L 1342.757812 629.199219 L 1290.152344 581.964844 Z M 1416.308594 590.242188 L 1372.953125 629.199219 L 1418.449219 670.050781 C 1417.804688 645.023438 1417.078125 618.097656 1416.308594 590.242188 Z M 1304 567.269531 L 1357.855469 615.632812 L 1412.433594 566.585938 L 1363.222656 535.703125 Z M 1326.324219 512.570312 C 1314.578125 517.859375 1302.832031 523.105469 1291.082031 528.316406 L 1290.679688 551.527344 L 1343.523438 523.347656 Z M 1414.128906 508.574219 L 1383.730469 524.761719 L 1415.097656 544.421875 Z M 1291.164062 523.875 C 1301.496094 519.273438 1311.832031 514.628906 1322.207031 509.988281 L 1291.726562 490.851562 Z M 1402.019531 478.214844 C 1384.175781 486.410156 1366.292969 494.523438 1348.449219 502.597656 L 1364.03125 512.40625 L 1411.707031 486.976562 Z M 1398.789062 475.269531 L 1353.574219 434.375 L 1303.878906 474.664062 L 1344.332031 500.015625 C 1362.457031 491.859375 1380.621094 483.585938 1398.789062 475.269531 Z M 1410.820312 387.949219 L 1369.441406 421.496094 L 1412.839844 460.734375 L 1412.757812 458.070312 C 1412.113281 435.101562 1411.503906 412.128906 1410.859375 389.160156 Z M 1621.992188 370.1875 L 1432.699219 370.1875 L 1430.398438 372.082031 L 1430.480469 374.707031 C 1431.246094 403.007812 1432.054688 431.304688 1432.820312 459.5625 C 1495.636719 430.539062 1558.695312 400.707031 1621.992188 370.1875 Z M 1292.292969 458.070312 L 1338.4375 420.648438 L 1293.625 380.117188 Z M 1312.761719 370.1875 L 1354.300781 407.769531 L 1400.644531 370.1875 Z M 1425.957031 222.675781 C 1426.523438 239.265625 1427.007812 255.859375 1427.53125 272.449219 C 1428.21875 296.066406 1428.90625 319.722656 1429.589844 343.339844 L 1429.632812 345.640625 L 1433.628906 350 L 1618.117188 350 L 1425.957031 222.148438 Z M 1307.390625 350 L 1406.378906 350 L 1353.496094 291.707031 Z M 1062.144531 350 L 1273.925781 350 L 1276.144531 220.898438 Z M 1294.394531 333.894531 L 1339.769531 276.527344 L 1296.210938 228.527344 Z M 1406.054688 225.175781 L 1366.171875 275.640625 L 1409.003906 322.871094 C 1407.792969 280.363281 1406.742188 245.726562 1406.054688 225.175781 Z M 1309.328125 212.945312 L 1352.445312 260.5 L 1390.027344 212.945312 Z M 1412.03125 192.761719 L 1483.6875 143.871094 L 1349.617188 174.3125 C 1348.207031 174.632812 1346.753906 174.632812 1345.339844 174.351562 C 1345.339844 174.351562 1215.875 147.625 1215.875 147.625 L 1289.386719 192.761719 Z M 1412.03125 192.761719 " fill-opacity="1" fill-rule="evenodd"/></g></svg>