<svg xmlns="http://www.w3.org/2000/svg" xmlns:xlink="http://www.w3.org/1999/xlink" width="2400" zoomAndPan="magnify" viewBox="0 0 1800 1799.999925" height="2400" preserveAspectRatio="xMidYMid meet" version="1.0"><path fill="#115ed0" d="M 900.003906 0 C 1397.0625 0 1800 402.945312 1800 900.003906 C 1800 1397.054688 1397.0625 1800.007812 900.003906 1800.007812 C 402.945312 1800.007812 0 1397.058594 0 900.003906 C 0 402.945312 402.945312 0 900.003906 0 Z M 900.003906 0 " fill-opacity="1" fill-rule="nonzero"/><path fill="#ffffff" d="M 1057.113281 888.492188 C 1095.042969 862.109375 1126.324219 825.8125 1150.949219 779.582031 C 1175.558594 733.359375 1187.878906 676.328125 1187.878906 608.5 C 1187.878906 520.578125 1166.511719 448.847656 1123.820312 393.324219 C 1081.101562 337.8125 1028.105469 301.753906 964.796875 285.171875 C 923.589844 274.125 835.15625 268.589844 699.492188 268.589844 L 341.492188 268.589844 L 341.492188 1373.484375 L 564.582031 1373.484375 L 564.582031 956.695312 L 710.042969 956.695312 C 811.035156 956.695312 888.15625 951.421875 941.421875 940.867188 C 980.617188 932.335938 1019.179688 914.863281 1057.113281 888.492188 Z M 863.039062 751.699219 C 833.390625 763.261719 774.605469 769.03125 686.679688 769.03125 L 564.585938 769.03125 L 564.585938 455.503906 L 672.363281 455.503906 C 752.746094 455.503906 806.261719 458.019531 832.894531 463.042969 C 869.070312 469.574219 898.957031 485.910156 922.59375 512.03125 C 946.199219 538.164062 958.011719 571.328125 958.011719 611.515625 C 958.011719 644.183594 949.585938 672.820312 932.765625 697.4375 C 915.925781 722.058594 892.679688 740.148438 863.039062 751.699219 Z M 1459.921875 1200.332031 L 1402.007812 1200.332031 L 1319.542969 1053.230469 C 1316.664062 1048.078125 1309.511719 1043.929688 1303.648438 1043.929688 L 925.894531 1043.929688 C 920.03125 1043.929688 912.882812 1048.078125 910 1053.230469 L 827.53125 1200.332031 L 769.628906 1200.332031 C 759.851562 1200.332031 751.847656 1208.34375 751.847656 1218.101562 L 751.847656 1248.320312 C 751.847656 1258.085938 759.847656 1266.09375 769.628906 1266.09375 L 800.195312 1266.09375 L 800.195312 1266.023438 C 800.203125 1266.023438 800.203125 1266.023438 800.207031 1266.023438 L 800.207031 1266.066406 L 800.75 1266.066406 C 800.925781 1266.082031 801.105469 1266.089844 801.296875 1266.089844 L 800.191406 1266.089844 L 800.191406 1539.953125 C 800.191406 1545.839844 804.996094 1550.601562 810.859375 1550.601562 L 928.160156 1550.601562 C 934.027344 1550.601562 938.828125 1545.839844 938.828125 1539.953125 L 938.828125 1462.019531 C 938.828125 1456.191406 943.625 1451.359375 949.496094 1451.359375 L 1280.074219 1451.359375 C 1285.945312 1451.359375 1290.742188 1456.191406 1290.742188 1462.019531 L 1290.742188 1539.953125 C 1290.742188 1545.839844 1295.550781 1550.601562 1301.410156 1550.601562 L 1418.710938 1550.601562 C 1424.578125 1550.601562 1429.378906 1545.839844 1429.378906 1539.953125 L 1429.378906 1266.089844 L 1459.921875 1266.089844 C 1469.6875 1266.089844 1477.6875 1258.082031 1477.6875 1248.316406 L 1477.6875 1218.097656 C 1477.6875 1208.34375 1469.6875 1200.332031 1459.921875 1200.332031 Z M 853.164062 1220.03125 L 928.773438 1085.234375 C 931.617188 1080.070312 938.761719 1075.910156 944.632812 1075.910156 L 1284.917969 1075.910156 C 1290.78125 1075.910156 1297.925781 1080.066406 1300.816406 1085.234375 L 1376.382812 1219.925781 L 1376.382812 1233.675781 C 1375.558594 1233.964844 1374.644531 1234.101562 1373.613281 1234.101562 L 855.933594 1234.101562 C 854.90625 1234.101562 853.980469 1233.964844 853.164062 1233.675781 Z M 971.464844 1322.5625 C 971.554688 1322.597656 971.640625 1322.640625 971.730469 1322.675781 C 971.492188 1322.578125 971.257812 1322.484375 971.015625 1322.390625 C 971.074219 1322.410156 971.128906 1322.433594 971.1875 1322.457031 C 971.273438 1322.484375 971.359375 1322.515625 971.457031 1322.558594 C 971.464844 1322.5625 971.464844 1322.5625 971.464844 1322.5625 Z M 986.492188 1354.332031 C 986.414062 1354.609375 986.320312 1354.890625 986.210938 1355.167969 C 986.167969 1355.296875 986.117188 1355.429688 986.0625 1355.558594 C 985.984375 1355.777344 985.90625 1355.984375 985.8125 1356.195312 C 985.738281 1356.378906 985.671875 1356.554688 985.585938 1356.726562 C 985.445312 1357.070312 985.296875 1357.398438 985.132812 1357.722656 C 985.019531 1357.957031 984.902344 1358.183594 984.785156 1358.410156 C 984.539062 1358.890625 984.269531 1359.351562 983.992188 1359.808594 C 983.84375 1360.0625 983.683594 1360.304688 983.527344 1360.542969 C 983.457031 1360.652344 983.375 1360.757812 983.296875 1360.867188 C 983.535156 1360.519531 983.769531 1360.171875 983.988281 1359.808594 C 983.746094 1360.210938 983.480469 1360.597656 983.21875 1360.984375 C 983.109375 1361.140625 983.003906 1361.296875 982.890625 1361.457031 C 982.597656 1361.855469 982.300781 1362.257812 981.988281 1362.644531 C 982.285156 1362.28125 982.5625 1361.90625 982.839844 1361.53125 C 982.824219 1361.558594 982.800781 1361.582031 982.785156 1361.613281 C 982.757812 1361.660156 982.726562 1361.703125 982.691406 1361.746094 C 982.460938 1362.046875 982.226562 1362.347656 981.988281 1362.644531 C 981.503906 1363.25 980.984375 1363.824219 980.457031 1364.371094 C 979.917969 1364.929688 979.355469 1365.453125 978.773438 1365.957031 C 978.1875 1366.460938 977.578125 1366.941406 976.949219 1367.386719 C 976.636719 1367.613281 976.3125 1367.835938 975.988281 1368.042969 C 975.699219 1368.226562 975.40625 1368.410156 975.109375 1368.589844 C 975.003906 1368.648438 974.90625 1368.707031 974.8125 1368.765625 C 974.550781 1368.910156 974.28125 1369.0625 974.011719 1369.207031 C 973.984375 1369.226562 973.964844 1369.234375 973.9375 1369.242188 C 973.609375 1369.40625 973.273438 1369.570312 972.9375 1369.730469 C 972.589844 1369.894531 972.230469 1370.058594 971.863281 1370.207031 C 971.140625 1370.503906 970.398438 1370.773438 969.648438 1371.011719 C 969.339844 1371.117188 969.039062 1371.203125 968.730469 1371.273438 C 968.433594 1371.359375 968.125 1371.429688 967.824219 1371.507812 C 967.816406 1371.515625 967.796875 1371.515625 967.789062 1371.507812 C 967.5 1371.582031 967.210938 1371.640625 966.925781 1371.699219 C 966.867188 1371.71875 966.792969 1371.726562 966.734375 1371.738281 C 966.148438 1371.84375 965.558594 1371.929688 964.953125 1371.996094 C 964.308594 1372.070312 963.652344 1372.121094 963 1372.148438 C 962.667969 1372.160156 962.335938 1372.167969 962.007812 1372.167969 L 859.167969 1372.167969 C 858.375 1372.167969 857.589844 1372.140625 856.808594 1372.09375 C 856.417969 1372.070312 856.023438 1372.042969 855.636719 1372.007812 C 855.296875 1371.976562 854.953125 1371.941406 854.617188 1371.902344 C 854.347656 1371.878906 854.078125 1371.84375 853.808594 1371.800781 C 853.433594 1371.75 853.058594 1371.6875 852.683594 1371.625 C 852.253906 1371.546875 851.820312 1371.46875 851.386719 1371.382812 C 850.902344 1371.289062 850.414062 1371.171875 849.933594 1371.058594 C 849.5 1370.953125 849.050781 1370.832031 848.625 1370.710938 C 848.546875 1370.691406 848.476562 1370.671875 848.414062 1370.648438 C 847.96875 1370.527344 847.527344 1370.382812 847.085938 1370.238281 C 846.613281 1370.089844 846.160156 1369.925781 845.699219 1369.75 C 843.996094 1369.125 842.371094 1368.371094 840.796875 1367.519531 C 840.25 1367.222656 839.707031 1366.914062 839.1875 1366.59375 C 838.914062 1366.441406 838.652344 1366.28125 838.390625 1366.09375 C 837.878906 1365.765625 837.363281 1365.414062 836.855469 1365.058594 C 836.351562 1364.699219 835.851562 1364.324219 835.363281 1363.953125 C 834.882812 1363.574219 834.414062 1363.183594 833.953125 1362.777344 C 833.71875 1362.585938 833.480469 1362.378906 833.253906 1362.15625 C 832.785156 1361.730469 832.320312 1361.292969 831.878906 1360.839844 C 831.5625 1360.527344 831.253906 1360.203125 830.949219 1359.878906 C 830.820312 1359.742188 830.691406 1359.597656 830.570312 1359.453125 C 830.199219 1359.050781 829.84375 1358.632812 829.496094 1358.210938 C 829.246094 1357.914062 829 1357.617188 828.773438 1357.3125 C 828.753906 1357.292969 828.746094 1357.277344 828.726562 1357.257812 C 828.578125 1357.074219 828.4375 1356.890625 828.300781 1356.699219 C 827.871094 1356.117188 827.453125 1355.53125 827.0625 1354.929688 C 826.871094 1354.667969 826.695312 1354.398438 826.539062 1354.128906 C 823.972656 1350.082031 822.15625 1345.511719 821.277344 1340.617188 C 821.214844 1340.285156 821.164062 1339.964844 821.109375 1339.628906 C 821.058594 1339.308594 821.007812 1338.976562 820.96875 1338.644531 C 820.925781 1338.316406 820.882812 1337.972656 820.855469 1337.644531 C 820.8125 1337.308594 820.785156 1336.96875 820.757812 1336.636719 C 820.707031 1335.96875 820.671875 1335.285156 820.652344 1334.605469 C 820.636719 1334.285156 820.636719 1333.949219 820.636719 1333.628906 C 820.636719 1332.621094 820.671875 1331.628906 820.757812 1330.640625 C 820.804688 1329.988281 820.863281 1329.34375 820.949219 1328.699219 C 821.074219 1327.738281 821.238281 1326.78125 821.429688 1325.839844 C 821.480469 1325.523438 821.554688 1325.21875 821.632812 1324.90625 C 821.761719 1324.285156 821.921875 1323.664062 822.101562 1323.054688 C 822.34375 1322.140625 822.640625 1321.242188 822.964844 1320.359375 C 823.082031 1320.0625 823.191406 1319.765625 823.3125 1319.472656 C 823.46875 1319.070312 823.632812 1318.667969 823.8125 1318.265625 C 823.824219 1318.234375 823.835938 1318.195312 823.855469 1318.171875 C 823.976562 1317.894531 824.101562 1317.613281 824.238281 1317.335938 C 824.289062 1317.1875 824.363281 1317.046875 824.4375 1316.898438 C 824.578125 1316.601562 824.71875 1316.3125 824.863281 1316.027344 C 824.957031 1315.84375 825.054688 1315.660156 825.152344 1315.488281 C 825.484375 1314.851562 825.84375 1314.230469 826.207031 1313.621094 C 826.46875 1313.1875 826.746094 1312.75 827.035156 1312.324219 C 827.101562 1312.226562 827.160156 1312.132812 827.226562 1312.035156 C 827.523438 1311.601562 827.832031 1311.164062 828.140625 1310.734375 C 828.140625 1310.726562 828.140625 1310.726562 828.140625 1310.726562 C 828.824219 1309.800781 829.546875 1308.902344 830.324219 1308.039062 C 830.710938 1307.601562 831.101562 1307.179688 831.503906 1306.765625 C 831.890625 1306.347656 832.3125 1305.9375 832.730469 1305.542969 C 832.933594 1305.371094 833.132812 1305.175781 833.34375 1304.996094 C 834 1304.402344 834.671875 1303.835938 835.367188 1303.285156 C 835.613281 1303.09375 835.847656 1302.910156 836.09375 1302.71875 C 836.097656 1302.726562 836.097656 1302.726562 836.097656 1302.71875 C 836.351562 1302.539062 836.597656 1302.351562 836.847656 1302.179688 C 837.101562 1301.984375 837.355469 1301.8125 837.617188 1301.644531 C 838.125 1301.292969 838.644531 1300.964844 839.183594 1300.640625 C 839.972656 1300.15625 840.785156 1299.695312 841.617188 1299.28125 C 842.164062 1298.984375 842.734375 1298.714844 843.300781 1298.472656 C 843.867188 1298.199219 844.449219 1297.957031 845.035156 1297.738281 C 845.28125 1297.640625 845.523438 1297.546875 845.765625 1297.449219 C 846.40625 1297.214844 847.050781 1296.992188 847.707031 1296.792969 C 848.308594 1296.601562 848.910156 1296.4375 849.519531 1296.269531 C 852.609375 1295.476562 855.847656 1295.058594 859.1875 1295.058594 C 860.128906 1295.058594 861.054688 1295.09375 861.972656 1295.164062 C 862.371094 1295.191406 862.773438 1295.234375 863.167969 1295.277344 C 863.601562 1295.316406 864.03125 1295.371094 864.46875 1295.433594 C 866.1875 1295.667969 867.871094 1296.027344 869.519531 1296.480469 L 869.519531 1296.453125 L 869.527344 1296.453125 L 967.09375 1321.304688 L 967.765625 1321.4375 C 968.277344 1321.546875 968.777344 1321.675781 969.269531 1321.820312 C 969.277344 1321.824219 969.289062 1321.824219 969.296875 1321.828125 C 970.195312 1322.09375 971.074219 1322.40625 971.929688 1322.757812 C 972.101562 1322.835938 972.277344 1322.910156 972.449219 1322.988281 C 972.820312 1323.148438 973.1875 1323.316406 973.546875 1323.496094 C 973.234375 1323.335938 972.90625 1323.191406 972.582031 1323.042969 C 972.675781 1323.085938 972.769531 1323.125 972.859375 1323.164062 C 973.09375 1323.269531 973.320312 1323.382812 973.546875 1323.496094 C 973.800781 1323.625 974.0625 1323.757812 974.316406 1323.894531 C 974.566406 1324.035156 974.824219 1324.171875 975.066406 1324.320312 C 975.835938 1324.765625 976.585938 1325.253906 977.300781 1325.789062 C 977.511719 1325.949219 977.71875 1326.101562 977.921875 1326.265625 C 978.597656 1326.796875 979.253906 1327.363281 979.875 1327.96875 C 980.183594 1328.257812 980.46875 1328.5625 980.753906 1328.867188 C 981.035156 1329.15625 981.300781 1329.453125 981.566406 1329.757812 C 981.59375 1329.800781 981.636719 1329.84375 981.671875 1329.890625 C 981.914062 1330.175781 982.160156 1330.480469 982.394531 1330.789062 C 982.644531 1331.117188 982.902344 1331.460938 983.132812 1331.808594 C 983.613281 1332.5 984.066406 1333.214844 984.476562 1333.953125 C 984.6875 1334.328125 984.878906 1334.703125 985.066406 1335.089844 C 985.253906 1335.464844 985.425781 1335.839844 985.59375 1336.222656 C 985.660156 1336.375 985.722656 1336.53125 985.789062 1336.683594 C 985.566406 1336.144531 985.332031 1335.609375 985.070312 1335.089844 C 985.902344 1336.769531 986.550781 1338.558594 987 1340.429688 C 987.15625 1341.105469 987.300781 1341.789062 987.410156 1342.484375 C 987.421875 1342.628906 987.453125 1342.753906 987.46875 1342.898438 C 987.488281 1343.035156 987.503906 1343.167969 987.519531 1343.304688 C 987.546875 1343.511719 987.574219 1343.714844 987.59375 1343.925781 C 987.59375 1343.945312 987.597656 1343.960938 987.597656 1343.980469 C 987.546875 1343.480469 987.488281 1342.976562 987.410156 1342.484375 C 987.492188 1343.027344 987.558594 1343.582031 987.605469 1344.132812 C 987.605469 1344.136719 987.605469 1344.140625 987.605469 1344.140625 C 987.605469 1344.144531 987.605469 1344.148438 987.605469 1344.152344 C 987.65625 1344.703125 987.691406 1345.265625 987.699219 1345.828125 C 987.695312 1345.339844 987.664062 1344.851562 987.621094 1344.367188 C 987.625 1344.429688 987.632812 1344.492188 987.636719 1344.550781 C 987.671875 1344.96875 987.691406 1345.394531 987.695312 1345.824219 C 987.703125 1346.050781 987.703125 1346.277344 987.703125 1346.503906 C 987.703125 1346.90625 987.695312 1347.304688 987.675781 1347.703125 C 987.660156 1348.015625 987.636719 1348.332031 987.605469 1348.644531 C 987.523438 1349.671875 987.382812 1350.683594 987.183594 1351.675781 C 987.007812 1352.585938 986.78125 1353.46875 986.492188 1354.332031 Z M 1212.609375 1428.347656 C 1212.539062 1428.691406 1212.453125 1429.03125 1212.347656 1429.359375 C 1212.269531 1429.605469 1212.183594 1429.847656 1212.085938 1430.097656 C 1212.042969 1430.214844 1211.992188 1430.339844 1211.9375 1430.453125 C 1211.796875 1430.765625 1211.648438 1431.078125 1211.476562 1431.378906 C 1211.410156 1431.492188 1211.34375 1431.613281 1211.273438 1431.726562 C 1211.160156 1431.898438 1211.042969 1432.082031 1210.921875 1432.261719 C 1210.800781 1432.4375 1210.679688 1432.601562 1210.546875 1432.757812 C 1210.285156 1433.101562 1210.003906 1433.410156 1209.703125 1433.71875 C 1209.695312 1433.726562 1209.695312 1433.726562 1209.683594 1433.734375 C 1209.445312 1433.96875 1209.195312 1434.199219 1208.941406 1434.410156 C 1208.675781 1434.625 1208.398438 1434.835938 1208.121094 1435.015625 C 1207.972656 1435.113281 1207.832031 1435.210938 1207.683594 1435.296875 C 1207.578125 1435.367188 1207.472656 1435.441406 1207.355469 1435.488281 C 1207.339844 1435.507812 1207.308594 1435.515625 1207.292969 1435.523438 C 1207.144531 1435.609375 1206.984375 1435.695312 1206.828125 1435.765625 C 1206.664062 1435.851562 1206.492188 1435.929688 1206.308594 1436.003906 C 1206.148438 1436.082031 1205.992188 1436.144531 1205.828125 1436.195312 C 1205.503906 1436.3125 1205.164062 1436.417969 1204.828125 1436.507812 C 1204.320312 1436.660156 1203.796875 1436.753906 1203.253906 1436.796875 C 1202.898438 1436.851562 1202.53125 1436.867188 1202.15625 1436.867188 L 1027.371094 1436.867188 C 1021.511719 1436.867188 1016.703125 1432.074219 1016.703125 1426.207031 L 1016.703125 1407.261719 C 1016.703125 1405.160156 1017.316406 1403.203125 1018.367188 1401.558594 C 1018.527344 1401.324219 1018.679688 1401.09375 1018.847656 1400.867188 C 1018.953125 1400.726562 1019.058594 1400.585938 1019.164062 1400.460938 C 1019.382812 1400.199219 1019.609375 1399.953125 1019.855469 1399.710938 C 1020.164062 1399.398438 1020.5 1399.109375 1020.847656 1398.828125 C 1021.003906 1398.714844 1021.152344 1398.601562 1021.316406 1398.492188 C 1021.488281 1398.367188 1021.664062 1398.253906 1021.847656 1398.140625 C 1022.046875 1398.019531 1022.257812 1397.90625 1022.46875 1397.792969 C 1022.675781 1397.691406 1022.882812 1397.582031 1023.105469 1397.488281 C 1024.414062 1396.925781 1025.859375 1396.601562 1027.371094 1396.601562 L 1202.15625 1396.601562 C 1208.015625 1396.601562 1212.824219 1401.363281 1212.824219 1407.269531 L 1212.824219 1426.214844 C 1212.824219 1426.761719 1212.78125 1427.304688 1212.703125 1427.839844 C 1212.683594 1428 1212.648438 1428.171875 1212.609375 1428.347656 Z M 1405.636719 1349.292969 C 1405.539062 1349.507812 1405.449219 1349.71875 1405.347656 1349.929688 C 1405.144531 1350.355469 1404.945312 1350.785156 1404.726562 1351.191406 C 1404.507812 1351.601562 1404.289062 1352.019531 1404.0625 1352.421875 C 1403.835938 1352.820312 1403.601562 1353.226562 1403.367188 1353.625 C 1403.128906 1354.015625 1402.886719 1354.410156 1402.625 1354.796875 C 1402.5 1354.988281 1402.371094 1355.179688 1402.242188 1355.371094 C 1402.058594 1355.640625 1401.867188 1355.910156 1401.675781 1356.171875 C 1401.457031 1356.488281 1401.222656 1356.792969 1400.984375 1357.097656 C 1400.820312 1357.316406 1400.65625 1357.527344 1400.480469 1357.742188 C 1400.277344 1357.996094 1400.058594 1358.25 1399.851562 1358.5 C 1399.703125 1358.683594 1399.550781 1358.863281 1399.40625 1359.027344 C 1399.050781 1359.433594 1398.675781 1359.847656 1398.300781 1360.238281 C 1398.089844 1360.464844 1397.871094 1360.683594 1397.65625 1360.890625 C 1396.78125 1361.769531 1395.867188 1362.601562 1394.917969 1363.378906 C 1394.210938 1363.960938 1393.476562 1364.519531 1392.726562 1365.0625 C 1392.222656 1365.429688 1391.699219 1365.78125 1391.175781 1366.109375 C 1390.820312 1366.339844 1390.449219 1366.5625 1390.082031 1366.78125 C 1389.777344 1366.964844 1389.457031 1367.152344 1389.140625 1367.324219 C 1388.714844 1367.570312 1388.289062 1367.792969 1387.839844 1368.015625 C 1387.484375 1368.199219 1387.128906 1368.375 1386.769531 1368.539062 C 1386.355469 1368.738281 1385.941406 1368.929688 1385.511719 1369.105469 C 1385.191406 1369.246094 1384.867188 1369.375 1384.539062 1369.507812 C 1384.070312 1369.699219 1383.589844 1369.875 1383.097656 1370.039062 C 1382.695312 1370.179688 1382.289062 1370.316406 1381.867188 1370.449219 C 1381.558594 1370.542969 1381.25 1370.640625 1380.933594 1370.71875 C 1379.109375 1371.234375 1377.230469 1371.613281 1375.308594 1371.871094 C 1375.300781 1371.882812 1375.292969 1371.871094 1375.292969 1371.871094 C 1373.679688 1372.074219 1372.039062 1372.175781 1370.375 1372.175781 L 1267.570312 1372.175781 C 1265.800781 1372.175781 1264.066406 1371.992188 1262.398438 1371.652344 C 1262.042969 1371.582031 1261.695312 1371.503906 1261.347656 1371.417969 C 1261.203125 1371.382812 1261.058594 1371.34375 1260.917969 1371.304688 C 1260.648438 1371.234375 1260.386719 1371.164062 1260.125 1371.078125 C 1259.820312 1370.988281 1259.523438 1370.894531 1259.226562 1370.777344 C 1259.007812 1370.707031 1258.800781 1370.632812 1258.589844 1370.554688 C 1258.582031 1370.554688 1258.5625 1370.554688 1258.554688 1370.539062 C 1258.234375 1370.433594 1257.929688 1370.296875 1257.613281 1370.171875 C 1257.597656 1370.164062 1257.582031 1370.164062 1257.570312 1370.152344 C 1257.183594 1369.996094 1256.820312 1369.832031 1256.453125 1369.644531 C 1256.078125 1369.46875 1255.703125 1369.277344 1255.347656 1369.082031 C 1254.621094 1368.691406 1253.914062 1368.257812 1253.226562 1367.796875 C 1252.886719 1367.574219 1252.554688 1367.335938 1252.226562 1367.085938 C 1251.582031 1366.613281 1250.960938 1366.105469 1250.367188 1365.566406 C 1250.347656 1365.539062 1250.328125 1365.519531 1250.3125 1365.515625 C 1249.695312 1364.960938 1249.109375 1364.378906 1248.570312 1363.769531 C 1248.292969 1363.460938 1248.023438 1363.160156 1247.765625 1362.835938 C 1247.496094 1362.523438 1247.242188 1362.199219 1247 1361.867188 C 1246.734375 1361.5 1246.472656 1361.144531 1246.230469 1360.769531 C 1243.472656 1356.699219 1241.875 1351.792969 1241.875 1346.515625 C 1241.875 1343.4375 1242.410156 1340.488281 1243.402344 1337.769531 C 1244.003906 1336.066406 1244.789062 1334.457031 1245.730469 1332.945312 C 1245.757812 1332.910156 1245.785156 1332.867188 1245.808594 1332.820312 C 1246.160156 1332.253906 1246.539062 1331.703125 1246.933594 1331.175781 C 1247.34375 1330.609375 1247.796875 1330.050781 1248.269531 1329.527344 C 1248.503906 1329.265625 1248.742188 1329.003906 1248.984375 1328.746094 C 1249.222656 1328.484375 1249.472656 1328.238281 1249.734375 1327.996094 C 1249.933594 1327.796875 1250.144531 1327.59375 1250.355469 1327.421875 C 1250.363281 1327.414062 1250.363281 1327.414062 1250.375 1327.40625 C 1250.574219 1327.222656 1250.773438 1327.046875 1250.972656 1326.882812 C 1251.347656 1326.550781 1251.75 1326.234375 1252.160156 1325.933594 C 1252.441406 1325.710938 1252.71875 1325.515625 1253.007812 1325.3125 C 1253.300781 1325.109375 1253.597656 1324.921875 1253.90625 1324.730469 C 1254.203125 1324.527344 1254.507812 1324.34375 1254.820312 1324.175781 C 1255.039062 1324.054688 1255.257812 1323.933594 1255.472656 1323.820312 C 1255.632812 1323.734375 1255.789062 1323.65625 1255.953125 1323.570312 C 1256.480469 1323.300781 1257.011719 1323.054688 1257.550781 1322.828125 C 1257.742188 1322.75 1257.925781 1322.664062 1258.128906 1322.589844 C 1258.222656 1322.550781 1258.328125 1322.511719 1258.425781 1322.472656 C 1258.597656 1322.398438 1258.78125 1322.339844 1258.964844 1322.28125 C 1259.214844 1322.1875 1259.472656 1322.097656 1259.734375 1322.015625 C 1260.257812 1321.851562 1260.796875 1321.714844 1261.339844 1321.582031 C 1261.496094 1321.542969 1261.652344 1321.496094 1261.820312 1321.460938 L 1262.496094 1321.332031 L 1360.039062 1296.480469 L 1360.039062 1296.507812 L 1360.046875 1296.507812 C 1362.519531 1295.816406 1365.078125 1295.363281 1367.710938 1295.179688 C 1368.59375 1295.113281 1369.492188 1295.085938 1370.386719 1295.085938 C 1371.050781 1295.085938 1371.714844 1295.101562 1372.375 1295.136719 C 1372.410156 1295.136719 1372.449219 1295.136719 1372.480469 1295.144531 C 1372.828125 1295.160156 1373.171875 1295.1875 1373.507812 1295.214844 C 1373.855469 1295.242188 1374.199219 1295.277344 1374.535156 1295.308594 C 1375.023438 1295.355469 1375.503906 1295.410156 1375.984375 1295.488281 C 1376.226562 1295.527344 1376.480469 1295.5625 1376.726562 1295.605469 C 1377.238281 1295.691406 1377.753906 1295.789062 1378.269531 1295.894531 C 1379.796875 1296.207031 1381.296875 1296.609375 1382.746094 1297.105469 C 1382.910156 1297.160156 1383.074219 1297.21875 1383.242188 1297.277344 C 1383.519531 1297.371094 1383.800781 1297.480469 1384.078125 1297.585938 C 1384.238281 1297.640625 1384.386719 1297.699219 1384.535156 1297.761719 C 1384.828125 1297.875 1385.117188 1298 1385.402344 1298.117188 C 1386.710938 1298.667969 1387.984375 1299.289062 1389.207031 1299.976562 C 1389.496094 1300.140625 1389.785156 1300.308594 1390.066406 1300.480469 C 1390.285156 1300.613281 1390.503906 1300.734375 1390.722656 1300.875 C 1391.0625 1301.082031 1391.402344 1301.296875 1391.742188 1301.527344 C 1392.070312 1301.746094 1392.394531 1301.972656 1392.714844 1302.199219 C 1393.222656 1302.554688 1393.722656 1302.921875 1394.199219 1303.304688 C 1394.445312 1303.496094 1394.6875 1303.691406 1394.925781 1303.890625 C 1395.40625 1304.277344 1395.867188 1304.683594 1396.324219 1305.105469 C 1396.539062 1305.289062 1396.75 1305.488281 1396.957031 1305.691406 C 1397.191406 1305.90625 1397.421875 1306.136719 1397.648438 1306.367188 C 1397.875 1306.578125 1398.09375 1306.804688 1398.3125 1307.039062 C 1398.335938 1307.058594 1398.355469 1307.085938 1398.371094 1307.113281 C 1398.605469 1307.367188 1398.839844 1307.617188 1399.074219 1307.878906 C 1399.3125 1308.140625 1399.539062 1308.402344 1399.765625 1308.664062 C 1399.996094 1308.921875 1400.210938 1309.195312 1400.429688 1309.464844 C 1400.71875 1309.832031 1401.003906 1310.191406 1401.285156 1310.566406 C 1401.285156 1310.566406 1401.292969 1310.566406 1401.292969 1310.574219 C 1401.589844 1310.96875 1401.882812 1311.382812 1402.171875 1311.796875 C 1402.453125 1312.214844 1402.730469 1312.632812 1403.003906 1313.058594 C 1406.753906 1319.015625 1408.933594 1326.082031 1408.933594 1333.652344 C 1408.933594 1338.976562 1407.851562 1344.050781 1405.90625 1348.664062 C 1405.828125 1348.863281 1405.738281 1349.082031 1405.636719 1349.292969 Z M 1405.636719 1349.292969 " fill-opacity="1" fill-rule="nonzero"/></svg>