<svg xmlns="http://www.w3.org/2000/svg" xmlns:xlink="http://www.w3.org/1999/xlink" width="2400" zoomAndPan="magnify" viewBox="0 0 1800 1799.999925" height="2400" preserveAspectRatio="xMidYMid meet" version="1.0"><path fill="#459844" d="M 898.007812 109.976562 C 890.425781 110.855469 883.382812 114.289062 878.011719 119.710938 L 13.328125 984.414062 C 0.25 997.597656 0.378906 1018.902344 13.582031 1031.964844 C 19.851562 1038.160156 28.292969 1041.648438 37.113281 1041.683594 L 219.773438 1041.683594 L 219.773438 1656.699219 C 219.828125 1675.167969 234.789062 1690.132812 253.277344 1690.203125 L 1550.335938 1690.203125 C 1568.800781 1690.132812 1583.765625 1675.167969 1583.839844 1656.699219 L 1583.839844 1041.699219 L 1766.496094 1041.699219 C 1785.070312 1041.628906 1800.070312 1026.519531 1800 1007.945312 C 1799.964844 999.125 1796.480469 990.683594 1790.28125 984.414062 L 1579.507812 773.640625 L 1579.507812 485.046875 C 1579.457031 466.582031 1564.472656 451.617188 1546.007812 451.542969 L 1403.335938 451.542969 C 1384.867188 451.617188 1369.902344 466.582031 1369.832031 485.046875 L 1369.832031 563.945312 L 925.582031 119.710938 C 918.359375 112.4375 908.191406 108.84375 898.007812 109.976562 Z M 898.007812 109.976562 " fill-opacity="1" fill-rule="nonzero"/></svg>