<svg xmlns="http://www.w3.org/2000/svg" xmlns:xlink="http://www.w3.org/1999/xlink" width="2400" zoomAndPan="magnify" viewBox="0 0 1800 1799.999925" height="2400" preserveAspectRatio="xMidYMid meet" version="1.0"><defs><clipPath id="2bd6f56347"><path d="M 0 180 L 1800 180 L 1800 1620 L 0 1620 Z M 0 180 " clip-rule="nonzero"/></clipPath></defs><rect x="-180" width="2160" fill="#ffffff" y="-179.999992" height="2159.99991" fill-opacity="1"/><rect x="-180" width="2160" fill="#ffffff" y="-179.999992" height="2159.99991" fill-opacity="1"/><path fill="#e09a8c" d="M 709.589844 782.402344 C 723.613281 803.421875 726.121094 836.015625 705.726562 852.046875 C 703.972656 853.433594 704.078125 854.492188 704.117188 854.890625 C 704.175781 855.53125 704.136719 856.175781 703.980469 856.796875 C 703.574219 858.425781 704.03125 859.96875 705.320312 861.382812 C 721.21875 878.71875 720.460938 903.789062 703.394531 925.257812 C 702.710938 926.132812 702.265625 927.089844 702.101562 928.070312 C 701.957031 928.9375 701.613281 929.757812 701.09375 930.464844 C 698.804688 933.617188 700.972656 935.597656 701.6875 936.25 C 717.210938 950.308594 718.671875 975.652344 713.457031 993.242188 C 710.257812 1003.976562 703.445312 1005.578125 699.671875 1005.578125 C 689.332031 1005.578125 677.734375 993.726562 668.417969 984.203125 C 665.351562 981.070312 662.460938 978.117188 660.84375 976.929688 C 659.964844 976.285156 659.160156 975.957031 658.449219 975.957031 C 658.046875 975.957031 657.652344 976.058594 657.234375 976.265625 C 656.453125 976.648438 655.601562 976.84375 654.734375 976.84375 C 654.617188 976.84375 654.289062 976.835938 654.246094 976.835938 C 653.792969 976.835938 653.503906 976.863281 653.214844 976.898438 C 644.726562 978.082031 635.976562 979.699219 627.515625 981.269531 C 619.222656 982.796875 610.652344 984.378906 602.113281 985.601562 C 599.542969 985.964844 599.300781 987.203125 599.199219 987.726562 C 599.078125 988.316406 598.871094 988.878906 598.578125 989.394531 C 598.167969 990.132812 597.921875 991 597.855469 991.972656 C 593.175781 1066.433594 573.984375 1111.597656 539.203125 1130 C 538.441406 1130.402344 536.132812 1131.625 536.917969 1134.777344 C 537.496094 1137.117188 539.667969 1139.539062 542.289062 1139.539062 C 543.117188 1139.539062 543.988281 1139.296875 544.882812 1138.824219 C 548.714844 1136.785156 552.351562 1134.449219 555.6875 1131.886719 C 556.691406 1131.109375 557.914062 1130.707031 559.144531 1130.707031 C 559.992188 1130.707031 560.851562 1130.898438 561.644531 1131.285156 C 563.585938 1132.238281 564.808594 1134.214844 564.808594 1136.371094 L 564.808594 1168.074219 C 564.808594 1170.519531 563.238281 1172.695312 560.921875 1173.460938 C 545.867188 1178.4375 522.402344 1184.367188 496.105469 1184.367188 C 448.683594 1184.367188 414.214844 1164.433594 399.050781 1128.230469 C 398.886719 1127.792969 398.730469 1127.523438 398.523438 1127.246094 C 397.183594 1125.40625 397.066406 1122.9375 398.246094 1120.984375 C 398.53125 1120.507812 398.902344 1119.683594 399.046875 1118.476562 C 405.460938 1060.949219 411.855469 1008.03125 418.59375 956.746094 C 421.011719 938.316406 424.179688 919.453125 427.246094 901.207031 C 433.296875 865.25 439.550781 828.074219 440.4375 791.933594 C 440.4375 791.652344 440.460938 791.242188 440.40625 790.867188 C 440.226562 789.605469 440.472656 788.320312 441.117188 787.214844 C 441.25 786.988281 441.371094 786.761719 441.472656 786.488281 C 444.984375 777.53125 447.960938 767.871094 451.113281 757.652344 C 461.328125 724.5 472.902344 686.925781 505.667969 670.851562 C 518.453125 664.546875 532.648438 661.390625 546.386719 658.335938 C 549.804688 657.582031 553.183594 656.832031 556.519531 656.03125 C 565.714844 653.867188 575.019531 651.273438 584.007812 648.765625 C 594.691406 645.785156 605.746094 642.699219 616.84375 640.265625 C 617.246094 640.175781 617.652344 640.136719 618.058594 640.136719 C 618.355469 640.136719 618.664062 640.160156 618.957031 640.203125 C 619.15625 640.238281 619.363281 640.253906 619.574219 640.253906 C 620.007812 640.253906 620.503906 640.195312 621.070312 640.058594 C 622.84375 639.644531 624.710938 639.421875 626.574219 639.421875 C 640.320312 639.421875 651.46875 650.8125 660.410156 659.964844 C 661.894531 661.488281 663.3125 662.941406 664.652344 664.234375 C 673.335938 672.707031 682.984375 679.671875 693.796875 687.261719 L 695.964844 688.777344 C 707.25 696.648438 718.914062 704.789062 726.839844 717.144531 C 737.886719 734.484375 728.667969 760.722656 713.5 773.433594 C 712.726562 774.117188 712.421875 774.558594 712.3125 774.753906 C 711.914062 775.496094 711.347656 776.140625 710.664062 776.636719 C 708.457031 778.25 708.085938 780.191406 709.589844 782.402344 Z M 1401.785156 1120.976562 C 1401.503906 1120.503906 1401.128906 1119.6875 1400.996094 1118.519531 C 1393.546875 1052.089844 1386.972656 997.980469 1380.3125 948.238281 C 1378.027344 931.117188 1375.074219 913.582031 1372.222656 896.632812 C 1366.433594 862.195312 1360.441406 826.582031 1359.601562 792.078125 C 1359.601562 791.660156 1359.578125 791.25 1359.628906 790.890625 C 1359.816406 789.613281 1359.566406 788.320312 1358.914062 787.203125 C 1358.78125 786.980469 1358.660156 786.769531 1358.507812 786.339844 C 1353.605469 773.855469 1349.03125 760.957031 1344.613281 748.484375 C 1341.125 738.65625 1337.523438 728.492188 1333.765625 718.554688 C 1326.742188 699.976562 1317.890625 680.988281 1294.132812 670.742188 C 1280.457031 664.820312 1265.996094 661.398438 1252.023438 658.082031 C 1249.175781 657.410156 1246.335938 656.734375 1243.496094 656.039062 C 1234.808594 653.929688 1225.992188 651.484375 1217.472656 649.125 C 1206.3125 646.015625 1194.761719 642.8125 1183.148438 640.269531 C 1182.746094 640.179688 1182.339844 640.140625 1181.9375 640.140625 C 1181.625 640.140625 1181.320312 640.164062 1181.011719 640.21875 C 1180.824219 640.246094 1180.632812 640.257812 1180.441406 640.257812 C 1179.996094 640.257812 1179.484375 640.191406 1178.972656 640.078125 C 1177.109375 639.628906 1175.199219 639.40625 1173.292969 639.40625 C 1159.527344 639.40625 1148.304688 650.980469 1139.28125 660.273438 C 1136.714844 662.925781 1134.285156 665.425781 1132.089844 667.371094 C 1122.996094 675.394531 1113.277344 682.25 1102.980469 689.507812 L 1098.664062 692.539062 C 1088.066406 699.921875 1073.554688 710.027344 1070.023438 724.289062 C 1065.75 741.515625 1072.523438 761.722656 1086.488281 773.429688 C 1087.027344 773.886719 1087.441406 774.359375 1087.773438 774.910156 C 1088.160156 775.546875 1088.675781 776.105469 1089.273438 776.542969 C 1091.546875 778.207031 1091.9375 780.183594 1090.441406 782.417969 C 1076.394531 803.382812 1073.859375 835.964844 1094.242188 852.027344 C 1096.011719 853.433594 1095.910156 854.496094 1095.871094 854.898438 C 1095.8125 855.53125 1095.863281 856.171875 1096.011719 856.792969 C 1096.429688 858.476562 1096 859.933594 1094.671875 861.382812 C 1078.824219 878.710938 1079.574219 903.78125 1096.601562 925.257812 C 1097.257812 926.078125 1097.671875 926.941406 1097.855469 927.835938 C 1097.984375 928.78125 1098.347656 929.679688 1098.917969 930.460938 C 1100.460938 932.539062 1100.257812 934.480469 1098.3125 936.242188 C 1083.1875 949.984375 1080.511719 976.164062 1086.667969 993.515625 C 1090.320312 1003.882812 1097.0625 1005.425781 1100.757812 1005.425781 L 1100.765625 1005.425781 C 1110.9375 1005.425781 1121.570312 994.488281 1130.957031 984.835938 C 1134.207031 981.492188 1137.28125 978.320312 1139.183594 976.933594 C 1140.066406 976.292969 1140.878906 975.960938 1141.589844 975.960938 C 1141.992188 975.960938 1142.378906 976.058594 1142.796875 976.265625 C 1143.574219 976.648438 1144.601562 976.84375 1145.507812 976.84375 C 1145.632812 976.84375 1145.753906 976.835938 1145.871094 976.832031 C 1146.183594 976.832031 1146.5 976.859375 1146.699219 976.875 C 1155.308594 978.082031 1164.058594 979.699219 1172.519531 981.269531 C 1180.8125 982.796875 1189.386719 984.378906 1197.914062 985.601562 C 1200.425781 985.964844 1200.683594 987.125 1200.808594 987.753906 C 1200.9375 988.359375 1201.164062 988.933594 1201.480469 989.460938 C 1201.886719 990.152344 1202.117188 990.96875 1202.175781 991.945312 C 1206.863281 1066.453125 1226.046875 1111.613281 1260.828125 1130.003906 C 1261.589844 1130.402344 1263.890625 1131.621094 1263.113281 1134.765625 C 1262.53125 1137.113281 1260.355469 1139.542969 1257.734375 1139.542969 C 1256.910156 1139.542969 1256.042969 1139.296875 1255.160156 1138.828125 C 1251.320312 1136.789062 1247.683594 1134.449219 1244.359375 1131.886719 C 1243.347656 1131.109375 1242.125 1130.707031 1240.894531 1130.707031 C 1240.042969 1130.707031 1239.1875 1130.898438 1238.386719 1131.285156 C 1236.453125 1132.238281 1235.226562 1134.214844 1235.226562 1136.371094 L 1235.226562 1168.074219 C 1235.226562 1170.519531 1236.792969 1172.695312 1239.117188 1173.460938 C 1254.171875 1178.4375 1277.636719 1184.367188 1303.933594 1184.367188 C 1351.355469 1184.367188 1385.828125 1164.433594 1401.03125 1128.101562 C 1401.152344 1127.800781 1401.304688 1127.527344 1401.503906 1127.253906 C 1402.851562 1125.410156 1402.964844 1122.933594 1401.785156 1120.976562 Z M 1401.785156 1120.976562 " fill-opacity="1" fill-rule="nonzero"/><path fill="#bf6c4f" d="M 564.804688 1190.972656 L 564.804688 1496.023438 C 564.804688 1499.152344 562.273438 1501.695312 559.140625 1501.695312 L 377.460938 1501.695312 C 375.71875 1501.695312 374.082031 1500.894531 373.007812 1499.527344 C 371.933594 1498.171875 371.539062 1496.378906 371.953125 1494.695312 C 372.195312 1493.667969 371.953125 1492.609375 371.195312 1491.460938 C 339.664062 1442.558594 334.039062 1378.292969 332.550781 1334.203125 C 330.691406 1278.949219 339.199219 1222.414062 357.148438 1170.710938 C 357.875 1168.574219 357.269531 1167.492188 356.746094 1166.863281 C 355.585938 1165.46875 355.164062 1163.601562 355.613281 1161.84375 C 355.910156 1160.683594 355.695312 1159.488281 354.972656 1158.1875 C 347.726562 1145.144531 345.914062 1132.25 349.59375 1119.855469 C 353.929688 1105.25 366.074219 1092.046875 383.796875 1082.695312 C 384.625 1082.25 385.535156 1082.039062 386.449219 1082.039062 C 387.566406 1082.039062 388.683594 1082.367188 389.652344 1083.027344 C 391.386719 1084.21875 392.320312 1086.269531 392.074219 1088.359375 C 390.964844 1097.949219 389.878906 1107.570312 388.796875 1117.167969 L 388.507812 1119.785156 C 388.40625 1120.625 388.460938 1121.292969 388.679688 1121.847656 C 389.296875 1123.441406 389.164062 1125.226562 388.3125 1126.714844 C 388.160156 1126.976562 387.699219 1127.789062 388.496094 1129.703125 C 412.152344 1186.160156 467.367188 1194.585938 498.171875 1194.585938 C 517.335938 1194.585938 537.851562 1191.460938 557.503906 1185.539062 C 558.042969 1185.378906 558.597656 1185.300781 559.144531 1185.300781 C 560.34375 1185.300781 561.535156 1185.6875 562.523438 1186.425781 C 563.960938 1187.492188 564.804688 1189.179688 564.804688 1190.972656 Z M 1467.625 1326.617188 C 1467.757812 1270.882812 1459.4375 1218.433594 1442.898438 1170.746094 C 1442.160156 1168.578125 1442.765625 1167.492188 1443.285156 1166.863281 C 1444.445312 1165.46875 1444.867188 1163.597656 1444.421875 1161.839844 C 1444.128906 1160.683594 1444.335938 1159.488281 1445.058594 1158.1875 C 1452.3125 1145.144531 1454.125 1132.253906 1450.449219 1119.863281 C 1446.109375 1105.253906 1433.957031 1092.046875 1416.238281 1082.695312 C 1415.398438 1082.25 1414.492188 1082.039062 1413.589844 1082.039062 C 1412.464844 1082.039062 1411.347656 1082.367188 1410.386719 1083.03125 C 1408.644531 1084.21875 1407.710938 1086.269531 1407.957031 1088.359375 C 1409.179688 1098.863281 1410.359375 1109.316406 1411.535156 1119.816406 C 1411.632812 1120.625 1411.570312 1121.339844 1411.359375 1121.890625 C 1410.742188 1123.476562 1410.871094 1125.246094 1411.703125 1126.722656 C 1412.113281 1127.457031 1412.058594 1128.457031 1411.542969 1129.691406 C 1387.867188 1186.152344 1332.644531 1194.582031 1301.832031 1194.582031 C 1282.675781 1194.582031 1262.167969 1191.449219 1242.527344 1185.542969 C 1241.996094 1185.378906 1241.445312 1185.304688 1240.894531 1185.304688 C 1239.6875 1185.304688 1238.496094 1185.6875 1237.511719 1186.425781 C 1236.074219 1187.492188 1235.222656 1189.179688 1235.222656 1190.972656 L 1235.222656 1496.023438 C 1235.222656 1499.15625 1237.761719 1501.695312 1240.894531 1501.695312 L 1422.574219 1501.695312 C 1424.328125 1501.695312 1425.984375 1500.882812 1427.054688 1499.492188 C 1428.128906 1498.105469 1428.5 1496.292969 1428.058594 1494.601562 C 1427.96875 1494.257812 1427.699219 1493.222656 1428.863281 1491.421875 C 1454.355469 1451.855469 1467.398438 1396.402344 1467.625 1326.617188 Z M 1467.625 1326.617188 " fill-opacity="1" fill-rule="nonzero"/><path fill="#897a76" d="M 681.070312 651.824219 C 681.070312 654.039062 679.792969 656.042969 677.78125 656.964844 C 677.023438 657.324219 676.210938 657.496094 675.402344 657.496094 C 674.082031 657.496094 672.773438 657.027344 671.734375 656.144531 C 669.492188 654.238281 667.21875 652.164062 664.589844 649.628906 C 654.015625 639.484375 641.167969 629.101562 626.121094 629.101562 C 623.652344 629.101562 621.128906 629.378906 618.617188 629.929688 C 618.214844 630.015625 617.808594 630.0625 617.398438 630.0625 C 617.144531 630.0625 616.882812 630.046875 616.625 630.011719 C 616.386719 629.980469 616.152344 629.960938 615.898438 629.960938 C 615.453125 629.960938 614.964844 630.019531 614.441406 630.125 C 603.222656 632.496094 592.039062 635.492188 582.433594 638.105469 C 581.9375 638.238281 581.441406 638.304688 580.941406 638.304688 C 579.714844 638.304688 578.496094 637.90625 577.503906 637.140625 C 576.097656 636.066406 575.273438 634.402344 575.273438 632.636719 L 575.273438 303.992188 C 575.273438 300.863281 577.8125 298.320312 580.941406 298.320312 L 675.398438 298.320312 C 678.535156 298.320312 681.070312 300.863281 681.070312 303.992188 Z M 580.945312 1501.695312 L 675.402344 1501.695312 C 678.535156 1501.695312 681.070312 1499.152344 681.070312 1496.023438 L 681.070312 1011.605469 C 681.070312 1009.945312 680.347656 1008.375 679.09375 1007.296875 C 676.136719 1004.765625 673.332031 1001.984375 670.363281 999.035156 C 666.691406 995.386719 662.894531 991.613281 658.730469 988.316406 C 657.722656 987.527344 656.484375 987.101562 655.210938 987.101562 C 654.9375 987.101562 654.65625 987.117188 654.378906 987.160156 C 646.785156 988.296875 639.148438 989.707031 631.753906 991.070312 C 625.347656 992.25 618.941406 993.433594 612.503906 994.457031 C 609.910156 994.859375 607.945312 996.992188 607.738281 999.597656 C 603.851562 1048.265625 593.097656 1085.59375 575.761719 1110.546875 C 574.746094 1112.015625 574.480469 1113.882812 575.042969 1115.578125 C 575.195312 1116.039062 575.273438 1116.625 575.273438 1117.320312 L 575.273438 1496.027344 C 575.273438 1499.152344 577.816406 1501.695312 580.945312 1501.695312 Z M 95.566406 1495.980469 C 95.566406 1499.03125 97.984375 1501.539062 101.03125 1501.644531 C 102.277344 1501.695312 103.476562 1501.695312 104.679688 1501.695312 L 195.695312 1501.695312 C 198.824219 1501.695312 201.363281 1499.152344 201.363281 1496.023438 L 201.363281 303.992188 C 201.363281 300.863281 198.824219 298.320312 195.695312 298.320312 L 101.191406 298.320312 C 99.496094 298.320312 97.890625 299.082031 96.816406 300.390625 C 95.738281 301.703125 95.304688 303.425781 95.628906 305.082031 C 95.59375 304.929688 95.574219 304.757812 95.566406 304.730469 Z M 69.839844 287.855469 L 1719.996094 287.855469 C 1721.625 287.855469 1723.332031 287.894531 1725.082031 287.929688 C 1727.011719 287.976562 1729 288.015625 1731 288.015625 C 1738.734375 288.015625 1747.605469 287.425781 1754.832031 283.011719 C 1772.402344 272.238281 1780.148438 254.332031 1775.054688 236.285156 C 1769.585938 216.894531 1751.558594 203.863281 1730.195312 203.863281 L 79.996094 203.863281 C 78.367188 203.863281 76.660156 203.824219 74.914062 203.785156 C 72.980469 203.742188 70.996094 203.703125 68.996094 203.703125 C 61.285156 203.703125 52.429688 204.292969 45.199219 208.71875 C 27.621094 219.496094 19.867188 237.414062 24.957031 255.453125 C 30.425781 274.835938 48.464844 287.855469 69.839844 287.855469 Z M 1124.585938 656.75 C 1125.890625 656.75 1127.179688 656.304688 1128.226562 655.4375 C 1131.945312 652.324219 1135.625 649.210938 1139.355469 646.003906 C 1151.183594 635.855469 1161.578125 629.09375 1173.882812 629.09375 C 1176.339844 629.09375 1178.878906 629.378906 1181.417969 629.933594 C 1181.820312 630.015625 1182.226562 630.058594 1182.628906 630.058594 C 1182.886719 630.058594 1183.148438 630.042969 1183.402344 630.011719 C 1183.636719 629.976562 1183.882812 629.960938 1184.132812 629.960938 C 1184.582031 629.960938 1185.070312 630.015625 1185.550781 630.109375 C 1196.417969 632.429688 1207.378906 635.324219 1217.59375 638.105469 C 1218.085938 638.238281 1218.589844 638.304688 1219.085938 638.304688 C 1220.320312 638.304688 1221.53125 637.90625 1222.53125 637.136719 C 1223.933594 636.066406 1224.753906 634.402344 1224.753906 632.632812 L 1224.753906 303.992188 C 1224.753906 300.863281 1222.21875 298.320312 1219.085938 298.320312 L 1124.585938 298.320312 C 1121.453125 298.320312 1118.917969 300.863281 1118.917969 303.992188 L 1118.917969 651.085938 C 1118.917969 653.285156 1120.191406 655.289062 1122.183594 656.214844 C 1122.949219 656.578125 1123.773438 656.75 1124.585938 656.75 Z M 1699.042969 298.371094 C 1697.804688 298.320312 1696.554688 298.320312 1695.308594 298.320312 L 1604.296875 298.320312 C 1601.167969 298.320312 1598.628906 300.863281 1598.628906 303.992188 L 1598.628906 1496.023438 C 1598.628906 1499.15625 1601.167969 1501.695312 1604.296875 1501.695312 L 1698.800781 1501.695312 C 1701.929688 1501.695312 1704.46875 1499.15625 1704.46875 1496.023438 L 1704.46875 304.726562 C 1704.652344 303.222656 1704.230469 301.703125 1703.28125 300.507812 C 1702.246094 299.214844 1700.699219 298.433594 1699.042969 298.371094 Z M 1730.195312 1512.160156 L 79.996094 1512.160156 C 78.390625 1512.160156 76.714844 1512.125 74.992188 1512.089844 C 73.09375 1512.050781 71.148438 1512.003906 69.183594 1512.003906 C 61.402344 1512.003906 52.472656 1512.601562 45.199219 1517.007812 C 27.621094 1527.792969 19.867188 1545.703125 24.957031 1563.742188 C 30.425781 1583.132812 48.464844 1596.152344 69.839844 1596.152344 L 1719.996094 1596.152344 C 1721.625 1596.152344 1723.332031 1596.191406 1725.082031 1596.230469 C 1727.015625 1596.273438 1729.007812 1596.3125 1731.011719 1596.3125 C 1738.734375 1596.3125 1747.605469 1595.722656 1754.832031 1591.304688 C 1772.40625 1580.535156 1780.148438 1562.625 1775.054688 1544.574219 C 1769.585938 1525.1875 1751.558594 1512.160156 1730.195312 1512.160156 Z M 1118.917969 1496.023438 C 1118.917969 1499.152344 1121.457031 1501.695312 1124.585938 1501.695312 L 1219.085938 1501.695312 C 1222.222656 1501.695312 1224.757812 1499.152344 1224.757812 1496.023438 L 1224.757812 1117.316406 C 1224.757812 1116.621094 1224.839844 1116.039062 1224.988281 1115.578125 C 1225.183594 1114.992188 1225.277344 1114.347656 1225.277344 1113.738281 C 1225.277344 1112.585938 1224.929688 1111.457031 1224.265625 1110.507812 C 1206.9375 1085.554688 1196.183594 1048.238281 1192.292969 999.597656 C 1192.082031 996.980469 1190.105469 994.855469 1187.515625 994.457031 C 1180.96875 993.425781 1174.4375 992.21875 1167.898438 991.007812 C 1160.640625 989.664062 1153.128906 988.277344 1145.65625 987.160156 C 1145.375 987.117188 1145.097656 987.101562 1144.820312 987.101562 C 1143.539062 987.101562 1142.285156 987.535156 1141.273438 988.34375 C 1137.347656 991.492188 1133.601562 995.261719 1129.976562 998.90625 C 1127.03125 1001.871094 1123.976562 1004.945312 1120.875 1007.625 C 1119.636719 1008.703125 1118.917969 1010.269531 1118.917969 1011.910156 Z M 1118.917969 1496.023438 " fill-opacity="1" fill-rule="nonzero"/><path fill="#ffffff" d="M 401.441406 1210.695312 C 404.777344 1214.636719 406.242188 1215.886719 405.558594 1220.886719 C 405.4375 1221.734375 403.636719 1222.390625 403.3125 1222.566406 C 401.683594 1223.460938 399.550781 1223.605469 397.925781 1222.566406 C 387.554688 1215.921875 378.964844 1204.304688 372.878906 1190.59375 C 372.480469 1191.238281 371.941406 1191.746094 371.277344 1192.089844 C 370.238281 1197.300781 367.730469 1202.179688 366.90625 1207.511719 C 365.179688 1218.691406 364.496094 1229.867188 363.996094 1241.164062 C 363.171875 1259.960938 363.410156 1278.796875 362.523438 1297.585938 C 360.789062 1333.6875 359.320312 1370.714844 366.234375 1406.394531 C 369.824219 1424.875 374.734375 1443.164062 382.746094 1460.28125 C 388.605469 1472.777344 390.539062 1486.394531 398.410156 1497.992188 C 399.160156 1499.097656 398.898438 1500.628906 398.097656 1501.695312 L 389.484375 1501.695312 C 381.109375 1499.277344 374.230469 1493.902344 368.488281 1486.953125 C 353.804688 1462.578125 345.140625 1434.820312 340.007812 1407.765625 C 334.261719 1371.308594 335.386719 1334.519531 338.535156 1297.585938 C 339.539062 1285.71875 341.976562 1206.648438 359.253906 1189.109375 C 356.863281 1187.636719 354.78125 1185.792969 352.988281 1183.675781 C 354.339844 1179.339844 355.660156 1174.980469 357.144531 1170.710938 C 357.875 1168.578125 357.269531 1167.492188 356.746094 1166.863281 C 355.582031 1165.46875 355.160156 1163.601562 355.613281 1161.84375 C 355.90625 1160.683594 355.695312 1159.488281 354.972656 1158.1875 C 349.734375 1148.769531 347.382812 1139.429688 347.835938 1130.304688 C 353.03125 1114.59375 362.621094 1098.953125 374.421875 1089.695312 C 379.527344 1085.679688 386.578125 1085.265625 392.054688 1087.589844 C 392.0625 1087.84375 392.101562 1088.101562 392.070312 1088.359375 C 390.960938 1097.949219 389.875 1107.574219 388.792969 1117.167969 L 388.503906 1119.785156 C 388.402344 1120.625 388.457031 1121.292969 388.675781 1121.847656 C 388.871094 1122.347656 388.960938 1122.863281 389.007812 1123.382812 C 387.179688 1125.890625 385.3125 1128.378906 383.457031 1130.875 C 383.34375 1146.367188 382.71875 1161.847656 386.335938 1177.269531 C 389.21875 1189.523438 393.191406 1200.941406 401.441406 1210.695312 Z M 693.796875 687.261719 C 682.984375 679.675781 673.332031 672.710938 664.652344 664.238281 C 663.3125 662.941406 661.894531 661.492188 660.410156 659.96875 C 658.925781 658.449219 657.375 656.867188 655.761719 655.289062 C 637.582031 648.042969 618.691406 644.296875 599.253906 644.59375 C 594.117188 645.953125 589.019531 647.367188 584.007812 648.765625 C 575.019531 651.273438 565.710938 653.871094 556.519531 656.03125 C 553.183594 656.832031 549.804688 657.582031 546.382812 658.339844 C 541.621094 659.402344 536.796875 660.484375 532.003906 661.691406 C 492.058594 682.019531 466.476562 717.453125 452.765625 760.339844 C 436.234375 812.070312 435.734375 868.675781 425.707031 921.832031 C 423.59375 933.027344 421.410156 944.210938 419.214844 955.390625 C 419.214844 954.308594 419.234375 953.230469 419.230469 952.152344 C 419.023438 953.6875 418.789062 955.226562 418.589844 956.75 C 411.851562 1008.035156 405.460938 1060.949219 399.046875 1118.480469 C 398.902344 1119.6875 398.527344 1120.507812 398.246094 1120.988281 C 397.949219 1121.476562 397.734375 1121.992188 397.605469 1122.527344 C 397.574219 1123.1875 397.539062 1123.84375 397.511719 1124.503906 C 397.613281 1125.472656 397.929688 1126.421875 398.523438 1127.246094 C 398.730469 1127.523438 398.886719 1127.796875 399.050781 1128.230469 C 400.945312 1132.738281 403.132812 1136.996094 405.605469 1141 C 411.832031 1121.652344 413.792969 1101.535156 416.257812 1081.441406 C 420.980469 1095.050781 427.164062 1107.75 435.335938 1118.289062 C 437.621094 1121.226562 441.640625 1117.953125 441.03125 1114.972656 C 437.378906 1097.023438 430.449219 1079.828125 426.753906 1061.78125 C 425.25 1054.484375 424.152344 1047.097656 423.285156 1039.671875 C 428.59375 1012.839844 433.902344 986.050781 439.902344 959.324219 C 451.542969 907.546875 456.625 855.25 465.949219 803.128906 C 473.996094 758.117188 490.101562 715.390625 529.425781 688.933594 C 553.960938 672.421875 583.820312 664.355469 613.210938 666.136719 C 643.761719 667.984375 673.941406 684.894531 702.445312 694.753906 C 703.167969 695.007812 703.863281 694.992188 704.535156 694.875 C 701.695312 692.785156 698.820312 690.773438 695.964844 688.78125 Z M 121.960938 1086.808594 C 121.960938 1096.5 130.050781 1104.59375 139.742188 1104.59375 C 149.4375 1104.59375 157.527344 1096.5 157.527344 1086.808594 C 157.527344 1077.117188 149.4375 1069.023438 139.742188 1069.023438 C 130.050781 1069.023438 121.960938 1077.117188 121.960938 1086.808594 Z M 399.558594 1149.835938 C 398.480469 1148.304688 397.429688 1146.71875 396.410156 1145.085938 C 396.382812 1145.523438 396.367188 1145.960938 396.332031 1146.402344 C 396.199219 1148.691406 397.8125 1149.796875 399.558594 1149.835938 Z M 302.664062 1551.175781 C 274.976562 1531.390625 231.894531 1536.550781 199.734375 1537.726562 C 180.191406 1538.441406 160.660156 1539.308594 141.101562 1539.59375 C 121.550781 1539.878906 100.707031 1537.5 81.832031 1543.179688 C 77.984375 1544.335938 77.3125 1549.480469 80.730469 1551.589844 C 108.796875 1568.859375 151.285156 1564.375 182.957031 1564.726562 C 202.503906 1564.949219 222.0625 1565.644531 241.59375 1565.613281 C 261.644531 1565.574219 281.902344 1568.597656 301.234375 1562.101562 C 306.378906 1560.375 306.90625 1554.203125 302.664062 1551.175781 Z M 1728.773438 1553.558594 C 1707.097656 1543.242188 1678.992188 1545.984375 1655.574219 1546.894531 C 1627.554688 1547.988281 1601.605469 1552.625 1575.070312 1561.808594 C 1571.339844 1563.097656 1572.210938 1568.035156 1575.96875 1568.433594 C 1602.808594 1571.257812 1628.65625 1571.558594 1655.574219 1569.691406 C 1679.160156 1568.058594 1707.132812 1569.59375 1728.773438 1559.117188 C 1730.863281 1558.105469 1730.886719 1554.566406 1728.773438 1553.558594 Z M 345.933594 1539.917969 C 341.65625 1539.917969 338.363281 1541.675781 335.195312 1544.371094 C 334.75 1544.742188 334.3125 1545.121094 333.867188 1545.492188 C 327.496094 1550.914062 328.324219 1561.625 333.867188 1567.179688 C 339.425781 1572.734375 350.121094 1573.542969 355.550781 1567.179688 C 355.929688 1566.738281 356.300781 1566.296875 356.675781 1565.855469 C 359.375 1562.691406 361.132812 1559.390625 361.132812 1555.109375 C 361.132812 1551.101562 359.515625 1547.207031 356.675781 1544.371094 C 353.839844 1541.535156 349.949219 1539.917969 345.933594 1539.917969 Z M 154.785156 860.117188 C 153.457031 826.214844 152.257812 792.320312 150.390625 758.445312 C 148.671875 727.238281 150.40625 692.472656 141.515625 662.355469 C 138.460938 651.984375 123.5625 651.9375 120.527344 662.355469 C 111.761719 692.417969 114.515625 727.371094 114.554688 758.445312 C 114.605469 792.367188 116.046875 826.21875 117.375 860.117188 C 118.703125 893.992188 119.152344 928.003906 121.890625 961.789062 C 123.550781 982.398438 119.597656 1017.957031 137.402344 1032.457031 C 139.832031 1034.433594 142.566406 1034.480469 144.992188 1032.457031 C 162.613281 1017.742188 156.710938 982.234375 157.597656 961.789062 C 159.078125 928.046875 156.105469 893.84375 154.785156 860.117188 Z M 600.960938 1290.382812 C 601.058594 1281.027344 602.40625 1272.890625 598.175781 1264.441406 C 597.488281 1263.0625 595.597656 1263.035156 594.5625 1263.976562 C 579.039062 1278.175781 583.15625 1313.195312 584.15625 1332.019531 C 585.664062 1360.363281 590.144531 1387.417969 596.855469 1414.898438 C 597.910156 1419.214844 604.234375 1418.105469 604.386719 1413.875 C 605.371094 1386.40625 603.246094 1359.484375 601.96875 1332.019531 C 601.328125 1318.167969 600.824219 1304.246094 600.960938 1290.382812 Z M 1401.503906 1127.257812 C 1402.851562 1125.410156 1402.964844 1122.933594 1401.785156 1120.976562 C 1401.503906 1120.503906 1401.128906 1119.6875 1400.996094 1118.515625 C 1397.292969 1085.519531 1393.808594 1055.574219 1390.425781 1027.679688 C 1390.257812 1026.632812 1390.089844 1025.582031 1389.921875 1024.542969 C 1389.945312 1024.382812 1389.96875 1024.226562 1389.984375 1024.070312 C 1386.707031 997.195312 1383.519531 972.195312 1380.3125 948.234375 C 1378.027344 931.113281 1375.074219 913.582031 1372.222656 896.632812 C 1366.433594 862.195312 1360.441406 826.578125 1359.601562 792.074219 C 1359.601562 791.660156 1359.578125 791.246094 1359.628906 790.890625 C 1359.816406 789.613281 1359.566406 788.316406 1358.914062 787.199219 C 1358.78125 786.976562 1358.660156 786.765625 1358.507812 786.339844 C 1353.605469 773.851562 1349.03125 760.957031 1344.613281 748.480469 C 1341.125 738.652344 1337.523438 728.492188 1333.765625 718.554688 C 1331.464844 712.464844 1328.953125 706.347656 1325.808594 700.496094 C 1313.125 686.472656 1297.890625 674.9375 1280.269531 665.644531 C 1270.882812 662.625 1261.355469 660.296875 1252.023438 658.082031 C 1249.175781 657.410156 1246.335938 656.734375 1243.496094 656.039062 C 1234.808594 653.929688 1225.992188 651.484375 1217.472656 649.121094 C 1209.175781 646.816406 1200.664062 644.449219 1192.070312 642.339844 C 1178.574219 642.195312 1165.230469 643.859375 1152.679688 647.722656 C 1147.757812 651.539062 1143.300781 656.132812 1139.28125 660.273438 C 1136.714844 662.925781 1134.285156 665.425781 1132.089844 667.371094 C 1129.503906 669.652344 1126.863281 671.820312 1124.183594 673.945312 C 1125.402344 674.195312 1126.785156 674.027344 1128.28125 673.210938 C 1170.699219 649.980469 1229.597656 666.421875 1270.160156 686.628906 C 1306.195312 704.578125 1325.570312 736.066406 1336.914062 771.929688 C 1343.179688 799.15625 1347.042969 826.765625 1349.007812 856.441406 C 1350.753906 882.851562 1352.246094 909.191406 1355.578125 935.472656 C 1358.023438 954.796875 1360.003906 977.316406 1366.988281 996.761719 C 1367.851562 1001.222656 1368.617188 1005.578125 1369.136719 1009.761719 C 1369.917969 1015.984375 1370.710938 1022.203125 1371.511719 1028.417969 C 1367.730469 1060.523438 1360.191406 1090.632812 1349.210938 1122.355469 C 1348.242188 1125.132812 1352.289062 1127.539062 1354.21875 1125.265625 C 1365.191406 1112.335938 1372.644531 1097.183594 1377.984375 1081.128906 C 1378.144531 1082.566406 1378.339844 1084.015625 1378.5 1085.460938 C 1380.433594 1102.785156 1377.160156 1130.78125 1391.800781 1143.050781 C 1392.085938 1143.289062 1392.386719 1143.398438 1392.679688 1143.542969 C 1395.882812 1138.773438 1398.707031 1133.65625 1401.03125 1128.101562 C 1401.152344 1127.800781 1401.300781 1127.527344 1401.503906 1127.257812 Z M 1651.570312 256.269531 C 1657.203125 255.117188 1656.460938 247.179688 1651.570312 245.625 C 1622.734375 236.472656 1568.332031 219.722656 1540.964844 238.519531 C 1537.269531 241.054688 1536.960938 246.363281 1540.964844 248.839844 C 1554.972656 257.511719 1573.378906 256.90625 1589.410156 258.125 C 1610.128906 259.699219 1631.125 260.449219 1651.570312 256.269531 Z M 1663.183594 1055.617188 C 1682.957031 1055.617188 1682.957031 1024.957031 1663.183594 1024.957031 C 1643.410156 1024.957031 1643.410156 1055.617188 1663.183594 1055.617188 Z M 151.628906 254.625 C 177.195312 256.023438 202.699219 256.585938 228.304688 256.742188 C 253.757812 256.898438 278.960938 256.242188 304.335938 254.183594 C 325.066406 252.492188 348.9375 250.632812 368.144531 242.097656 C 370.246094 241.164062 370.25 237.46875 368.144531 236.539062 C 350.628906 228.777344 331.617188 228.96875 312.730469 228.5 C 287.429688 227.878906 262.089844 229.011719 236.792969 229.457031 C 211.242188 229.914062 185.703125 229.589844 160.167969 230.417969 C 137.949219 231.140625 110.539062 228.824219 90.769531 240.507812 C 89.472656 241.269531 89.480469 243.183594 90.769531 243.949219 C 108.292969 254.367188 131.792969 253.550781 151.628906 254.625 Z M 431.929688 254.496094 C 451.503906 254.496094 451.503906 224.136719 431.929688 224.136719 C 412.359375 224.136719 412.359375 254.496094 431.929688 254.496094 Z M 1646.179688 830.910156 C 1646.929688 861.367188 1648.574219 891.953125 1649.910156 922.394531 C 1650.910156 945.324219 1645.214844 974.441406 1660.625 993.421875 C 1662.523438 995.757812 1666.714844 995.523438 1668.648438 993.421875 C 1684.308594 976.421875 1684.417969 951.628906 1685.550781 929.769531 C 1686.992188 902.039062 1684.839844 874.105469 1683.433594 846.398438 C 1681.996094 818.042969 1679.777344 789.757812 1679.285156 761.351562 C 1679.03125 746.25 1678.875 731.199219 1679.492188 716.097656 C 1680.023438 703.160156 1682 690.171875 1677.253906 677.90625 C 1675.429688 673.191406 1669.429688 670.640625 1665.46875 674.792969 C 1650.113281 690.875 1649.898438 717.476562 1647.644531 738.542969 C 1644.378906 769.164062 1645.421875 800.1875 1646.179688 830.910156 Z M 1437.390625 1187.742188 C 1436.429688 1185.886719 1434.753906 1185.332031 1433.15625 1185.59375 C 1435.164062 1181.296875 1435.90625 1175.453125 1437.140625 1172.144531 C 1441.597656 1160.277344 1446.992188 1148.109375 1448.246094 1135.367188 C 1449.125 1126.523438 1445.558594 1111.136719 1438.601562 1099.601562 C 1433.589844 1094.085938 1427.246094 1089.101562 1419.859375 1084.785156 C 1416.984375 1084.464844 1413.945312 1084.84375 1410.726562 1086.164062 C 1409.347656 1086.730469 1408.167969 1087.800781 1408.074219 1089.367188 C 1408.25 1090.902344 1408.417969 1092.4375 1408.597656 1093.96875 C 1409.625 1098.261719 1412.035156 1100.746094 1416.351562 1104.34375 C 1426.863281 1113.109375 1431.722656 1121.636719 1431.605469 1135.367188 C 1431.449219 1152.976562 1420.332031 1169.769531 1423.550781 1187.480469 C 1423.804688 1188.90625 1425.210938 1190.160156 1426.5625 1190.5 C 1426.855469 1190.578125 1427.484375 1190.835938 1427.890625 1190.738281 C 1428.351562 1190.621094 1428.71875 1190.363281 1429.125 1190.15625 C 1429.125 1190.5 1429.082031 1190.839844 1429.171875 1191.210938 C 1441.566406 1243.003906 1448.324219 1293.625 1445.402344 1346.976562 C 1443.84375 1375.441406 1437.726562 1403.40625 1429.621094 1430.65625 C 1422.949219 1453.058594 1415.761719 1479.164062 1401.128906 1497.796875 C 1400.125 1499.074219 1399.445312 1500.382812 1398.992188 1501.695312 L 1422.578125 1501.695312 C 1424.328125 1501.695312 1425.984375 1500.882812 1427.058594 1499.492188 C 1428.128906 1498.101562 1428.503906 1496.289062 1428.058594 1494.601562 C 1427.96875 1494.257812 1427.703125 1493.222656 1428.863281 1491.421875 C 1454.359375 1451.851562 1467.398438 1396.402344 1467.628906 1326.617188 C 1467.683594 1303.945312 1466.257812 1281.855469 1463.535156 1260.371094 C 1457.917969 1235.105469 1449.164062 1210.570312 1437.390625 1187.742188 Z M 1197.09375 1264.152344 C 1196.972656 1262.015625 1193.613281 1261.304688 1193.183594 1263.621094 C 1186.855469 1297.171875 1184.003906 1330.140625 1183.09375 1364.261719 C 1182.648438 1380.960938 1182.265625 1397.625 1182.757812 1414.320312 C 1183.199219 1429.34375 1181.652344 1444.449219 1189.414062 1457.664062 C 1190.640625 1459.746094 1193.753906 1459.746094 1194.976562 1457.664062 C 1208.234375 1434.988281 1201.558594 1398.03125 1201.042969 1372.605469 C 1200.304688 1336.351562 1199.203125 1300.355469 1197.09375 1264.152344 Z M 1416.457031 1513.117188 C 1416.820312 1512.8125 1417.160156 1512.480469 1417.523438 1512.160156 L 1400.828125 1512.160156 C 1404.242188 1516.324219 1410.628906 1517.921875 1416.457031 1513.117188 Z M 1416.457031 1513.117188 " fill-opacity="1" fill-rule="nonzero"/><g clip-path="url(#2bd6f56347)"><path fill="#421510" d="M 1741.484375 1488.988281 C 1736.925781 1488.726562 1732.378906 1488.648438 1728 1488.632812 L 1728 311.601562 C 1751.140625 310.757812 1775.324219 305.582031 1789.625 282.21875 C 1802.046875 261.960938 1802.875 235.03125 1791.746094 213.625 C 1781.570312 194.054688 1763.265625 182.046875 1741.484375 180.6875 C 1736.222656 180.382812 1731.0625 180.320312 1724.941406 180.320312 L 104.679688 180.328125 C 100.9375 180.328125 97.074219 180.25 93.144531 180.167969 C 88.972656 180.082031 84.734375 180 80.472656 180 C 53.445312 180 26.246094 183.574219 10.367188 209.5 C -2.046875 229.753906 -2.871094 256.675781 8.257812 278.085938 C 18.4375 297.664062 36.742188 309.671875 58.472656 311.027344 C 62.851562 311.300781 67.128906 311.378906 72.03125 311.394531 L 72.03125 1488.414062 C 48.847656 1489.265625 24.644531 1494.441406 10.363281 1517.796875 C -2.046875 1538.050781 -2.871094 1564.972656 8.257812 1586.382812 C 18.4375 1605.960938 36.742188 1617.96875 58.460938 1619.320312 C 63.667969 1619.660156 68.707031 1619.703125 73.371094 1619.703125 L 1695.308594 1619.6875 C 1699.054688 1619.6875 1702.917969 1619.765625 1706.847656 1619.851562 C 1711.011719 1619.933594 1715.253906 1620.015625 1719.511719 1620.015625 C 1746.539062 1620.015625 1773.738281 1616.441406 1789.625 1590.515625 C 1802.042969 1570.253906 1802.871094 1543.324219 1791.742188 1521.914062 C 1781.566406 1502.339844 1763.261719 1490.34375 1741.484375 1488.988281 Z M 1751.871094 1586.472656 C 1743.015625 1591.882812 1730.066406 1590.480469 1719.996094 1590.480469 L 69.839844 1590.480469 C 31.371094 1590.480469 12.273438 1543.863281 48.160156 1521.839844 C 57.011719 1516.480469 69.921875 1517.828125 79.996094 1517.828125 L 1730.195312 1517.828125 C 1768.65625 1517.828125 1787.71875 1564.492188 1751.871094 1586.472656 Z M 48.160156 213.542969 C 57.011719 208.132812 69.925781 209.535156 79.996094 209.535156 L 1730.195312 209.535156 C 1768.65625 209.535156 1787.71875 256.195312 1751.871094 278.175781 C 1743.015625 283.585938 1730.070312 282.191406 1719.996094 282.191406 L 69.839844 282.191406 C 31.371094 282.191406 12.273438 235.574219 48.160156 213.542969 Z M 101.191406 303.992188 L 195.695312 303.992188 L 195.695312 1496.023438 L 104.675781 1496.023438 C 103.550781 1496.023438 102.410156 1496.023438 101.238281 1495.980469 L 101.238281 304.730469 C 101.238281 304.46875 101.238281 304.207031 101.191406 303.992188 Z M 675.402344 651.824219 C 673.050781 649.816406 670.777344 647.726562 668.515625 645.550781 C 654.210938 631.808594 637.8125 619.898438 617.398438 624.390625 C 616.136719 624.21875 614.785156 624.265625 613.300781 624.570312 C 602.402344 626.882812 591.671875 629.710938 580.945312 632.636719 L 580.945312 303.992188 L 675.402344 303.992188 Z M 618.054688 645.804688 C 619.414062 646.019531 620.808594 645.9375 622.332031 645.585938 C 637.550781 641.96875 651.027344 658.933594 660.707031 668.3125 C 669.820312 677.207031 680.160156 684.617188 690.53125 691.898438 C 702.183594 700.058594 714.261719 708.042969 722.0625 720.203125 C 731.789062 735.464844 722.242188 758.710938 709.855469 769.09375 C 709.109375 769.75 708.519531 770.414062 708.003906 771.097656 C 694.722656 761.128906 675.679688 755.953125 658.601562 750.21875 C 654.753906 748.054688 650.914062 745.914062 647.117188 743.746094 C 629.960938 733.941406 615.230469 720.769531 599.566406 708.890625 C 598.464844 708.058594 596.625 709.453125 597.164062 710.738281 C 601.4375 720.945312 608.304688 730.582031 616.769531 739.171875 C 606.953125 738.949219 597.070312 740.59375 586.242188 743.640625 C 560.964844 750.761719 535.570312 762.167969 510.921875 771.375 C 509.082031 772.058594 508.488281 775.34375 510.921875 775.710938 C 548.867188 781.351562 582.640625 749.683594 620.882812 757.003906 C 638.441406 760.363281 653.914062 773.953125 671.042969 779.5625 C 680.527344 782.660156 689.570312 785.503906 698.332031 790.421875 C 703.90625 793.542969 708.320312 798.890625 712.957031 803.839844 C 717.039062 819.335938 715.304688 836.675781 702.855469 847.019531 C 697.125 844.011719 690.175781 842.652344 683.539062 840.628906 C 669.269531 836.28125 654.566406 833.597656 639.722656 832.496094 C 638.921875 832.101562 638.140625 831.699219 637.398438 831.277344 C 629.808594 826.996094 621.828125 818.859375 612.90625 818.167969 C 611.527344 818.0625 610.246094 819.703125 610.746094 821.015625 C 612.445312 825.53125 616.277344 829.191406 620.480469 832.367188 C 605.410156 833.703125 590.417969 838.09375 575.867188 841.390625 C 554.722656 846.175781 531.589844 847.253906 511.277344 854.457031 C 510.429688 854.753906 510.449219 855.847656 511.277344 856.160156 C 543.632812 868.394531 584.429688 851.75 617.480469 849.167969 C 635.695312 847.738281 653.613281 853.417969 670.773438 858.738281 C 680.902344 861.890625 691.832031 867.476562 702.195312 866.488281 C 715.609375 882.351562 712.402344 903.015625 700.90625 919.101562 C 683.417969 907.070312 655.542969 902.460938 638.21875 901.703125 C 621.785156 900.984375 605.167969 905.757812 589.441406 909.773438 C 573.542969 913.832031 554.292969 916.246094 540.648438 925.644531 C 540.21875 925.933594 540.253906 926.617188 540.792969 926.769531 C 566.601562 933.996094 599.78125 919.59375 625.976562 918.007812 C 655.15625 916.234375 676.097656 932.078125 700.675781 943.375 C 711.476562 955.976562 712.539062 976.386719 708.027344 991.628906 C 700.691406 1016.183594 673.183594 978.941406 664.195312 972.355469 C 660.796875 969.871094 657.484375 969.828125 654.730469 971.183594 C 654.03125 971.140625 653.292969 971.183594 652.554688 971.269531 C 636.710938 973.480469 621.089844 976.90625 605.3125 979.34375 C 603.730469 979.082031 602.144531 978.804688 600.582031 978.359375 C 597.546875 977.496094 594.363281 978.90625 592.75 981.546875 C 590.410156 985.367188 581.28125 990.535156 577.195312 993.886719 C 569.691406 1000.0625 561.785156 1006.789062 556.015625 1014.640625 C 553.371094 1018.242188 558.285156 1021.621094 561.511719 1020.136719 C 572.070312 1015.285156 581.9375 1007.882812 591.535156 1000.660156 C 588.402344 1039.296875 579.296875 1090.757812 548.753906 1116.667969 C 544.019531 1119.726562 539.160156 1122.492188 534.070312 1124.621094 C 514.011719 1133.015625 496.636719 1122.40625 476.996094 1122.421875 C 475.355469 1122.421875 474.25 1124.277344 475.109375 1125.699219 C 485.769531 1143.460938 514.347656 1152.578125 534.195312 1147.777344 C 537.082031 1147.082031 539.878906 1146.191406 542.609375 1145.167969 C 544.1875 1145.117188 545.84375 1144.730469 547.539062 1143.835938 C 551.632812 1141.65625 555.515625 1139.164062 559.140625 1136.375 L 559.140625 1168.078125 C 506.105469 1185.609375 430.011719 1187.484375 404.277344 1126.039062 C 403.972656 1125.257812 403.578125 1124.554688 403.105469 1123.898438 C 403.890625 1122.59375 404.457031 1120.980469 404.667969 1119.148438 C 410.6875 1065.203125 417.140625 1011.296875 424.210938 957.488281 C 431.359375 902.933594 444.746094 847.109375 446.097656 792.078125 C 446.097656 791.375 446.097656 790.675781 446.015625 790.070312 C 446.316406 789.542969 446.578125 789.019531 446.796875 788.414062 C 461.796875 750.214844 468.167969 695.570312 508.160156 675.941406 C 523.46875 668.402344 541.382812 665.480469 557.828125 661.554688 C 578.019531 656.800781 597.777344 650.257812 618.054688 645.804688 Z M 1219.085938 632.636719 C 1208.363281 629.710938 1197.589844 626.882812 1186.734375 624.570312 C 1185.25 624.261719 1183.894531 624.21875 1182.632812 624.390625 C 1163.875 620.292969 1149.535156 629.800781 1135.664062 641.707031 C 1131.957031 644.894531 1128.292969 647.988281 1124.585938 651.085938 L 1124.585938 303.992188 L 1219.085938 303.992188 Z M 1135.835938 671.625 C 1146.824219 661.898438 1160.875 641.578125 1177.660156 645.589844 C 1179.183594 645.9375 1180.625 646.023438 1181.9375 645.804688 C 1202.253906 650.257812 1222.011719 656.667969 1242.15625 661.554688 C 1258.90625 665.648438 1275.953125 669.050781 1291.875 675.941406 C 1312.5 684.839844 1320.785156 700.277344 1328.464844 720.554688 C 1336.96875 743.058594 1344.421875 765.992188 1353.234375 788.414062 C 1353.449219 789.019531 1353.710938 789.542969 1354.019531 790.070312 C 1353.929688 790.675781 1353.929688 791.375 1353.929688 792.074219 C 1355.195312 844.320312 1367.800781 897.261719 1374.6875 948.980469 C 1382.273438 1005.632812 1388.996094 1062.371094 1395.359375 1119.148438 C 1395.578125 1120.980469 1396.144531 1122.59375 1396.933594 1123.898438 C 1396.449219 1124.554688 1396.0625 1125.257812 1395.75 1126.039062 C 1370.023438 1187.484375 1293.925781 1185.609375 1240.894531 1168.074219 L 1240.894531 1136.386719 C 1241.011719 1136.460938 1241.128906 1136.539062 1241.25 1136.625 C 1244.769531 1139.304688 1248.519531 1141.722656 1252.496094 1143.832031 C 1254.179688 1144.726562 1255.832031 1145.117188 1257.414062 1145.167969 C 1260.140625 1146.191406 1262.9375 1147.078125 1265.824219 1147.773438 C 1285.683594 1152.578125 1314.25 1143.460938 1324.910156 1125.699219 C 1325.761719 1124.277344 1324.660156 1122.421875 1323.027344 1122.421875 C 1303.382812 1122.402344 1286.003906 1133.015625 1265.949219 1124.621094 C 1260.859375 1122.5 1256.003906 1119.730469 1251.273438 1116.671875 C 1220.707031 1090.761719 1211.625 1039.304688 1208.488281 1000.667969 C 1218.089844 1007.890625 1227.953125 1015.28125 1238.496094 1020.136719 C 1241.738281 1021.621094 1246.652344 1018.242188 1244 1014.636719 C 1238.234375 1006.789062 1230.324219 1000.0625 1222.820312 993.886719 C 1218.742188 990.535156 1209.609375 985.363281 1207.273438 981.546875 C 1205.65625 978.90625 1202.46875 977.492188 1199.441406 978.359375 C 1197.878906 978.804688 1196.292969 979.078125 1194.710938 979.34375 C 1178.945312 976.902344 1163.316406 973.480469 1147.480469 971.265625 C 1146.742188 971.183594 1145.996094 971.140625 1145.300781 971.183594 C 1142.554688 969.828125 1139.242188 969.871094 1135.835938 972.355469 C 1125.933594 979.59375 1100.46875 1015.617188 1092.007812 991.628906 C 1086.777344 976.863281 1088.84375 955.761719 1099.335938 943.378906 C 1123.921875 932.078125 1144.863281 916.234375 1174.035156 918.007812 C 1200.238281 919.589844 1233.421875 933.992188 1259.230469 926.769531 C 1259.765625 926.617188 1259.804688 925.933594 1259.375 925.644531 C 1245.726562 916.242188 1226.476562 913.832031 1210.578125 909.773438 C 1194.851562 905.753906 1178.226562 900.984375 1161.804688 901.703125 C 1144.46875 902.457031 1116.585938 907.066406 1099.09375 919.117188 C 1087.632812 903.019531 1084.414062 882.351562 1097.800781 866.480469 C 1108.171875 867.488281 1119.101562 861.890625 1129.242188 858.738281 C 1146.394531 853.417969 1164.320312 847.738281 1182.539062 849.164062 C 1215.589844 851.75 1256.386719 868.394531 1288.738281 856.160156 C 1289.5625 855.847656 1289.59375 854.753906 1288.738281 854.457031 C 1268.433594 847.253906 1245.296875 846.175781 1224.15625 841.386719 C 1209.601562 838.09375 1194.613281 833.699219 1179.539062 832.367188 C 1183.742188 829.191406 1187.574219 825.527344 1189.277344 821.015625 C 1189.769531 819.703125 1188.488281 818.0625 1187.109375 818.167969 C 1178.195312 818.859375 1170.210938 826.996094 1162.617188 831.277344 C 1161.875 831.699219 1161.09375 832.097656 1160.300781 832.492188 C 1145.453125 833.59375 1130.75 836.28125 1116.480469 840.625 C 1109.835938 842.648438 1102.882812 844.011719 1097.144531 847.03125 C 1084.722656 836.691406 1082.96875 819.347656 1087.054688 803.847656 C 1091.691406 798.894531 1096.113281 793.546875 1101.6875 790.417969 C 1110.453125 785.503906 1119.503906 782.660156 1128.980469 779.5625 C 1146.109375 773.953125 1161.585938 760.359375 1179.140625 757.003906 C 1217.378906 749.683594 1251.15625 781.351562 1289.105469 775.710938 C 1291.53125 775.34375 1290.933594 772.058594 1289.105469 771.375 C 1264.449219 762.167969 1239.066406 750.761719 1213.773438 743.640625 C 1202.953125 740.59375 1193.070312 738.949219 1183.253906 739.171875 C 1191.726562 730.582031 1198.585938 720.941406 1202.867188 710.734375 C 1203.398438 709.453125 1201.558594 708.054688 1200.457031 708.890625 C 1184.789062 720.769531 1170.0625 733.9375 1152.902344 743.746094 C 1149.109375 745.914062 1145.261719 748.054688 1141.417969 750.214844 C 1124.335938 755.953125 1105.285156 761.132812 1092 771.105469 C 1091.480469 770.410156 1090.902344 769.738281 1090.128906 769.09375 C 1078.011719 758.933594 1071.6875 741.136719 1075.527344 725.652344 C 1078.878906 712.09375 1094.714844 702.320312 1105.222656 694.867188 C 1115.734375 687.453125 1126.203125 680.128906 1135.835938 671.625 Z M 1240.894531 1249.992188 C 1254.367188 1257.164062 1271.40625 1261.839844 1284.449219 1257.859375 C 1286.683594 1257.179688 1286.769531 1254.515625 1285.046875 1253.253906 C 1272.074219 1243.675781 1254.507812 1242.988281 1240.894531 1233.765625 L 1240.894531 1190.972656 C 1306.09375 1210.597656 1387.070312 1202.703125 1416.773438 1131.882812 C 1418.078125 1128.746094 1417.824219 1126.039062 1416.640625 1123.945312 C 1417.167969 1122.59375 1417.382812 1120.980469 1417.167969 1119.148438 C 1415.988281 1108.679688 1414.808594 1098.21875 1413.585938 1087.703125 C 1434.445312 1098.71875 1449.929688 1116.910156 1445.972656 1139.429688 C 1443.242188 1145.125 1441.535156 1151.519531 1438.601562 1157.167969 C 1433.21875 1167.53125 1427.054688 1177.320312 1420.070312 1186.699219 C 1405.691406 1205.992188 1386.539062 1222.410156 1367.441406 1236.867188 C 1366.554688 1237.535156 1366.652344 1239.457031 1368.09375 1239.28125 C 1386.777344 1236.941406 1421.992188 1216.222656 1443.570312 1191.460938 C 1456.480469 1235.328125 1462.066406 1280.714844 1461.953125 1326.601562 C 1461.777344 1379.738281 1453.699219 1441.734375 1424.617188 1487.484375 C 1420.445312 1490.519531 1415.816406 1492.90625 1411.78125 1496.023438 L 1240.894531 1496.023438 Z M 1490.757812 1341.746094 C 1493.636719 1282.96875 1485.316406 1222.851562 1466.664062 1167.703125 C 1466.707031 1167.574219 1466.746094 1167.449219 1466.792969 1167.324219 C 1476.753906 1147.957031 1478.382812 1127.96875 1471.5 1109.460938 C 1463.402344 1087.671875 1443.851562 1068.882812 1417.511719 1057.414062 C 1413.664062 1024.71875 1409.453125 990.800781 1404.964844 956.527344 C 1402.546875 938.105469 1399.378906 919.242188 1396.308594 901.003906 C 1390.269531 865.054688 1384.023438 827.882812 1383.136719 791.859375 C 1383.085938 790.234375 1382.851562 788.664062 1382.433594 787.167969 C 1382.546875 784.800781 1382.105469 782.375 1381.140625 779.953125 C 1377.355469 770.289062 1374.101562 759.890625 1370.660156 748.890625 C 1360.042969 714.921875 1348.007812 676.429688 1316.128906 655.726562 C 1300.113281 645.371094 1280.515625 640.683594 1263.230469 636.546875 L 1260.390625 635.863281 C 1256.351562 634.886719 1252.316406 633.867188 1248.292969 632.816406 L 1248.292969 311.390625 L 1575.089844 311.390625 L 1575.089844 1488.625 L 1457.742188 1488.625 C 1483.050781 1440.441406 1488.738281 1382.40625 1490.757812 1341.746094 Z M 1124.585938 1011.910156 C 1131.695312 1005.761719 1138.019531 998.21875 1144.820312 992.765625 C 1158.816406 994.859375 1172.691406 997.867188 1186.644531 1000.046875 C 1189.566406 1036.640625 1197.417969 1081.773438 1219.613281 1113.738281 L 1219.613281 1113.78125 C 1219.265625 1114.828125 1219.085938 1116.011719 1219.085938 1117.316406 L 1219.085938 1496.023438 L 1124.585938 1496.023438 Z M 1095.382812 665.261719 C 1089.496094 669.929688 1083.539062 674.550781 1077.4375 679.179688 C 1058.554688 693.628906 1046.652344 715.140625 1045.609375 736.726562 C 1044.769531 754.082031 1050.941406 770.558594 1063.074219 783.664062 C 1053.378906 806.683594 1052.375 837.625 1067.984375 858.726562 C 1056.214844 880.355469 1057.746094 906.640625 1072.238281 930.816406 C 1058.140625 952.390625 1055.753906 984.34375 1067.039062 1007.472656 C 1073.066406 1019.878906 1083.210938 1027.679688 1095.382812 1029.441406 L 1095.382812 1488.625 L 704.609375 1488.625 L 704.609375 1029.515625 C 716.484375 1027.980469 726.890625 1019.984375 732.992188 1007.472656 C 744.238281 984.332031 741.847656 952.382812 727.800781 930.828125 C 742.292969 906.644531 743.828125 880.363281 732.054688 858.726562 C 747.652344 837.664062 746.644531 806.695312 736.949219 783.621094 C 748.800781 770.757812 754.960938 754.574219 754.382812 737.515625 C 753.667969 716.285156 742.941406 695.691406 724.949219 681.019531 C 718.222656 675.539062 711.328125 670.390625 704.609375 665.40625 C 704.609375 665.34375 704.609375 311.390625 704.609375 311.390625 L 1095.386719 311.390625 C 1095.382812 311.390625 1095.382812 665.242188 1095.382812 665.261719 Z M 580.421875 1113.78125 C 602.625 1081.816406 610.46875 1036.640625 613.386719 1000.046875 C 627.390625 997.824219 641.257812 994.859375 655.210938 992.765625 C 662.320312 998.394531 668.46875 1005.679688 675.402344 1011.605469 L 675.402344 1496.023438 L 580.945312 1496.023438 L 580.945312 1117.316406 C 580.945312 1116.011719 580.773438 1114.828125 580.421875 1113.78125 Z M 515.570312 1257.859375 C 528.617188 1261.839844 545.667969 1257.164062 559.140625 1249.980469 L 559.140625 1496.023438 L 388.234375 1496.023438 C 384.214844 1492.917969 379.589844 1490.519531 375.425781 1487.496094 C 347.304688 1443.292969 339.949219 1385.234375 338.207031 1334.015625 C 336.601562 1285.980469 342.761719 1237.539062 356.441406 1191.449219 C 378.023438 1216.214844 413.242188 1236.941406 431.933594 1239.28125 C 433.371094 1239.457031 433.46875 1237.535156 432.589844 1236.867188 C 413.488281 1222.410156 394.332031 1205.992188 379.953125 1186.699219 C 372.964844 1177.320312 366.804688 1167.53125 361.417969 1157.167969 C 358.492188 1151.539062 356.789062 1145.164062 354.074219 1139.488281 C 350.082031 1116.941406 365.574219 1098.730469 386.449219 1087.703125 C 385.226562 1098.171875 384.046875 1108.679688 382.871094 1119.148438 C 382.652344 1120.980469 382.871094 1122.554688 383.390625 1123.898438 C 382.167969 1126.039062 381.953125 1128.746094 383.257812 1131.882812 C 412.964844 1202.746094 493.949219 1210.597656 559.144531 1190.972656 L 559.144531 1233.753906 C 545.527344 1242.988281 527.945312 1243.679688 514.972656 1253.257812 C 513.257812 1254.515625 513.335938 1257.179688 515.570312 1257.859375 Z M 551.742188 632.878906 C 547.734375 633.902344 543.714844 634.910156 539.691406 635.855469 C 521.453125 640.140625 502.121094 645.488281 484.292969 655.492188 C 468.976562 664.121094 457.59375 677.671875 449.492188 696.925781 C 442.945312 712.4375 437.328125 728.539062 431.902344 744.101562 C 427.773438 755.9375 423.503906 768.171875 418.917969 779.890625 C 417.929688 782.347656 417.488281 784.78125 417.59375 787.167969 C 417.179688 788.679688 416.945312 790.257812 416.898438 791.894531 C 416.03125 826.4375 410.03125 862.140625 404.21875 896.671875 C 401.378906 913.539062 398.445312 930.976562 396.164062 948 C 391.554688 982.429688 387.085938 1018.269531 382.515625 1057.414062 C 356.167969 1068.882812 336.601562 1087.675781 328.5 1109.480469 C 321.613281 1128.023438 323.265625 1148.0625 333.269531 1167.46875 C 333.292969 1167.542969 333.320312 1167.613281 333.34375 1167.6875 C 316.105469 1218.894531 307.917969 1274.882812 309.007812 1334.148438 C 310.136719 1397.152344 321.308594 1449.035156 342.253906 1488.625 L 224.902344 1488.625 L 224.902344 311.390625 L 551.742188 311.390625 Z M 1604.296875 1496.023438 L 1604.296875 303.992188 L 1695.308594 303.992188 C 1696.488281 303.992188 1697.664062 303.992188 1698.84375 304.035156 C 1698.800781 304.257812 1698.800781 304.46875 1698.800781 304.730469 L 1698.800781 1496.023438 Z M 1604.296875 1496.023438 " fill-opacity="1" fill-rule="nonzero"/></g></svg>