<svg xmlns="http://www.w3.org/2000/svg" xmlns:xlink="http://www.w3.org/1999/xlink" width="2400" zoomAndPan="magnify" viewBox="0 0 1800 1799.999925" height="2400" preserveAspectRatio="xMidYMid meet" version="1.0"><defs><clipPath id="dddd5f0069"><path d="M 372 1287.554688 L 1440.660156 1287.554688 L 1440.660156 1794 L 372 1794 Z M 372 1287.554688 " clip-rule="nonzero"/></clipPath></defs><rect x="-180" width="2160" fill="#ffffff" y="-179.999992" height="2159.99991" fill-opacity="1"/><rect x="-180" width="2160" fill="#ffffff" y="-179.999992" height="2159.99991" fill-opacity="1"/><path stroke-linecap="round" transform="matrix(9.613153, 0, 0, 9.611397, -3098.369704, -4510.330903)" fill="none" stroke-linejoin="round" d="M 402.759815 517.480043 L 413.590923 543.359964 L 427.429792 512.664796 " stroke="#000000" stroke-width="2" stroke-opacity="1" stroke-miterlimit="4"/><path stroke-linecap="round" transform="matrix(9.613153, 0, 0, 9.611397, -3098.369704, -4510.330903)" fill="none" stroke-linejoin="round" d="M 400.949957 518.090077 L 381.900129 544.582878 L 385.907903 519.896201 " stroke="#000000" stroke-width="2" stroke-opacity="1" stroke-miterlimit="4"/><path stroke-linecap="round" transform="matrix(9.613153, 0, 0, 9.611397, -3098.369704, -4510.330903)" fill="none" stroke-linejoin="round" d="M 428.029962 513.869827 L 452.044912 536.139126 L 447.252487 511.065132 " stroke="#000000" stroke-width="2" stroke-opacity="1" stroke-miterlimit="4"/><path stroke-linecap="round" transform="matrix(9.613153, 0, 0, 9.611397, -3098.369704, -4510.330903)" fill-opacity="1" fill="#ffffff" fill-rule="nonzero" stroke-linejoin="round" d="M 363.799928 545.720037 C 362.510191 543.03483 423.213969 597.891175 423.213969 597.891175 L 398.043783 544.936868 Z M 363.799928 545.720037 " stroke="#000000" stroke-width="2" stroke-opacity="1" stroke-miterlimit="4"/><path stroke-linecap="round" transform="matrix(9.613153, 0, 0, 9.611397, -3098.369704, -4510.330903)" fill-opacity="1" fill="#ffffff" fill-rule="nonzero" stroke-linejoin="round" d="M 423.539857 597.520115 L 433.867098 541.060855 L 396.064073 545.181532 Z M 423.539857 597.520115 " stroke="#000000" stroke-width="2" stroke-opacity="1" stroke-miterlimit="4"/><path stroke-linecap="round" transform="matrix(9.613153, 0, 0, 9.611397, -3098.369704, -4510.330903)" fill-opacity="1" fill="#ffffff" fill-rule="nonzero" stroke-linejoin="round" d="M 363.459818 545.279886 L 386.178935 518.298976 L 404.188928 514.951307 L 396.346483 544.810066 Z M 363.459818 545.279886 " stroke="#000000" stroke-width="2" stroke-opacity="1" stroke-miterlimit="4"/><path stroke-linecap="round" transform="matrix(9.613153, 0, 0, 9.611397, -3098.369704, -4510.330903)" fill-opacity="1" fill="#ffffff" fill-rule="nonzero" stroke-linejoin="round" d="M 427.190048 511.239892 L 446.736023 510.62742 L 467.935819 531.37021 L 433.492855 540.781239 Z M 427.190048 511.239892 " stroke="#000000" stroke-width="2" stroke-opacity="1" stroke-miterlimit="4"/><path stroke-linecap="round" transform="matrix(9.613153, 0, 0, 9.611397, -3098.369704, -4510.330903)" fill-opacity="1" fill="#ffffff" fill-rule="nonzero" stroke-linejoin="round" d="M 403.629798 515.100056 L 427.057174 511.255336 L 433.860597 541.069389 L 396.388336 545.1478 Z M 403.629798 515.100056 " stroke="#000000" stroke-width="2" stroke-opacity="1" stroke-miterlimit="4"/><path stroke-linecap="round" transform="matrix(9.613153, 0, 0, 9.611397, -3098.369704, -4510.330903)" fill-opacity="1" fill="#ffffff" fill-rule="nonzero" stroke-linejoin="round" d="M 423.539857 597.520115 L 468.269021 531.319002 L 433.867911 541.060855 Z M 423.539857 597.520115 " stroke="#000000" stroke-width="2" stroke-opacity="1" stroke-miterlimit="4"/><path stroke-linecap="round" transform="matrix(9.613153, 0, 0, 9.611397, -3098.369704, -4510.330903)" fill-opacity="1" fill="#ffffff" fill-rule="nonzero" stroke-linejoin="round" d="M 407.900071 470.539918 L 412.252018 502.262106 " stroke="#000000" stroke-width="2" stroke-opacity="1" stroke-miterlimit="4"/><path stroke-linecap="round" transform="matrix(9.613153, 0, 0, 9.611397, -3098.369704, -4510.330903)" fill-opacity="1" fill="#ffffff" fill-rule="nonzero" stroke-linejoin="round" d="M 441.679881 499.659808 L 452.541058 477.837976 " stroke="#000000" stroke-width="2" stroke-opacity="1" stroke-miterlimit="4"/><path stroke-linecap="round" transform="matrix(9.613153, 0, 0, 9.611397, -3098.369704, -4510.330903)" fill-opacity="1" fill="#ffffff" fill-rule="nonzero" stroke-linejoin="round" d="M 468.110141 521.840101 L 485.396028 508.095025 " stroke="#000000" stroke-width="2" stroke-opacity="1" stroke-miterlimit="4"/><path fill="#ffffff" d="M 1312.242188 869.457031 L 1510.164062 952.210938 " fill-opacity="1" fill-rule="nonzero"/><path stroke-linecap="round" transform="matrix(9.613153, 0, 0, 9.611397, -3098.369704, -4510.330903)" fill-opacity="1" fill="#ffffff" fill-rule="nonzero" stroke-linejoin="round" d="M 332.560176 524.500111 L 355.118788 537.071043 " stroke="#000000" stroke-width="2" stroke-opacity="1" stroke-miterlimit="4"/><path stroke-linecap="round" transform="matrix(9.613153, 0, 0, 9.611397, -3098.369704, -4510.330903)" fill-opacity="1" fill="#ffffff" fill-rule="nonzero" stroke-linejoin="round" d="M 367.56999 490.910023 L 378.93219 509.971054 " stroke="#000000" stroke-width="2" stroke-opacity="1" stroke-miterlimit="4"/><path stroke-linecap="round" transform="matrix(9.613153, 0, 0, 9.611397, -3098.369704, -4510.330903)" fill="none" stroke-linejoin="round" d="M 403.880106 514.950087 L 413.586047 543.361996 L 427.424915 512.666828 " stroke="#000000" stroke-width="1" stroke-opacity="1" stroke-miterlimit="4"/><path stroke-linecap="round" transform="matrix(9.613153, 0, 0, 9.611397, -3098.369704, -4510.330903)" fill="none" stroke-linejoin="round" d="M 402.919915 515.840144 L 378.32308 544.582878 L 385.909529 519.896201 " stroke="#000000" stroke-width="1" stroke-opacity="1" stroke-miterlimit="4"/><path stroke-linecap="round" transform="matrix(9.613153, 0, 0, 9.611397, -3098.369704, -4510.330903)" fill="none" stroke-linejoin="round" d="M 427.47002 511.059849 L 452.048162 536.141971 L 447.255331 511.067977 " stroke="#000000" stroke-width="1" stroke-opacity="1" stroke-miterlimit="4"/><path stroke-linecap="round" transform="matrix(9.613153, 0, 0, 9.611397, -3098.369704, -4510.330903)" fill="none" stroke-linejoin="round" d="M 451.829956 536.03996 L 424.57888 596.096837 " stroke="#000000" stroke-width="1" stroke-opacity="1" stroke-miterlimit="4"/><path stroke-linecap="round" transform="matrix(9.613153, 0, 0, 9.611397, -3098.369704, -4510.330903)" fill="none" stroke-linejoin="round" d="M 413.889992 543.040113 L 423.782039 596.102121 L 421.862468 594.792234 " stroke="#000000" stroke-width="1" stroke-opacity="1" stroke-miterlimit="4"/><path stroke-linecap="round" transform="matrix(9.613153, 0, 0, 9.611397, -3098.369704, -4510.330903)" fill="none" stroke-linejoin="round" d="M 378.850109 545.190067 L 422.307009 596.195191 " stroke="#000000" stroke-width="1" stroke-opacity="1" stroke-miterlimit="4"/><path stroke-linecap="round" transform="matrix(9.613153, 0, 0, 9.611397, -3098.369704, -4510.330903)" fill-opacity="1" fill="#000000" fill-rule="nonzero" stroke-linejoin="miter" d="M 372.459938 571.150053 L 359.246027 585.492971 " stroke="#000000" stroke-width="2" stroke-opacity="1" stroke-miterlimit="4"/><path stroke-linecap="round" transform="matrix(9.613153, 0, 0, 9.611397, -3098.369704, -4510.330903)" fill-opacity="1" fill="#000000" fill-rule="nonzero" stroke-linejoin="round" d="M 456.389952 565.869863 L 467.522973 575.8133 " stroke="#000000" stroke-width="2" stroke-opacity="1" stroke-miterlimit="4"/><path fill="#000000" d="M 838.652344 1540.089844 C 831.800781 1513.832031 809.71875 1446.765625 787.042969 1435.867188 C 778.289062 1438.054688 781.484375 1448.996094 779.929688 1455.800781 C 778.75 1487.179688 764.261719 1520.902344 770.082031 1551.402344 C 778.902344 1555.1875 842.679688 1555.84375 838.652344 1540.089844 Z M 793.871094 1469.019531 C 798.402344 1477.488281 802.867188 1486.019531 807.003906 1494.6875 C 787.570312 1488.230469 791.003906 1487.640625 793.871094 1469.019531 Z M 783.871094 1537.96875 C 784.175781 1534.640625 784.546875 1531.273438 784.941406 1527.925781 L 806.566406 1537.003906 Z M 786.191406 1518.734375 C 787.195312 1511.46875 788.378906 1504.226562 789.539062 1497.113281 C 813.21875 1504.664062 815.800781 1509.871094 821.359375 1533.460938 Z M 786.191406 1518.734375 " fill-opacity="1" fill-rule="nonzero"/><g clip-path="url(#dddd5f0069)"><path fill="#000000" d="M 1440.167969 1747.289062 C 1430.296875 1700.15625 1387.007812 1670.023438 1360.546875 1632.058594 C 1351.550781 1621.25 1343.28125 1609.738281 1333.082031 1600.003906 C 1325.8125 1591.25 1311.917969 1582.015625 1312.265625 1569.632812 L 1312.265625 1570.003906 C 1317.5625 1546.675781 1332.664062 1526.785156 1343.695312 1505.933594 C 1353.347656 1486.894531 1363.875 1468.210938 1374.183594 1449.480469 C 1387.160156 1423.222656 1414.757812 1377.574219 1398.257812 1349.152344 C 1396.734375 1347.136719 1394.96875 1345.359375 1392.96875 1343.820312 C 1390.96875 1342.277344 1388.796875 1341.027344 1386.460938 1340.070312 C 1332.117188 1313.113281 1256.609375 1293.351562 1198.238281 1287.554688 C 1184.78125 1291.273438 1189.332031 1292.632812 1179.351562 1325.148438 C 1173.070312 1348.210938 1164.6875 1369.21875 1156.875 1391.90625 C 1147.835938 1373.679688 1140.984375 1352.652344 1125.273438 1338.953125 C 1125.164062 1336.765625 1056.089844 1309.5 1053.617188 1307.949219 C 1050.707031 1306.875 1046.21875 1305.761719 1036.21875 1306.199219 C 1005.292969 1310.136719 947.335938 1313.113281 947.03125 1346.699219 C 942.523438 1339.390625 941.035156 1328.84375 933.898438 1323.769531 L 866.949219 1295.738281 C 828.957031 1296.503906 792.1875 1305.324219 753.710938 1305.214844 C 742.132812 1305.039062 729.832031 1304.492188 718.410156 1306.042969 C 702.015625 1298.933594 694.222656 1295.105469 671.902344 1297.46875 C 586.214844 1295.277344 501.800781 1293.8125 416.445312 1307.53125 C 385.082031 1309.042969 386.375 1315.761719 383.484375 1351.777344 C 381.582031 1376.65625 375.167969 1400.769531 372.34375 1428.777344 C 367.75 1434.03125 441.941406 1460.417969 443.738281 1462.476562 C 448.683594 1463.722656 452.492188 1463.109375 461.246094 1463.308594 C 460.875 1530.003906 441.046875 1691.46875 442.007812 1761.445312 C 442.882812 1762.769531 444.042969 1763.753906 445.488281 1764.398438 L 512.199219 1792.453125 C 541.371094 1791.050781 572.382812 1784.070312 601.929688 1781.140625 C 620.527344 1779.996094 638.765625 1776.800781 656.644531 1771.554688 C 661.570312 1768.402344 661.417969 1762.101562 662.25 1756.917969 C 704.796875 1777.355469 766.078125 1799.847656 812.039062 1792.300781 C 814.242188 1792.007812 816.324219 1791.328125 818.277344 1790.265625 C 820.230469 1789.199219 821.929688 1787.820312 823.375 1786.128906 C 825.480469 1783.445312 826.941406 1780.449219 827.75 1777.136719 C 833.550781 1752.671875 833.703125 1728.40625 837.117188 1703.085938 C 837.007812 1692.148438 852.132812 1649.390625 861.414062 1673.480469 C 877.125 1701.535156 885.792969 1740.855469 909.234375 1762.058594 L 976.097656 1790.132812 C 977.367188 1790.671875 978.695312 1790.933594 980.078125 1790.921875 C 991.308594 1789.167969 1000.847656 1780.394531 1010.105469 1774.117188 C 1045.539062 1790.21875 1090.667969 1788.164062 1122.84375 1791.292969 C 1137.023438 1791.664062 1151.46875 1795.976562 1164.734375 1789.5625 C 1189.617188 1773.414062 1193.183594 1739.234375 1201.699219 1712.976562 C 1220.5625 1748.40625 1268.890625 1757.507812 1302.222656 1773.4375 C 1317.105469 1788.25 1440.324219 1765.1875 1440.167969 1747.289062 Z M 1350.4375 1644.226562 C 1360.21875 1656.019531 1369.300781 1668.011719 1379.457031 1679.433594 C 1338.046875 1664.117188 1341.355469 1660.964844 1313.601562 1628.777344 Z M 1312.640625 1601.074219 C 1321.394531 1610.375 1330.828125 1619.257812 1338.53125 1629.519531 C 1301.847656 1617.398438 1295.675781 1608.121094 1272.871094 1579.0625 C 1281.101562 1582.628906 1309.117188 1591.710938 1312.703125 1600.988281 Z M 1296.773438 1574.203125 C 1296.949219 1576.082031 1297.363281 1577.90625 1298.019531 1579.675781 C 1282.261719 1571.839844 1236.191406 1561.621094 1247.003906 1535.277344 L 1299.660156 1557.332031 C 1297.597656 1562.769531 1296.636719 1568.394531 1296.773438 1574.203125 Z M 1310.496094 1533.308594 C 1307.847656 1538.429688 1305.089844 1543.636719 1302.921875 1548.976562 L 1250.199219 1526.875 C 1250.875 1525.277344 1251.707031 1523.484375 1252.539062 1521.753906 C 1254.726562 1517.203125 1257.15625 1512.496094 1259.695312 1507.859375 C 1259.542969 1510.136719 1320.5625 1528.253906 1310.496094 1533.351562 Z M 1326.644531 1504.859375 C 1323.558594 1510.308594 1319.753906 1516.589844 1316.710938 1522.125 L 1264.183594 1500.089844 C 1267.730469 1493.789062 1271.425781 1487.597656 1274.90625 1481.558594 C 1274.558594 1482.519531 1331 1502.761719 1326.644531 1504.816406 Z M 1340.019531 1479.652344 C 1337.128906 1484.863281 1334.589844 1490.246094 1331.941406 1495.453125 C 1332.074219 1496.480469 1279.285156 1473.375 1279.132812 1473.570312 C 1279.65625 1472.671875 1280.074219 1471.777344 1280.488281 1470.902344 C 1283.070312 1465.582031 1285.980469 1459.960938 1288.914062 1454.664062 C 1288.671875 1456.371094 1348.683594 1475.582031 1340.019531 1479.609375 Z M 1355.339844 1451.796875 C 1352.253906 1457.378906 1348.882812 1463.351562 1345.816406 1468.910156 L 1293.292969 1446.851562 C 1296.683594 1440.726562 1300.121094 1434.597656 1303.664062 1428.210938 C 1303.207031 1429.28125 1360.679688 1449.304688 1355.40625 1451.667969 Z M 1369.894531 1424.269531 C 1366.917969 1430.308594 1363.675781 1436.414062 1360.503906 1442.367188 L 1307.976562 1420.289062 C 1311.085938 1414.445312 1314.191406 1408.386719 1317.167969 1402.476562 C 1315.636719 1399.304688 1372.453125 1423.679688 1369.957031 1424.226562 Z M 1335.117188 1353.199219 C 1336.277344 1347.417969 1336.675781 1341.582031 1336.320312 1335.695312 C 1340.367188 1337.882812 1383.769531 1354.097656 1385.410156 1357.707031 C 1390.355469 1365.671875 1387.25 1376.066406 1385.410156 1384.664062 C 1388.191406 1391.929688 1332.707031 1363.503906 1332.183594 1364.972656 C 1333.371094 1361.101562 1334.351562 1357.175781 1335.117188 1353.199219 Z M 1325.75 1383.265625 C 1327.105469 1380.027344 1328.332031 1376.699219 1329.535156 1373.484375 L 1382.214844 1395.539062 C 1379.828125 1402.105469 1377.136719 1408.667969 1374.140625 1415.234375 L 1321.546875 1393.199219 C 1323.121094 1389.785156 1324.523438 1386.523438 1325.8125 1383.351562 Z M 1139.9375 1392.015625 C 1141.597656 1395.738281 1143.296875 1399.382812 1145.035156 1402.957031 C 1147.988281 1408.167969 1150.8125 1412.367188 1147.222656 1417.992188 C 1115.597656 1405.714844 1108.683594 1406.085938 1094.367188 1373.066406 Z M 1144.117188 1426.523438 C 1141.007812 1434.882812 1137.855469 1443.4375 1134.769531 1451.734375 C 1128.992188 1439.871094 1122.625 1427.070312 1116.453125 1414.925781 Z M 1114.109375 1349.9375 C 1124.023438 1357.09375 1128.816406 1369.480469 1134.332031 1380.003906 L 1088.503906 1360.769531 C 1084.386719 1351.820312 1080.164062 1342.410156 1075.371094 1333.746094 Z M 1018.226562 1613.351562 C 1015.996094 1618.179688 1013.746094 1623.015625 1011.484375 1627.859375 C 1007.960938 1619.675781 1004.042969 1610.835938 1001.023438 1602.980469 C 1001.8125 1604.597656 1024.136719 1609.410156 1018.226562 1613.351562 Z M 996.691406 1591.46875 C 993.253906 1582.324219 989.730469 1573.152344 986.1875 1564.007812 L 1031.839844 1583.152344 C 1023.875 1612.652344 1017.765625 1598.382812 996.691406 1591.445312 Z M 945.542969 1463.703125 C 942.917969 1457.640625 940.378906 1451.578125 937.730469 1445.519531 C 969.179688 1460.835938 984.851562 1454.554688 996.230469 1493.023438 L 949.65625 1473.546875 C 948.300781 1470.265625 946.878906 1466.984375 945.542969 1463.703125 Z M 930.222656 1428.054688 C 926.917969 1420.484375 923.65625 1413.003906 920.222656 1405.410156 C 951.410156 1420.222656 967.429688 1415.253906 978.984375 1453.046875 C 975.199219 1450.484375 928.035156 1435.082031 930.222656 1428.054688 Z M 1001.351562 1504.882812 C 1005.269531 1514.226562 1009.1875 1523.484375 1012.953125 1532.761719 L 966.136719 1513.066406 C 962.351562 1503.789062 958.609375 1494.511719 954.691406 1485.253906 Z M 1017.765625 1544.488281 C 1021.554688 1553.722656 1025.230469 1562.957031 1028.863281 1572.148438 L 981.808594 1552.453125 C 978.21875 1543.261719 974.5625 1534.007812 970.867188 1524.839844 Z M 947.730469 1384.25 C 952.195312 1393.820312 956.574219 1403.300781 960.863281 1412.695312 C 927.378906 1396.480469 915.425781 1404.488281 901.769531 1364.972656 Z M 925.1875 1336.855469 C 930.8125 1348.605469 936.480469 1360.464844 941.996094 1372.148438 C 901.53125 1354.511719 896.867188 1361.953125 879.664062 1317.773438 Z M 448.53125 1447.773438 L 418.941406 1435.363281 C 432.074219 1435.671875 445.511719 1435.824219 458.335938 1438.253906 C 466.039062 1438.648438 463.433594 1442.628906 462.84375 1447.507812 C 457.832031 1448.691406 451.113281 1447.53125 448.53125 1447.773438 Z M 456.714844 1748.273438 C 459.320312 1721.074219 469.695312 1550.679688 472.933594 1527.726562 C 475.339844 1503.65625 477.792969 1478.648438 477.3125 1454.707031 C 480.921875 1439.171875 480.660156 1426.261719 464.046875 1423.769531 C 359.367188 1408.582031 391.824219 1453.503906 402.375 1324.753906 C 499.066406 1308.363281 597.554688 1311.253906 694.726562 1312.828125 C 707.707031 1320.289062 680.699219 1398.011719 679.800781 1416.832031 C 646.226562 1420.902344 604.644531 1419.214844 570.503906 1424.773438 C 564.332031 1428.800781 569.234375 1450.507812 568.3125 1456.589844 C 572.011719 1532.300781 569.582031 1608.425781 580.59375 1683.589844 C 582.339844 1695.972656 582.484375 1708.371094 581.03125 1720.789062 C 580.65625 1723.304688 580.109375 1726.828125 579.761719 1729.324219 C 566.320312 1735.144531 548.527344 1736.433594 533.097656 1737.8125 C 507.820312 1741.207031 482.105469 1744.53125 456.714844 1748.273438 Z M 655.550781 1564.25 C 654.9375 1568.753906 654.28125 1573.261719 653.667969 1577.75 C 652.429688 1540.566406 651.195312 1503.367188 649.972656 1466.152344 C 656.953125 1465.78125 663.957031 1465.453125 670.9375 1465.101562 C 665.160156 1498.078125 660.300781 1531.183594 655.550781 1564.25 Z M 597.070312 1695.101562 C 596.65625 1688.078125 595.800781 1680.746094 594.882812 1673.765625 L 638.21875 1691.925781 C 637.277344 1698.710938 636.378906 1705.449219 635.417969 1712.210938 C 635.285156 1711.226562 595.496094 1697.222656 597.070312 1695.101562 Z M 593.175781 1661.335938 C 592.191406 1654.050781 590.988281 1646.414062 590.441406 1639.214844 L 641.324219 1660.527344 C 642.265625 1667.921875 640.164062 1675.40625 639.445312 1682.78125 C 638.960938 1681.644531 590.351562 1664.402344 593.175781 1661.335938 Z M 586.371094 1539.347656 L 637.648438 1560.835938 C 637.882812 1568.609375 638.136719 1576.390625 638.414062 1584.183594 L 587.179688 1562.695312 C 586.9375 1554.90625 586.609375 1547.136719 586.414062 1539.347656 Z M 673.78125 1448.625 C 647.628906 1455.429688 632.789062 1447.117188 609.242188 1436.832031 C 633.535156 1434.816406 652.421875 1432.453125 674.375 1445.34375 C 674.15625 1446.414062 674.023438 1447.507812 673.828125 1448.625 Z M 634.386719 1464.097656 C 634.605469 1470.9375 634.832031 1477.777344 635.066406 1484.621094 L 583.917969 1463.15625 L 583.238281 1442.585938 Z M 635.394531 1494.445312 C 635.65625 1502.234375 635.898438 1510.027344 636.160156 1517.792969 L 584.992188 1496.285156 C 584.75 1488.777344 584.488281 1480.527344 584.226562 1472.957031 Z M 636.511719 1527.640625 C 636.75 1535.40625 636.992188 1543.242188 637.277344 1551.007812 L 585.996094 1529.5 C 585.714844 1521.710938 585.472656 1513.964844 585.230469 1506.175781 Z M 638.699219 1594.007812 C 638.898438 1601.820312 639.226562 1609.519531 639.464844 1617.355469 L 588.363281 1595.867188 C 588.078125 1588.035156 587.792969 1580.308594 587.53125 1572.519531 Z M 639.835938 1627.246094 C 640.144531 1634.992188 640.449219 1642.804688 640.824219 1650.660156 L 589.652344 1629.214844 C 589.257812 1621.425781 588.929688 1613.613281 588.625 1605.757812 Z M 668.464844 1433.132812 C 671.265625 1432.957031 674 1432.738281 676.671875 1432.519531 C 676.429688 1433.789062 676.210938 1435.035156 675.972656 1436.285156 Z M 516.246094 1777.417969 L 476.851562 1760.921875 C 487.246094 1754.574219 519.484375 1772.101562 529.027344 1775.492188 Z M 578.535156 1768.667969 C 547.257812 1776.28125 535.222656 1769.105469 507.558594 1756.699219 C 548.332031 1749.847656 550.390625 1750.132812 588.011719 1767.398438 Z M 643.691406 1758.492188 C 613.925781 1770.679688 594.378906 1761.730469 567.546875 1749.125 C 577.769531 1743.699219 589.019531 1749.433594 594.007812 1737.222656 L 644.476562 1758.359375 C 644.210938 1758.40625 643.945312 1758.472656 643.691406 1758.558594 Z M 647.738281 1750.023438 L 595.496094 1728.140625 C 596.757812 1720.800781 597.414062 1713.402344 597.464844 1705.953125 C 663.714844 1729.9375 610.839844 1721.074219 647.738281 1750.089844 Z M 729.484375 1768.339844 L 720.621094 1764.640625 C 746.707031 1763.789062 748.4375 1766.566406 771.613281 1776.457031 C 756.992188 1775.515625 740.90625 1773.195312 729.484375 1768.402344 Z M 813.546875 1769.367188 C 813.242188 1771.644531 812.625 1773.832031 811.6875 1775.929688 C 801.992188 1784.289062 764.5 1762.410156 754.785156 1759.695312 C 760.386719 1754.664062 761.21875 1747.246094 762.488281 1740 L 814.773438 1761.882812 C 814.335938 1764.574219 813.964844 1767.15625 813.546875 1769.433594 Z M 818.429688 1733.65625 C 817.835938 1741.160156 817.421875 1746.214844 816.347656 1752.757812 L 764.019531 1730.878906 C 765.332031 1723.632812 766.234375 1716.339844 766.734375 1708.996094 C 767.5 1710.484375 823.222656 1729.695312 818.429688 1733.722656 Z M 821.753906 1700.832031 C 820.75 1707.398438 819.960938 1714.96875 819.457031 1721.269531 L 767.5 1699.5 C 768.046875 1692.210938 768.726562 1684.730469 769.6875 1677.441406 C 769.929688 1678.449219 824.863281 1698.667969 821.753906 1700.941406 Z M 830.3125 1670.570312 C 827.328125 1676.871094 825.140625 1683.433594 823.746094 1690.265625 L 771.21875 1668.382812 C 771.941406 1664.902344 772.6875 1661.820312 773.539062 1658.972656 C 774.625 1655.210938 776.085938 1651.601562 777.917969 1648.140625 L 830.574219 1670.199219 C 830.445312 1670.484375 830.378906 1670.484375 830.3125 1670.679688 Z M 850.273438 1651.382812 C 847.265625 1652.421875 844.484375 1653.886719 841.925781 1655.78125 C 839.371094 1657.671875 837.15625 1659.902344 835.28125 1662.476562 L 783.390625 1640.722656 C 791.289062 1634.902344 802.605469 1634.902344 811.839844 1633.460938 C 819.105469 1637.945312 845.5 1644.902344 850.273438 1651.492188 Z M 828.015625 1630.503906 C 835.960938 1627.859375 835.609375 1629.191406 840.140625 1635.582031 C 836.726562 1634.292969 831.449219 1632.058594 828.015625 1630.617188 Z M 922.539062 1741.664062 C 919.820312 1743.492188 917.007812 1745.15625 914.09375 1746.652344 C 909.300781 1740.941406 901.726562 1723.917969 897.570312 1714.488281 C 881.371094 1691.207031 861.5 1605.648438 827.421875 1614.816406 C 815.234375 1618.40625 802.515625 1618.363281 789.976562 1621.382812 C 756.621094 1628.339844 755.089844 1669.300781 752.265625 1696.960938 C 750.996094 1706.433594 749.3125 1746.71875 742.746094 1748.996094 C 722.238281 1749.652344 649.511719 1751.007812 648.964844 1725.035156 C 668.046875 1591.554688 682.691406 1457.269531 715.257812 1326.132812 C 717.773438 1316.132812 739.988281 1321.753906 748.808594 1320.441406 C 781.003906 1321.097656 812.628906 1315.386719 844.449219 1312.628906 C 869.707031 1290.050781 945.542969 1515.300781 961.914062 1544.140625 C 988.375 1627.484375 1021.511719 1628.144531 972.617188 1710.855469 C 953.792969 1719.234375 938.714844 1729.9375 922.539062 1741.773438 Z M 958.0625 1735.601562 C 959.222656 1734.925781 960.449219 1734.289062 961.761719 1733.570312 C 960.863281 1735.800781 960.402344 1737.332031 958.0625 1735.714844 Z M 991.042969 1768.621094 C 987.605469 1771.023438 984.007812 1773.160156 980.253906 1775.035156 C 980.253906 1775.035156 931.078125 1754.464844 931.121094 1754.398438 C 936.984375 1750.570312 943.203125 1745.929688 949.066406 1741.535156 L 956.640625 1744.707031 C 956.417969 1745.660156 956.382812 1746.621094 956.53125 1747.589844 C 956.679688 1748.554688 957 1749.460938 957.492188 1750.308594 C 958.019531 1753.742188 990.5625 1765.320312 993.320312 1767.027344 Z M 1123.324219 1775.800781 C 1093.121094 1772.800781 1051.84375 1774.902344 1017.898438 1760.613281 C 1043.351562 1760.984375 1070.207031 1768.074219 1095.003906 1762.5625 C 1095.601562 1762.386719 1096.179688 1762.152344 1096.730469 1761.863281 L 1131.226562 1776.324219 C 1128.707031 1776.214844 1126.082031 1776.019531 1123.324219 1775.910156 Z M 1167.972656 1763.566406 C 1165.609375 1767.550781 1163.375 1771.863281 1159.546875 1774.507812 C 1158.1875 1781.226562 1108.179688 1755.625 1105.488281 1755.710938 C 1110.359375 1750.292969 1114.292969 1744.261719 1117.285156 1737.617188 C 1117.109375 1740.265625 1178.871094 1758.011719 1167.972656 1763.675781 Z M 1179.332031 1735.121094 C 1177.667969 1740.746094 1175.828125 1746.238281 1173.640625 1751.664062 L 1120.9375 1729.5625 C 1123.585938 1722.984375 1125.878906 1716.28125 1127.8125 1709.453125 C 1128.292969 1711.796875 1187.1875 1729.695312 1179.332031 1735.230469 Z M 1188.304688 1703.351562 C 1186.3125 1709.761719 1184.582031 1716.347656 1182.855469 1722.800781 L 1130.328125 1700.769531 C 1132.230469 1694.007812 1134.046875 1686.960938 1136.082031 1680.15625 C 1136.0625 1680.988281 1191.0625 1701.796875 1188.304688 1703.460938 Z M 1138.730469 1671.597656 C 1141.699219 1662.628906 1145.632812 1654.101562 1150.527344 1646.019531 L 1184.824219 1690.898438 Z M 1272.238281 1735.054688 C 1235.863281 1739.433594 1223.695312 1717.027344 1204.851562 1691.597656 C 1193.273438 1682.476562 1156.242188 1612.410156 1144.269531 1628.144531 C 1115.96875 1657.574219 1117.699219 1733.175781 1088.042969 1748.492188 C 1051.164062 1749.453125 1012.601562 1744.421875 975.679688 1740.089844 C 1093.601562 1510.15625 1044.753906 1581.753906 966.070312 1359.128906 C 955.457031 1334.601562 970.230469 1335.058594 996.710938 1327.226562 C 1013.191406 1325.191406 1037.988281 1315.234375 1051.539062 1325.191406 C 1062.480469 1337.421875 1071.082031 1360.355469 1079.070312 1376.523438 C 1091.171875 1388.800781 1130.699219 1503.089844 1143 1473.746094 C 1160.507812 1425.847656 1179.660156 1377.816406 1194.257812 1328.625 C 1199.640625 1297.050781 1203.425781 1301.800781 1231.617188 1308.277344 C 1259.105469 1313.855469 1288.324219 1317.445312 1314.675781 1326.480469 C 1347.789062 1348.800781 1240.261719 1495.453125 1231.878906 1531.949219 C 1226.757812 1544.90625 1232.078125 1557.378906 1240.960938 1567.09375 C 1270.332031 1596.808594 1293.773438 1630.113281 1321.503906 1660.988281 C 1334.875 1676.566406 1349.1875 1692.695312 1355.972656 1712.253906 C 1336.800781 1725.757812 1298.652344 1731.554688 1272.148438 1735.1875 Z M 1339.078125 1763.085938 C 1317.871094 1765.273438 1302.15625 1756.523438 1284.886719 1749.300781 C 1320.191406 1739.519531 1325.878906 1747.921875 1357.375 1760.875 C 1351.292969 1762.027344 1345.164062 1762.808594 1338.988281 1763.21875 Z M 1395.695312 1751.445312 C 1372.671875 1764.050781 1349.734375 1747.070312 1329.054688 1739.390625 C 1374.839844 1722.890625 1367.003906 1730.375 1410.03125 1747.070312 C 1405.390625 1748.578125 1400.621094 1750.089844 1395.695312 1751.445312 Z M 1370.789062 1708.382812 C 1370.222656 1706.71875 1369.675781 1705.058594 1368.996094 1703.394531 C 1365.410156 1694.707031 1360.878906 1686.546875 1355.40625 1678.90625 C 1389.21875 1692.039062 1398.738281 1694.53125 1417.210938 1727.835938 Z M 1370.789062 1708.382812 " fill-opacity="1" fill-rule="nonzero"/></g></svg>