<svg xmlns="http://www.w3.org/2000/svg" xmlns:xlink="http://www.w3.org/1999/xlink" width="1000" zoomAndPan="magnify" viewBox="0 0 750 749.999995" height="1000" preserveAspectRatio="xMidYMid meet" version="1.0"><defs><clipPath id="4c2557a716"><path d="M 18.75 0 L 731.25 0 L 731.25 750 L 18.75 750 Z M 18.75 0 " clip-rule="nonzero"/></clipPath></defs><path fill="#30a5f8" d="M 588.871094 174.601562 C 591.730469 177.457031 594.515625 180.382812 597.230469 183.378906 C 599.945312 186.375 602.585938 189.433594 605.148438 192.558594 C 607.714844 195.683594 610.199219 198.867188 612.605469 202.113281 C 615.015625 205.359375 617.339844 208.664062 619.585938 212.027344 C 621.832031 215.386719 623.992188 218.800781 626.070312 222.265625 C 628.148438 225.734375 630.140625 229.25 632.046875 232.8125 C 633.953125 236.378906 635.769531 239.988281 637.496094 243.640625 C 639.226562 247.296875 640.863281 250.988281 642.410156 254.722656 C 643.957031 258.457031 645.410156 262.226562 646.773438 266.035156 C 648.132812 269.839844 649.402344 273.675781 650.574219 277.542969 C 651.746094 281.410156 652.824219 285.304688 653.808594 289.226562 C 654.789062 293.148438 655.675781 297.089844 656.464844 301.054688 C 657.25 305.019531 657.941406 309 658.535156 312.996094 C 659.128906 316.996094 659.625 321.007812 660.019531 325.027344 C 660.414062 329.050781 660.714844 333.082031 660.910156 337.117188 C 661.109375 341.15625 661.207031 345.195312 661.207031 349.234375 C 661.207031 353.277344 661.109375 357.316406 660.910156 361.355469 C 660.714844 365.390625 660.414062 369.421875 660.019531 373.445312 C 659.625 377.464844 659.128906 381.476562 658.535156 385.476562 C 657.941406 389.472656 657.25 393.453125 656.464844 397.417969 C 655.675781 401.382812 654.789062 405.324219 653.808594 409.246094 C 652.824219 413.167969 651.746094 417.0625 650.574219 420.929688 C 649.402344 424.796875 648.132812 428.632812 646.773438 432.4375 C 645.410156 436.246094 643.957031 440.015625 642.410156 443.75 C 640.863281 447.484375 639.226562 451.175781 637.496094 454.832031 C 635.769531 458.484375 633.953125 462.09375 632.046875 465.660156 C 630.140625 469.222656 628.148438 472.738281 626.070312 476.207031 C 623.992188 479.671875 621.832031 483.085938 619.585938 486.445312 C 617.339844 489.808594 615.015625 493.113281 612.605469 496.359375 C 610.199219 499.605469 607.710938 502.789062 605.148438 505.914062 C 602.585938 509.039062 599.945312 512.097656 597.230469 515.09375 C 594.515625 518.089844 591.730469 521.015625 588.871094 523.871094 C 586.015625 526.730469 583.085938 529.515625 580.09375 532.230469 C 577.097656 534.945312 574.039062 537.585938 570.914062 540.148438 C 567.789062 542.714844 564.605469 545.199219 561.359375 547.605469 C 558.109375 550.015625 554.808594 552.339844 551.445312 554.585938 C 548.085938 556.832031 544.671875 558.992188 541.207031 561.070312 C 537.738281 563.148438 534.222656 565.140625 530.65625 567.046875 C 527.09375 568.953125 523.484375 570.769531 519.832031 572.496094 C 516.175781 574.226562 512.484375 575.863281 508.75 577.410156 C 505.015625 578.957031 501.242188 580.410156 497.4375 581.773438 C 493.632812 583.132812 489.796875 584.402344 485.929688 585.574219 C 482.058594 586.746094 478.167969 587.824219 474.246094 588.808594 C 470.324219 589.789062 466.382812 590.675781 462.417969 591.464844 C 458.453125 592.253906 454.472656 592.941406 450.472656 593.535156 C 446.476562 594.128906 442.464844 594.625 438.445312 595.019531 C 434.421875 595.417969 430.390625 595.714844 426.355469 595.910156 C 422.316406 596.109375 418.277344 596.210938 414.234375 596.210938 C 410.195312 596.210938 406.15625 596.109375 402.117188 595.910156 C 398.082031 595.714844 394.050781 595.417969 390.027344 595.019531 C 386.003906 594.625 381.996094 594.128906 377.996094 593.535156 C 374 592.941406 370.019531 592.253906 366.054688 591.464844 C 362.089844 590.675781 358.148438 589.789062 354.226562 588.808594 C 350.304688 587.824219 346.410156 586.746094 342.542969 585.574219 C 338.675781 584.402344 334.839844 583.132812 331.03125 581.773438 C 327.226562 580.410156 323.457031 578.957031 319.722656 577.410156 C 315.988281 575.863281 312.296875 574.226562 308.640625 572.496094 C 304.988281 570.769531 301.378906 568.953125 297.8125 567.046875 C 294.25 565.140625 290.734375 563.148438 287.265625 561.070312 C 283.800781 558.992188 280.386719 556.832031 277.023438 554.585938 C 273.664062 552.339844 270.359375 550.015625 267.113281 547.605469 C 263.867188 545.199219 260.683594 542.714844 257.558594 540.148438 C 254.433594 537.585938 251.375 534.945312 248.378906 532.230469 C 245.382812 529.515625 242.457031 526.730469 239.601562 523.871094 C 236.742188 521.015625 233.957031 518.085938 231.242188 515.09375 C 228.527344 512.097656 225.886719 509.039062 223.324219 505.914062 C 220.757812 502.789062 218.273438 499.605469 215.867188 496.359375 C 213.457031 493.109375 211.132812 489.808594 208.886719 486.445312 C 206.640625 483.085938 204.476562 479.671875 202.398438 476.207031 C 200.320312 472.738281 198.332031 469.222656 196.425781 465.660156 C 194.519531 462.09375 192.703125 458.484375 190.976562 454.832031 C 189.246094 451.175781 187.609375 447.484375 186.0625 443.75 C 184.515625 440.015625 183.0625 436.246094 181.699219 432.4375 C 180.339844 428.632812 179.070312 424.796875 177.898438 420.929688 C 176.722656 417.0625 175.644531 413.167969 174.664062 409.246094 C 173.683594 405.324219 172.796875 401.382812 172.007812 397.417969 C 171.21875 393.453125 170.527344 389.472656 169.9375 385.476562 C 169.34375 381.476562 168.847656 377.464844 168.453125 373.445312 C 168.054688 369.421875 167.757812 365.390625 167.558594 361.355469 C 167.363281 357.316406 167.261719 353.277344 167.261719 349.234375 C 167.261719 345.195312 167.363281 341.15625 167.558594 337.117188 C 167.757812 333.082031 168.054688 329.050781 168.453125 325.027344 C 168.847656 321.007812 169.34375 316.996094 169.9375 312.996094 C 170.527344 309 171.21875 305.019531 172.007812 301.054688 C 172.796875 297.089844 173.683594 293.148438 174.664062 289.226562 C 175.644531 285.304688 176.722656 281.410156 177.898438 277.542969 C 179.070312 273.675781 180.339844 269.839844 181.699219 266.035156 C 183.0625 262.226562 184.515625 258.457031 186.0625 254.722656 C 187.609375 250.988281 189.246094 247.296875 190.976562 243.640625 C 192.703125 239.988281 194.519531 236.378906 196.425781 232.8125 C 198.332031 229.25 200.320312 225.734375 202.398438 222.265625 C 204.476562 218.800781 206.640625 215.386719 208.886719 212.027344 C 211.128906 208.664062 213.457031 205.359375 215.863281 202.113281 C 218.273438 198.867188 220.757812 195.683594 223.324219 192.558594 C 225.886719 189.433594 228.527344 186.375 231.242188 183.378906 C 233.957031 180.382812 236.742188 177.457031 239.597656 174.601562 C 242.457031 171.742188 245.382812 168.957031 248.378906 166.242188 C 251.375 163.527344 254.433594 160.886719 257.558594 158.324219 C 260.683594 155.757812 263.867188 153.273438 267.113281 150.863281 C 270.359375 148.457031 273.664062 146.128906 277.023438 143.882812 C 280.386719 141.640625 283.796875 139.476562 287.265625 137.398438 C 290.734375 135.320312 294.25 133.328125 297.8125 131.421875 C 301.378906 129.519531 304.988281 127.703125 308.640625 125.972656 C 312.292969 124.246094 315.988281 122.605469 319.722656 121.058594 C 323.457031 119.511719 327.226562 118.058594 331.03125 116.699219 C 334.839844 115.335938 338.675781 114.066406 342.542969 112.894531 C 346.410156 111.722656 350.304688 110.644531 354.226562 109.660156 C 358.148438 108.679688 362.089844 107.792969 366.054688 107.003906 C 370.019531 106.21875 374 105.527344 377.996094 104.933594 C 381.996094 104.339844 386.003906 103.84375 390.027344 103.449219 C 394.050781 103.054688 398.082031 102.753906 402.117188 102.558594 C 406.15625 102.359375 410.195312 102.261719 414.234375 102.261719 C 418.277344 102.261719 422.316406 102.359375 426.355469 102.558594 C 430.390625 102.753906 434.421875 103.054688 438.445312 103.449219 C 442.464844 103.84375 446.476562 104.339844 450.476562 104.933594 C 454.472656 105.527344 458.453125 106.21875 462.417969 107.003906 C 466.382812 107.792969 470.324219 108.679688 474.246094 109.660156 C 478.167969 110.644531 482.0625 111.722656 485.929688 112.894531 C 489.796875 114.066406 493.632812 115.335938 497.4375 116.699219 C 501.246094 118.058594 505.015625 119.511719 508.75 121.058594 C 512.484375 122.605469 516.175781 124.246094 519.832031 125.972656 C 523.484375 127.703125 527.09375 129.519531 530.660156 131.421875 C 534.222656 133.328125 537.738281 135.320312 541.207031 137.398438 C 544.671875 139.476562 548.085938 141.640625 551.449219 143.882812 C 554.808594 146.128906 558.113281 148.457031 561.359375 150.863281 C 564.605469 153.273438 567.789062 155.757812 570.914062 158.324219 C 574.039062 160.886719 577.097656 163.527344 580.09375 166.242188 C 583.089844 168.957031 586.015625 171.742188 588.871094 174.601562 Z M 588.871094 174.601562 " fill-opacity="1" fill-rule="evenodd"/><path fill="#44bc59" d="M 451.148438 105.054688 L 407.171875 150.144531 L 422.53125 200.589844 L 326.910156 233.1875 L 299.300781 335.992188 L 397.078125 324.363281 L 463.929688 387.1875 L 498.226562 338.191406 L 515.5 272.960938 L 566.195312 259.179688 L 661.152344 345.042969 C 661.09375 341.433594 660.953125 337.824219 660.734375 334.21875 C 660.515625 330.613281 660.214844 327.015625 659.839844 323.421875 C 659.460938 319.832031 659.007812 316.25 658.472656 312.675781 C 657.9375 309.105469 657.324219 305.546875 656.636719 302 C 655.945312 298.453125 655.175781 294.925781 654.332031 291.414062 C 653.488281 287.902344 652.566406 284.410156 651.566406 280.941406 C 650.566406 277.46875 649.492188 274.023438 648.34375 270.597656 C 647.195312 267.171875 645.96875 263.777344 644.671875 260.40625 C 643.371094 257.035156 642 253.695312 640.554688 250.386719 C 639.109375 247.074219 637.59375 243.800781 636.003906 240.554688 C 634.414062 237.3125 632.753906 234.105469 631.023438 230.933594 C 629.292969 227.761719 627.496094 224.632812 625.628906 221.539062 C 623.761719 218.449219 621.828125 215.398438 619.824219 212.394531 C 617.824219 209.386719 615.757812 206.425781 613.628906 203.507812 C 611.496094 200.59375 609.300781 197.722656 607.046875 194.90625 C 604.789062 192.085938 602.46875 189.316406 600.09375 186.597656 C 597.714844 183.878906 595.277344 181.214844 592.78125 178.601562 C 590.285156 175.992188 587.734375 173.4375 585.125 170.9375 C 582.519531 168.4375 579.859375 165.996094 577.144531 163.617188 C 574.429688 161.234375 571.664062 158.910156 568.847656 156.648438 C 566.03125 154.390625 563.164062 152.191406 560.25 150.054688 C 557.339844 147.921875 554.378906 145.851562 551.375 143.84375 C 548.371094 141.839844 545.324219 139.898438 542.238281 138.027344 C 539.148438 136.15625 536.019531 134.351562 532.851562 132.617188 C 529.683594 130.882812 526.476562 129.21875 523.238281 127.625 C 519.996094 126.03125 516.722656 124.511719 513.414062 123.058594 C 510.105469 121.609375 506.765625 120.234375 503.398438 118.929688 C 500.03125 117.625 496.632812 116.398438 493.210938 115.242188 C 489.789062 114.085938 486.34375 113.007812 482.875 112.003906 C 479.40625 111 475.914062 110.074219 472.402344 109.222656 C 468.894531 108.375 465.367188 107.601562 461.820312 106.90625 C 458.277344 106.210938 454.71875 105.59375 451.148438 105.054688 Z M 451.148438 105.054688 " fill-opacity="1" fill-rule="evenodd"/><path fill="#44bc59" d="M 632.761719 464.40625 L 580.570312 455.355469 L 569.519531 400.09375 L 512.054688 461.960938 L 456.792969 450.90625 L 466.425781 506.585938 L 443.257812 594.488281 C 448.203125 593.898438 453.128906 593.164062 458.03125 592.277344 C 462.933594 591.394531 467.804688 590.359375 472.644531 589.179688 C 477.484375 588 482.285156 586.675781 487.042969 585.207031 C 491.804688 583.738281 496.515625 582.125 501.179688 580.371094 C 505.839844 578.617188 510.445312 576.722656 514.996094 574.691406 C 519.542969 572.65625 524.027344 570.488281 528.445312 568.183594 C 532.859375 565.882812 537.203125 563.445312 541.472656 560.878906 C 545.746094 558.316406 549.933594 555.621094 554.039062 552.800781 C 558.148438 549.984375 562.167969 547.042969 566.097656 543.980469 C 570.027344 540.917969 573.859375 537.738281 577.597656 534.445312 C 581.335938 531.152344 584.96875 527.75 588.5 524.234375 C 592.03125 520.722656 595.457031 517.105469 598.769531 513.382812 C 602.082031 509.664062 605.28125 505.847656 608.363281 501.933594 C 611.445312 498.019531 614.40625 494.015625 617.246094 489.925781 C 620.085938 485.832031 622.800781 481.65625 625.390625 477.402344 C 627.980469 473.144531 630.4375 468.8125 632.761719 464.40625 Z M 632.761719 464.40625 " fill-opacity="1" fill-rule="evenodd"/><path fill="#44bc59" d="M 171.171875 392.917969 L 302.046875 450.921875 L 370.597656 395.660156 L 368.355469 503.984375 L 306.488281 512.832031 L 359.054688 589.976562 C 356.125 589.304688 353.210938 588.582031 350.308594 587.804688 C 347.40625 587.027344 344.519531 586.195312 341.648438 585.3125 C 338.777344 584.429688 335.921875 583.496094 333.085938 582.507812 C 330.25 581.519531 327.429688 580.480469 324.628906 579.390625 C 321.832031 578.300781 319.050781 577.160156 316.292969 575.96875 C 313.535156 574.777344 310.800781 573.535156 308.089844 572.246094 C 305.375 570.953125 302.6875 569.613281 300.023438 568.222656 C 297.359375 566.835938 294.722656 565.398438 292.113281 563.910156 C 289.5 562.425781 286.917969 560.890625 284.363281 559.3125 C 281.808594 557.730469 279.28125 556.105469 276.785156 554.433594 C 274.289062 552.761719 271.824219 551.042969 269.390625 549.28125 C 266.957031 547.519531 264.558594 545.714844 262.191406 543.863281 C 259.824219 542.015625 257.492188 540.121094 255.191406 538.1875 C 252.894531 536.253906 250.632812 534.277344 248.40625 532.257812 C 246.179688 530.242188 243.992188 528.183594 241.839844 526.085938 C 239.6875 523.988281 237.578125 521.855469 235.503906 519.679688 C 233.429688 517.503906 231.398438 515.292969 229.40625 513.046875 C 227.414062 510.796875 225.460938 508.511719 223.554688 506.191406 C 221.644531 503.875 219.777344 501.519531 217.953125 499.132812 C 216.132812 496.742188 214.351562 494.324219 212.617188 491.871094 C 210.882812 489.417969 209.195312 486.933594 207.550781 484.417969 C 205.90625 481.90625 204.308594 479.363281 202.757812 476.789062 C 201.203125 474.214844 199.699219 471.617188 198.246094 468.988281 C 196.789062 466.359375 195.378906 463.707031 194.019531 461.027344 C 192.660156 458.347656 191.351562 455.644531 190.089844 452.917969 C 188.828125 450.191406 187.617188 447.445312 186.457031 444.671875 C 185.296875 441.902344 184.1875 439.109375 183.128906 436.296875 C 182.070312 433.488281 181.0625 430.65625 180.105469 427.808594 C 179.152344 424.960938 178.25 422.097656 177.398438 419.214844 C 176.546875 416.332031 175.75 413.4375 175.003906 410.527344 C 174.257812 407.617188 173.566406 404.695312 172.929688 401.757812 C 172.289062 398.824219 171.703125 395.875 171.171875 392.917969 Z M 171.171875 392.917969 " fill-opacity="1" fill-rule="evenodd"/><path fill="#fed2a4" d="M 580.113281 501.90625 L 437.53125 590.679688 C 440.140625 588.4375 442.371094 585.867188 444.222656 582.96875 C 446.074219 580.070312 447.46875 576.964844 448.40625 573.65625 C 448.714844 572.554688 448.964844 571.4375 449.164062 570.3125 C 449.359375 569.183594 449.5 568.050781 449.585938 566.910156 C 449.671875 565.769531 449.703125 564.628906 449.675781 563.484375 C 449.652344 562.339844 449.570312 561.199219 449.433594 560.066406 C 449.296875 558.929688 449.101562 557.804688 448.855469 556.6875 C 448.609375 555.570312 448.304688 554.46875 447.949219 553.378906 C 447.59375 552.292969 447.1875 551.226562 446.726562 550.179688 C 446.265625 549.132812 445.757812 548.109375 445.195312 547.109375 C 444.636719 546.113281 444.03125 545.144531 443.375 544.207031 C 442.71875 543.269531 442.019531 542.367188 441.277344 541.496094 C 440.535156 540.628906 439.75 539.796875 438.925781 539.003906 C 438.101562 538.210938 437.238281 537.460938 436.339844 536.753906 C 435.441406 536.042969 434.511719 535.382812 433.546875 534.765625 C 432.585938 534.148438 431.59375 533.578125 430.574219 533.058594 C 429.554688 532.539062 428.515625 532.070312 427.449219 531.652344 C 426.386719 531.234375 425.300781 530.867188 424.203125 530.554688 L 268.375 479.820312 C 266.226562 479.085938 264.03125 478.582031 261.777344 478.304688 C 259.527344 478.03125 257.273438 477.992188 255.011719 478.1875 C 252.753906 478.386719 250.539062 478.8125 248.367188 479.472656 C 246.199219 480.132812 244.121094 481.007812 242.132812 482.101562 L 114.042969 550.445312 L 187.574219 681.527344 L 216.390625 667.742188 C 218.117188 666.890625 219.902344 666.199219 221.75 665.664062 C 223.601562 665.132812 225.480469 664.765625 227.394531 664.570312 C 229.308594 664.371094 231.226562 664.34375 233.144531 664.484375 C 235.0625 664.628906 236.953125 664.9375 238.816406 665.417969 L 386.84375 701.292969 C 389.011719 701.851562 391.210938 702.183594 393.449219 702.285156 C 395.6875 702.390625 397.910156 702.265625 400.121094 701.914062 C 402.332031 701.558594 404.484375 700.984375 406.574219 700.1875 C 408.667969 699.390625 410.65625 698.390625 412.542969 697.183594 L 620.921875 567.433594 C 621.992188 566.765625 623.027344 566.042969 624.027344 565.273438 C 625.023438 564.5 625.984375 563.679688 626.902344 562.816406 C 627.824219 561.949219 628.699219 561.042969 629.527344 560.089844 C 630.359375 559.140625 631.140625 558.152344 631.875 557.125 C 632.609375 556.09375 633.289062 555.035156 633.921875 553.941406 C 634.550781 552.84375 635.125 551.722656 635.644531 550.574219 C 636.164062 549.421875 636.628906 548.25 637.03125 547.050781 C 637.4375 545.855469 637.78125 544.644531 638.070312 543.414062 C 638.355469 542.183594 638.582031 540.941406 638.746094 539.691406 C 638.910156 538.4375 639.015625 537.183594 639.054688 535.921875 C 639.097656 534.65625 639.078125 533.398438 638.996094 532.136719 C 638.914062 530.878906 638.773438 529.625 638.566406 528.378906 C 638.363281 527.132812 638.097656 525.898438 637.773438 524.679688 C 637.449219 523.457031 637.066406 522.257812 636.621094 521.074219 C 636.179688 519.890625 635.679688 518.734375 635.125 517.601562 C 634.566406 516.464844 633.957031 515.363281 633.292969 514.289062 C 632.621094 513.21875 631.902344 512.183594 631.128906 511.183594 C 630.355469 510.183594 629.535156 509.226562 628.667969 508.304688 C 627.804688 507.386719 626.894531 506.511719 625.941406 505.679688 C 624.988281 504.847656 624 504.066406 622.96875 503.332031 C 621.941406 502.601562 620.878906 501.917969 619.785156 501.289062 C 618.6875 500.660156 617.566406 500.085938 616.414062 499.5625 C 615.261719 499.042969 614.089844 498.582031 612.890625 498.175781 C 611.695312 497.773438 610.480469 497.425781 609.25 497.140625 C 608.019531 496.855469 606.777344 496.628906 605.527344 496.464844 C 604.273438 496.296875 603.015625 496.195312 601.753906 496.152344 C 600.488281 496.113281 599.226562 496.132812 597.96875 496.214844 C 596.707031 496.292969 595.453125 496.4375 594.207031 496.640625 C 592.960938 496.847656 591.726562 497.109375 590.503906 497.4375 C 589.285156 497.761719 588.082031 498.144531 586.898438 498.585938 C 585.714844 499.03125 584.554688 499.53125 583.421875 500.085938 C 582.285156 500.640625 581.183594 501.25 580.105469 501.914062 Z M 580.113281 501.90625 " fill-opacity="1" fill-rule="evenodd"/><path fill="#8bc34a" d="M 195.546875 691.078125 L 105.40625 534.917969 C 105.039062 534.289062 104.613281 533.703125 104.132812 533.160156 C 103.648438 532.613281 103.117188 532.121094 102.539062 531.679688 C 101.960938 531.238281 101.347656 530.859375 100.695312 530.535156 C 100.042969 530.214844 99.363281 529.960938 98.660156 529.773438 C 97.960938 529.582031 97.246094 529.464844 96.519531 529.414062 C 95.792969 529.367188 95.070312 529.390625 94.347656 529.480469 C 93.628906 529.574219 92.921875 529.734375 92.230469 529.964844 C 91.542969 530.195312 90.882812 530.492188 90.25 530.851562 L 34.738281 562.894531 C 34.109375 563.257812 33.519531 563.679688 32.976562 564.160156 C 32.429688 564.636719 31.933594 565.167969 31.492188 565.742188 C 31.050781 566.320312 30.671875 566.933594 30.351562 567.585938 C 30.03125 568.238281 29.777344 568.914062 29.589844 569.617188 C 29.402344 570.320312 29.285156 571.03125 29.238281 571.757812 C 29.191406 572.480469 29.21875 573.203125 29.3125 573.925781 C 29.410156 574.644531 29.574219 575.347656 29.808594 576.035156 C 30.042969 576.722656 30.34375 577.382812 30.707031 578.007812 L 120.890625 734.210938 C 121.253906 734.839844 121.675781 735.425781 122.15625 735.972656 C 122.636719 736.515625 123.164062 737.011719 123.742188 737.453125 C 124.316406 737.894531 124.933594 738.273438 125.582031 738.59375 C 126.234375 738.914062 126.910156 739.167969 127.613281 739.355469 C 128.316406 739.542969 129.027344 739.660156 129.753906 739.707031 C 130.476562 739.753906 131.199219 739.726562 131.921875 739.632812 C 132.640625 739.535156 133.34375 739.371094 134.03125 739.136719 C 134.71875 738.902344 135.375 738.601562 136.003906 738.238281 L 191.519531 706.183594 C 192.148438 705.820312 192.734375 705.398438 193.28125 704.917969 C 193.824219 704.441406 194.320312 703.914062 194.761719 703.335938 C 195.203125 702.757812 195.585938 702.144531 195.90625 701.492188 C 196.226562 700.839844 196.480469 700.164062 196.667969 699.460938 C 196.851562 698.761719 196.96875 698.046875 197.015625 697.320312 C 197.0625 696.597656 197.039062 695.875 196.941406 695.15625 C 196.847656 694.433594 196.679688 693.730469 196.445312 693.042969 C 196.210938 692.355469 195.910156 691.699219 195.546875 691.070312 Z M 195.546875 691.078125 " fill-opacity="1" fill-rule="evenodd"/><path fill="#ffd54f" d="M 207.171875 44.101562 C 209.117188 44.097656 211.0625 44.148438 213.007812 44.253906 C 214.949219 44.355469 216.890625 44.511719 218.824219 44.714844 C 220.757812 44.921875 222.6875 45.179688 224.609375 45.492188 C 226.53125 45.800781 228.441406 46.160156 230.34375 46.574219 C 232.246094 46.984375 234.136719 47.449219 236.011719 47.960938 C 237.890625 48.476562 239.753906 49.039062 241.597656 49.652344 C 243.445312 50.265625 245.277344 50.925781 247.085938 51.636719 C 248.898438 52.347656 250.691406 53.105469 252.460938 53.914062 C 254.234375 54.71875 255.980469 55.574219 257.707031 56.472656 C 259.433594 57.375 261.132812 58.320312 262.804688 59.3125 C 264.480469 60.300781 266.128906 61.335938 267.746094 62.417969 C 269.367188 63.496094 270.957031 64.617188 272.515625 65.78125 C 274.074219 66.949219 275.601562 68.152344 277.097656 69.398438 C 278.59375 70.644531 280.050781 71.929688 281.476562 73.253906 C 282.902344 74.578125 284.292969 75.941406 285.648438 77.339844 C 287 78.738281 288.316406 80.171875 289.589844 81.640625 C 290.867188 83.109375 292.105469 84.613281 293.300781 86.148438 C 294.496094 87.683594 295.648438 89.25 296.761719 90.847656 C 297.875 92.445312 298.941406 94.070312 299.96875 95.722656 C 300.992188 97.378906 301.972656 99.058594 302.910156 100.765625 C 303.84375 102.472656 304.734375 104.203125 305.574219 105.957031 C 306.417969 107.710938 307.214844 109.488281 307.960938 111.28125 C 308.707031 113.078125 309.40625 114.894531 310.058594 116.730469 C 310.707031 118.5625 311.308594 120.414062 311.859375 122.28125 C 312.410156 124.148438 312.914062 126.027344 313.363281 127.921875 C 313.816406 129.8125 314.214844 131.71875 314.5625 133.632812 C 314.914062 135.546875 315.210938 137.46875 315.457031 139.398438 C 315.703125 141.332031 315.894531 143.265625 316.039062 145.207031 C 316.179688 147.148438 316.269531 149.089844 316.308594 151.035156 C 316.347656 152.984375 316.332031 154.929688 316.269531 156.875 C 316.203125 158.816406 316.085938 160.761719 315.914062 162.699219 C 315.746094 164.636719 315.523438 166.570312 315.25 168.496094 C 310.554688 171.078125 305.964844 173.832031 301.484375 176.769531 C 297 179.703125 292.640625 182.808594 288.398438 186.082031 C 284.15625 189.359375 280.050781 192.792969 276.074219 196.386719 C 272.101562 199.980469 268.273438 203.722656 264.589844 207.613281 C 260.90625 211.503906 257.378906 215.53125 254.007812 219.695312 C 250.636719 223.863281 247.433594 228.152344 244.394531 232.566406 C 241.359375 236.980469 238.496094 241.503906 235.8125 246.140625 C 233.125 250.777344 230.625 255.511719 228.304688 260.339844 C 221.328125 261.710938 214.28125 262.402344 207.171875 262.417969 C 205.386719 262.417969 203.601562 262.375 201.816406 262.285156 C 200.03125 262.199219 198.25 262.066406 196.472656 261.890625 C 194.695312 261.714844 192.921875 261.496094 191.15625 261.234375 C 189.386719 260.972656 187.628906 260.667969 185.875 260.320312 C 184.125 259.972656 182.382812 259.578125 180.648438 259.144531 C 178.914062 258.710938 177.195312 258.234375 175.484375 257.71875 C 173.773438 257.199219 172.078125 256.636719 170.398438 256.035156 C 168.714844 255.433594 167.050781 254.792969 165.398438 254.109375 C 163.75 253.425781 162.117188 252.699219 160.5 251.9375 C 158.886719 251.171875 157.289062 250.371094 155.714844 249.527344 C 154.140625 248.6875 152.585938 247.804688 151.054688 246.886719 C 149.519531 245.96875 148.011719 245.011719 146.527344 244.019531 C 145.042969 243.027344 143.582031 242 142.144531 240.933594 C 140.710938 239.871094 139.304688 238.773438 137.921875 237.640625 C 136.542969 236.507812 135.1875 235.339844 133.867188 234.140625 C 132.542969 232.941406 131.25 231.707031 129.984375 230.445312 C 128.722656 229.183594 127.492188 227.886719 126.289062 226.566406 C 125.089844 225.242188 123.925781 223.890625 122.789062 222.507812 C 121.65625 221.128906 120.558594 219.71875 119.496094 218.285156 C 118.429688 216.847656 117.402344 215.390625 116.410156 213.902344 C 115.417969 212.417969 114.460938 210.910156 113.542969 209.378906 C 112.625 207.84375 111.746094 206.292969 110.902344 204.714844 C 110.058594 203.140625 109.257812 201.542969 108.492188 199.929688 C 107.730469 198.316406 107.007812 196.683594 106.324219 195.03125 C 105.640625 193.382812 104.996094 191.714844 104.394531 190.03125 C 103.792969 188.351562 103.230469 186.65625 102.714844 184.945312 C 102.195312 183.234375 101.71875 181.515625 101.285156 179.78125 C 100.851562 178.050781 100.460938 176.304688 100.109375 174.554688 C 99.761719 172.800781 99.457031 171.042969 99.195312 169.277344 C 98.933594 167.507812 98.714844 165.734375 98.539062 163.957031 C 98.363281 162.179688 98.230469 160.398438 98.144531 158.613281 C 98.058594 156.832031 98.011719 155.046875 98.011719 153.257812 C 98.011719 151.472656 98.058594 149.6875 98.144531 147.902344 C 98.230469 146.117188 98.363281 144.335938 98.539062 142.558594 C 98.714844 140.78125 98.933594 139.007812 99.195312 137.242188 C 99.457031 135.472656 99.761719 133.714844 100.109375 131.960938 C 100.460938 130.210938 100.851562 128.46875 101.285156 126.734375 C 101.71875 125.003906 102.195312 123.28125 102.714844 121.570312 C 103.230469 119.863281 103.792969 118.167969 104.394531 116.484375 C 104.996094 114.800781 105.640625 113.136719 106.324219 111.484375 C 107.007812 109.835938 107.730469 108.203125 108.492188 106.585938 C 109.257812 104.972656 110.058594 103.378906 110.902344 101.800781 C 111.746094 100.226562 112.625 98.671875 113.542969 97.140625 C 114.460938 95.609375 115.417969 94.097656 116.410156 92.613281 C 117.402344 91.128906 118.429688 89.667969 119.496094 88.234375 C 120.558594 86.796875 121.65625 85.390625 122.789062 84.007812 C 123.925781 82.628906 125.089844 81.277344 126.289062 79.953125 C 127.492188 78.628906 128.722656 77.335938 129.984375 76.070312 C 131.25 74.808594 132.542969 73.578125 133.867188 72.378906 C 135.1875 71.175781 136.542969 70.011719 137.921875 68.878906 C 139.304688 67.746094 140.710938 66.644531 142.144531 65.582031 C 143.582031 64.515625 145.042969 63.488281 146.527344 62.496094 C 148.011719 61.503906 149.519531 60.546875 151.054688 59.628906 C 152.585938 58.710938 154.140625 57.832031 155.714844 56.988281 C 157.289062 56.148438 158.886719 55.34375 160.5 54.582031 C 162.117188 53.816406 163.75 53.09375 165.398438 52.410156 C 167.050781 51.726562 168.714844 51.082031 170.398438 50.480469 C 172.078125 49.878906 173.773438 49.320312 175.484375 48.800781 C 177.195312 48.28125 178.914062 47.804688 180.648438 47.371094 C 182.382812 46.9375 184.125 46.546875 185.875 46.199219 C 187.628906 45.847656 189.386719 45.542969 191.15625 45.28125 C 192.921875 45.019531 194.695312 44.800781 196.472656 44.625 C 198.25 44.449219 200.03125 44.320312 201.816406 44.230469 C 203.601562 44.144531 205.386719 44.101562 207.171875 44.101562 Z M 207.171875 44.101562 " fill-opacity="1" fill-rule="evenodd"/><path fill="#ff3c3c" d="M 469.417969 91.640625 L 530.496094 91.640625 L 530.496094 218.53125 L 469.417969 218.53125 Z M 469.417969 91.640625 " fill-opacity="1" fill-rule="nonzero"/><path fill="#ffd54f" d="M 564.585938 52.277344 L 625.660156 52.277344 L 625.660156 218.527344 L 564.585938 218.527344 Z M 564.585938 52.277344 " fill-opacity="1" fill-rule="nonzero"/><path fill="#3abeff" d="M 659.75 10.261719 L 720.785156 10.261719 L 720.785156 218.53125 L 659.75 218.53125 Z M 659.75 10.261719 " fill-opacity="1" fill-rule="nonzero"/><g clip-path="url(#4c2557a716)"><path fill="#000000" d="M 635.921875 218.527344 L 635.921875 52.277344 C 635.921875 51.601562 635.855469 50.9375 635.722656 50.273438 C 635.59375 49.613281 635.398438 48.972656 635.140625 48.347656 C 634.882812 47.726562 634.566406 47.136719 634.191406 46.574219 C 633.816406 46.015625 633.390625 45.496094 632.914062 45.019531 C 632.4375 44.542969 631.921875 44.117188 631.359375 43.742188 C 630.800781 43.367188 630.207031 43.054688 629.585938 42.796875 C 628.960938 42.539062 628.320312 42.34375 627.660156 42.210938 C 627 42.078125 626.332031 42.015625 625.65625 42.015625 L 564.59375 42.015625 C 563.917969 42.015625 563.25 42.078125 562.589844 42.210938 C 561.929688 42.34375 561.289062 42.539062 560.664062 42.796875 C 560.042969 43.054688 559.449219 43.367188 558.890625 43.742188 C 558.328125 44.117188 557.8125 44.542969 557.335938 45.019531 C 556.859375 45.496094 556.433594 46.015625 556.058594 46.574219 C 555.683594 47.136719 555.367188 47.726562 555.109375 48.347656 C 554.851562 48.972656 554.65625 49.613281 554.527344 50.273438 C 554.394531 50.9375 554.328125 51.601562 554.328125 52.277344 L 554.328125 133.484375 C 549.902344 130.605469 545.375 127.859375 540.75 125.238281 L 540.75 91.636719 C 540.75 90.964844 540.683594 90.296875 540.550781 89.636719 C 540.421875 88.976562 540.226562 88.332031 539.96875 87.710938 C 539.710938 87.089844 539.394531 86.496094 539.019531 85.9375 C 538.644531 85.375 538.21875 84.859375 537.742188 84.382812 C 537.265625 83.90625 536.75 83.480469 536.1875 83.105469 C 535.628906 82.730469 535.035156 82.414062 534.414062 82.15625 C 533.792969 81.898438 533.148438 81.703125 532.488281 81.570312 C 531.828125 81.441406 531.160156 81.375 530.488281 81.375 L 469.425781 81.375 C 468.75 81.375 468.082031 81.441406 467.421875 81.570312 C 466.761719 81.703125 466.121094 81.898438 465.496094 82.15625 C 464.875 82.414062 464.285156 82.730469 463.722656 83.105469 C 463.164062 83.480469 462.644531 83.90625 462.167969 84.382812 C 461.691406 84.859375 461.265625 85.375 460.890625 85.9375 C 460.515625 86.496094 460.199219 87.089844 459.941406 87.710938 C 459.683594 88.332031 459.492188 88.976562 459.359375 89.636719 C 459.226562 90.296875 459.160156 90.964844 459.160156 91.636719 L 459.160156 95.980469 C 457.148438 95.628906 455.132812 95.296875 453.113281 94.992188 C 452.917969 94.953125 452.71875 94.929688 452.523438 94.902344 C 441.265625 93.230469 429.945312 92.304688 418.566406 92.125 C 407.1875 91.941406 395.84375 92.507812 384.539062 93.816406 C 373.234375 95.125 362.0625 97.171875 351.023438 99.949219 C 339.988281 102.730469 329.179688 106.21875 318.605469 110.417969 C 317.703125 108.078125 316.730469 105.765625 315.683594 103.484375 C 314.636719 101.203125 313.523438 98.960938 312.335938 96.75 C 311.148438 94.539062 309.890625 92.367188 308.566406 90.238281 C 307.242188 88.105469 305.851562 86.019531 304.394531 83.976562 C 302.9375 81.933594 301.421875 79.9375 299.839844 77.988281 C 298.257812 76.042969 296.613281 74.144531 294.914062 72.300781 C 293.210938 70.457031 291.453125 68.667969 289.640625 66.933594 C 287.828125 65.203125 285.960938 63.527344 284.039062 61.910156 C 282.121094 60.296875 280.152344 58.742188 278.132812 57.25 C 276.117188 55.757812 274.054688 54.332031 271.945312 52.972656 C 269.839844 51.609375 267.691406 50.316406 265.5 49.089844 C 263.3125 47.863281 261.085938 46.707031 258.824219 45.621094 C 256.5625 44.535156 254.269531 43.523438 251.941406 42.582031 C 249.617188 41.640625 247.261719 40.773438 244.882812 39.980469 C 242.5 39.1875 240.097656 38.472656 237.671875 37.828125 C 235.246094 37.1875 232.804688 36.625 230.339844 36.136719 C 227.878906 35.648438 225.40625 35.242188 222.917969 34.910156 C 220.433594 34.578125 217.9375 34.324219 215.433594 34.152344 C 212.929688 33.976562 210.425781 33.882812 207.914062 33.867188 C 205.40625 33.851562 202.898438 33.914062 200.394531 34.058594 C 197.890625 34.199219 195.390625 34.421875 192.898438 34.71875 C 190.410156 35.019531 187.929688 35.398438 185.460938 35.851562 C 182.996094 36.308594 180.542969 36.84375 178.109375 37.453125 C 175.675781 38.0625 173.265625 38.75 170.875 39.511719 C 168.484375 40.273438 166.121094 41.113281 163.78125 42.023438 C 161.445312 42.9375 159.136719 43.917969 156.863281 44.976562 C 154.585938 46.035156 152.347656 47.160156 150.140625 48.359375 C 147.9375 49.558594 145.773438 50.824219 143.648438 52.160156 C 141.523438 53.492188 139.441406 54.894531 137.40625 56.359375 C 135.371094 57.824219 133.382812 59.355469 131.441406 60.945312 C 129.503906 62.539062 127.613281 64.1875 125.777344 65.898438 C 123.941406 67.609375 122.160156 69.375 120.4375 71.199219 C 118.714844 73.019531 117.046875 74.894531 115.441406 76.824219 C 113.835938 78.75 112.289062 80.726562 110.808594 82.75 C 109.328125 84.777344 107.910156 86.84375 106.558594 88.960938 C 105.207031 91.074219 103.925781 93.226562 102.710938 95.421875 C 101.492188 97.617188 100.347656 99.851562 99.273438 102.117188 C 98.199219 104.382812 97.195312 106.683594 96.265625 109.011719 C 95.335938 111.34375 94.480469 113.703125 93.699219 116.085938 C 92.917969 118.46875 92.214844 120.875 91.585938 123.304688 C 90.953125 125.734375 90.402344 128.179688 89.925781 130.644531 C 89.453125 133.109375 89.054688 135.585938 88.734375 138.074219 C 88.417969 140.5625 88.175781 143.058594 88.015625 145.5625 C 87.851562 148.066406 87.769531 150.574219 87.765625 153.082031 C 87.761719 155.589844 87.835938 158.097656 87.992188 160.601562 C 88.144531 163.105469 88.378906 165.601562 88.691406 168.09375 C 89.003906 170.582031 89.394531 173.058594 89.859375 175.523438 C 90.328125 177.992188 90.875 180.4375 91.496094 182.867188 C 92.117188 185.300781 92.816406 187.707031 93.589844 190.09375 C 94.363281 192.480469 95.214844 194.84375 96.136719 197.175781 C 97.058594 199.507812 98.054688 201.808594 99.121094 204.082031 C 100.191406 206.351562 101.328125 208.585938 102.539062 210.785156 C 103.746094 212.984375 105.023438 215.140625 106.367188 217.257812 C 107.714844 219.378906 109.125 221.453125 110.601562 223.480469 C 112.074219 225.511719 113.613281 227.492188 115.214844 229.421875 C 116.816406 231.355469 118.476562 233.234375 120.195312 235.0625 C 121.914062 236.890625 123.6875 238.664062 125.519531 240.378906 C 127.351562 242.09375 129.234375 243.75 131.167969 245.347656 C 133.101562 246.945312 135.085938 248.476562 137.117188 249.949219 C 139.152344 251.421875 141.226562 252.828125 143.347656 254.167969 C 145.46875 255.511719 147.628906 256.785156 149.832031 257.988281 C 152.03125 259.195312 154.269531 260.328125 156.539062 261.390625 C 158.8125 262.457031 161.117188 263.445312 163.453125 264.363281 C 165.785156 265.285156 168.148438 266.128906 170.535156 266.898438 C 167.421875 276.167969 164.839844 285.585938 162.789062 295.148438 C 160.742188 304.710938 159.242188 314.359375 158.285156 324.09375 C 157.332031 333.828125 156.929688 343.585938 157.082031 353.363281 C 157.230469 363.140625 157.933594 372.882812 159.191406 382.582031 C 159.703125 386.546875 160.347656 390.488281 161.042969 394.421875 C 161.074219 394.621094 161.109375 394.816406 161.152344 395.015625 C 164.300781 412.46875 169.207031 429.417969 175.867188 445.855469 C 182.527344 462.296875 190.800781 477.878906 200.6875 492.605469 L 118.1875 536.617188 L 114.253906 529.808594 C 113.90625 529.203125 113.527344 528.617188 113.121094 528.050781 C 112.714844 527.480469 112.28125 526.933594 111.820312 526.410156 C 111.359375 525.882812 110.875 525.382812 110.363281 524.90625 C 109.855469 524.425781 109.324219 523.976562 108.769531 523.550781 C 108.214844 523.125 107.640625 522.726562 107.050781 522.359375 C 106.457031 521.988281 105.847656 521.648438 105.21875 521.339844 C 104.59375 521.03125 103.953125 520.753906 103.300781 520.507812 C 102.648438 520.257812 101.984375 520.046875 101.308594 519.863281 C 100.632812 519.683594 99.953125 519.535156 99.265625 519.417969 C 98.574219 519.304688 97.882812 519.222656 97.183594 519.175781 C 96.488281 519.128906 95.789062 519.117188 95.09375 519.140625 C 94.394531 519.160156 93.699219 519.21875 93.007812 519.308594 C 92.3125 519.398438 91.628906 519.519531 90.945312 519.675781 C 90.265625 519.835938 89.59375 520.023438 88.933594 520.25 C 88.269531 520.472656 87.621094 520.726562 86.984375 521.011719 C 86.347656 521.300781 85.726562 521.617188 85.121094 521.964844 L 29.632812 554.011719 C 29.027344 554.363281 28.441406 554.742188 27.875 555.148438 C 27.304688 555.554688 26.757812 555.988281 26.234375 556.449219 C 25.707031 556.90625 25.207031 557.394531 24.730469 557.902344 C 24.25 558.414062 23.800781 558.945312 23.375 559.496094 C 22.949219 560.050781 22.550781 560.625 22.183594 561.21875 C 21.8125 561.8125 21.472656 562.421875 21.164062 563.046875 C 20.855469 563.671875 20.578125 564.3125 20.328125 564.964844 C 20.082031 565.621094 19.867188 566.285156 19.6875 566.957031 C 19.507812 567.632812 19.359375 568.316406 19.242188 569.003906 C 19.128906 569.691406 19.046875 570.386719 19 571.082031 C 18.953125 571.78125 18.941406 572.476562 18.964844 573.175781 C 18.984375 573.875 19.042969 574.570312 19.132812 575.261719 C 19.222656 575.953125 19.347656 576.640625 19.503906 577.320312 C 19.660156 578.003906 19.851562 578.671875 20.074219 579.335938 C 20.296875 579.996094 20.554688 580.644531 20.839844 581.28125 C 21.128906 581.917969 21.445312 582.542969 21.792969 583.148438 L 111.992188 739.382812 C 112.691406 740.59375 113.507812 741.722656 114.433594 742.773438 C 115.359375 743.824219 116.378906 744.773438 117.492188 745.621094 C 118.605469 746.46875 119.789062 747.203125 121.046875 747.816406 C 122.304688 748.429688 123.609375 748.917969 124.964844 749.273438 C 126.785156 749.757812 128.636719 750 130.519531 750 C 134.320312 750 137.859375 749.042969 141.140625 747.125 L 196.636719 715.078125 C 197.242188 714.730469 197.832031 714.351562 198.398438 713.945312 C 198.96875 713.539062 199.515625 713.105469 200.039062 712.644531 C 200.566406 712.183594 201.066406 711.695312 201.542969 711.1875 C 202.023438 710.675781 202.472656 710.144531 202.898438 709.589844 C 203.324219 709.035156 203.722656 708.460938 204.089844 707.867188 C 204.460938 707.273438 204.796875 706.660156 205.105469 706.035156 C 205.417969 705.40625 205.695312 704.765625 205.9375 704.113281 C 206.183594 703.457031 206.398438 702.792969 206.578125 702.117188 C 206.757812 701.441406 206.90625 700.757812 207.019531 700.070312 C 207.132812 699.378906 207.210938 698.6875 207.257812 697.988281 C 207.300781 697.289062 207.3125 696.59375 207.289062 695.894531 C 207.265625 695.195312 207.207031 694.5 207.113281 693.804688 C 207.023438 693.113281 206.894531 692.425781 206.734375 691.746094 C 206.578125 691.066406 206.382812 690.394531 206.15625 689.734375 C 205.933594 689.070312 205.675781 688.421875 205.386719 687.785156 C 205.09375 687.148438 204.773438 686.527344 204.425781 685.925781 L 203.9375 685.082031 L 220.792969 677.003906 C 223.210938 675.800781 225.761719 675.054688 228.449219 674.777344 C 231.136719 674.496094 233.789062 674.699219 236.402344 675.382812 L 384.429688 711.257812 C 387.914062 712.109375 391.449219 712.535156 395.035156 712.542969 C 399.09375 712.535156 403.074219 711.964844 406.972656 710.832031 C 410.867188 709.699219 414.535156 708.050781 417.964844 705.882812 L 626.355469 576.132812 C 627.222656 575.59375 628.074219 575.027344 628.910156 574.4375 C 629.742188 573.84375 630.558594 573.222656 631.351562 572.578125 C 632.148438 571.933594 632.921875 571.265625 633.671875 570.574219 C 634.425781 569.882812 635.15625 569.164062 635.863281 568.425781 C 636.570312 567.6875 637.257812 566.925781 637.914062 566.144531 C 638.574219 565.363281 639.210938 564.5625 639.820312 563.738281 C 640.429688 562.917969 641.011719 562.078125 641.570312 561.21875 C 642.125 560.359375 642.652344 559.484375 643.15625 558.59375 C 643.65625 557.703125 644.128906 556.792969 644.574219 555.871094 C 645.019531 554.953125 645.433594 554.015625 645.820312 553.070312 C 646.207031 552.121094 646.558594 551.164062 646.886719 550.191406 C 647.210938 549.222656 647.503906 548.242188 647.769531 547.253906 C 648.03125 546.265625 648.265625 545.269531 648.464844 544.265625 C 648.667969 543.261719 648.835938 542.253906 648.972656 541.242188 C 649.113281 540.226562 649.21875 539.210938 649.289062 538.191406 C 649.363281 537.167969 649.40625 536.148438 649.414062 535.125 C 649.421875 534.101562 649.402344 533.078125 649.34375 532.058594 C 649.289062 531.035156 649.203125 530.015625 649.085938 529 C 648.964844 527.984375 648.8125 526.972656 648.632812 525.964844 C 648.449219 524.960938 648.234375 523.960938 647.988281 522.964844 C 647.742188 521.972656 647.464844 520.988281 647.15625 520.011719 C 646.851562 519.035156 646.511719 518.070312 646.144531 517.117188 C 645.773438 516.164062 645.375 515.222656 644.949219 514.292969 C 644.519531 513.363281 644.066406 512.445312 643.578125 511.546875 C 643.09375 510.644531 642.582031 509.761719 642.039062 508.890625 C 641.5 508.023438 640.929688 507.171875 640.335938 506.339844 C 639.742188 505.507812 639.121094 504.695312 638.476562 503.902344 C 637.832031 503.109375 637.160156 502.335938 636.464844 501.582031 C 635.773438 500.832031 635.054688 500.101562 634.3125 499.398438 C 633.574219 498.691406 632.8125 498.007812 632.03125 497.347656 C 631.246094 496.691406 630.445312 496.058594 629.621094 495.449219 C 628.796875 494.84375 627.957031 494.261719 627.097656 493.707031 C 630.492188 488.699219 633.703125 483.578125 636.738281 478.34375 C 639.769531 473.109375 642.617188 467.777344 645.273438 462.34375 C 647.929688 456.90625 650.390625 451.386719 652.660156 445.777344 C 654.929688 440.171875 656.996094 434.488281 658.863281 428.738281 C 660.730469 422.984375 662.394531 417.171875 663.851562 411.300781 C 665.308594 405.429688 666.558594 399.515625 667.601562 393.554688 C 668.640625 387.597656 669.472656 381.609375 670.089844 375.589844 C 670.710938 369.574219 671.117188 363.542969 671.3125 357.496094 C 671.503906 351.449219 671.484375 345.40625 671.253906 339.359375 C 671.023438 333.316406 670.578125 327.289062 669.921875 321.273438 C 669.265625 315.261719 668.394531 309.277344 667.316406 303.324219 C 666.238281 297.375 664.953125 291.464844 663.457031 285.605469 C 661.960938 279.742188 660.261719 273.941406 658.359375 268.199219 C 656.457031 262.457031 654.351562 256.792969 652.046875 251.199219 C 649.746094 245.605469 647.25 240.097656 644.558594 234.679688 C 641.867188 229.265625 638.988281 223.949219 635.921875 218.734375 C 635.921875 218.664062 635.921875 218.59375 635.921875 218.527344 Z M 574.847656 62.53125 L 615.414062 62.53125 L 615.414062 208.269531 L 574.847656 208.269531 Z M 554.335938 158.410156 L 554.335938 218.527344 C 554.335938 219.199219 554.402344 219.867188 554.535156 220.527344 C 554.664062 221.191406 554.859375 221.832031 555.117188 222.453125 C 555.375 223.078125 555.691406 223.667969 556.066406 224.226562 C 556.441406 224.789062 556.867188 225.308594 557.34375 225.785156 C 557.820312 226.261719 558.339844 226.683594 558.898438 227.058594 C 559.457031 227.433594 560.050781 227.75 560.671875 228.007812 C 561.296875 228.265625 561.9375 228.460938 562.597656 228.59375 C 563.257812 228.722656 563.925781 228.789062 564.601562 228.789062 L 617.996094 228.789062 C 626.269531 242.792969 633.019531 257.496094 638.238281 272.902344 C 643.457031 288.304688 647.039062 304.082031 648.984375 320.230469 L 573.089844 251.574219 C 572.453125 251 571.753906 250.507812 570.992188 250.109375 C 570.234375 249.707031 569.433594 249.40625 568.597656 249.207031 C 567.761719 249.007812 566.914062 248.914062 566.054688 248.925781 C 565.195312 248.941406 564.351562 249.058594 563.519531 249.285156 L 512.824219 263.074219 C 511.953125 263.308594 511.132812 263.652344 510.355469 264.105469 C 509.578125 264.558594 508.871094 265.101562 508.238281 265.742188 C 507.601562 266.378906 507.0625 267.085938 506.613281 267.867188 C 506.167969 268.648438 505.828125 269.472656 505.597656 270.34375 L 488.792969 333.808594 L 462.335938 371.605469 L 404.113281 316.898438 C 403.007812 315.855469 401.734375 315.101562 400.296875 314.625 C 398.855469 314.152344 397.382812 314.007812 395.878906 314.1875 L 313.140625 324.023438 L 335.402344 241.128906 L 425.808594 210.300781 C 426.433594 210.085938 427.027344 209.816406 427.601562 209.488281 C 428.171875 209.160156 428.707031 208.78125 429.203125 208.351562 C 429.703125 207.917969 430.15625 207.445312 430.5625 206.925781 C 430.96875 206.410156 431.320312 205.855469 431.621094 205.269531 C 431.921875 204.683594 432.164062 204.074219 432.347656 203.441406 C 432.53125 202.808594 432.652344 202.164062 432.710938 201.507812 C 432.769531 200.851562 432.765625 200.195312 432.699219 199.542969 C 432.632812 198.886719 432.503906 198.242188 432.3125 197.613281 L 418.761719 152.960938 L 454.773438 116.03125 C 456.242188 116.285156 457.707031 116.550781 459.167969 116.832031 L 459.167969 218.527344 C 459.167969 219.199219 459.234375 219.867188 459.367188 220.527344 C 459.5 221.191406 459.691406 221.832031 459.949219 222.453125 C 460.207031 223.078125 460.523438 223.667969 460.898438 224.226562 C 461.273438 224.789062 461.699219 225.308594 462.175781 225.785156 C 462.652344 226.261719 463.171875 226.683594 463.730469 227.058594 C 464.292969 227.433594 464.882812 227.75 465.503906 228.007812 C 466.128906 228.265625 466.769531 228.460938 467.429688 228.59375 C 468.089844 228.722656 468.757812 228.789062 469.433594 228.789062 L 530.511719 228.789062 C 531.183594 228.789062 531.851562 228.722656 532.511719 228.59375 C 533.171875 228.460938 533.816406 228.265625 534.4375 228.007812 C 535.0625 227.75 535.652344 227.433594 536.210938 227.058594 C 536.773438 226.683594 537.292969 226.261719 537.769531 225.785156 C 538.242188 225.308594 538.667969 224.789062 539.042969 224.226562 C 539.417969 223.667969 539.734375 223.078125 539.992188 222.453125 C 540.25 221.832031 540.445312 221.191406 540.578125 220.527344 C 540.707031 219.867188 540.773438 219.199219 540.773438 218.527344 L 540.773438 149.148438 C 545.417969 152.09375 549.941406 155.183594 554.335938 158.410156 Z M 479.679688 101.894531 L 520.246094 101.894531 L 520.246094 208.273438 L 479.679688 208.273438 Z M 108.277344 153.253906 C 108.269531 151.632812 108.304688 150.007812 108.375 148.386719 C 108.449219 146.765625 108.5625 145.148438 108.714844 143.53125 C 108.867188 141.914062 109.058594 140.304688 109.289062 138.695312 C 109.519531 137.089844 109.792969 135.488281 110.101562 133.898438 C 110.414062 132.304688 110.761719 130.71875 111.152344 129.144531 C 111.539062 127.566406 111.964844 126 112.433594 124.445312 C 112.898438 122.890625 113.402344 121.347656 113.941406 119.816406 C 114.484375 118.289062 115.0625 116.773438 115.679688 115.269531 C 116.296875 113.769531 116.949219 112.28125 117.636719 110.8125 C 118.328125 109.34375 119.050781 107.890625 119.8125 106.457031 C 120.574219 105.023438 121.367188 103.609375 122.199219 102.214844 C 123.03125 100.820312 123.894531 99.445312 124.792969 98.09375 C 125.691406 96.742188 126.621094 95.414062 127.585938 94.105469 C 128.546875 92.800781 129.542969 91.519531 130.570312 90.261719 C 131.597656 89.003906 132.652344 87.773438 133.742188 86.566406 C 134.828125 85.363281 135.945312 84.183594 137.089844 83.035156 C 138.234375 81.882812 139.40625 80.761719 140.609375 79.667969 C 141.808594 78.578125 143.035156 77.515625 144.289062 76.480469 C 145.539062 75.449219 146.816406 74.449219 148.121094 73.480469 C 149.421875 72.511719 150.746094 71.574219 152.09375 70.667969 C 153.441406 69.765625 154.8125 68.894531 156.203125 68.058594 C 157.59375 67.222656 159.003906 66.417969 160.4375 65.652344 C 161.867188 64.886719 163.316406 64.152344 164.78125 63.457031 C 166.246094 62.761719 167.730469 62.101562 169.230469 61.480469 C 170.730469 60.855469 172.242188 60.269531 173.769531 59.722656 C 175.296875 59.175781 176.839844 58.664062 178.390625 58.191406 C 179.945312 57.71875 181.507812 57.285156 183.082031 56.890625 C 184.65625 56.492188 186.238281 56.136719 187.832031 55.820312 C 189.421875 55.503906 191.023438 55.222656 192.628906 54.984375 C 194.234375 54.746094 195.84375 54.546875 197.457031 54.386719 C 199.074219 54.226562 200.691406 54.109375 202.3125 54.027344 C 203.933594 53.949219 205.558594 53.910156 207.179688 53.910156 C 208.804688 53.910156 210.425781 53.949219 212.046875 54.027344 C 213.667969 54.109375 215.285156 54.226562 216.902344 54.386719 C 218.519531 54.546875 220.128906 54.746094 221.734375 54.984375 C 223.339844 55.222656 224.9375 55.503906 226.53125 55.820312 C 228.121094 56.136719 229.703125 56.492188 231.277344 56.890625 C 232.851562 57.285156 234.417969 57.71875 235.96875 58.191406 C 237.523438 58.664062 239.0625 59.175781 240.589844 59.722656 C 242.117188 60.269531 243.632812 60.855469 245.132812 61.480469 C 246.628906 62.101562 248.113281 62.761719 249.578125 63.457031 C 251.046875 64.152344 252.496094 64.886719 253.925781 65.652344 C 255.355469 66.417969 256.765625 67.222656 258.15625 68.058594 C 259.546875 68.894531 260.917969 69.765625 262.265625 70.667969 C 263.613281 71.574219 264.941406 72.511719 266.242188 73.480469 C 267.542969 74.449219 268.820312 75.449219 270.074219 76.480469 C 271.328125 77.515625 272.554688 78.578125 273.753906 79.667969 C 274.953125 80.761719 276.125 81.882812 277.273438 83.035156 C 278.417969 84.183594 279.535156 85.363281 280.621094 86.566406 C 281.707031 87.773438 282.765625 89.003906 283.792969 90.261719 C 284.816406 91.519531 285.8125 92.800781 286.777344 94.105469 C 287.742188 95.414062 288.671875 96.742188 289.570312 98.09375 C 290.46875 99.445312 291.332031 100.820312 292.160156 102.214844 C 292.992188 103.609375 293.789062 105.023438 294.546875 106.457031 C 295.308594 107.890625 296.035156 109.34375 296.722656 110.8125 C 297.414062 112.28125 298.066406 113.769531 298.683594 115.269531 C 299.296875 116.773438 299.875 118.289062 300.417969 119.816406 C 300.960938 121.347656 301.464844 122.890625 301.929688 124.445312 C 302.394531 126 302.820312 127.566406 303.210938 129.144531 C 303.597656 130.71875 303.949219 132.304688 304.257812 133.898438 C 304.570312 135.488281 304.839844 137.089844 305.070312 138.695312 C 305.304688 140.304688 305.496094 141.914062 305.648438 143.53125 C 305.800781 145.148438 305.914062 146.765625 305.984375 148.386719 C 306.058594 150.007812 306.089844 151.632812 306.082031 153.253906 C 306.082031 156.175781 305.933594 159.125 305.667969 162.066406 C 296.691406 167.269531 288.136719 173.09375 280 179.527344 C 271.863281 185.964844 264.230469 192.953125 257.097656 200.488281 C 249.96875 208.023438 243.414062 216.03125 237.4375 224.511719 C 231.460938 232.992188 226.121094 241.855469 221.417969 251.105469 C 219.671875 251.363281 217.914062 251.574219 216.15625 251.734375 C 214.394531 251.898438 212.628906 252.015625 210.863281 252.082031 C 209.097656 252.152344 207.328125 252.171875 205.5625 252.144531 C 203.792969 252.117188 202.027344 252.042969 200.265625 251.921875 C 198.5 251.800781 196.742188 251.632812 194.984375 251.414062 C 193.230469 251.199219 191.484375 250.9375 189.742188 250.625 C 188 250.316406 186.269531 249.960938 184.546875 249.558594 C 182.828125 249.15625 181.117188 248.707031 179.421875 248.210938 C 177.722656 247.714844 176.039062 247.175781 174.371094 246.589844 C 172.703125 246.007812 171.050781 245.378906 169.417969 244.703125 C 167.78125 244.03125 166.164062 243.3125 164.570312 242.550781 C 162.972656 241.792969 161.398438 240.988281 159.847656 240.144531 C 158.292969 239.300781 156.761719 238.414062 155.257812 237.484375 C 153.753906 236.558594 152.273438 235.589844 150.820312 234.585938 C 149.367188 233.578125 147.941406 232.535156 146.542969 231.449219 C 145.144531 230.367188 143.777344 229.246094 142.441406 228.089844 C 141.101562 226.933594 139.796875 225.742188 138.523438 224.515625 C 137.25 223.289062 136.011719 222.027344 134.804688 220.734375 C 133.601562 219.441406 132.429688 218.117188 131.296875 216.761719 C 130.160156 215.40625 129.0625 214.019531 128.003906 212.605469 C 126.941406 211.191406 125.921875 209.746094 124.9375 208.277344 C 123.957031 206.808594 123.015625 205.3125 122.113281 203.792969 C 121.210938 202.269531 120.347656 200.726562 119.527344 199.160156 C 118.710938 197.59375 117.933594 196.007812 117.199219 194.398438 C 116.464844 192.789062 115.773438 191.164062 115.125 189.515625 C 114.480469 187.871094 113.878906 186.210938 113.320312 184.53125 C 112.761719 182.855469 112.25 181.164062 111.78125 179.457031 C 111.316406 177.75 110.894531 176.035156 110.519531 174.308594 C 110.144531 172.578125 109.816406 170.84375 109.535156 169.097656 C 109.253906 167.351562 109.019531 165.597656 108.832031 163.839844 C 108.648438 162.082031 108.507812 160.320312 108.414062 158.554688 C 108.320312 156.789062 108.277344 155.023438 108.277344 153.253906 Z M 185.808594 410.621094 L 297.898438 460.300781 C 298.761719 460.683594 299.660156 460.941406 300.589844 461.074219 C 301.523438 461.210938 302.457031 461.214844 303.390625 461.09375 C 304.324219 460.96875 305.226562 460.722656 306.089844 460.351562 C 306.957031 459.984375 307.757812 459.503906 308.492188 458.910156 L 359.898438 417.464844 L 358.289062 495.050781 L 351.320312 496.039062 L 271.578125 470.070312 C 268.773438 469.125 265.902344 468.480469 262.964844 468.128906 C 260.027344 467.777344 257.085938 467.730469 254.136719 467.988281 C 251.191406 468.246094 248.300781 468.800781 245.46875 469.652344 C 242.636719 470.507812 239.917969 471.640625 237.320312 473.050781 L 218.882812 482.890625 C 211.359375 471.871094 204.820312 460.296875 199.269531 448.164062 C 193.714844 436.027344 189.230469 423.511719 185.808594 410.613281 Z M 186.761719 696.832031 C 186.710938 697.046875 186.589844 697.207031 186.398438 697.316406 L 130.855469 729.382812 C 130.667969 729.488281 130.46875 729.511719 130.261719 729.449219 C 130.042969 729.398438 129.871094 729.277344 129.753906 729.085938 L 39.566406 572.902344 C 39.464844 572.703125 39.441406 572.496094 39.5 572.28125 C 39.558594 572.066406 39.683594 571.898438 39.871094 571.78125 L 95.367188 539.734375 C 95.484375 539.667969 95.613281 539.632812 95.746094 539.636719 C 95.832031 539.636719 95.910156 539.648438 95.992188 539.667969 C 96.210938 539.722656 96.378906 539.847656 96.488281 540.042969 L 186.671875 696.203125 L 186.691406 696.234375 C 186.800781 696.421875 186.824219 696.617188 186.761719 696.824219 Z M 628.09375 541.089844 C 627.683594 542.902344 627.09375 544.65625 626.332031 546.351562 C 625.570312 548.050781 624.652344 549.65625 623.570312 551.167969 C 622.492188 552.683594 621.273438 554.074219 619.917969 555.347656 C 618.5625 556.621094 617.09375 557.746094 615.515625 558.726562 L 407.136719 688.460938 C 405.828125 689.308594 404.445312 690.011719 402.992188 690.570312 C 401.535156 691.128906 400.039062 691.53125 398.5 691.777344 C 396.960938 692.023438 395.410156 692.109375 393.851562 692.03125 C 392.296875 691.953125 390.761719 691.71875 389.257812 691.320312 L 241.242188 655.460938 C 238.808594 654.847656 236.339844 654.453125 233.835938 654.273438 C 231.332031 654.09375 228.832031 654.132812 226.335938 654.394531 C 223.839844 654.652344 221.382812 655.128906 218.972656 655.816406 C 216.558594 656.507812 214.222656 657.402344 211.964844 658.5 L 193.648438 667.277344 L 128.460938 554.386719 L 246.941406 491.164062 C 248.320312 490.390625 249.765625 489.773438 251.277344 489.308594 C 252.785156 488.84375 254.328125 488.542969 255.902344 488.40625 C 257.476562 488.265625 259.046875 488.296875 260.617188 488.492188 C 262.183594 488.6875 263.714844 489.046875 265.207031 489.566406 L 421.035156 540.304688 C 421.164062 540.347656 421.300781 540.390625 421.441406 540.429688 C 422.21875 540.652344 422.984375 540.910156 423.734375 541.207031 C 424.484375 541.5 425.21875 541.832031 425.9375 542.199219 C 426.65625 542.566406 427.355469 542.96875 428.035156 543.40625 C 428.714844 543.839844 429.371094 544.308594 430.003906 544.808594 C 430.636719 545.308594 431.246094 545.839844 431.828125 546.398438 C 432.410156 546.957031 432.964844 547.542969 433.488281 548.15625 C 434.011719 548.769531 434.507812 549.40625 434.96875 550.070312 C 435.429688 550.730469 435.859375 551.414062 436.257812 552.117188 C 436.652344 552.820312 437.011719 553.542969 437.335938 554.28125 C 437.664062 555.019531 437.953125 555.773438 438.203125 556.539062 C 438.453125 557.304688 438.667969 558.082031 438.84375 558.871094 C 439.019531 559.65625 439.15625 560.453125 439.253906 561.253906 C 439.355469 562.054688 439.414062 562.859375 439.433594 563.664062 C 439.453125 564.472656 439.433594 565.277344 439.375 566.082031 C 439.316406 566.890625 439.214844 567.6875 439.078125 568.484375 C 438.941406 569.28125 438.765625 570.066406 438.550781 570.84375 C 437.59375 574.210938 435.992188 577.234375 433.753906 579.921875 C 433.542969 580.179688 433.328125 580.429688 433.105469 580.671875 C 432.910156 580.886719 432.722656 581.089844 432.527344 581.296875 C 432.328125 581.5 432.078125 581.753906 431.847656 581.972656 C 431.613281 582.195312 431.414062 582.382812 431.191406 582.582031 C 429.644531 583.96875 427.953125 585.144531 426.109375 586.101562 C 424.269531 587.0625 422.335938 587.777344 420.316406 588.25 C 418.292969 588.722656 416.242188 588.9375 414.167969 588.890625 C 412.089844 588.84375 410.054688 588.542969 408.054688 587.980469 L 291.585938 555.21875 C 290.925781 555 290.253906 554.847656 289.5625 554.765625 C 288.875 554.683594 288.183594 554.667969 287.492188 554.726562 C 286.800781 554.785156 286.121094 554.910156 285.453125 555.105469 C 284.785156 555.300781 284.144531 555.5625 283.53125 555.886719 C 282.917969 556.210938 282.34375 556.59375 281.808594 557.035156 C 281.273438 557.480469 280.785156 557.96875 280.351562 558.511719 C 279.914062 559.050781 279.535156 559.628906 279.21875 560.246094 C 278.898438 560.863281 278.644531 561.507812 278.457031 562.175781 C 278.269531 562.84375 278.152344 563.523438 278.101562 564.21875 C 278.050781 564.910156 278.070312 565.601562 278.160156 566.289062 C 278.253906 566.976562 278.410156 567.652344 278.636719 568.308594 C 278.863281 568.964844 279.15625 569.589844 279.507812 570.1875 C 279.863281 570.785156 280.273438 571.339844 280.742188 571.855469 C 281.207031 572.371094 281.722656 572.832031 282.28125 573.242188 C 282.84375 573.652344 283.441406 574 284.070312 574.289062 C 284.703125 574.578125 285.359375 574.800781 286.035156 574.957031 L 402.503906 607.71875 C 404.253906 608.210938 406.027344 608.597656 407.824219 608.875 C 409.621094 609.152344 411.429688 609.324219 413.246094 609.382812 C 415.0625 609.441406 416.875 609.394531 418.6875 609.234375 C 420.5 609.074219 422.292969 608.804688 424.070312 608.429688 C 425.851562 608.050781 427.601562 607.570312 429.320312 606.980469 C 431.039062 606.390625 432.71875 605.703125 434.355469 604.910156 C 435.992188 604.121094 437.574219 603.230469 439.105469 602.25 C 440.632812 601.265625 442.097656 600.195312 443.5 599.035156 L 585.539062 510.601562 C 586.328125 510.113281 587.140625 509.664062 587.972656 509.253906 C 588.804688 508.84375 589.65625 508.476562 590.523438 508.152344 C 591.394531 507.824219 592.277344 507.542969 593.171875 507.304688 C 594.070312 507.0625 594.976562 506.867188 595.890625 506.71875 C 596.808594 506.566406 597.730469 506.460938 598.65625 506.398438 C 599.582031 506.339844 600.507812 506.324219 601.433594 506.355469 C 602.363281 506.386719 603.285156 506.460938 604.207031 506.582031 C 605.128906 506.703125 606.039062 506.867188 606.945312 507.078125 C 607.847656 507.289062 608.738281 507.542969 609.617188 507.839844 C 610.496094 508.136719 611.359375 508.476562 612.207031 508.859375 C 613.050781 509.238281 613.878906 509.664062 614.683594 510.125 C 615.484375 510.589844 616.265625 511.089844 617.023438 511.628906 C 617.777344 512.167969 618.503906 512.742188 619.203125 513.351562 C 619.902344 513.964844 620.570312 514.605469 621.207031 515.28125 C 621.84375 515.957031 622.445312 516.664062 623.011719 517.398438 C 623.578125 518.132812 624.109375 518.894531 624.601562 519.679688 C 625.585938 521.261719 626.40625 522.921875 627.058594 524.664062 C 627.714844 526.40625 628.191406 528.195312 628.492188 530.03125 C 628.792969 531.867188 628.910156 533.714844 628.84375 535.574219 C 628.773438 537.4375 628.527344 539.269531 628.09375 541.082031 Z M 574.699219 493.207031 L 462.089844 563.308594 L 476.351562 509.210938 C 476.734375 507.769531 476.800781 506.316406 476.550781 504.847656 L 469.464844 463.902344 L 510.066406 472.019531 C 510.925781 472.191406 511.792969 472.25 512.664062 472.199219 C 513.539062 472.148438 514.394531 471.988281 515.226562 471.71875 C 516.0625 471.449219 516.847656 471.078125 517.585938 470.609375 C 518.324219 470.136719 518.992188 469.582031 519.589844 468.941406 L 563.40625 421.769531 L 570.523438 457.378906 C 570.726562 458.390625 571.074219 459.351562 571.570312 460.261719 C 572.0625 461.171875 572.679688 461.988281 573.421875 462.707031 C 574.164062 463.429688 574.996094 464.027344 575.914062 464.496094 C 576.835938 464.96875 577.808594 465.292969 578.828125 465.46875 L 616.605469 472.019531 C 613.664062 476.882812 610.53125 481.648438 607.210938 486.324219 C 604.40625 485.929688 601.585938 485.78125 598.753906 485.875 C 595.925781 485.972656 593.121094 486.3125 590.351562 486.898438 C 587.578125 487.484375 584.878906 488.308594 582.25 489.367188 C 579.621094 490.425781 577.105469 491.703125 574.699219 493.199219 Z M 626.988281 453.007812 L 589.253906 446.464844 L 579.585938 398.09375 C 579.398438 397.167969 579.089844 396.289062 578.660156 395.449219 C 578.230469 394.609375 577.695312 393.84375 577.054688 393.148438 C 576.414062 392.457031 575.691406 391.867188 574.886719 391.375 C 574.082031 390.878906 573.226562 390.503906 572.316406 390.25 C 571.410156 389.992188 570.484375 389.863281 569.542969 389.859375 C 568.597656 389.859375 567.671875 389.984375 566.765625 390.238281 C 565.855469 390.492188 565 390.863281 564.191406 391.355469 C 563.386719 391.84375 562.660156 392.433594 562.019531 393.125 L 508.453125 450.789062 L 458.8125 440.867188 C 458.40625 440.785156 457.996094 440.730469 457.582031 440.699219 C 457.167969 440.667969 456.753906 440.664062 456.339844 440.683594 C 455.925781 440.699219 455.515625 440.746094 455.105469 440.8125 C 454.695312 440.882812 454.292969 440.976562 453.894531 441.09375 C 453.496094 441.210938 453.109375 441.355469 452.726562 441.519531 C 452.347656 441.683594 451.980469 441.871094 451.621094 442.082031 C 451.261719 442.289062 450.917969 442.519531 450.589844 442.773438 C 450.261719 443.023438 449.945312 443.292969 449.648438 443.585938 C 449.351562 443.875 449.074219 444.179688 448.8125 444.503906 C 448.554688 444.828125 448.316406 445.164062 448.097656 445.515625 C 447.878906 445.867188 447.679688 446.234375 447.503906 446.609375 C 447.332031 446.984375 447.179688 447.371094 447.050781 447.765625 C 446.921875 448.160156 446.820312 448.558594 446.738281 448.96875 C 446.660156 449.375 446.605469 449.785156 446.574219 450.199219 C 446.546875 450.613281 446.542969 451.027344 446.5625 451.441406 C 446.582031 451.855469 446.628906 452.265625 446.699219 452.675781 L 455.949219 506.160156 L 448.550781 534.226562 C 445.710938 531.003906 442.476562 528.246094 438.839844 525.953125 C 435.207031 523.664062 431.324219 521.929688 427.195312 520.757812 L 378.570312 504.925781 C 378.59375 504.6875 378.613281 504.453125 378.617188 504.210938 L 380.859375 395.882812 C 380.878906 394.90625 380.761719 393.949219 380.503906 393.007812 C 380.25 392.066406 379.871094 391.175781 379.359375 390.34375 C 378.851562 389.511719 378.238281 388.765625 377.519531 388.109375 C 376.796875 387.449219 376 386.90625 375.121094 386.476562 C 374.246094 386.046875 373.328125 385.746094 372.367188 385.578125 C 371.40625 385.410156 370.441406 385.378906 369.46875 385.488281 C 368.5 385.59375 367.566406 385.835938 366.664062 386.207031 C 365.761719 386.582031 364.929688 387.074219 364.171875 387.6875 L 300.488281 439.007812 L 180.617188 385.878906 C 179.109375 376.320312 178.191406 366.707031 177.855469 357.035156 C 177.519531 347.367188 177.777344 337.710938 178.617188 328.074219 C 179.460938 318.433594 180.886719 308.882812 182.894531 299.417969 C 184.902344 289.953125 187.480469 280.644531 190.621094 271.492188 C 196.113281 272.269531 201.632812 272.660156 207.179688 272.667969 C 208.757812 272.667969 210.347656 272.617188 211.945312 272.550781 C 209.117188 280.007812 206.707031 287.601562 204.71875 295.324219 C 204.523438 295.984375 204.394531 296.660156 204.332031 297.347656 C 204.273438 298.035156 204.28125 298.722656 204.359375 299.40625 C 204.4375 300.09375 204.582031 300.765625 204.796875 301.421875 C 205.011719 302.078125 205.289062 302.707031 205.628906 303.304688 C 205.96875 303.90625 206.363281 304.46875 206.816406 304.988281 C 207.269531 305.507812 207.773438 305.976562 208.320312 306.398438 C 208.867188 306.816406 209.453125 307.175781 210.074219 307.480469 C 210.695312 307.78125 211.339844 308.015625 212.007812 308.1875 C 212.675781 308.359375 213.355469 308.460938 214.042969 308.496094 C 214.734375 308.53125 215.421875 308.496094 216.101562 308.394531 C 216.785156 308.289062 217.449219 308.117188 218.097656 307.878906 C 218.746094 307.640625 219.363281 307.339844 219.949219 306.976562 C 220.539062 306.617188 221.082031 306.199219 221.585938 305.726562 C 222.089844 305.253906 222.539062 304.734375 222.9375 304.171875 C 223.335938 303.609375 223.675781 303.011719 223.953125 302.378906 C 224.230469 301.746094 224.441406 301.09375 224.585938 300.417969 C 227.707031 288.285156 231.949219 276.554688 237.324219 265.238281 C 237.507812 264.898438 237.667969 264.546875 237.8125 264.191406 C 242.191406 255.101562 247.238281 246.402344 252.960938 238.09375 C 258.683594 229.789062 265.011719 221.96875 271.945312 214.640625 C 278.878906 207.3125 286.332031 200.5625 294.308594 194.386719 C 302.285156 188.214844 310.691406 182.6875 319.523438 177.816406 C 319.988281 177.601562 320.433594 177.355469 320.859375 177.078125 C 335 169.410156 349.859375 163.574219 365.441406 159.578125 C 366.070312 159.390625 366.679688 159.144531 367.261719 158.839844 C 367.847656 158.535156 368.394531 158.179688 368.910156 157.769531 C 369.425781 157.359375 369.898438 156.90625 370.324219 156.40625 C 370.753906 155.90625 371.128906 155.371094 371.453125 154.796875 C 371.777344 154.226562 372.042969 153.628906 372.253906 153.003906 C 372.464844 152.378906 372.609375 151.742188 372.699219 151.089844 C 372.785156 150.4375 372.808594 149.785156 372.769531 149.128906 C 372.730469 148.472656 372.628906 147.824219 372.464844 147.1875 C 372.300781 146.550781 372.078125 145.933594 371.796875 145.339844 C 371.515625 144.746094 371.179688 144.183594 370.789062 143.652344 C 370.402344 143.121094 369.964844 142.636719 369.480469 142.1875 C 368.996094 141.742188 368.472656 141.347656 367.914062 141.003906 C 367.355469 140.65625 366.765625 140.367188 366.152344 140.136719 C 365.535156 139.902344 364.902344 139.730469 364.253906 139.621094 C 363.605469 139.507812 362.953125 139.460938 362.296875 139.476562 C 361.636719 139.492188 360.988281 139.566406 360.34375 139.707031 C 348.757812 142.679688 337.496094 146.589844 326.558594 151.433594 C 326.441406 144.300781 325.691406 137.238281 324.308594 130.238281 C 332.578125 126.867188 341.011719 123.972656 349.605469 121.546875 C 358.199219 119.121094 366.902344 117.1875 375.714844 115.738281 C 384.527344 114.289062 393.394531 113.339844 402.3125 112.886719 C 411.230469 112.433594 420.148438 112.480469 429.0625 113.027344 L 399.851562 142.980469 C 399.210938 143.640625 398.667969 144.367188 398.222656 145.171875 C 397.777344 145.976562 397.449219 146.820312 397.230469 147.714844 C 397.015625 148.605469 396.917969 149.511719 396.945312 150.425781 C 396.96875 151.34375 397.113281 152.242188 397.382812 153.121094 L 409.816406 194.082031 L 323.617188 223.472656 C 322.824219 223.746094 322.070312 224.109375 321.363281 224.566406 C 320.65625 225.023438 320.015625 225.558594 319.441406 226.175781 C 318.867188 226.789062 318.375 227.464844 317.964844 228.199219 C 317.558594 228.933594 317.242188 229.707031 317.023438 230.519531 L 289.414062 333.328125 C 289.304688 333.730469 289.222656 334.140625 289.164062 334.550781 C 289.105469 334.964844 289.074219 335.382812 289.066406 335.796875 C 289.058594 336.214844 289.078125 336.632812 289.121094 337.046875 C 289.164062 337.460938 289.230469 337.871094 289.324219 338.28125 C 289.417969 338.6875 289.535156 339.085938 289.679688 339.476562 C 289.820312 339.871094 289.988281 340.253906 290.175781 340.625 C 290.363281 340.996094 290.574219 341.355469 290.808594 341.703125 C 291.042969 342.050781 291.292969 342.378906 291.566406 342.695312 C 291.839844 343.011719 292.132812 343.308594 292.441406 343.589844 C 292.75 343.871094 293.074219 344.128906 293.417969 344.371094 C 293.757812 344.609375 294.113281 344.828125 294.480469 345.027344 C 294.847656 345.222656 295.226562 345.398438 295.617188 345.546875 C 296.003906 345.699219 296.402344 345.824219 296.804688 345.929688 C 297.210938 346.03125 297.621094 346.109375 298.035156 346.160156 C 298.449219 346.214844 298.863281 346.242188 299.28125 346.242188 C 299.699219 346.246094 300.113281 346.222656 300.527344 346.171875 L 393.5625 335.109375 L 456.917969 394.65625 C 457.867188 395.550781 458.949219 396.238281 460.164062 396.71875 C 461.375 397.199219 462.636719 397.441406 463.941406 397.441406 C 464.292969 397.441406 464.644531 397.421875 464.992188 397.386719 C 466.472656 397.230469 467.855469 396.777344 469.136719 396.023438 C 470.421875 395.269531 471.488281 394.285156 472.34375 393.066406 L 506.644531 344.070312 C 507.339844 343.074219 507.84375 341.988281 508.15625 340.8125 L 523.914062 281.304688 L 563.492188 270.542969 L 650.75 349.476562 C 650.742188 358.414062 650.234375 367.320312 649.226562 376.199219 C 648.21875 385.078125 646.710938 393.871094 644.714844 402.582031 C 642.714844 411.289062 640.234375 419.859375 637.269531 428.289062 C 634.304688 436.71875 630.878906 444.957031 626.988281 453 Z M 720.789062 0 L 659.757812 0 C 659.082031 0 658.414062 0.0664062 657.753906 0.195312 C 657.09375 0.328125 656.453125 0.523438 655.828125 0.78125 C 655.207031 1.039062 654.617188 1.355469 654.054688 1.730469 C 653.496094 2.105469 652.976562 2.53125 652.5 3.007812 C 652.023438 3.484375 651.597656 4 651.222656 4.5625 C 650.847656 5.121094 650.53125 5.714844 650.273438 6.335938 C 650.015625 6.957031 649.824219 7.601562 649.691406 8.261719 C 649.558594 8.921875 649.492188 9.589844 649.492188 10.261719 L 649.492188 218.527344 C 649.492188 219.199219 649.558594 219.867188 649.691406 220.527344 C 649.824219 221.191406 650.015625 221.832031 650.273438 222.453125 C 650.53125 223.078125 650.847656 223.667969 651.222656 224.226562 C 651.597656 224.789062 652.023438 225.308594 652.5 225.785156 C 652.976562 226.261719 653.496094 226.683594 654.054688 227.058594 C 654.617188 227.433594 655.207031 227.75 655.828125 228.007812 C 656.453125 228.265625 657.09375 228.460938 657.753906 228.59375 C 658.414062 228.722656 659.082031 228.789062 659.757812 228.789062 L 720.789062 228.789062 C 721.464844 228.789062 722.128906 228.722656 722.792969 228.59375 C 723.453125 228.460938 724.09375 228.265625 724.71875 228.007812 C 725.339844 227.75 725.929688 227.433594 726.492188 227.058594 C 727.050781 226.683594 727.570312 226.261719 728.046875 225.785156 C 728.523438 225.308594 728.949219 224.789062 729.324219 224.226562 C 729.699219 223.667969 730.011719 223.078125 730.269531 222.453125 C 730.53125 221.832031 730.722656 221.191406 730.855469 220.527344 C 730.988281 219.867188 731.050781 219.199219 731.050781 218.527344 L 731.050781 10.261719 C 731.050781 9.589844 730.988281 8.921875 730.855469 8.261719 C 730.722656 7.601562 730.53125 6.957031 730.269531 6.335938 C 730.011719 5.714844 729.699219 5.121094 729.324219 4.5625 C 728.949219 4 728.523438 3.484375 728.046875 3.007812 C 727.570312 2.53125 727.050781 2.105469 726.492188 1.730469 C 725.929688 1.355469 725.339844 1.039062 724.71875 0.78125 C 724.09375 0.523438 723.453125 0.328125 722.792969 0.195312 C 722.128906 0.0664062 721.464844 0 720.789062 0 Z M 710.527344 208.269531 L 670.011719 208.269531 L 670.011719 20.511719 L 710.539062 20.511719 Z M 207.179688 233.761719 C 206.503906 233.761719 205.839844 233.699219 205.175781 233.566406 C 204.515625 233.433594 203.875 233.238281 203.253906 232.980469 C 202.628906 232.722656 202.039062 232.40625 201.476562 232.035156 C 200.917969 231.660156 200.398438 231.234375 199.921875 230.757812 C 199.445312 230.28125 199.019531 229.761719 198.644531 229.203125 C 198.273438 228.640625 197.957031 228.050781 197.699219 227.425781 C 197.441406 226.804688 197.246094 226.164062 197.113281 225.503906 C 196.980469 224.839844 196.917969 224.175781 196.917969 223.5 L 196.917969 209.050781 L 194.605469 209.050781 C 193.027344 209.046875 191.460938 208.929688 189.898438 208.703125 C 188.339844 208.476562 186.800781 208.136719 185.289062 207.691406 C 183.777344 207.246094 182.304688 206.691406 180.871094 206.035156 C 179.4375 205.378906 178.058594 204.625 176.730469 203.773438 C 175.40625 202.917969 174.148438 201.976562 172.953125 200.941406 C 171.761719 199.910156 170.652344 198.796875 169.617188 197.605469 C 168.585938 196.414062 167.640625 195.15625 166.785156 193.832031 C 165.933594 192.503906 165.175781 191.125 164.519531 189.691406 C 164.207031 189.078125 163.960938 188.433594 163.777344 187.769531 C 163.59375 187.101562 163.480469 186.425781 163.433594 185.734375 C 163.390625 185.046875 163.414062 184.359375 163.503906 183.671875 C 163.597656 182.988281 163.757812 182.320312 163.988281 181.667969 C 164.214844 181.015625 164.507812 180.390625 164.859375 179.796875 C 165.214844 179.203125 165.625 178.652344 166.089844 178.140625 C 166.554688 177.632812 167.066406 177.171875 167.625 176.765625 C 168.183594 176.355469 168.777344 176.007812 169.402344 175.722656 C 170.03125 175.433594 170.683594 175.210938 171.355469 175.054688 C 172.03125 174.898438 172.710938 174.8125 173.402344 174.792969 C 174.09375 174.777344 174.777344 174.828125 175.460938 174.945312 C 176.140625 175.066406 176.800781 175.253906 177.445312 175.507812 C 178.085938 175.761719 178.699219 176.078125 179.277344 176.453125 C 179.855469 176.832031 180.390625 177.261719 180.882812 177.746094 C 181.375 178.234375 181.8125 178.761719 182.199219 179.335938 C 182.582031 179.910156 182.90625 180.515625 183.167969 181.15625 C 183.671875 182.253906 184.316406 183.257812 185.105469 184.171875 C 185.894531 185.082031 186.796875 185.867188 187.808594 186.519531 C 188.820312 187.171875 189.90625 187.671875 191.0625 188.015625 C 192.21875 188.359375 193.398438 188.53125 194.605469 188.539062 L 219.765625 188.539062 C 220.589844 188.539062 221.402344 188.460938 222.210938 188.300781 C 223.015625 188.140625 223.800781 187.902344 224.558594 187.589844 C 225.320312 187.273438 226.042969 186.890625 226.726562 186.433594 C 227.410156 185.976562 228.042969 185.457031 228.625 184.875 C 229.207031 184.296875 229.726562 183.664062 230.183594 182.980469 C 230.640625 182.296875 231.027344 181.574219 231.339844 180.8125 C 231.65625 180.054688 231.894531 179.269531 232.054688 178.464844 C 232.214844 177.65625 232.296875 176.84375 232.296875 176.019531 C 232.296875 175.199219 232.214844 174.382812 232.054688 173.578125 C 231.894531 172.769531 231.65625 171.988281 231.339844 171.226562 C 231.027344 170.46875 230.640625 169.746094 230.183594 169.0625 C 229.726562 168.378906 229.207031 167.746094 228.625 167.164062 C 228.042969 166.585938 227.410156 166.066406 226.726562 165.609375 C 226.042969 165.152344 225.320312 164.765625 224.558594 164.453125 C 223.800781 164.140625 223.015625 163.902344 222.210938 163.742188 C 221.402344 163.582031 220.589844 163.503906 219.765625 163.503906 L 194.605469 163.503906 C 193.527344 163.496094 192.453125 163.433594 191.382812 163.320312 C 190.3125 163.207031 189.25 163.042969 188.191406 162.824219 C 187.136719 162.609375 186.097656 162.339844 185.066406 162.019531 C 184.039062 161.703125 183.027344 161.332031 182.035156 160.914062 C 181.042969 160.496094 180.070312 160.03125 179.125 159.519531 C 178.175781 159.007812 177.257812 158.449219 176.363281 157.84375 C 175.472656 157.242188 174.609375 156.597656 173.78125 155.910156 C 172.953125 155.222656 172.15625 154.496094 171.398438 153.734375 C 170.640625 152.96875 169.921875 152.167969 169.238281 151.332031 C 168.558594 150.5 167.921875 149.632812 167.324219 148.734375 C 166.730469 147.835938 166.179688 146.914062 165.671875 145.960938 C 165.167969 145.011719 164.710938 144.039062 164.300781 143.042969 C 163.890625 142.046875 163.527344 141.03125 163.21875 140 C 162.90625 138.96875 162.644531 137.925781 162.4375 136.867188 C 162.226562 135.8125 162.070312 134.746094 161.964844 133.675781 C 161.859375 132.601562 161.808594 131.527344 161.808594 130.453125 C 161.808594 129.375 161.859375 128.300781 161.964844 127.226562 C 162.070312 126.15625 162.226562 125.089844 162.4375 124.035156 C 162.644531 122.976562 162.90625 121.933594 163.21875 120.902344 C 163.527344 119.871094 163.890625 118.859375 164.300781 117.863281 C 164.710938 116.867188 165.167969 115.890625 165.671875 114.941406 C 166.179688 113.988281 166.730469 113.066406 167.324219 112.167969 C 167.921875 111.269531 168.558594 110.40625 169.238281 109.570312 C 169.921875 108.734375 170.640625 107.933594 171.398438 107.171875 C 172.15625 106.40625 172.953125 105.679688 173.78125 104.992188 C 174.609375 104.304688 175.472656 103.660156 176.363281 103.058594 C 177.257812 102.457031 178.175781 101.898438 179.125 101.382812 C 180.070312 100.871094 181.042969 100.40625 182.035156 99.988281 C 183.027344 99.570312 184.039062 99.203125 185.066406 98.882812 C 186.097656 98.5625 187.136719 98.296875 188.191406 98.078125 C 189.25 97.859375 190.3125 97.695312 191.382812 97.582031 C 192.453125 97.46875 193.527344 97.40625 194.605469 97.398438 L 196.929688 97.398438 L 196.929688 82.953125 C 196.902344 82.261719 196.945312 81.574219 197.058594 80.894531 C 197.167969 80.210938 197.347656 79.546875 197.59375 78.902344 C 197.835938 78.257812 198.144531 77.640625 198.515625 77.058594 C 198.882812 76.476562 199.308594 75.933594 199.789062 75.4375 C 200.265625 74.9375 200.789062 74.492188 201.359375 74.101562 C 201.925781 73.707031 202.53125 73.378906 203.164062 73.105469 C 203.800781 72.835938 204.457031 72.632812 205.132812 72.492188 C 205.8125 72.355469 206.496094 72.285156 207.183594 72.285156 C 207.875 72.285156 208.558594 72.355469 209.238281 72.492188 C 209.914062 72.632812 210.570312 72.835938 211.207031 73.105469 C 211.839844 73.378906 212.445312 73.707031 213.011719 74.101562 C 213.582031 74.492188 214.105469 74.9375 214.582031 75.4375 C 215.0625 75.933594 215.488281 76.476562 215.855469 77.058594 C 216.226562 77.640625 216.535156 78.257812 216.777344 78.902344 C 217.023438 79.546875 217.203125 80.210938 217.3125 80.894531 C 217.425781 81.574219 217.46875 82.261719 217.441406 82.953125 L 217.441406 97.398438 L 219.765625 97.398438 C 221.480469 97.402344 223.183594 97.535156 224.875 97.800781 C 226.570312 98.066406 228.230469 98.460938 229.863281 98.988281 C 231.496094 99.511719 233.078125 100.15625 234.609375 100.929688 C 236.140625 101.699219 237.601562 102.582031 238.996094 103.578125 C 240.390625 104.578125 241.699219 105.675781 242.921875 106.875 C 244.144531 108.078125 245.269531 109.363281 246.289062 110.738281 C 247.3125 112.113281 248.226562 113.5625 249.023438 115.078125 C 249.820312 116.59375 250.496094 118.164062 251.050781 119.785156 C 251.300781 120.429688 251.480469 121.089844 251.59375 121.769531 C 251.707031 122.449219 251.75 123.136719 251.726562 123.824219 C 251.703125 124.511719 251.609375 125.191406 251.449219 125.863281 C 251.285156 126.535156 251.058594 127.179688 250.769531 127.804688 C 250.476562 128.429688 250.125 129.019531 249.714844 129.574219 C 249.304688 130.128906 248.839844 130.636719 248.328125 131.097656 C 247.816406 131.554688 247.261719 131.960938 246.667969 132.3125 C 246.074219 132.660156 245.449219 132.945312 244.796875 133.167969 C 244.144531 133.394531 243.476562 133.550781 242.792969 133.636719 C 242.109375 133.726562 241.421875 133.746094 240.734375 133.699219 C 240.046875 133.648438 239.371094 133.53125 238.707031 133.34375 C 238.042969 133.160156 237.40625 132.910156 236.792969 132.59375 C 236.179688 132.28125 235.601562 131.910156 235.0625 131.476562 C 234.523438 131.046875 234.035156 130.566406 233.59375 130.039062 C 233.148438 129.507812 232.765625 128.941406 232.4375 128.335938 C 232.109375 127.726562 231.847656 127.09375 231.648438 126.433594 C 231.4375 125.816406 231.179688 125.222656 230.875 124.644531 C 230.574219 124.066406 230.226562 123.519531 229.839844 122.996094 C 229.449219 122.472656 229.023438 121.984375 228.558594 121.527344 C 228.09375 121.070312 227.597656 120.652344 227.066406 120.273438 C 226.539062 119.894531 225.980469 119.554688 225.398438 119.261719 C 224.816406 118.96875 224.214844 118.722656 223.597656 118.523438 C 222.976562 118.324219 222.34375 118.175781 221.699219 118.074219 C 221.058594 117.972656 220.410156 117.921875 219.757812 117.917969 L 194.605469 117.917969 C 193.789062 117.929688 192.980469 118.019531 192.179688 118.1875 C 191.382812 118.355469 190.605469 118.597656 189.855469 118.917969 C 189.101562 119.238281 188.390625 119.628906 187.714844 120.085938 C 187.039062 120.546875 186.414062 121.066406 185.839844 121.648438 C 185.265625 122.230469 184.753906 122.859375 184.300781 123.542969 C 183.851562 124.222656 183.472656 124.941406 183.160156 125.695312 C 182.851562 126.453125 182.617188 127.230469 182.457031 128.03125 C 182.300781 128.832031 182.222656 129.644531 182.222656 130.460938 C 182.222656 131.277344 182.300781 132.085938 182.457031 132.886719 C 182.617188 133.6875 182.851562 134.46875 183.160156 135.222656 C 183.472656 135.976562 183.851562 136.695312 184.300781 137.378906 C 184.753906 138.058594 185.265625 138.691406 185.839844 139.273438 C 186.414062 139.851562 187.039062 140.371094 187.714844 140.832031 C 188.390625 141.292969 189.101562 141.679688 189.855469 142 C 190.605469 142.320312 191.382812 142.5625 192.179688 142.730469 C 192.980469 142.898438 193.789062 142.988281 194.605469 143 L 219.765625 143 C 220.847656 143 221.925781 143.050781 223.003906 143.160156 C 224.078125 143.265625 225.148438 143.421875 226.210938 143.632812 C 227.269531 143.84375 228.320312 144.109375 229.355469 144.421875 C 230.390625 144.734375 231.40625 145.097656 232.40625 145.511719 C 233.40625 145.925781 234.382812 146.390625 235.335938 146.898438 C 236.289062 147.410156 237.214844 147.964844 238.117188 148.566406 C 239.015625 149.167969 239.882812 149.808594 240.71875 150.496094 C 241.554688 151.183594 242.355469 151.910156 243.121094 152.671875 C 243.886719 153.4375 244.613281 154.238281 245.296875 155.074219 C 245.984375 155.910156 246.628906 156.777344 247.230469 157.679688 C 247.828125 158.578125 248.386719 159.503906 248.894531 160.457031 C 249.40625 161.414062 249.867188 162.390625 250.28125 163.390625 C 250.695312 164.386719 251.058594 165.40625 251.375 166.441406 C 251.6875 167.476562 251.949219 168.523438 252.160156 169.585938 C 252.371094 170.644531 252.53125 171.714844 252.636719 172.792969 C 252.742188 173.867188 252.796875 174.945312 252.796875 176.027344 C 252.796875 177.109375 252.742188 178.191406 252.636719 179.265625 C 252.53125 180.34375 252.371094 181.410156 252.160156 182.472656 C 251.949219 183.535156 251.6875 184.582031 251.375 185.617188 C 251.058594 186.652344 250.695312 187.667969 250.28125 188.667969 C 249.867188 189.667969 249.40625 190.644531 248.894531 191.597656 C 248.386719 192.554688 247.828125 193.480469 247.230469 194.378906 C 246.628906 195.277344 245.984375 196.148438 245.296875 196.984375 C 244.613281 197.820312 243.886719 198.621094 243.121094 199.382812 C 242.355469 200.148438 241.554688 200.875 240.71875 201.5625 C 239.882812 202.246094 239.015625 202.890625 238.117188 203.492188 C 237.214844 204.09375 236.289062 204.648438 235.335938 205.160156 C 234.382812 205.667969 233.40625 206.128906 232.40625 206.542969 C 231.40625 206.957031 230.390625 207.324219 229.355469 207.636719 C 228.320312 207.949219 227.269531 208.210938 226.210938 208.425781 C 225.148438 208.636719 224.078125 208.792969 223.003906 208.898438 C 221.925781 209.003906 220.847656 209.058594 219.765625 209.058594 L 217.441406 209.058594 L 217.441406 223.507812 C 217.441406 224.179688 217.375 224.847656 217.242188 225.507812 C 217.109375 226.167969 216.914062 226.808594 216.65625 227.433594 C 216.398438 228.054688 216.082031 228.644531 215.707031 229.207031 C 215.335938 229.765625 214.910156 230.28125 214.433594 230.757812 C 213.957031 231.234375 213.4375 231.660156 212.878906 232.035156 C 212.316406 232.410156 211.726562 232.722656 211.105469 232.980469 C 210.484375 233.238281 209.839844 233.433594 209.179688 233.566406 C 208.519531 233.699219 207.851562 233.761719 207.179688 233.761719 Z M 207.179688 233.761719 " fill-opacity="1" fill-rule="nonzero"/></g></svg>