<svg xmlns="http://www.w3.org/2000/svg" xmlns:xlink="http://www.w3.org/1999/xlink" width="1000" zoomAndPan="magnify" viewBox="0 0 750 749.999995" height="1000" preserveAspectRatio="xMidYMid meet" version="1.0"><defs><clipPath id="70b1480d6e"><path d="M 171 116.589844 L 750 116.589844 L 750 245 L 171 245 Z M 171 116.589844 " clip-rule="nonzero"/></clipPath><clipPath id="4f84b6127c"><path d="M 0 116.589844 L 129 116.589844 L 129 245 L 0 245 Z M 0 116.589844 " clip-rule="nonzero"/></clipPath><clipPath id="8ac7eca61a"><path d="M 171 505 L 750 505 L 750 633.339844 L 171 633.339844 Z M 171 505 " clip-rule="nonzero"/></clipPath><clipPath id="cc16d20ca6"><path d="M 0 505 L 129 505 L 129 633.339844 L 0 633.339844 Z M 0 505 " clip-rule="nonzero"/></clipPath></defs><g clip-path="url(#70b1480d6e)"><path fill="#8fa6ac" d="M 685.183594 244.574219 L 235.457031 244.574219 C 200.171875 244.574219 171.464844 215.871094 171.464844 180.589844 C 171.449219 145.296875 200.160156 116.589844 235.457031 116.589844 L 685.183594 116.589844 C 720.46875 116.589844 749.175781 145.296875 749.175781 180.578125 C 749.175781 215.871094 720.46875 244.574219 685.183594 244.574219 Z M 235.457031 137.9375 C 211.945312 137.9375 192.816406 157.066406 192.816406 180.578125 C 192.816406 204.085938 211.945312 223.214844 235.457031 223.214844 L 685.183594 223.214844 C 708.699219 223.214844 727.828125 204.085938 727.828125 180.578125 C 727.828125 157.066406 708.699219 137.9375 685.183594 137.9375 Z M 235.457031 137.9375 " fill-opacity="1" fill-rule="nonzero"/></g><g clip-path="url(#4f84b6127c)"><path fill="#8fa6ac" d="M 64.871094 244.574219 C 29.589844 244.574219 0.878906 215.871094 0.878906 180.578125 C 0.878906 145.296875 29.589844 116.589844 64.871094 116.589844 C 100.15625 116.589844 128.863281 145.296875 128.863281 180.578125 C 128.878906 215.871094 100.171875 244.574219 64.871094 244.574219 Z M 64.871094 137.9375 C 41.359375 137.9375 22.230469 157.066406 22.230469 180.578125 C 22.230469 204.085938 41.359375 223.214844 64.871094 223.214844 C 88.386719 223.214844 107.515625 204.085938 107.515625 180.578125 C 107.527344 157.066406 88.398438 137.9375 64.871094 137.9375 Z M 64.871094 137.9375 " fill-opacity="1" fill-rule="nonzero"/></g><path fill="#8fa6ac" d="M 685.183594 438.9375 L 235.457031 438.9375 C 200.171875 438.9375 171.464844 410.230469 171.464844 374.953125 C 171.464844 339.671875 200.171875 310.964844 235.457031 310.964844 L 685.183594 310.964844 C 720.46875 310.964844 749.175781 339.671875 749.175781 374.953125 C 749.175781 410.230469 720.46875 438.9375 685.183594 438.9375 Z M 235.457031 332.3125 C 211.945312 332.3125 192.816406 351.441406 192.816406 374.953125 C 192.816406 398.460938 211.945312 417.589844 235.457031 417.589844 L 685.183594 417.589844 C 708.699219 417.589844 727.828125 398.460938 727.828125 374.953125 C 727.828125 351.441406 708.699219 332.3125 685.183594 332.3125 Z M 235.457031 332.3125 " fill-opacity="1" fill-rule="nonzero"/><path fill="#8fa6ac" d="M 64.871094 438.9375 C 29.589844 438.9375 0.878906 410.230469 0.878906 374.953125 C 0.878906 339.671875 29.589844 310.964844 64.871094 310.964844 C 100.15625 310.964844 128.863281 339.671875 128.863281 374.953125 C 128.863281 410.230469 100.171875 438.9375 64.871094 438.9375 Z M 64.871094 332.3125 C 41.359375 332.3125 22.230469 351.441406 22.230469 374.953125 C 22.230469 398.460938 41.359375 417.589844 64.871094 417.589844 C 88.386719 417.589844 107.515625 398.460938 107.515625 374.953125 C 107.515625 351.441406 88.398438 332.3125 64.871094 332.3125 Z M 64.871094 332.3125 " fill-opacity="1" fill-rule="nonzero"/><g clip-path="url(#8ac7eca61a)"><path fill="#8fa6ac" d="M 685.183594 633.3125 L 235.457031 633.3125 C 200.171875 633.3125 171.464844 604.605469 171.464844 569.328125 C 171.464844 534.046875 200.171875 505.339844 235.457031 505.339844 L 685.183594 505.339844 C 720.46875 505.339844 749.175781 534.046875 749.175781 569.328125 C 749.175781 604.605469 720.46875 633.3125 685.183594 633.3125 Z M 235.457031 526.675781 C 211.945312 526.675781 192.816406 545.800781 192.816406 569.3125 C 192.816406 592.824219 211.945312 611.949219 235.457031 611.949219 L 685.183594 611.949219 C 708.699219 611.949219 727.828125 592.824219 727.828125 569.3125 C 727.828125 545.800781 708.699219 526.675781 685.183594 526.675781 Z M 235.457031 526.675781 " fill-opacity="1" fill-rule="nonzero"/></g><g clip-path="url(#cc16d20ca6)"><path fill="#8fa6ac" d="M 64.871094 633.3125 C 29.589844 633.3125 0.878906 604.605469 0.878906 569.328125 C 0.878906 534.046875 29.589844 505.339844 64.871094 505.339844 C 100.15625 505.339844 128.863281 534.046875 128.863281 569.328125 C 128.863281 604.605469 100.171875 633.3125 64.871094 633.3125 Z M 64.871094 526.675781 C 41.359375 526.675781 22.230469 545.800781 22.230469 569.3125 C 22.230469 592.824219 41.359375 611.949219 64.871094 611.949219 C 88.386719 611.949219 107.515625 592.824219 107.515625 569.3125 C 107.515625 545.800781 88.398438 526.675781 64.871094 526.675781 Z M 64.871094 526.675781 " fill-opacity="1" fill-rule="nonzero"/></g></svg>