<svg xmlns="http://www.w3.org/2000/svg" xmlns:xlink="http://www.w3.org/1999/xlink" width="1000" zoomAndPan="magnify" viewBox="0 0 750 749.999995" height="1000" preserveAspectRatio="xMidYMid meet" version="1.0"><defs><clipPath id="d2360aa4ec"><path d="M 0 0 L 749.972656 0 L 749.972656 749.980469 L 0 749.980469 Z M 0 0 " clip-rule="nonzero"/></clipPath></defs><path fill="#272324" d="M 374.988281 706.652344 C 192.105469 706.652344 43.324219 557.871094 43.324219 374.988281 C 43.324219 192.105469 192.105469 43.320312 374.988281 43.320312 C 557.871094 43.320312 706.652344 192.105469 706.652344 374.988281 C 706.652344 557.871094 557.871094 706.652344 374.988281 706.652344 Z M 639.902344 110.074219 C 569.144531 39.3125 475.058594 0.339844 374.988281 0.339844 C 274.914062 0.339844 180.835938 39.3125 110.074219 110.074219 C 39.308594 180.835938 0.339844 274.914062 0.339844 374.988281 C 0.339844 475.058594 39.308594 569.144531 110.074219 639.902344 C 180.835938 710.667969 274.914062 749.640625 374.988281 749.640625 C 475.058594 749.640625 569.144531 710.667969 639.902344 639.902344 C 710.667969 569.144531 749.632812 475.058594 749.632812 374.988281 C 749.632812 274.914062 710.667969 180.835938 639.902344 110.074219 " fill-opacity="1" fill-rule="nonzero"/><g clip-path="url(#d2360aa4ec)"><path fill="#272324" d="M 374.988281 43.660156 C 192.296875 43.660156 43.664062 192.296875 43.664062 374.988281 C 43.664062 557.679688 192.296875 706.3125 374.988281 706.3125 C 557.679688 706.3125 706.3125 557.679688 706.3125 374.988281 C 706.3125 192.296875 557.679688 43.660156 374.988281 43.660156 Z M 374.988281 706.992188 C 191.917969 706.992188 42.980469 558.058594 42.980469 374.988281 C 42.980469 191.917969 191.917969 42.980469 374.988281 42.980469 C 558.058594 42.980469 706.992188 191.917969 706.992188 374.988281 C 706.992188 558.058594 558.058594 706.992188 374.988281 706.992188 Z M 374.988281 0.679688 C 275.007812 0.679688 181.011719 39.617188 110.3125 110.3125 C 39.617188 181.011719 0.679688 275.007812 0.679688 374.988281 C 0.679688 474.96875 39.617188 568.964844 110.3125 639.660156 C 181.011719 710.359375 275.007812 749.296875 374.988281 749.296875 C 474.96875 749.296875 568.964844 710.359375 639.660156 639.660156 C 710.359375 568.964844 749.289062 474.96875 749.289062 374.988281 C 749.289062 275.007812 710.359375 181.011719 639.660156 110.3125 C 568.964844 39.617188 474.96875 0.679688 374.988281 0.679688 Z M 374.988281 749.980469 C 274.824219 749.980469 180.660156 710.972656 109.832031 640.144531 C 39.007812 569.320312 0 475.152344 0 374.988281 C 0 274.824219 39.007812 180.660156 109.832031 109.832031 C 180.65625 39.007812 274.824219 0 374.988281 0 C 475.148438 0 569.320312 39.007812 640.144531 109.832031 C 710.972656 180.660156 749.972656 274.828125 749.972656 374.988281 C 749.972656 475.148438 710.972656 569.320312 640.144531 640.144531 C 569.320312 710.972656 475.148438 749.980469 374.988281 749.980469 " fill-opacity="1" fill-rule="nonzero"/></g><path fill="#272324" d="M 550.507812 235.949219 L 199.46875 235.949219 C 187.597656 235.949219 177.980469 245.574219 177.980469 257.441406 C 177.980469 269.3125 187.597656 278.929688 199.46875 278.929688 L 550.507812 278.929688 C 562.375 278.929688 571.996094 269.3125 571.996094 257.441406 C 571.996094 245.574219 562.375 235.949219 550.507812 235.949219 " fill-opacity="1" fill-rule="nonzero"/><path fill="#272324" d="M 199.46875 236.292969 C 187.808594 236.292969 178.320312 245.777344 178.320312 257.441406 C 178.320312 269.101562 187.808594 278.589844 199.46875 278.589844 L 550.507812 278.589844 C 562.167969 278.589844 571.65625 269.101562 571.65625 257.441406 C 571.65625 245.777344 562.167969 236.292969 550.507812 236.292969 Z M 550.507812 279.269531 L 199.46875 279.269531 C 187.433594 279.269531 177.640625 269.480469 177.640625 257.441406 C 177.640625 245.402344 187.433594 235.609375 199.46875 235.609375 L 550.507812 235.609375 C 562.546875 235.609375 572.339844 245.402344 572.339844 257.441406 C 572.339844 269.480469 562.546875 279.269531 550.507812 279.269531 " fill-opacity="1" fill-rule="nonzero"/><path fill="#272324" d="M 550.507812 353.5 L 199.46875 353.5 C 187.597656 353.5 177.980469 363.121094 177.980469 374.988281 C 177.980469 386.859375 187.597656 396.480469 199.46875 396.480469 L 550.507812 396.480469 C 562.375 396.480469 571.996094 386.859375 571.996094 374.988281 C 571.996094 363.121094 562.375 353.5 550.507812 353.5 " fill-opacity="1" fill-rule="nonzero"/><path fill="#272324" d="M 199.46875 353.839844 C 187.808594 353.839844 178.320312 363.328125 178.320312 374.988281 C 178.320312 386.648438 187.808594 396.140625 199.46875 396.140625 L 550.507812 396.140625 C 562.167969 396.140625 571.65625 386.648438 571.65625 374.988281 C 571.65625 363.328125 562.167969 353.839844 550.507812 353.839844 Z M 550.507812 396.820312 L 199.46875 396.820312 C 187.433594 396.820312 177.640625 387.027344 177.640625 374.988281 C 177.640625 362.949219 187.433594 353.15625 199.46875 353.15625 L 550.507812 353.15625 C 562.546875 353.15625 572.339844 362.949219 572.339844 374.988281 C 572.339844 387.027344 562.546875 396.820312 550.507812 396.820312 " fill-opacity="1" fill-rule="nonzero"/><path fill="#272324" d="M 550.507812 471.046875 L 199.46875 471.046875 C 187.597656 471.046875 177.980469 480.667969 177.980469 492.535156 C 177.980469 504.40625 187.597656 514.027344 199.46875 514.027344 L 550.507812 514.027344 C 562.375 514.027344 571.996094 504.40625 571.996094 492.535156 C 571.996094 480.667969 562.375 471.046875 550.507812 471.046875 " fill-opacity="1" fill-rule="nonzero"/><path fill="#272324" d="M 199.46875 471.386719 C 187.808594 471.386719 178.320312 480.875 178.320312 492.535156 C 178.320312 504.195312 187.808594 513.6875 199.46875 513.6875 L 550.507812 513.6875 C 562.167969 513.6875 571.65625 504.195312 571.65625 492.535156 C 571.65625 480.875 562.167969 471.386719 550.507812 471.386719 Z M 550.507812 514.367188 L 199.46875 514.367188 C 187.433594 514.367188 177.640625 504.574219 177.640625 492.535156 C 177.640625 480.5 187.433594 470.703125 199.46875 470.703125 L 550.507812 470.703125 C 562.546875 470.703125 572.339844 480.5 572.339844 492.535156 C 572.339844 504.574219 562.546875 514.367188 550.507812 514.367188 " fill-opacity="1" fill-rule="nonzero"/></svg>