<svg xmlns="http://www.w3.org/2000/svg" xmlns:xlink="http://www.w3.org/1999/xlink" width="1000" zoomAndPan="magnify" viewBox="0 0 750 749.999995" height="1000" preserveAspectRatio="xMidYMid meet" version="1.0"><defs><clipPath id="0c65fd67b8"><path d="M 33.808594 0 L 716.203125 0 L 716.203125 750 L 33.808594 750 Z M 33.808594 0 " clip-rule="nonzero"/></clipPath></defs><g clip-path="url(#0c65fd67b8)"><path fill="#000000" d="M 290.363281 470.710938 L 356.441406 470.710938 L 346.179688 385.949219 L 300.625 385.949219 L 292.503906 453 L 300.625 385.949219 Z M 631.761719 650.3125 L 631.761719 643.542969 L 617.753906 643.542969 L 604.046875 655.171875 L 601.988281 656.925781 L 607.789062 664.992188 L 595.292969 675.605469 L 631.761719 675.605469 Z M 485.570312 353.507812 C 484.953125 353.328125 484.335938 353.117188 483.734375 352.808594 C 479.570312 350.691406 477.179688 346.160156 477.300781 341.46875 L 474.863281 340.238281 L 473.238281 327.871094 L 473.25 327.871094 L 473.226562 327.867188 L 477.453125 318.042969 L 478.929688 314.605469 L 358.28125 253.375 L 355.777344 259.21875 L 355.765625 259.210938 L 350.921875 270.472656 L 341.757812 265.8125 C 340.992188 267.613281 340.007812 269.21875 338.886719 270.667969 L 352.339844 270.667969 L 401.378906 675.605469 L 450.089844 675.605469 L 450.089844 572.507812 C 450.089844 540.058594 479.953125 513.753906 516.785156 513.753906 C 522.503906 513.753906 528.0625 514.390625 533.363281 515.582031 Z M 119.464844 150.796875 C 120.800781 147.683594 120.949219 144.949219 119.871094 143.273438 C 118.800781 141.601562 116.382812 140.8125 113.234375 141.105469 L 96 142.730469 C 90.390625 143.265625 84.992188 147.460938 82.53125 153.171875 C 81.726562 155.039062 81.292969 156.949219 81.21875 158.863281 C 80.496094 178.828125 81.726562 200.152344 84.878906 222.25 C 85.25 224.875 85.792969 226.15625 86.125 226.738281 C 86.601562 226.28125 87.492188 225.1875 88.5625 222.691406 Z M 148.414062 73.511719 C 149.113281 73.449219 149.933594 72.484375 150.59375 70.941406 C 150.957031 70.117188 151.261719 69.136719 151.507812 68.03125 L 158.816406 35.484375 C 159.609375 32.027344 159.179688 29.109375 157.667969 27.707031 C 156.332031 26.460938 154.070312 26.433594 151.445312 27.613281 C 146.757812 29.71875 142.136719 32.246094 137.742188 35.109375 C 135.867188 36.332031 134.378906 38.15625 133.425781 40.367188 C 131.417969 45.023438 131.941406 50.851562 134.761719 55.21875 L 144.125 69.800781 C 145.984375 72.664062 147.589844 73.589844 148.414062 73.511719 Z M 95.6875 86.695312 C 92.640625 93.78125 90.027344 101.519531 87.925781 109.699219 C 87.074219 112.980469 87.503906 115.957031 89.140625 118.085938 C 90.886719 120.375 93.875 121.503906 97.320312 121.171875 L 119.019531 119.117188 C 127.65625 118.28125 135.441406 113.621094 137.019531 109.933594 C 138.601562 106.257812 136.921875 96.769531 131.960938 89.019531 L 119.476562 69.488281 C 117.425781 66.300781 114.605469 64.484375 111.710938 64.496094 C 109.148438 64.507812 106.789062 66.007812 105.074219 68.734375 C 101.582031 74.300781 98.417969 80.34375 95.6875 86.695312 Z M 504.113281 331.574219 L 505.585938 328.148438 L 487.113281 318.765625 L 485.640625 322.195312 L 485.636719 322.195312 Z M 280.527344 551.882812 L 279.011719 564.371094 L 367.789062 564.371094 L 357.527344 479.617188 L 289.28125 479.617188 Z M 272.84375 656.914062 L 379 656.914062 L 368.867188 573.277344 L 277.9375 573.277344 L 267.808594 656.914062 Z M 301.699219 377.035156 L 345.105469 377.035156 L 335.285156 296.003906 L 334.484375 289.355469 L 312.320312 289.355469 L 301.699219 377.035156 L 311.914062 292.808594 Z M 44.359375 726.972656 L 49.066406 719.9375 C 48.253906 718.84375 47.734375 717.472656 47.734375 715.960938 C 47.734375 715.84375 47.769531 715.738281 47.777344 715.632812 L 40.144531 712.9375 C 39.964844 713.914062 39.863281 714.925781 39.863281 715.960938 C 39.863281 720.320312 41.605469 724.238281 44.359375 726.972656 Z M 52.089844 709.835938 L 52.089844 708.796875 L 48.882812 708.796875 L 48.882812 701.960938 C 45.421875 703.34375 42.609375 706.179688 41.09375 709.8125 L 48.695312 712.496094 C 49.46875 711.195312 50.671875 710.25 52.089844 709.835938 Z M 52.929688 727.179688 L 52.929688 722.246094 C 52.429688 722.191406 51.945312 722.074219 51.507812 721.886719 L 46.8125 728.914062 C 48.628906 730.046875 50.710938 730.734375 52.929688 730.851562 Z M 33.808594 715.960938 C 33.808594 705.871094 40.242188 697.402344 48.882812 695.089844 L 48.882812 688.007812 L 53.246094 688.007812 L 53.246094 684.980469 L 54.871094 684.980469 L 54.871094 683.683594 L 58.746094 683.683594 L 58.746094 684.980469 L 60.367188 684.980469 L 60.367188 688.007812 L 65.382812 688.007812 L 65.382812 592.566406 L 56.300781 592.566406 L 56.300781 584.996094 L 65.382812 584.996094 L 65.382812 576.84375 L 76.066406 576.84375 L 76.066406 373.125 L 71.429688 373.125 L 71.429688 366.253906 L 65.824219 366.253906 L 65.824219 358.679688 L 71.429688 358.679688 L 71.429688 350.921875 L 65.824219 350.921875 L 65.824219 343.34375 L 71.429688 343.34375 L 71.429688 324.847656 L 76.492188 324.847656 L 76.492188 270.613281 L 72.039062 270.613281 L 71.621094 269.019531 C 70.496094 264.730469 44.695312 154.074219 77.597656 77.511719 C 107.039062 9.019531 166.964844 0.207031 167.570312 0.125 L 168.511719 0 L 185.425781 8.578125 L 166.558594 92.480469 L 166.421875 92.804688 L 501.21875 262.742188 L 502.902344 258.824219 L 511.085938 262.984375 L 509.402344 266.894531 L 527.875 276.273438 L 529.5625 272.355469 L 537.75 276.515625 L 536.0625 280.425781 L 542.722656 283.808594 L 540.609375 288.726562 L 540.222656 289.617188 L 524.378906 326.476562 L 524.066406 327.214844 L 520.425781 335.679688 L 513.765625 332.296875 L 510.9375 338.886719 L 508.074219 345.554688 L 508.078125 345.5625 L 498.300781 352.132812 L 497.746094 351.855469 L 547.421875 520.320312 C 549.515625 521.277344 551.554688 522.320312 553.507812 523.457031 C 555.699219 524.738281 557.792969 526.125 559.800781 527.613281 C 570.25 520.714844 583.816406 520.4375 594.726562 528.179688 C 596.574219 529.484375 598.246094 530.960938 599.761719 532.574219 C 599.792969 532.601562 599.816406 532.625 599.847656 532.660156 C 599.875 532.683594 599.90625 532.71875 599.929688 532.746094 C 610.777344 544.308594 618.988281 553.058594 625.507812 560.003906 C 629.289062 557.5625 632.019531 559.589844 631.738281 565.070312 L 631.660156 566.570312 C 646.855469 582.765625 651.269531 587.460938 664.738281 601.828125 C 669.605469 606.992188 670.605469 615.347656 666.734375 621.769531 C 662.875 628.195312 655.445312 630.558594 649.132812 627.804688 C 640.625 624.101562 634.894531 621.613281 629.007812 619.046875 L 628.773438 623.660156 C 628.691406 625.316406 628.320312 627.117188 627.761719 628.941406 L 692.070312 628.941406 L 692.070312 643.542969 L 642.738281 643.542969 L 642.738281 675.605469 L 716.203125 675.605469 L 716.203125 750 L 192.25 750 L 192.25 734.699219 L 219.363281 734.699219 L 219.363281 675.605469 L 245.429688 675.605469 L 294.476562 270.667969 L 307.964844 270.667969 C 303.046875 264.3125 301.648438 255.199219 305.082031 247.199219 L 295.917969 242.546875 L 303.265625 225.445312 L 144.125 144.667969 L 89.996094 270.613281 L 85.886719 270.613281 L 85.886719 324.847656 L 90.945312 324.847656 L 90.945312 343.34375 L 96.546875 343.34375 L 96.546875 350.921875 L 90.945312 350.921875 L 90.945312 358.679688 L 96.546875 358.679688 L 96.546875 366.253906 L 90.945312 366.253906 L 90.945312 373.125 L 86.292969 373.125 L 86.292969 576.84375 L 96.980469 576.84375 L 96.980469 584.996094 L 106.0625 584.996094 L 106.0625 592.566406 L 96.980469 592.566406 L 96.980469 688.007812 L 101.992188 688.007812 L 101.992188 684.980469 L 103.609375 684.980469 L 103.609375 683.683594 L 107.492188 683.683594 L 107.492188 684.980469 L 109.117188 684.980469 L 109.117188 688.007812 L 113.46875 688.007812 L 113.46875 708.796875 L 109.453125 708.796875 L 109.453125 750 L 52.929688 750 L 52.929688 737.429688 C 42.328125 737.039062 33.808594 727.570312 33.808594 715.960938 " fill-opacity="1" fill-rule="nonzero"/></g></svg>