<svg xmlns="http://www.w3.org/2000/svg" xmlns:xlink="http://www.w3.org/1999/xlink" width="1000" zoomAndPan="magnify" viewBox="0 0 750 749.999995" height="1000" preserveAspectRatio="xMidYMid meet" version="1.0"><path fill="#000000" d="M 375 238.636719 C 299.660156 238.636719 238.636719 299.660156 238.636719 375 C 238.636719 450.339844 299.660156 511.363281 375 511.363281 C 450.339844 511.363281 511.363281 450.339844 511.363281 375 C 511.363281 299.660156 450.339844 238.636719 375 238.636719 Z M 679.773438 340.910156 C 664.089844 198.75 551.25 85.910156 409.089844 70.226562 L 409.089844 0 L 340.910156 0 L 340.910156 70.226562 C 198.75 85.910156 85.910156 198.75 70.226562 340.910156 L 0 340.910156 L 0 409.089844 L 70.226562 409.089844 C 85.910156 551.25 198.75 664.089844 340.910156 679.773438 L 340.910156 750 L 409.089844 750 L 409.089844 679.773438 C 551.25 664.089844 664.089844 551.25 679.773438 409.089844 L 750 409.089844 L 750 340.910156 Z M 375 613.636719 C 243.238281 613.636719 136.363281 506.761719 136.363281 375 C 136.363281 243.238281 243.238281 136.363281 375 136.363281 C 506.761719 136.363281 613.636719 243.238281 613.636719 375 C 613.636719 506.761719 506.761719 613.636719 375 613.636719 Z M 375 613.636719 " fill-opacity="1" fill-rule="nonzero"/></svg>