<svg xmlns="http://www.w3.org/2000/svg" xmlns:xlink="http://www.w3.org/1999/xlink" width="1000" zoomAndPan="magnify" viewBox="0 0 750 749.999995" height="1000" preserveAspectRatio="xMidYMid meet" version="1.0"><defs><clipPath id="57ca247f9b"><path d="M 0 36.09375 L 750 36.09375 L 750 714.09375 L 0 714.09375 Z M 0 36.09375 " clip-rule="nonzero"/></clipPath></defs><g clip-path="url(#57ca247f9b)"><path fill="#1e1e1e" d="M 164.085938 173.457031 C 170.242188 179.429688 173.316406 187.609375 172.511719 195.890625 C 171.675781 204.429688 166.773438 212.390625 159.386719 217.179688 C 156.195312 219.28125 152.621094 220.808594 148.863281 221.773438 L 148.863281 227.25 C 148.863281 233.71875 143.621094 238.964844 137.15625 238.964844 C 130.6875 238.964844 125.445312 233.71875 125.445312 227.25 L 125.445312 220.4375 C 115.21875 216.542969 107.148438 208.488281 102.558594 197.496094 C 100.0625 191.527344 102.882812 184.667969 108.847656 182.175781 C 114.816406 179.679688 121.675781 182.5 124.167969 188.46875 C 126.417969 193.855469 130.074219 197.457031 134.746094 198.886719 C 138.824219 200.132812 143.472656 199.621094 146.578125 197.570312 C 148.078125 196.601562 149.058594 195.097656 149.203125 193.617188 C 149.324219 192.390625 148.871094 191.324219 147.773438 190.261719 C 146.535156 189.058594 141.3125 187.824219 137.851562 187.007812 C 129.902344 185.128906 120.007812 182.789062 112.53125 175.117188 C 105.941406 168.34375 103.273438 158.226562 105.5625 148.707031 C 107.914062 138.929688 114.882812 131.421875 124.679688 128.101562 C 124.933594 128.015625 125.191406 127.945312 125.445312 127.863281 L 125.445312 121.710938 C 125.445312 115.242188 130.6875 109.996094 137.15625 109.996094 C 143.621094 109.996094 148.863281 115.238281 148.863281 121.710938 L 148.863281 127.425781 C 151.488281 128.15625 153.996094 129.152344 156.304688 130.417969 C 163.875 134.5625 169.164062 141.390625 171.199219 149.644531 C 172.742188 155.925781 168.90625 162.273438 162.625 163.820312 C 156.351562 165.363281 150.003906 161.527344 148.457031 155.246094 C 147.980469 153.3125 146.933594 151.992188 145.0625 150.96875 C 141.707031 149.132812 136.417969 148.847656 132.210938 150.285156 C 130.082031 151.007812 128.78125 152.316406 128.332031 154.1875 C 127.925781 155.875 128.328125 157.761719 129.3125 158.773438 C 132.023438 161.558594 137.726562 162.90625 143.238281 164.210938 C 150.257812 165.867188 158.21875 167.746094 164.085938 173.457031 Z M 747.082031 341.730469 L 710.957031 382.8125 C 708.640625 385.441406 705.410156 386.789062 702.160156 386.789062 C 699.414062 386.789062 696.660156 385.828125 694.433594 383.871094 L 653.324219 347.738281 C 648.46875 343.464844 647.992188 336.066406 652.261719 331.207031 C 656.527344 326.34375 663.925781 325.871094 668.785156 330.140625 L 689.300781 348.175781 C 675.671875 185.171875 540.375 59.574219 375 59.574219 C 315.070312 59.574219 257.339844 76.257812 207.097656 107.941406 C 223.585938 125.28125 233.734375 148.699219 233.734375 174.457031 C 233.734375 227.730469 190.410156 271.070312 137.152344 271.070312 C 83.894531 271.070312 40.566406 227.730469 40.566406 174.457031 C 40.566406 121.1875 83.894531 77.847656 137.152344 77.847656 C 155.808594 77.847656 173.234375 83.179688 188.019531 92.382812 C 243.519531 55.570312 307.984375 36.144531 375 36.144531 C 463.269531 36.144531 546.839844 69.90625 610.324219 131.203125 C 669.613281 188.453125 705.546875 264.019531 712.582031 345.496094 L 729.5 326.257812 C 733.773438 321.402344 741.171875 320.929688 746.027344 325.199219 C 750.878906 329.472656 751.351562 336.875 747.082031 341.730469 Z M 137.152344 101.273438 C 96.808594 101.273438 63.988281 134.101562 63.988281 174.457031 C 63.988281 214.8125 96.808594 247.640625 137.152344 247.640625 C 177.496094 247.640625 210.316406 214.8125 210.316406 174.457031 C 210.316406 134.101562 177.496094 101.273438 137.152344 101.273438 Z M 707.015625 597.394531 C 711.707031 615.242188 709.566406 633.765625 701.140625 648.199219 C 694.445312 659.660156 684.167969 667.703125 672.203125 670.835938 C 668.46875 671.820312 664.691406 672.289062 660.941406 672.289062 C 647.050781 672.292969 633.453125 665.820312 622.953125 654.890625 C 612.363281 666.054688 598.804688 672.335938 585.011719 672.335938 C 581.007812 672.335938 576.984375 671.808594 573.007812 670.71875 C 566.652344 668.988281 560.882812 665.929688 555.875 661.753906 C 501.761719 695.988281 439.445312 714.042969 375 714.042969 C 286.460938 714.042969 202.695312 680.089844 139.136719 618.4375 C 80.140625 561.207031 44.449219 485.875 37.445312 404.667969 L 20.503906 423.933594 C 18.1875 426.5625 14.957031 427.910156 11.707031 427.910156 C 8.960938 427.910156 6.199219 426.949219 3.976562 424.992188 C -0.878906 420.71875 -1.351562 413.316406 2.917969 408.460938 L 39.085938 367.339844 C 41.140625 365.007812 44.035156 363.585938 47.132812 363.386719 C 50.234375 363.199219 53.285156 364.230469 55.617188 366.289062 L 96.683594 402.464844 C 101.539062 406.738281 102.007812 414.140625 97.730469 418.996094 C 93.457031 423.851562 86.058594 424.320312 81.207031 420.042969 L 60.699219 401.980469 C 74.28125 565.113281 209.3125 690.613281 375 690.613281 C 434.402344 690.613281 491.859375 674.144531 541.875 642.894531 C 541.777344 642.679688 541.671875 642.472656 541.574219 642.253906 C 535.644531 628.589844 534.71875 612.484375 538.972656 596.898438 C 542.621094 583.542969 549.683594 572.203125 558.636719 563.921875 C 556.464844 560.449219 554.492188 556.820312 552.738281 553.058594 C 542.398438 531.039062 540.558594 506.894531 547.714844 486.851562 C 548.765625 483.90625 550.953125 481.5 553.789062 480.175781 C 556.625 478.851562 559.871094 478.71875 562.804688 479.804688 C 582.734375 487.179688 600.074219 504.042969 610.375 526.074219 C 614.980469 535.921875 617.925781 546.410156 619.085938 556.765625 C 620.4375 557.675781 621.746094 558.667969 623.011719 559.726562 C 624.195312 558.726562 625.417969 557.78125 626.695312 556.902344 C 627.84375 546.5 630.796875 535.964844 635.421875 526.074219 C 645.71875 504.042969 663.058594 487.179688 682.988281 479.804688 C 685.925781 478.71875 689.171875 478.855469 692.007812 480.179688 C 694.84375 481.5 697.03125 483.90625 698.082031 486.855469 C 705.234375 506.898438 703.398438 531.039062 693.042969 553.089844 C 691.335938 556.757812 689.40625 560.316406 687.28125 563.734375 C 696.625 572.398438 703.542969 584.117188 707.015625 597.394531 Z M 609.496094 634.515625 C 608.042969 631.15625 606.808594 627.625 605.84375 623.941406 C 601.625 607.820312 603.15625 591.765625 609.023438 578.667969 C 606.640625 576.417969 603.5625 574.359375 599.617188 573.277344 C 593.609375 571.636719 587.339844 572.695312 581.59375 575.820312 C 580.945312 576.289062 580.269531 576.691406 579.566406 577.007812 C 571.511719 582.183594 564.734375 591.480469 561.570312 603.070312 C 558.710938 613.53125 559.242188 624.132812 563.058594 632.917969 C 566.488281 640.824219 572.214844 646.222656 579.179688 648.117188 C 589.558594 650.964844 601.417969 645.453125 609.496094 634.515625 Z M 684.363281 603.339844 C 681.621094 592.847656 675.871094 583.945312 668.171875 578.246094 C 663.007812 574.425781 657.433594 572.449219 652.035156 572.449219 C 650.191406 572.449219 648.371094 572.679688 646.589844 573.144531 C 645.394531 573.457031 644.246094 573.878906 643.140625 574.382812 C 643.050781 574.429688 642.957031 574.464844 642.867188 574.507812 C 639.082031 576.285156 635.859375 579.121094 633.320312 582.722656 C 633 583.324219 632.621094 583.894531 632.191406 584.441406 C 626.917969 593.109375 625.214844 605.445312 628.496094 618 C 629.605469 622.21875 631.203125 626.136719 633.164062 629.679688 C 633.230469 629.800781 633.300781 629.917969 633.363281 630.042969 C 641.027344 643.605469 654.128906 651.367188 666.265625 648.175781 C 673.84375 646.191406 678.417969 640.667969 680.917969 636.382812 C 686.234375 627.277344 687.492188 615.234375 684.363281 603.339844 Z M 589.238281 621.40625 L 584.007812 619.996094 C 577.765625 618.308594 571.335938 622.007812 569.652344 628.25 C 567.964844 634.496094 571.660156 640.925781 577.90625 642.613281 L 583.136719 644.023438 C 584.160156 644.300781 585.1875 644.433594 586.195312 644.433594 C 591.359375 644.433594 596.085938 640.992188 597.496094 635.769531 C 599.179688 629.519531 595.484375 623.089844 589.238281 621.40625 Z M 661.703125 620.011719 L 656.46875 621.382812 C 650.214844 623.023438 646.46875 629.425781 648.109375 635.683594 C 649.488281 640.945312 654.234375 644.429688 659.429688 644.429688 C 660.410156 644.429688 661.410156 644.304688 662.402344 644.042969 L 667.636719 642.671875 C 673.890625 641.035156 677.636719 634.632812 675.996094 628.375 C 674.355469 622.117188 667.957031 618.375 661.703125 620.011719 Z M 128.777344 431.511719 C 126.324219 427.6875 125.496094 423.128906 126.453125 418.679688 L 152.195312 298.070312 C 154.167969 288.859375 163.269531 282.980469 172.492188 284.953125 L 225.300781 296.207031 C 225.304688 296.207031 225.304688 296.207031 225.3125 296.210938 L 253.800781 302.308594 C 259.550781 300.566406 265.300781 298.765625 271.339844 296.871094 C 291.160156 290.65625 311.652344 284.230469 333.28125 279.78125 C 333.289062 279.78125 333.304688 279.78125 333.3125 279.777344 C 333.324219 279.777344 333.332031 279.773438 333.34375 279.769531 C 393.296875 267.785156 445.6875 275.359375 493.335938 302.933594 L 524.691406 296.210938 C 524.753906 296.195312 524.820312 296.191406 524.882812 296.179688 L 577.550781 284.953125 C 581.996094 283.996094 586.546875 284.828125 590.375 287.296875 C 594.210938 289.773438 596.851562 293.597656 597.808594 298.066406 L 623.597656 418.6875 C 624.554688 423.15625 623.707031 427.734375 621.210938 431.578125 C 618.726562 435.402344 614.902344 438.03125 610.445312 438.984375 L 557.625 450.285156 C 557.621094 450.285156 557.613281 450.285156 557.609375 450.289062 L 510.792969 460.285156 C 472.71875 487.738281 438.25 503.757812 405.660156 509.140625 C 405.242188 509.546875 404.84375 509.96875 404.402344 510.355469 L 397.589844 516.386719 C 391.804688 521.488281 384.609375 523.996094 377.445312 523.996094 C 369 523.996094 360.601562 520.515625 354.59375 513.699219 C 352.996094 511.886719 351.667969 509.90625 350.558594 507.824219 C 344.800781 512.84375 337.671875 515.316406 330.570312 515.316406 C 322.128906 515.316406 313.722656 511.835938 307.714844 505.019531 C 307.5 504.777344 307.296875 504.527344 307.105469 504.269531 C 305.628906 502.496094 304.40625 500.574219 303.382812 498.558594 C 298.695312 501.242188 293.46875 502.578125 288.25 502.578125 C 279.804688 502.578125 271.398438 499.117188 265.382812 492.335938 C 263.070312 489.707031 261.320312 486.78125 260.066406 483.710938 C 257.273438 484.523438 254.398438 484.945312 251.523438 484.945312 C 243.066406 484.945312 234.660156 481.46875 228.65625 474.65625 C 223.886719 469.242188 221.402344 462.585938 221.109375 455.867188 C 213.53125 453.777344 206.191406 452.363281 198.890625 451.601562 C 198.480469 451.558594 198.074219 451.492188 197.671875 451.40625 L 192.398438 450.289062 C 192.390625 450.285156 192.386719 450.285156 192.378906 450.28125 L 139.566406 438.988281 C 135.078125 438.027344 131.25 435.371094 128.777344 431.511719 Z M 280.894531 437.964844 C 282.273438 436.726562 283.097656 435.023438 283.214844 433.164062 C 283.332031 431.277344 282.714844 429.464844 281.46875 428.054688 C 280.101562 426.503906 278.140625 425.710938 276.171875 425.710938 C 274.515625 425.710938 272.851562 426.273438 271.542969 427.429688 L 246.832031 449.199219 C 243.988281 451.722656 243.6875 456.296875 246.214844 459.160156 C 248.734375 462.023438 253.304688 462.300781 256.195312 459.769531 L 267.75 449.574219 C 267.847656 449.488281 267.929688 449.390625 268.027344 449.300781 Z M 318.195312 445.679688 C 316.835938 444.152344 314.871094 443.359375 312.898438 443.359375 C 311.234375 443.359375 309.5625 443.925781 308.25 445.082031 L 296.441406 455.484375 C 296.402344 455.519531 296.371094 455.554688 296.335938 455.585938 L 283.40625 466.996094 C 280.699219 469.542969 280.441406 474 282.921875 476.8125 C 285.480469 479.703125 289.96875 479.988281 292.902344 477.421875 L 317.546875 455.675781 C 320.472656 453.09375 320.761719 448.609375 318.195312 445.679688 Z M 362.242188 463.507812 C 362.363281 461.613281 361.753906 459.804688 360.527344 458.414062 C 359.285156 456.996094 357.578125 456.164062 355.699219 456.046875 C 353.800781 455.929688 351.976562 456.539062 350.566406 457.789062 L 325.898438 479.550781 C 324.476562 480.796875 323.644531 482.507812 323.527344 484.390625 C 323.410156 486.269531 324.023438 488.066406 325.253906 489.453125 C 325.371094 489.589844 325.488281 489.726562 325.601562 489.867188 C 328.171875 492.398438 332.457031 492.558594 335.195312 490.148438 L 359.902344 468.339844 C 361.292969 467.113281 362.125 465.398438 362.242188 463.507812 Z M 391.300781 487.925781 C 391.417969 486.046875 390.804688 484.25 389.578125 482.863281 C 388.308594 481.417969 386.597656 480.582031 384.707031 480.460938 C 382.824219 480.351562 381.023438 480.945312 379.632812 482.167969 L 372.792969 488.222656 C 371.363281 489.480469 370.53125 491.183594 370.410156 493.066406 C 370.289062 494.964844 370.90625 496.789062 372.152344 498.203125 C 374.675781 501.066406 379.21875 501.351562 382.078125 498.828125 L 388.914062 492.777344 C 390.347656 491.519531 391.183594 489.808594 391.300781 487.925781 Z M 294.375 345.761719 C 291.320312 348.582031 289.503906 350.75 288.429688 352.28125 C 298.164062 353.40625 324.015625 347.738281 345.890625 325.945312 C 348.53125 323.320312 352.257812 322.105469 355.9375 322.667969 C 359.613281 323.234375 362.804688 325.515625 364.53125 328.8125 C 379.339844 357.113281 407.480469 371.277344 437.273438 386.269531 C 463.195312 399.316406 489.9375 412.773438 510.488281 436.394531 L 536.042969 430.9375 L 512.902344 322.695312 L 493.761719 326.800781 C 490.839844 327.421875 487.792969 326.914062 485.242188 325.363281 C 442.605469 299.527344 395.449219 291.914062 341.164062 302.113281 Z M 214.152344 430.207031 C 219.09375 431.148438 224.078125 432.332031 229.140625 433.785156 C 229.828125 433.042969 230.550781 432.328125 231.320312 431.644531 L 256.0625 409.851562 C 268.652344 398.75 287.929688 399.960938 299.035156 412.558594 C 301.316406 415.144531 303.082031 418.058594 304.355469 421.164062 C 315.332031 417.976562 327.683594 421.078125 335.761719 430.183594 C 337.515625 432.183594 338.925781 434.363281 340.066406 436.640625 C 345.214844 433.675781 351.121094 432.277344 357.195312 432.664062 C 365.332031 433.1875 372.761719 436.835938 378.117188 442.945312 C 381.691406 447 384.039062 451.859375 385.066406 457.066406 C 385.449219 457.078125 385.828125 457.058594 386.207031 457.082031 C 394.351562 457.605469 401.785156 461.257812 407.140625 467.367188 C 411.15625 471.894531 413.671875 477.433594 414.464844 483.359375 C 437.429688 477.441406 461.90625 465.503906 488.613281 447.238281 C 471.609375 429.800781 449.734375 418.761719 426.75 407.191406 C 399.015625 393.238281 370.460938 378.867188 351.46875 352.203125 C 326.296875 371.855469 296.710938 379.074219 279.824219 374.292969 C 271.519531 371.9375 265.769531 366.464844 264.046875 359.28125 C 261.789062 349.84375 266.628906 339.515625 278.4375 328.59375 L 293.554688 314.496094 C 288.441406 316.058594 283.371094 317.644531 278.34375 319.222656 C 271.539062 321.355469 264.503906 323.5625 257.644531 325.613281 C 256.550781 325.9375 255.421875 326.101562 254.292969 326.101562 C 253.46875 326.101562 252.648438 326.015625 251.839844 325.84375 L 237.097656 322.6875 Z M 214.152344 430.207031 " fill-opacity="1" fill-rule="nonzero"/></g></svg>