<svg xmlns="http://www.w3.org/2000/svg" xmlns:xlink="http://www.w3.org/1999/xlink" width="1000" zoomAndPan="magnify" viewBox="0 0 750 749.999995" height="1000" preserveAspectRatio="xMidYMid meet" version="1.0"><defs><clipPath id="1499632dd3"><path d="M 91 318 L 659.4375 318 L 659.4375 750 L 91 750 Z M 91 318 " clip-rule="nonzero"/></clipPath></defs><path fill="#494747" d="M 395.480469 523.8125 L 461.46875 450.210938 L 469.101562 458.476562 L 412.457031 526.6875 L 394.03125 548.117188 " fill-opacity="1" fill-rule="nonzero"/><path fill="#494747" d="M 162.027344 331.921875 C 160.210938 319.902344 167.386719 306.222656 155.429688 296.066406 C 162.84375 286.917969 172.863281 286.441406 183.703125 286.464844 C 302.464844 286.699219 421.222656 286.644531 539.984375 286.625 C 559.421875 286.621094 578.90625 285.695312 597.980469 290.710938 C 585.816406 302.472656 586.738281 317.09375 587.832031 332.367188 C 596.664062 455.96875 605.152344 579.589844 613.628906 703.214844 C 614.140625 710.664062 613.605469 718.1875 613.558594 725.675781 C 611.050781 725.695312 608.539062 725.710938 606.03125 725.730469 C 601.003906 653.742188 596.023438 581.753906 590.9375 509.765625 C 586.699219 449.765625 582.023438 389.796875 578.257812 329.765625 C 577.382812 315.867188 571.527344 320.019531 564.476562 323.925781 C 562.851562 322.0625 561.230469 320.199219 559.605469 318.335938 C 565.585938 309.128906 578.125 305.722656 582.28125 292.496094 C 443.402344 292.496094 305.605469 292.496094 163.882812 292.496094 C 216.539062 346.949219 280.21875 364.316406 348.09375 371.417969 C 351.925781 364.355469 350.535156 358.207031 350.765625 352.269531 C 350.996094 346.25 350.589844 340.199219 350.972656 334.191406 C 351.890625 319.820312 357.964844 310.816406 369.015625 308.859375 C 381.1875 306.699219 391.578125 309.347656 395.972656 322.832031 C 393.484375 323.292969 390.992188 323.753906 388.503906 324.214844 C 368.601562 312.40625 360.148438 316.96875 360.140625 340.722656 C 360.105469 473.496094 360.378906 606.269531 360.546875 739.042969 C 352.753906 735.410156 358.367188 724.375 350.472656 720.796875 C 350.472656 669.132812 350.472656 617.472656 350.472656 560.378906 C 326.09375 587.792969 305.28125 611.191406 284.476562 634.59375 C 279.601562 640.074219 283.257812 644.078125 286.714844 648.289062 C 301.019531 665.707031 315.242188 683.195312 329.496094 700.65625 C 329.132812 704.328125 328.769531 708 328.40625 711.675781 C 307.46875 692.933594 293.484375 667.742188 271.0625 648.488281 C 243.539062 679.375 216.785156 709.402344 190.035156 739.429688 C 190.035156 739.429688 188.410156 738.351562 188.410156 738.351562 C 186.199219 728.351562 180.449219 731.714844 174.785156 734.742188 C 176.726562 697.988281 178.390625 661.222656 180.660156 624.496094 C 186.132812 535.96875 191.285156 447.414062 197.996094 358.980469 C 199.535156 338.699219 193.902344 326.382812 172.398438 318.960938 C 169.421875 355.566406 166.519531 391.265625 163.617188 426.96875 C 161.09375 426.945312 158.574219 426.925781 156.054688 426.902344 C 155.03125 396.539062 159.09375 366.488281 161.65625 336.34375 C 162.179688 335.941406 163.179688 335.46875 163.128906 335.160156 C 162.957031 334.050781 162.425781 333 162.027344 331.921875 Z M 284.277344 461.132812 C 255.679688 489.425781 227.734375 517.074219 199.285156 545.222656 C 222.90625 572.980469 247.527344 601.90625 273.230469 632.109375 C 298.632812 603.675781 322.046875 577.265625 345.742188 551.105469 C 350.957031 545.34375 349.886719 540.894531 345.414062 535.5 C 324.316406 510.0625 303.421875 484.457031 284.277344 461.132812 Z M 183.007812 729.449219 C 212.863281 700.65625 235.804688 673.109375 260.058594 646.804688 C 264.058594 642.46875 266.191406 638.664062 261.375 633.359375 C 239.832031 609.640625 221.347656 583.179688 195.167969 558.371094 C 191.085938 615.828125 187.234375 670.003906 183.007812 729.449219 Z M 197.007812 522 C 198.355469 522.601562 199.707031 523.207031 201.058594 523.8125 C 223.914062 501.097656 246.710938 478.320312 269.679688 455.722656 C 273.761719 451.707031 273.664062 448.359375 270.183594 444.164062 C 250.351562 420.234375 230.621094 396.214844 207.503906 368.160156 C 203.730469 423.421875 200.371094 472.710938 197.007812 522 Z M 340.394531 382.386719 C 338.402344 381.222656 337.183594 379.960938 335.835938 379.804688 C 294.425781 375.027344 254.75 364.304688 217.390625 345.558594 C 214.742188 344.230469 211.703125 342.296875 209.304688 345.003906 C 205.605469 349.175781 207.601562 353.414062 210.648438 357.085938 C 234.03125 385.289062 257.460938 413.460938 280.992188 441.777344 C 301.234375 421.539062 320.21875 402.5625 340.394531 382.386719 Z M 350.1875 388.445312 C 329.851562 408.984375 313.261719 426.152344 296.15625 442.792969 C 290.003906 448.777344 290.070312 453.433594 295.40625 459.753906 C 310.410156 477.527344 324.894531 495.730469 339.886719 513.511719 C 342.3125 516.390625 343.851562 522.230469 350.1875 519.351562 C 350.1875 477.589844 350.1875 435.800781 350.1875 388.445312 Z M 350.1875 388.445312 " fill-opacity="1" fill-rule="nonzero"/><path fill="#3b3939" d="M 597.984375 290.714844 C 578.910156 285.695312 559.421875 286.625 539.984375 286.628906 C 421.226562 286.644531 302.464844 286.699219 183.707031 286.46875 C 172.867188 286.445312 162.847656 286.921875 155.433594 296.070312 C 152.910156 295.789062 151.695312 294.214844 151.269531 291.863281 C 145.023438 283.390625 137.199219 286.523438 129.472656 288.90625 C 123.046875 273.035156 127.976562 256.53125 126.867188 240.359375 C 126.585938 236.265625 129.507812 233.511719 133.828125 233.039062 C 138.964844 232.472656 144.332031 234.347656 151.230469 230.433594 C 151.230469 195.746094 151.210938 159.886719 151.25 124.03125 C 151.261719 116.542969 150.980469 109 151.835938 101.59375 C 152.414062 96.632812 156.125 96.519531 159.890625 99.152344 C 160.316406 99.816406 160.84375 100.398438 161.460938 100.890625 C 161.460938 144.328125 161.460938 187.765625 161.460938 232.714844 C 190.046875 232.714844 217.722656 232.761719 245.398438 232.703125 C 333.429688 232.519531 421.464844 232.296875 509.496094 232.085938 C 532.074219 232.382812 554.652344 232.589844 577.230469 233.03125 C 584.988281 233.179688 589.863281 231.851562 589.707031 222.050781 C 589.140625 185.183594 589.09375 148.300781 589.3125 111.421875 C 589.371094 100.953125 585.796875 95.847656 574.84375 97.230469 C 571.878906 97.605469 568.820312 97.316406 565.808594 97.316406 C 437.75 97.109375 309.695312 96.867188 181.636719 96.792969 C 174.324219 96.789062 166.511719 94.507812 159.78125 99.617188 C 148.835938 96.082031 148.503906 94.128906 156.957031 83.011719 C 159.976562 83.066406 162.996094 83.121094 166.015625 83.175781 C 165.863281 84.34375 165.691406 85.511719 165.511719 86.679688 C 171.503906 95.375 180.589844 91.800781 188.320312 91.8125 C 313.832031 92.023438 439.34375 91.964844 564.855469 91.890625 C 570.796875 91.886719 576.914062 91.84375 582.613281 90.449219 C 585.933594 89.632812 585.34375 85.820312 583.296875 83.09375 C 578.289062 78.53125 573.277344 73.964844 568.269531 69.398438 C 570.054688 67.734375 571.839844 66.070312 573.625 64.410156 C 592.425781 74.925781 600.1875 90.128906 599.128906 112.351562 C 597.457031 147.554688 598.839844 182.894531 598.4375 218.171875 C 598.328125 227.984375 600 234.371094 611.820312 232.835938 C 622.027344 231.507812 624.90625 237.332031 624.300781 246.402344 C 623.402344 259.785156 625.984375 273.320312 622.578125 286.597656 C 615.066406 287.554688 606.785156 283.878906 600.179688 290.300781 L 599.207031 291.167969 Z M 532.953125 277.601562 C 535.585938 277.589844 538.226562 277.578125 540.863281 277.5625 C 548.160156 285.386719 557.628906 281.464844 566.039062 281.65625 C 590.839844 282.222656 590.847656 281.851562 589.875 257.578125 C 589.785156 255.351562 589.777344 253.121094 589.691406 250.894531 C 589.496094 245.863281 587.480469 241.636719 581.933594 242.261719 C 568.265625 243.808594 553.910156 237.769531 540.859375 245.917969 C 538.296875 247.332031 535.730469 248.742188 533.167969 250.152344 C 532.316406 248.066406 531.671875 244.285156 530.585938 244.152344 C 516.359375 242.4375 501.875 237.300781 488.117188 246.050781 C 487.828125 254.109375 487.714844 262.175781 487.207031 270.21875 C 486.695312 278.355469 489.453125 282.929688 498.398438 281.914062 C 502.039062 281.503906 505.710938 281.371094 509.367188 281.113281 C 517.398438 281.089844 525.988281 284.816406 532.953125 277.601562 Z M 159.820312 273.136719 C 155.894531 276.980469 156.515625 279.84375 161.671875 281.734375 C 170.667969 281.785156 179.664062 281.9375 188.664062 281.878906 C 209.351562 281.75 209.351562 281.710938 209.078125 260.601562 C 208.839844 242.554688 208.839844 242.554688 192.582031 242.140625 C 161.289062 241.34375 161.289062 241.34375 159.820312 273.136719 Z M 456.234375 242.074219 C 432.117188 242.132812 432.121094 242.128906 433.273438 267.070312 C 433.375 269.300781 433.328125 271.539062 433.433594 273.773438 C 433.617188 277.835938 435.25 280.394531 439.585938 281.683594 C 467.878906 290.078125 481.25 280.027344 478.117188 252.476562 C 478.035156 251.738281 478.066406 250.988281 478.03125 250.242188 C 477.769531 244.9375 475.101562 242.09375 469.660156 242.097656 C 465.183594 242.097656 460.707031 242.097656 456.234375 242.074219 Z M 347.667969 242.066406 C 323.324219 242.015625 323.320312 242.015625 324.390625 267.160156 C 324.519531 270.15625 324.289062 273.257812 325.011719 276.113281 C 325.492188 278.019531 327.199219 280.90625 328.636719 281.082031 C 341.261719 282.621094 354.859375 285.234375 366.253906 280.085938 C 374.234375 276.480469 368.5625 264.996094 369.636719 257.117188 C 369.9375 254.910156 369.625 252.613281 369.527344 250.363281 C 369.304688 245.058594 366.714844 242.078125 361.199219 242.066406 C 356.6875 242.054688 352.175781 242.066406 347.667969 242.066406 Z M 400.875 242.050781 C 394.160156 243.441406 384.011719 238.074219 380.40625 245.71875 C 376.007812 255.03125 377.011719 266.777344 379.695312 276.664062 C 382.320312 286.332031 392.550781 281.804688 399.28125 281.765625 C 425.34375 281.617188 424.164062 288.296875 424.105469 254.050781 C 424.09375 245.867188 421.710938 241.070312 412.523438 241.992188 C 408.804688 242.359375 405.019531 242.050781 400.875 242.050781 Z M 291.378906 282.265625 C 318.230469 281.984375 315.800781 285.339844 315.691406 258.015625 C 315.628906 242.175781 315.308594 242.117188 299.6875 241.816406 C 292.960938 241.6875 286.230469 241.820312 279.5 241.890625 C 276.332031 241.925781 272.992188 243.027344 272.289062 246.050781 C 269.894531 256.347656 269.234375 267.328125 272.308594 277.078125 C 275.183594 286.191406 285.320312 280.769531 291.378906 282.265625 Z M 243.25 242.003906 C 238.316406 242.003906 234.5625 242.316406 230.878906 241.945312 C 220.65625 240.914062 218.710938 246.382812 218.363281 255.308594 C 217.332031 281.960938 217.597656 282.65625 244.304688 281.957031 C 249.917969 281.808594 257.269531 284.597656 260.417969 277.839844 C 264.964844 268.082031 264.039062 257.074219 261.394531 247.28125 C 258.710938 237.371094 248.660156 243.539062 243.25 242.003906 Z M 151.757812 264.683594 C 151.757812 259.160156 151.835938 254.636719 151.734375 250.113281 C 151.621094 244.941406 149.589844 241.613281 143.703125 241.765625 C 138.136719 241.910156 135.496094 244.949219 135.152344 250.097656 C 134.851562 254.601562 134.496094 259.203125 135.097656 263.636719 C 136.070312 270.785156 130.578125 282.757812 144.644531 281.699219 C 156.417969 280.820312 149.984375 270.007812 151.757812 264.683594 Z M 614.492188 264.707031 C 614.492188 258.851562 614.621094 254.34375 614.457031 249.851562 C 614.257812 244.476562 611.484375 241.902344 605.902344 242.085938 C 600.167969 242.277344 598.050781 245.5625 597.847656 250.636719 C 597.664062 255.132812 597.296875 259.691406 597.835938 264.128906 C 598.648438 270.734375 593.863281 281.226562 605.6875 281.605469 C 619.742188 282.050781 612.671875 270.035156 614.492188 264.707031 Z M 614.492188 264.707031 " fill-opacity="1" fill-rule="nonzero"/><g clip-path="url(#1499632dd3)"><path fill="#494747" d="M 328.40625 711.679688 C 328.769531 708.007812 329.132812 704.335938 329.496094 700.660156 C 337.671875 706.140625 341.070312 716.59375 350.46875 720.800781 C 358.363281 724.382812 352.75 735.414062 360.546875 739.050781 C 389.761719 742.695312 389.761719 742.695312 390.054688 714.679688 C 390.070312 713.175781 390.089844 711.667969 390.089844 710.164062 C 390.144531 613.078125 390.429688 515.996094 390.113281 418.910156 C 390.011719 387.351562 392.273438 355.726562 388.5 324.21875 C 390.988281 323.757812 393.480469 323.300781 395.96875 322.835938 C 400.363281 334.984375 399.066406 347.621094 399.011719 360.121094 C 398.980469 367.667969 400.414062 373.441406 409.828125 372.53125 C 414.082031 372.753906 418.390625 373.449219 422.355469 371.117188 C 471.585938 362.550781 518.621094 348.308594 559.601562 318.335938 C 561.222656 320.199219 562.851562 322.0625 564.472656 323.925781 C 560.808594 330.621094 550.660156 331.734375 549.859375 340.886719 C 543.800781 341.683594 536.769531 338.65625 532.226562 345.375 C 513.761719 356.257812 494.289062 364.535156 473.011719 368.089844 C 468.183594 367.878906 463.253906 367.300781 459.808594 371.886719 C 458.21875 372.140625 456.625 372.398438 455.035156 372.652344 C 448.828125 372.789062 442.148438 370.769531 437.160156 376.527344 C 434.242188 376.8125 431.320312 377.101562 428.398438 377.386719 C 420.527344 377.722656 411.910156 374.019531 405.367188 381.605469 C 405.410156 383.097656 405.449219 384.589844 405.492188 386.082031 C 399.003906 386.640625 395.855469 389.886719 397.023438 396.597656 C 399.882812 438.070312 397.730469 479.632812 398.25 520.46875 C 405.671875 525.078125 407.625 508.6875 415.121094 517.667969 C 416.230469 524.816406 410.59375 528.589844 406.578125 532.328125 C 397.121094 541.128906 398.898438 548.261719 407.171875 556.640625 C 417.605469 567.207031 427.183594 578.605469 437.140625 589.648438 C 433.453125 598.988281 429.316406 592.84375 425.578125 589.832031 C 416.328125 582.378906 411.492188 569.710938 397.367188 564.578125 C 397.367188 616.125 397.367188 665.425781 397.367188 714.726562 C 395.4375 721.542969 399.707031 726.667969 402.160156 732.289062 C 400.417969 743.457031 409 739.8125 413.894531 739.851562 C 458.363281 740.214844 502.832031 740.28125 547.300781 740.269531 C 550.699219 740.269531 554.832031 741.753906 558.078125 736.746094 C 550.753906 727.929688 543.253906 718.910156 535.753906 709.886719 C 536.363281 707 536.976562 704.109375 537.582031 701.21875 C 545.851562 709.398438 554.121094 717.578125 562.742188 726.113281 C 568.003906 717.765625 563.457031 710.121094 565.464844 703.085938 C 569.734375 699.574219 566.964844 692.390625 572.53125 689.554688 C 573.535156 701.34375 575.277344 713.125 575.332031 724.917969 C 575.382812 735.886719 578.78125 740.753906 590.625 740.917969 C 602.210938 741.074219 607.058594 737.058594 606.015625 725.726562 C 608.527344 725.707031 611.035156 725.691406 613.542969 725.671875 C 613.777344 735.023438 616.179688 740.746094 627.945312 740.425781 C 638.257812 740.144531 650.117188 735.679688 659.285156 744.769531 C 657.628906 748.929688 654.898438 749.992188 651.789062 749.992188 C 466.605469 749.875 281.425781 749.726562 96.242188 749.5625 C 93.550781 749.558594 92.710938 747.257812 91.125 744.699219 C 99.980469 736.542969 110.953125 740.421875 120.777344 740.234375 C 130.070312 740.054688 134.171875 737.542969 134.523438 727.636719 C 135.082031 711.878906 137.046875 696.171875 138.417969 680.445312 C 141.019531 680.476562 143.621094 680.511719 146.226562 680.542969 C 145.242188 696.859375 144.214844 713.167969 143.296875 729.484375 C 143.054688 733.847656 142.25 739.675781 148.308594 739.914062 C 157.347656 740.273438 167.730469 745.226562 174.777344 734.742188 C 180.441406 731.714844 186.191406 728.351562 188.390625 738.359375 C 191.542969 745.847656 198.273438 743.882812 203.925781 743.898438 C 247.460938 744 290.992188 743.945312 334.523438 743.796875 C 338.910156 743.777344 343.644531 743.640625 347.566406 742.003906 C 351.023438 740.558594 349.625 737.167969 347.246094 734.8125 C 340.972656 727.109375 334.691406 719.394531 328.40625 711.679688 Z M 328.40625 711.679688 " fill-opacity="1" fill-rule="nonzero"/></g><path fill="#b4c0c1" d="M 159.785156 99.617188 C 166.515625 94.507812 174.324219 96.789062 181.640625 96.792969 C 309.695312 96.863281 437.753906 97.109375 565.8125 97.316406 C 568.824219 97.320312 571.878906 97.609375 574.847656 97.230469 C 585.800781 95.847656 589.375 100.949219 589.316406 111.421875 C 589.097656 148.300781 589.140625 185.183594 589.710938 222.050781 C 589.863281 231.851562 584.988281 233.179688 577.234375 233.03125 C 554.65625 232.589844 532.078125 232.382812 509.5 232.085938 C 509.523438 195.925781 509.628906 159.761719 509.535156 123.601562 C 509.476562 101.257812 509.339844 101.242188 487.136719 100.996094 C 481.109375 100.925781 475.078125 100.976562 469.042969 100.976562 C 366.519531 100.949219 263.988281 100.921875 161.460938 100.894531 C 160.84375 100.402344 160.316406 99.824219 159.890625 99.15625 C 159.882812 99.152344 159.785156 99.617188 159.785156 99.617188 Z M 159.785156 99.617188 " fill-opacity="1" fill-rule="nonzero"/><path fill="#3b3939" d="M 573.625 64.410156 C 571.839844 66.074219 570.054688 67.738281 568.269531 69.40625 C 561.449219 64.96875 554.730469 60.371094 547.792969 56.121094 C 517.765625 37.738281 485.84375 24.386719 450.574219 20.113281 C 434.113281 14.109375 416.847656 11.875 399.597656 11 C 313.015625 6.605469 233.589844 25.878906 166.015625 83.179688 C 162.996094 83.125 159.976562 83.070312 156.957031 83.015625 C 173.648438 60.714844 196.378906 45.660156 221.042969 34.625 C 329.277344 -13.8125 436.839844 -11.574219 542.773438 42.296875 C 553.996094 48 565.429688 54.136719 573.625 64.410156 Z M 573.625 64.410156 " fill-opacity="1" fill-rule="nonzero"/><path fill="#494747" d="M 146.242188 680.554688 C 143.636719 680.519531 141.035156 680.484375 138.433594 680.453125 C 136.421875 658.617188 140.347656 637.070312 141.789062 615.414062 C 145.273438 563.070312 149.332031 510.761719 153.160156 458.4375 C 155.761719 458.511719 158.367188 458.59375 160.96875 458.671875 C 158.757812 532.808594 152.488281 606.679688 146.242188 680.554688 Z M 146.242188 680.554688 " fill-opacity="1" fill-rule="nonzero"/><path fill="#494747" d="M 160.964844 458.671875 C 158.363281 458.59375 155.757812 458.511719 153.15625 458.4375 C 152.332031 447.761719 153.78125 437.296875 156.054688 426.90625 C 158.578125 426.929688 161.097656 426.949219 163.617188 426.972656 C 164.304688 431.945312 163.992188 436.804688 161.882812 441.445312 C 161.71875 443.125 161.554688 444.808594 161.390625 446.488281 C 161.25 450.550781 161.109375 454.609375 160.964844 458.671875 Z M 160.964844 458.671875 " fill-opacity="1" fill-rule="nonzero"/><path fill="#494747" d="M 129.46875 288.90625 C 137.195312 286.519531 145.019531 283.390625 151.265625 291.863281 C 144.128906 289.921875 136.210938 293.734375 129.46875 288.90625 Z M 129.46875 288.90625 " fill-opacity="1" fill-rule="nonzero"/><path fill="#3b3939" d="M 600.179688 290.300781 C 606.785156 283.875 615.066406 287.554688 622.578125 286.597656 C 616.289062 294.9375 607.726562 289.550781 600.179688 290.300781 Z M 600.179688 290.300781 " fill-opacity="1" fill-rule="nonzero"/><path fill="#494747" d="M 162.027344 331.921875 C 162.425781 332.996094 162.957031 334.050781 163.132812 335.160156 C 163.179688 335.46875 162.179688 335.941406 161.660156 336.34375 C 161.78125 334.871094 161.90625 333.394531 162.027344 331.921875 Z M 162.027344 331.921875 " fill-opacity="1" fill-rule="nonzero"/><path fill="#bfced1" d="M 409.832031 372.535156 C 400.417969 373.441406 398.980469 367.667969 399.015625 360.125 C 399.070312 347.625 400.371094 334.992188 395.976562 322.839844 C 391.582031 309.355469 381.191406 306.707031 369.019531 308.863281 C 357.96875 310.824219 351.890625 319.828125 350.976562 334.199219 C 350.59375 340.203125 351 346.257812 350.769531 352.277344 C 350.542969 358.214844 351.929688 364.359375 348.097656 371.425781 C 280.222656 364.324219 216.539062 346.957031 163.882812 292.503906 C 305.605469 292.503906 443.40625 292.503906 582.285156 292.503906 C 578.132812 305.730469 565.589844 309.132812 559.609375 318.339844 C 518.628906 348.316406 471.589844 362.558594 422.371094 371.117188 C 417.964844 369.554688 413.84375 370.582031 409.832031 372.535156 Z M 409.832031 372.535156 " fill-opacity="1" fill-rule="nonzero"/><path fill="#bfced1" d="M 388.5 324.222656 C 392.277344 355.730469 390.015625 387.351562 390.117188 418.914062 C 390.429688 515.996094 390.144531 613.082031 390.09375 710.167969 C 390.09375 711.671875 390.074219 713.179688 390.058594 714.683594 C 389.761719 742.699219 389.761719 742.699219 360.546875 739.054688 C 360.382812 606.277344 360.105469 473.507812 360.140625 340.730469 C 360.148438 316.972656 368.601562 312.414062 388.5 324.222656 Z M 388.5 324.222656 " fill-opacity="1" fill-rule="nonzero"/><path fill="#bfced1" d="M 161.882812 441.445312 C 163.992188 436.804688 164.304688 431.949219 163.617188 426.972656 C 166.523438 391.273438 169.425781 355.570312 172.402344 318.964844 C 193.90625 326.390625 199.539062 338.707031 198 358.984375 C 191.289062 447.417969 186.136719 535.972656 180.664062 624.5 C 178.390625 661.226562 176.730469 697.996094 174.789062 734.746094 C 167.742188 745.230469 157.363281 740.273438 148.320312 739.917969 C 142.265625 739.675781 143.066406 733.847656 143.3125 729.488281 C 144.226562 713.171875 145.253906 696.859375 146.238281 680.546875 C 152.484375 606.675781 158.753906 532.804688 160.964844 458.667969 C 161.109375 454.605469 161.25 450.546875 161.390625 446.480469 C 162.675781 444.914062 163.074219 443.257812 161.882812 441.445312 Z M 161.882812 441.445312 " fill-opacity="1" fill-rule="nonzero"/><path fill="#bfced1" d="M 606.03125 725.734375 C 607.070312 737.070312 602.222656 741.085938 590.640625 740.925781 C 578.789062 740.765625 575.394531 735.898438 575.34375 724.925781 C 575.289062 713.136719 573.546875 701.351562 572.542969 689.566406 C 572.449219 680.554688 572.808594 671.519531 572.195312 662.546875 C 564.835938 555.324219 557.332031 448.109375 549.863281 340.894531 C 550.671875 331.742188 560.816406 330.628906 564.476562 323.933594 C 571.53125 320.023438 577.386719 315.871094 578.257812 329.773438 C 582.023438 389.800781 586.699219 449.773438 590.9375 509.773438 C 596.023438 581.753906 601.003906 653.746094 606.03125 725.734375 Z M 606.03125 725.734375 " fill-opacity="1" fill-rule="nonzero"/><path fill="#494747" d="M 190.035156 739.433594 C 238.734375 739.550781 287.4375 739.691406 336.140625 739.753906 C 340.46875 739.761719 345.378906 740.554688 347.261719 734.816406 C 349.636719 737.175781 351.039062 740.570312 347.578125 742.011719 C 343.65625 743.648438 338.921875 743.789062 334.539062 743.800781 C 291.003906 743.953125 247.472656 744.003906 203.941406 743.902344 C 198.285156 743.890625 191.554688 745.851562 188.40625 738.367188 C 188.410156 738.355469 190.035156 739.433594 190.035156 739.433594 Z M 190.035156 739.433594 " fill-opacity="1" fill-rule="nonzero"/><path fill="#cad9dc" d="M 161.460938 100.890625 C 263.988281 100.914062 366.519531 100.941406 469.042969 100.96875 C 475.074219 100.972656 481.109375 100.921875 487.136719 100.988281 C 509.339844 101.238281 509.476562 101.253906 509.535156 123.59375 C 509.628906 159.753906 509.523438 195.917969 509.5 232.078125 C 421.46875 232.289062 333.433594 232.511719 245.402344 232.699219 C 217.726562 232.753906 190.050781 232.707031 161.464844 232.707031 C 161.460938 187.761719 161.460938 144.324219 161.460938 100.890625 Z M 161.460938 100.890625 " fill-opacity="1" fill-rule="nonzero"/><path fill="#cad9dc" d="M 166.019531 83.175781 C 233.589844 25.875 313.019531 6.601562 399.597656 10.996094 C 416.847656 11.875 434.117188 14.109375 450.574219 20.109375 C 456.609375 32.730469 468.652344 39.085938 478.980469 47.207031 C 492.585938 57.90625 504.625 69.746094 509.46875 87.105469 C 416.671875 87.273438 323.875 87.507812 231.082031 87.558594 C 209.222656 87.570312 187.371094 86.984375 165.515625 86.675781 C 165.695312 85.515625 165.863281 84.34375 166.019531 83.175781 Z M 166.019531 83.175781 " fill-opacity="1" fill-rule="nonzero"/><path fill="#b4c0c1" d="M 509.46875 87.109375 C 504.621094 69.75 492.585938 57.90625 478.980469 47.210938 C 468.652344 39.089844 456.609375 32.734375 450.574219 20.113281 C 485.84375 24.386719 517.765625 37.738281 547.792969 56.121094 C 554.726562 60.371094 561.449219 64.96875 568.269531 69.40625 C 573.277344 73.96875 578.289062 78.53125 583.292969 83.09375 C 581.578125 87.222656 578.027344 87.820312 574.175781 87.78125 C 552.609375 87.5625 531.039062 87.332031 509.46875 87.109375 Z M 509.46875 87.109375 " fill-opacity="1" fill-rule="nonzero"/><path fill="#b4c0c1" d="M 540.851562 245.914062 C 553.902344 237.765625 568.257812 243.800781 581.929688 242.261719 C 587.476562 241.632812 589.488281 245.859375 589.6875 250.890625 C 589.773438 253.117188 589.78125 255.347656 589.867188 257.574219 C 590.839844 281.847656 590.835938 282.21875 566.03125 281.652344 C 557.621094 281.460938 548.15625 285.382812 540.855469 277.5625 C 540.859375 267.015625 540.855469 256.464844 540.851562 245.914062 Z M 540.851562 245.914062 " fill-opacity="1" fill-rule="nonzero"/><path fill="#bfced1" d="M 159.820312 273.136719 C 161.289062 241.339844 161.289062 241.339844 192.578125 242.140625 C 208.839844 242.558594 208.839844 242.558594 209.074219 260.605469 C 209.347656 281.710938 209.347656 281.75 188.660156 281.882812 C 179.664062 281.941406 170.667969 281.789062 161.667969 281.734375 C 161.054688 278.867188 160.4375 276.003906 159.820312 273.136719 Z M 159.820312 273.136719 " fill-opacity="1" fill-rule="nonzero"/><path fill="#3b3939" d="M 509.46875 87.109375 C 531.039062 87.332031 552.605469 87.5625 574.175781 87.777344 C 578.027344 87.816406 581.578125 87.21875 583.292969 83.089844 C 585.34375 85.820312 585.933594 89.636719 582.613281 90.449219 C 576.914062 91.847656 570.800781 91.890625 564.855469 91.894531 C 439.34375 91.96875 313.832031 92.027344 188.320312 91.816406 C 180.585938 91.804688 171.503906 95.378906 165.511719 86.679688 C 187.367188 86.992188 209.222656 87.578125 231.078125 87.5625 C 323.878906 87.507812 416.671875 87.277344 509.46875 87.109375 Z M 509.46875 87.109375 " fill-opacity="1" fill-rule="nonzero"/><path fill="#bfced1" d="M 456.234375 242.085938 C 460.710938 242.097656 465.183594 242.097656 469.660156 242.097656 C 475.097656 242.09375 477.765625 244.9375 478.027344 250.242188 C 478.066406 250.988281 478.03125 251.738281 478.113281 252.476562 C 481.25 280.027344 467.875 290.078125 439.582031 281.683594 C 435.246094 280.398438 433.617188 277.839844 433.429688 273.773438 C 433.328125 271.539062 433.371094 269.300781 433.269531 267.070312 C 432.121094 242.132812 432.117188 242.132812 456.234375 242.085938 Z M 456.234375 242.085938 " fill-opacity="1" fill-rule="nonzero"/><path fill="#bfced1" d="M 347.667969 242.066406 C 352.175781 242.066406 356.6875 242.054688 361.203125 242.070312 C 366.714844 242.082031 369.304688 245.0625 369.53125 250.367188 C 369.628906 252.617188 369.941406 254.914062 369.640625 257.121094 C 368.566406 265 374.238281 276.484375 366.253906 280.089844 C 354.859375 285.238281 341.265625 282.625 328.636719 281.082031 C 327.203125 280.90625 325.492188 278.019531 325.015625 276.117188 C 324.292969 273.261719 324.519531 270.164062 324.394531 267.164062 C 323.316406 242.011719 323.324219 242.011719 347.667969 242.066406 Z M 347.667969 242.066406 " fill-opacity="1" fill-rule="nonzero"/><path fill="#bfced1" d="M 400.875 242.050781 C 405.019531 242.050781 408.804688 242.359375 412.523438 241.988281 C 421.710938 241.066406 424.09375 245.863281 424.105469 254.046875 C 424.164062 288.296875 425.34375 281.613281 399.28125 281.761719 C 392.546875 281.800781 382.316406 286.328125 379.695312 276.664062 C 377.011719 266.773438 376.007812 255.027344 380.40625 245.714844 C 384.011719 238.074219 394.160156 243.445312 400.875 242.050781 Z M 400.875 242.050781 " fill-opacity="1" fill-rule="nonzero"/><path fill="#bfced1" d="M 291.378906 282.265625 C 285.320312 280.773438 275.183594 286.191406 272.304688 277.078125 C 269.230469 267.328125 269.890625 256.347656 272.289062 246.050781 C 272.992188 243.027344 276.332031 241.925781 279.496094 241.890625 C 286.226562 241.816406 292.960938 241.683594 299.683594 241.816406 C 315.304688 242.117188 315.625 242.171875 315.6875 258.015625 C 315.800781 285.339844 318.230469 281.984375 291.378906 282.265625 Z M 291.378906 282.265625 " fill-opacity="1" fill-rule="nonzero"/><path fill="#bfced1" d="M 243.25 242.003906 C 248.660156 243.539062 258.714844 237.371094 261.390625 247.285156 C 264.035156 257.074219 264.960938 268.085938 260.414062 277.84375 C 257.265625 284.605469 249.917969 281.8125 244.300781 281.960938 C 217.59375 282.660156 217.328125 281.964844 218.359375 255.3125 C 218.707031 246.382812 220.65625 240.917969 230.875 241.945312 C 234.5625 242.316406 238.316406 242.003906 243.25 242.003906 Z M 243.25 242.003906 " fill-opacity="1" fill-rule="nonzero"/><path fill="#b4c0c1" d="M 488.113281 246.046875 C 501.871094 237.296875 516.359375 242.433594 530.582031 244.144531 C 531.667969 244.277344 532.316406 248.0625 533.164062 250.148438 C 531.679688 259.289062 531.941406 268.441406 532.953125 277.597656 C 525.992188 284.8125 517.402344 281.085938 509.367188 281.105469 C 509.453125 275.984375 509.652344 270.859375 509.59375 265.738281 C 509.371094 246.648438 509.339844 246.648438 488.113281 246.046875 Z M 488.113281 246.046875 " fill-opacity="1" fill-rule="nonzero"/><path fill="#cad9dc" d="M 488.113281 246.046875 C 509.34375 246.648438 509.375 246.648438 509.59375 265.742188 C 509.648438 270.863281 509.449219 275.984375 509.363281 281.109375 C 505.707031 281.367188 502.035156 281.5 498.394531 281.910156 C 489.449219 282.925781 486.691406 278.355469 487.207031 270.21875 C 487.710938 262.175781 487.824219 254.105469 488.113281 246.046875 Z M 488.113281 246.046875 " fill-opacity="1" fill-rule="nonzero"/><path fill="#b4c0c1" d="M 151.757812 264.683594 C 149.988281 270.007812 156.417969 280.820312 144.652344 281.703125 C 130.582031 282.761719 136.070312 270.785156 135.105469 263.640625 C 134.503906 259.207031 134.855469 254.605469 135.15625 250.101562 C 135.503906 244.953125 138.140625 241.910156 143.707031 241.769531 C 149.59375 241.617188 151.625 244.945312 151.742188 250.117188 C 151.832031 254.632812 151.757812 259.15625 151.757812 264.683594 Z M 151.757812 264.683594 " fill-opacity="1" fill-rule="nonzero"/><path fill="#bfced1" d="M 614.492188 264.707031 C 612.667969 270.035156 619.742188 282.050781 605.6875 281.605469 C 593.863281 281.230469 598.648438 270.734375 597.835938 264.128906 C 597.292969 259.695312 597.664062 255.132812 597.847656 250.636719 C 598.050781 245.558594 600.167969 242.277344 605.902344 242.085938 C 611.484375 241.902344 614.253906 244.476562 614.457031 249.851562 C 614.625 254.347656 614.492188 258.851562 614.492188 264.707031 Z M 614.492188 264.707031 " fill-opacity="1" fill-rule="nonzero"/><path fill="#3b3939" d="M 532.953125 277.601562 C 531.9375 268.441406 531.675781 259.289062 533.164062 250.148438 C 535.726562 248.738281 538.289062 247.328125 540.851562 245.914062 C 540.855469 256.464844 540.859375 267.015625 540.859375 277.5625 C 538.222656 277.578125 535.585938 277.589844 532.953125 277.601562 Z M 532.953125 277.601562 " fill-opacity="1" fill-rule="nonzero"/><path fill="#3b3939" d="M 159.820312 273.136719 C 160.4375 276.003906 161.054688 278.867188 161.671875 281.734375 C 156.515625 279.847656 155.894531 276.980469 159.820312 273.136719 Z M 159.820312 273.136719 " fill-opacity="1" fill-rule="nonzero"/><path fill="#494747" d="M 445.523438 598.933594 C 456.175781 608.355469 466.832031 617.777344 478.964844 628.511719 C 502.179688 601.699219 527.476562 572.476562 550.820312 545.515625 C 524.503906 517.691406 499.132812 491.148438 474.125 464.265625 C 467.054688 456.664062 464.058594 464.144531 459.636719 467.050781 C 459.480469 463.925781 459.222656 460.84375 456.226562 458.90625 C 457.90625 454.863281 460.570312 451.078125 456.15625 446.78125 C 439.035156 430.109375 422.097656 413.253906 405.089844 396.46875 C 402.363281 393.78125 399.691406 395.21875 397.027344 396.609375 C 395.859375 389.894531 399.007812 386.648438 405.496094 386.09375 C 428.179688 402.277344 444.429688 425.507812 466.867188 442.824219 C 492.21875 416.179688 513.496094 386.929688 536.410156 359.050781 C 538.804688 356.136719 541.152344 353.191406 540.730469 349.011719 C 540.082031 342.59375 535.355469 345.898438 532.226562 345.382812 C 536.773438 338.667969 543.804688 341.691406 549.863281 340.894531 C 557.328125 448.109375 564.828125 555.324219 572.191406 662.546875 C 572.804688 671.519531 572.445312 680.558594 572.539062 689.566406 C 566.972656 692.402344 569.742188 699.585938 565.472656 703.09375 C 561.972656 655.640625 558.46875 608.183594 554.664062 556.597656 C 530.84375 583.917969 509.941406 608.023438 488.867188 631.980469 C 483.675781 637.878906 485.449219 642.152344 490.289062 647.292969 C 504.679688 662.570312 518.644531 678.246094 532.777344 693.769531 C 533.285156 697.789062 532.480469 702.320312 527.753906 700.898438 C 523.902344 699.738281 520.941406 695.421875 517.738281 692.351562 C 503.320312 678.535156 492.113281 661.507812 475.988281 649.128906 C 449.722656 676.398438 428.753906 706.839844 402.160156 732.292969 C 399.710938 726.671875 395.441406 721.546875 397.371094 714.734375 C 401.878906 720.011719 404.753906 716.644531 407.859375 712.941406 C 419.84375 698.648438 432.113281 684.585938 443.933594 670.15625 C 452.34375 659.882812 467.539062 650.523438 466.789062 638.769531 C 466.152344 628.777344 451.484375 619.941406 443.792969 610.003906 C 440.949219 606.328125 432.261719 603.949219 438.488281 596.421875 C 440.835938 597.261719 443.179688 598.097656 445.523438 598.933594 Z M 550.242188 522.046875 C 550.496094 524.050781 551.703125 524.964844 552.613281 523.808594 C 553.8125 522.277344 552.964844 521.097656 551.046875 521.035156 C 553.480469 504.570312 550.480469 488.195312 549.632812 471.847656 C 547.9375 439.113281 544.773438 406.460938 541.84375 369.097656 C 524.609375 389.816406 510.445312 406.949219 496.167969 423.988281 C 473.515625 451.019531 473.105469 451.398438 499.144531 475.605469 C 515.988281 491.269531 529.847656 510.28125 550.242188 522.046875 Z M 550.242188 522.046875 " fill-opacity="1" fill-rule="nonzero"/><path fill="#494747" d="M 428.40625 377.390625 C 420.730469 378.796875 413.050781 380.203125 405.375 381.609375 C 411.917969 374.027344 420.535156 377.734375 428.40625 377.390625 Z M 428.40625 377.390625 " fill-opacity="1" fill-rule="nonzero"/><path fill="#494747" d="M 483.734375 365.023438 C 478.210938 368.335938 451.289062 377.738281 437.164062 376.539062 C 429.023438 366.929688 477.523438 365.15625 483.734375 365.023438 Z M 483.734375 365.023438 " fill-opacity="1" fill-rule="nonzero"/><path fill="#494747" d="M 532.148438 693.679688 C 533.960938 696.195312 535.777344 698.707031 537.589844 701.222656 C 536.980469 704.113281 536.371094 707.007812 535.761719 709.898438 C 531.203125 705.238281 520.355469 701.976562 532.148438 693.679688 Z M 532.148438 693.679688 " fill-opacity="1" fill-rule="nonzero"/><path fill="#bfced1" d="M 409.832031 372.535156 C 413.84375 370.582031 417.964844 369.554688 422.371094 371.117188 C 418.398438 373.453125 414.085938 372.757812 409.832031 372.535156 Z M 409.832031 372.535156 " fill-opacity="1" fill-rule="nonzero"/><path fill="#494747" d="M 473.015625 368.097656 C 469.035156 370.8125 464.800781 372.65625 459.816406 371.894531 C 463.261719 367.308594 468.191406 367.882812 473.015625 368.097656 Z M 473.015625 368.097656 " fill-opacity="1" fill-rule="nonzero"/><path fill="#bfced1" d="M 161.882812 441.445312 C 163.074219 443.253906 162.675781 444.910156 161.390625 446.484375 C 161.554688 444.808594 161.71875 443.125 161.882812 441.445312 Z M 161.882812 441.445312 " fill-opacity="1" fill-rule="nonzero"/><path fill="#494747" d="M 441.953125 594.453125 C 440.191406 594.707031 439 597.390625 436.53125 594.914062 C 434.0625 592.4375 436.757812 591.257812 437.015625 589.5 C 438.664062 591.152344 440.308594 592.800781 441.953125 594.453125 Z M 441.953125 594.453125 " fill-opacity="1" fill-rule="nonzero"/><path fill="#494747" d="M 438.488281 596.421875 C 439.574219 595.675781 440.660156 594.929688 441.746094 594.183594 C 443.007812 595.769531 444.265625 597.355469 445.523438 598.933594 C 443.179688 598.097656 440.835938 597.261719 438.488281 596.421875 Z M 438.488281 596.421875 " fill-opacity="1" fill-rule="nonzero"/><path fill="#494747" d="M 551.050781 521.03125 C 552.96875 521.09375 553.816406 522.273438 552.617188 523.804688 C 551.707031 524.964844 550.496094 524.046875 550.246094 522.042969 C 550.242188 522.046875 551.050781 521.03125 551.050781 521.03125 Z M 551.050781 521.03125 " fill-opacity="1" fill-rule="nonzero"/><path fill="#494747" d="M 400.394531 562.738281 L 438.726562 605.089844 L 446.199219 604.0625 L 422.660156 574.179688 " fill-opacity="1" fill-rule="nonzero"/></svg>