<svg xmlns="http://www.w3.org/2000/svg" xmlns:xlink="http://www.w3.org/1999/xlink" width="1000" zoomAndPan="magnify" viewBox="0 0 750 749.999995" height="1000" preserveAspectRatio="xMidYMid meet" version="1.0"><path fill="#ffffff" d="M 659.707031 741.621094 L 90.292969 741.621094 C 45.042969 741.621094 8.378906 704.957031 8.378906 659.707031 L 8.378906 90.292969 C 8.378906 45.042969 45.042969 8.378906 90.292969 8.378906 L 659.917969 8.378906 C 704.957031 8.378906 741.621094 45.042969 741.621094 90.292969 L 741.621094 659.917969 C 741.621094 704.957031 704.957031 741.621094 659.707031 741.621094 Z M 659.707031 741.621094 " fill-opacity="1" fill-rule="nonzero"/><path fill="#010101" d="M 659.707031 750 L 90.292969 750 C 40.433594 750 0 709.566406 0 659.707031 L 0 90.292969 C 0 40.433594 40.433594 0 90.292969 0 L 659.917969 0 C 709.566406 0 750 40.433594 750 90.292969 L 750 659.917969 C 750 709.566406 709.566406 750 659.707031 750 Z M 90.292969 16.761719 C 49.652344 16.761719 16.761719 49.652344 16.761719 90.292969 L 16.761719 659.917969 C 16.761719 700.347656 49.652344 733.242188 90.292969 733.242188 L 659.917969 733.242188 C 700.347656 733.242188 733.449219 700.347656 733.449219 659.707031 L 733.449219 90.292969 C 733.449219 49.859375 700.558594 16.761719 660.125 16.761719 Z M 90.292969 16.761719 " fill-opacity="1" fill-rule="nonzero"/><path fill="#0c0b0b" d="M 650.488281 195.671875 C 650.488281 155.238281 617.597656 122.347656 577.164062 122.347656 C 536.730469 122.347656 503.839844 155.238281 503.839844 195.671875 C 503.839844 236.101562 536.730469 268.996094 577.164062 268.996094 C 617.808594 268.996094 650.488281 236.3125 650.488281 195.671875 Z M 245.949219 554.121094 C 245.949219 513.6875 213.058594 480.796875 172.625 480.796875 C 132.191406 480.796875 99.300781 513.6875 99.300781 554.121094 C 99.300781 594.554688 132.191406 627.445312 172.625 627.445312 C 213.058594 627.445312 245.949219 594.761719 245.949219 554.121094 Z M 172.625 268.996094 C 213.058594 268.996094 245.949219 236.101562 245.949219 195.671875 C 245.949219 155.238281 213.058594 122.347656 172.625 122.347656 C 132.191406 122.347656 99.300781 155.238281 99.300781 195.671875 C 99.300781 236.101562 132.191406 268.996094 172.625 268.996094 Z M 577.164062 627.445312 C 617.597656 627.445312 650.488281 594.554688 650.488281 554.121094 C 650.488281 513.6875 617.597656 480.796875 577.164062 480.796875 C 536.730469 480.796875 503.839844 513.6875 503.839844 554.121094 C 503.839844 594.554688 536.730469 627.445312 577.164062 627.445312 Z M 448.324219 195.671875 C 448.324219 155.238281 415.433594 122.347656 375 122.347656 C 334.566406 122.347656 301.675781 155.238281 301.675781 195.671875 C 301.675781 236.101562 334.566406 268.996094 375 268.996094 C 415.433594 268.996094 448.324219 236.3125 448.324219 195.671875 Z M 448.324219 554.121094 C 448.324219 513.6875 415.433594 480.796875 375 480.796875 C 334.566406 480.796875 301.675781 513.6875 301.675781 554.121094 C 301.675781 594.554688 334.566406 627.445312 375 627.445312 C 415.433594 627.445312 448.324219 594.761719 448.324219 554.121094 Z M 448.324219 554.121094 " fill-opacity="1" fill-rule="nonzero"/></svg>