<svg xmlns="http://www.w3.org/2000/svg" xmlns:xlink="http://www.w3.org/1999/xlink" width="1000" zoomAndPan="magnify" viewBox="0 0 750 749.999995" height="1000" preserveAspectRatio="xMidYMid meet" version="1.0"><path fill="#ffffff" d="M 659.707031 741.621094 L 90.292969 741.621094 C 45.042969 741.621094 8.378906 704.957031 8.378906 659.707031 L 8.378906 90.292969 C 8.378906 45.042969 45.042969 8.378906 90.292969 8.378906 L 659.917969 8.378906 C 704.957031 8.378906 741.621094 45.042969 741.621094 90.292969 L 741.621094 659.917969 C 741.621094 704.957031 704.957031 741.621094 659.707031 741.621094 Z M 659.707031 741.621094 " fill-opacity="1" fill-rule="nonzero"/><path fill="#010101" d="M 659.707031 750 L 90.292969 750 C 40.433594 750 0 709.566406 0 659.707031 L 0 90.292969 C 0 40.433594 40.433594 0 90.292969 0 L 659.917969 0 C 709.566406 0 750 40.433594 750 90.292969 L 750 659.917969 C 750 709.566406 709.566406 750 659.707031 750 Z M 90.292969 16.761719 C 49.652344 16.761719 16.761719 49.652344 16.761719 90.292969 L 16.761719 659.917969 C 16.761719 700.347656 49.652344 733.242188 90.292969 733.242188 L 659.917969 733.242188 C 700.347656 733.242188 733.449219 700.347656 733.449219 659.707031 L 733.449219 90.292969 C 733.449219 49.859375 700.558594 16.761719 660.125 16.761719 Z M 90.292969 16.761719 " fill-opacity="1" fill-rule="nonzero"/><path fill="#0c0b0b" d="M 627.445312 195.671875 C 627.445312 155.238281 594.554688 122.347656 554.121094 122.347656 C 513.6875 122.347656 480.796875 155.238281 480.796875 195.671875 C 480.796875 236.101562 513.6875 268.996094 554.121094 268.996094 C 594.554688 268.996094 627.445312 236.3125 627.445312 195.671875 Z M 268.996094 554.121094 C 268.996094 513.6875 236.101562 480.796875 195.671875 480.796875 C 155.238281 480.796875 122.347656 513.6875 122.347656 554.121094 C 122.347656 594.554688 155.238281 627.445312 195.671875 627.445312 C 236.101562 627.445312 268.996094 594.761719 268.996094 554.121094 Z M 448.324219 375 C 448.324219 334.566406 415.433594 301.675781 375 301.675781 C 334.566406 301.675781 301.675781 334.566406 301.675781 375 C 301.675781 415.433594 334.566406 448.324219 375 448.324219 C 415.433594 448.324219 448.324219 415.433594 448.324219 375 Z M 448.324219 375 " fill-opacity="1" fill-rule="nonzero"/></svg>