<svg xmlns="http://www.w3.org/2000/svg" xmlns:xlink="http://www.w3.org/1999/xlink" width="1000" zoomAndPan="magnify" viewBox="0 0 750 749.999995" height="1000" preserveAspectRatio="xMidYMid meet" version="1.0"><path fill="#ffffff" d="M 659.707031 741.621094 L 90.292969 741.621094 C 45.042969 741.621094 8.378906 704.957031 8.378906 659.707031 L 8.378906 90.292969 C 8.378906 45.042969 45.042969 8.378906 90.292969 8.378906 L 659.917969 8.378906 C 704.957031 8.378906 741.621094 45.042969 741.621094 90.292969 L 741.621094 659.917969 C 741.621094 704.957031 704.957031 741.621094 659.707031 741.621094 Z M 659.707031 741.621094 " fill-opacity="1" fill-rule="nonzero"/><path fill="#000000" d="M 659.707031 750 L 90.292969 750 C 40.433594 750 0 709.566406 0 659.707031 L 0 90.292969 C 0 40.433594 40.433594 0 90.292969 0 L 659.917969 0 C 709.566406 0 750 40.433594 750 90.292969 L 750 659.917969 C 750 709.566406 709.566406 750 659.707031 750 Z M 90.292969 16.761719 C 49.652344 16.761719 16.761719 49.652344 16.761719 90.292969 L 16.761719 659.917969 C 16.761719 700.347656 49.652344 733.242188 90.292969 733.242188 L 659.917969 733.242188 C 700.347656 733.242188 733.449219 700.347656 733.449219 659.707031 L 733.449219 90.292969 C 733.449219 49.859375 700.558594 16.761719 660.125 16.761719 Z M 90.292969 16.761719 " fill-opacity="1" fill-rule="nonzero"/><path fill="#0c0b0b" d="M 448.324219 375 C 448.324219 376.199219 448.292969 377.398438 448.234375 378.597656 C 448.175781 379.796875 448.089844 380.992188 447.972656 382.1875 C 447.851562 383.382812 447.707031 384.570312 447.53125 385.757812 C 447.355469 386.945312 447.148438 388.128906 446.914062 389.304688 C 446.679688 390.480469 446.417969 391.652344 446.125 392.816406 C 445.835938 393.980469 445.515625 395.136719 445.167969 396.285156 C 444.816406 397.433594 444.441406 398.570312 444.039062 399.703125 C 443.632812 400.832031 443.203125 401.953125 442.742188 403.058594 C 442.285156 404.167969 441.796875 405.265625 441.285156 406.351562 C 440.769531 407.433594 440.230469 408.507812 439.664062 409.566406 C 439.101562 410.621094 438.507812 411.667969 437.890625 412.695312 C 437.273438 413.726562 436.632812 414.738281 435.964844 415.738281 C 435.300781 416.734375 434.609375 417.714844 433.894531 418.679688 C 433.179688 419.644531 432.441406 420.589844 431.679688 421.515625 C 430.917969 422.445312 430.136719 423.351562 429.328125 424.242188 C 428.523438 425.128906 427.695312 426 426.847656 426.847656 C 426 427.695312 425.128906 428.523438 424.242188 429.328125 C 423.351562 430.136719 422.445312 430.917969 421.515625 431.679688 C 420.589844 432.441406 419.644531 433.179688 418.679688 433.894531 C 417.714844 434.609375 416.734375 435.300781 415.738281 435.964844 C 414.738281 436.632812 413.726562 437.273438 412.695312 437.890625 C 411.667969 438.507812 410.621094 439.101562 409.566406 439.664062 C 408.507812 440.230469 407.433594 440.769531 406.351562 441.285156 C 405.265625 441.796875 404.167969 442.285156 403.058594 442.742188 C 401.953125 443.203125 400.832031 443.632812 399.703125 444.039062 C 398.570312 444.441406 397.433594 444.820312 396.285156 445.167969 C 395.136719 445.515625 393.980469 445.835938 392.816406 446.125 C 391.652344 446.417969 390.480469 446.679688 389.304688 446.914062 C 388.128906 447.148438 386.945312 447.355469 385.757812 447.53125 C 384.570312 447.707031 383.382812 447.851562 382.1875 447.972656 C 380.992188 448.089844 379.796875 448.175781 378.597656 448.234375 C 377.398438 448.292969 376.199219 448.324219 375 448.324219 C 373.800781 448.324219 372.601562 448.292969 371.402344 448.234375 C 370.203125 448.175781 369.007812 448.089844 367.8125 447.972656 C 366.617188 447.851562 365.429688 447.707031 364.242188 447.53125 C 363.054688 447.355469 361.871094 447.148438 360.695312 446.914062 C 359.519531 446.679688 358.347656 446.417969 357.183594 446.125 C 356.019531 445.835938 354.863281 445.515625 353.714844 445.167969 C 352.566406 444.816406 351.425781 444.441406 350.296875 444.039062 C 349.167969 443.632812 348.046875 443.203125 346.941406 442.742188 C 345.832031 442.285156 344.734375 441.796875 343.648438 441.285156 C 342.566406 440.769531 341.492188 440.230469 340.433594 439.664062 C 339.375 439.101562 338.332031 438.507812 337.304688 437.890625 C 336.273438 437.273438 335.261719 436.632812 334.261719 435.964844 C 333.265625 435.300781 332.285156 434.609375 331.320312 433.894531 C 330.355469 433.179688 329.410156 432.441406 328.484375 431.679688 C 327.554688 430.917969 326.648438 430.136719 325.757812 429.328125 C 324.871094 428.523438 324 427.695312 323.152344 426.847656 C 322.304688 426 321.476562 425.128906 320.671875 424.242188 C 319.863281 423.351562 319.082031 422.445312 318.320312 421.515625 C 317.558594 420.589844 316.820312 419.644531 316.105469 418.679688 C 315.390625 417.714844 314.699219 416.734375 314.035156 415.738281 C 313.367188 414.738281 312.726562 413.726562 312.109375 412.695312 C 311.492188 411.667969 310.898438 410.621094 310.332031 409.566406 C 309.769531 408.507812 309.230469 407.433594 308.714844 406.351562 C 308.203125 405.265625 307.714844 404.167969 307.257812 403.058594 C 306.796875 401.953125 306.367188 400.832031 305.960938 399.703125 C 305.558594 398.570312 305.179688 397.433594 304.832031 396.285156 C 304.484375 395.136719 304.164062 393.980469 303.875 392.816406 C 303.582031 391.652344 303.320312 390.480469 303.085938 389.304688 C 302.851562 388.128906 302.644531 386.945312 302.46875 385.757812 C 302.292969 384.570312 302.148438 383.382812 302.027344 382.1875 C 301.910156 380.992188 301.824219 379.796875 301.765625 378.597656 C 301.707031 377.398438 301.675781 376.199219 301.675781 375 C 301.675781 373.800781 301.707031 372.601562 301.765625 371.402344 C 301.824219 370.203125 301.910156 369.007812 302.027344 367.8125 C 302.148438 366.617188 302.292969 365.429688 302.46875 364.242188 C 302.644531 363.054688 302.851562 361.871094 303.085938 360.695312 C 303.320312 359.519531 303.582031 358.347656 303.875 357.183594 C 304.164062 356.019531 304.484375 354.863281 304.832031 353.714844 C 305.179688 352.566406 305.558594 351.425781 305.960938 350.296875 C 306.367188 349.167969 306.796875 348.046875 307.257812 346.941406 C 307.714844 345.832031 308.203125 344.734375 308.714844 343.648438 C 309.230469 342.566406 309.769531 341.492188 310.332031 340.433594 C 310.898438 339.378906 311.492188 338.332031 312.109375 337.304688 C 312.726562 336.273438 313.367188 335.261719 314.035156 334.261719 C 314.699219 333.265625 315.390625 332.285156 316.105469 331.320312 C 316.820312 330.355469 317.558594 329.410156 318.320312 328.484375 C 319.082031 327.554688 319.863281 326.648438 320.671875 325.757812 C 321.476562 324.871094 322.304688 324 323.152344 323.152344 C 324 322.304688 324.871094 321.476562 325.757812 320.671875 C 326.648438 319.863281 327.554688 319.082031 328.484375 318.320312 C 329.410156 317.558594 330.355469 316.820312 331.320312 316.105469 C 332.285156 315.390625 333.265625 314.699219 334.261719 314.035156 C 335.261719 313.367188 336.273438 312.726562 337.304688 312.109375 C 338.332031 311.492188 339.375 310.898438 340.433594 310.332031 C 341.492188 309.769531 342.566406 309.230469 343.648438 308.714844 C 344.734375 308.203125 345.832031 307.714844 346.941406 307.257812 C 348.046875 306.796875 349.167969 306.367188 350.296875 305.960938 C 351.425781 305.558594 352.566406 305.179688 353.714844 304.832031 C 354.863281 304.484375 356.019531 304.164062 357.183594 303.875 C 358.347656 303.582031 359.519531 303.320312 360.695312 303.085938 C 361.871094 302.851562 363.054688 302.644531 364.242188 302.46875 C 365.429688 302.292969 366.617188 302.148438 367.8125 302.027344 C 369.007812 301.910156 370.203125 301.824219 371.402344 301.765625 C 372.601562 301.707031 373.800781 301.675781 375 301.675781 C 376.199219 301.675781 377.398438 301.707031 378.597656 301.765625 C 379.796875 301.824219 380.992188 301.910156 382.1875 302.027344 C 383.382812 302.148438 384.570312 302.292969 385.757812 302.46875 C 386.945312 302.644531 388.128906 302.851562 389.304688 303.085938 C 390.480469 303.320312 391.652344 303.582031 392.816406 303.875 C 393.980469 304.164062 395.136719 304.484375 396.285156 304.832031 C 397.433594 305.179688 398.570312 305.558594 399.703125 305.960938 C 400.832031 306.367188 401.953125 306.796875 403.058594 307.257812 C 404.167969 307.714844 405.265625 308.203125 406.351562 308.714844 C 407.433594 309.230469 408.507812 309.769531 409.566406 310.335938 C 410.621094 310.898438 411.667969 311.492188 412.695312 312.109375 C 413.726562 312.726562 414.738281 313.367188 415.738281 314.035156 C 416.734375 314.699219 417.714844 315.390625 418.679688 316.105469 C 419.644531 316.820312 420.589844 317.558594 421.515625 318.320312 C 422.445312 319.082031 423.351562 319.863281 424.242188 320.671875 C 425.128906 321.476562 426 322.304688 426.847656 323.152344 C 427.695312 324 428.523438 324.871094 429.328125 325.757812 C 430.136719 326.648438 430.917969 327.554688 431.679688 328.484375 C 432.441406 329.410156 433.179688 330.355469 433.894531 331.320312 C 434.609375 332.285156 435.300781 333.265625 435.964844 334.261719 C 436.632812 335.261719 437.273438 336.273438 437.890625 337.304688 C 438.507812 338.332031 439.101562 339.378906 439.664062 340.433594 C 440.230469 341.492188 440.769531 342.566406 441.285156 343.648438 C 441.796875 344.734375 442.285156 345.832031 442.742188 346.941406 C 443.203125 348.046875 443.632812 349.167969 444.039062 350.296875 C 444.441406 351.425781 444.816406 352.566406 445.167969 353.714844 C 445.515625 354.863281 445.835938 356.019531 446.125 357.183594 C 446.417969 358.347656 446.679688 359.519531 446.914062 360.695312 C 447.148438 361.871094 447.355469 363.054688 447.53125 364.242188 C 447.707031 365.429688 447.851562 366.617188 447.972656 367.8125 C 448.089844 369.007812 448.175781 370.203125 448.234375 371.402344 C 448.292969 372.601562 448.324219 373.800781 448.324219 375 Z M 448.324219 375 " fill-opacity="1" fill-rule="nonzero"/></svg>