<svg xmlns="http://www.w3.org/2000/svg" xmlns:xlink="http://www.w3.org/1999/xlink" width="1000" zoomAndPan="magnify" viewBox="0 0 750 749.999995" height="1000" preserveAspectRatio="xMidYMid meet" version="1.0"><path fill="#ffffff" d="M 659.707031 741.621094 L 90.292969 741.621094 C 45.042969 741.621094 8.378906 704.957031 8.378906 659.707031 L 8.378906 90.292969 C 8.378906 45.042969 45.042969 8.378906 90.292969 8.378906 L 659.917969 8.378906 C 704.957031 8.378906 741.621094 45.042969 741.621094 90.292969 L 741.621094 659.917969 C 741.621094 704.957031 704.957031 741.621094 659.707031 741.621094 Z M 659.707031 741.621094 " fill-opacity="1" fill-rule="nonzero"/><path fill="#000000" d="M 659.707031 750 L 90.292969 750 C 40.433594 750 0 709.566406 0 659.707031 L 0 90.292969 C 0 40.433594 40.433594 0 90.292969 0 L 659.917969 0 C 709.566406 0 750 40.433594 750 90.292969 L 750 659.917969 C 750 709.566406 709.566406 750 659.707031 750 Z M 90.292969 16.761719 C 49.652344 16.761719 16.761719 49.652344 16.761719 90.292969 L 16.761719 659.917969 C 16.761719 700.347656 49.652344 733.242188 90.292969 733.242188 L 659.917969 733.242188 C 700.347656 733.242188 733.449219 700.347656 733.449219 659.707031 L 733.449219 90.292969 C 733.449219 49.859375 700.558594 16.761719 660.125 16.761719 Z M 90.292969 16.761719 " fill-opacity="1" fill-rule="nonzero"/><path fill="#0c0b0b" d="M 627.445312 195.671875 C 627.445312 196.871094 627.414062 198.070312 627.355469 199.269531 C 627.296875 200.464844 627.207031 201.664062 627.089844 202.855469 C 626.972656 204.050781 626.828125 205.242188 626.652344 206.429688 C 626.472656 207.617188 626.269531 208.796875 626.035156 209.976562 C 625.800781 211.152344 625.539062 212.324219 625.246094 213.488281 C 624.957031 214.652344 624.636719 215.808594 624.285156 216.957031 C 623.9375 218.105469 623.5625 219.242188 623.15625 220.371094 C 622.753906 221.503906 622.320312 222.621094 621.863281 223.730469 C 621.402344 224.839844 620.917969 225.9375 620.402344 227.019531 C 619.890625 228.105469 619.351562 229.175781 618.785156 230.234375 C 618.21875 231.292969 617.628906 232.335938 617.011719 233.367188 C 616.394531 234.394531 615.753906 235.410156 615.085938 236.40625 C 614.421875 237.40625 613.730469 238.386719 613.015625 239.347656 C 612.300781 240.3125 611.5625 241.257812 610.800781 242.1875 C 610.039062 243.113281 609.253906 244.023438 608.449219 244.910156 C 607.644531 245.800781 606.816406 246.667969 605.96875 247.519531 C 605.121094 248.367188 604.25 249.195312 603.363281 250 C 602.472656 250.804688 601.5625 251.589844 600.636719 252.351562 C 599.707031 253.113281 598.761719 253.851562 597.800781 254.566406 C 596.835938 255.28125 595.855469 255.96875 594.855469 256.636719 C 593.859375 257.304688 592.84375 257.945312 591.816406 258.5625 C 590.785156 259.179688 589.742188 259.769531 588.683594 260.335938 C 587.625 260.902344 586.554688 261.441406 585.46875 261.953125 C 584.386719 262.46875 583.289062 262.953125 582.179688 263.414062 C 581.070312 263.871094 579.953125 264.304688 578.820312 264.707031 C 577.691406 265.113281 576.554688 265.488281 575.40625 265.835938 C 574.257812 266.183594 573.101562 266.503906 571.9375 266.796875 C 570.773438 267.089844 569.601562 267.351562 568.425781 267.585938 C 567.246094 267.820312 566.066406 268.023438 564.878906 268.199219 C 563.691406 268.375 562.5 268.523438 561.308594 268.640625 C 560.113281 268.757812 558.917969 268.847656 557.71875 268.90625 C 556.519531 268.964844 555.320312 268.996094 554.121094 268.996094 C 552.921875 268.996094 551.722656 268.964844 550.523438 268.90625 C 549.324219 268.847656 548.128906 268.757812 546.933594 268.640625 C 545.738281 268.523438 544.546875 268.375 543.359375 268.199219 C 542.175781 268.023438 540.992188 267.820312 539.816406 267.585938 C 538.636719 267.351562 537.46875 267.089844 536.304688 266.796875 C 535.140625 266.503906 533.984375 266.183594 532.835938 265.835938 C 531.6875 265.488281 530.546875 265.113281 529.417969 264.707031 C 528.289062 264.304688 527.167969 263.871094 526.058594 263.414062 C 524.953125 262.953125 523.855469 262.46875 522.769531 261.953125 C 521.683594 261.441406 520.613281 260.902344 519.554688 260.335938 C 518.496094 259.769531 517.453125 259.179688 516.425781 258.5625 C 515.394531 257.945312 514.382812 257.304688 513.382812 256.636719 C 512.386719 255.96875 511.40625 255.28125 510.441406 254.566406 C 509.476562 253.851562 508.53125 253.113281 507.605469 252.351562 C 506.675781 251.589844 505.769531 250.804688 504.878906 250 C 503.988281 249.195312 503.121094 248.367188 502.273438 247.519531 C 501.421875 246.667969 500.597656 245.800781 499.789062 244.910156 C 498.984375 244.023438 498.199219 243.113281 497.441406 242.1875 C 496.679688 241.257812 495.941406 240.3125 495.226562 239.347656 C 494.511719 238.386719 493.820312 237.40625 493.152344 236.40625 C 492.488281 235.410156 491.84375 234.394531 491.226562 233.367188 C 490.609375 232.335938 490.019531 231.292969 489.453125 230.234375 C 488.886719 229.175781 488.347656 228.105469 487.835938 227.019531 C 487.324219 225.9375 486.835938 224.839844 486.378906 223.730469 C 485.917969 222.621094 485.488281 221.503906 485.082031 220.371094 C 484.679688 219.242188 484.300781 218.105469 483.953125 216.957031 C 483.605469 215.808594 483.285156 214.652344 482.992188 213.488281 C 482.703125 212.324219 482.4375 211.152344 482.203125 209.976562 C 481.972656 208.796875 481.765625 207.617188 481.589844 206.429688 C 481.414062 205.242188 481.265625 204.050781 481.148438 202.855469 C 481.03125 201.664062 480.941406 200.464844 480.882812 199.269531 C 480.824219 198.070312 480.796875 196.871094 480.796875 195.671875 C 480.796875 194.46875 480.824219 193.269531 480.882812 192.074219 C 480.941406 190.875 481.03125 189.675781 481.148438 188.484375 C 481.265625 187.289062 481.414062 186.097656 481.589844 184.910156 C 481.765625 183.722656 481.972656 182.542969 482.203125 181.367188 C 482.4375 180.1875 482.703125 179.019531 482.992188 177.855469 C 483.285156 176.691406 483.605469 175.535156 483.953125 174.386719 C 484.300781 173.238281 484.679688 172.097656 485.082031 170.96875 C 485.488281 169.839844 485.917969 168.71875 486.378906 167.609375 C 486.835938 166.5 487.324219 165.40625 487.835938 164.320312 C 488.347656 163.234375 488.886719 162.164062 489.453125 161.105469 C 490.019531 160.046875 490.609375 159.003906 491.226562 157.972656 C 491.84375 156.945312 492.488281 155.929688 493.152344 154.933594 C 493.820312 153.9375 494.511719 152.957031 495.226562 151.992188 C 495.941406 151.027344 496.679688 150.082031 497.441406 149.152344 C 498.199219 148.226562 498.984375 147.316406 499.789062 146.429688 C 500.597656 145.539062 501.421875 144.671875 502.273438 143.824219 C 503.121094 142.972656 503.988281 142.148438 504.878906 141.339844 C 505.769531 140.535156 506.675781 139.75 507.605469 138.988281 C 508.53125 138.230469 509.476562 137.492188 510.441406 136.777344 C 511.40625 136.0625 512.386719 135.371094 513.382812 134.703125 C 514.382812 134.035156 515.394531 133.394531 516.425781 132.777344 C 517.453125 132.160156 518.496094 131.570312 519.554688 131.003906 C 520.613281 130.4375 521.683594 129.898438 522.769531 129.386719 C 523.855469 128.875 524.953125 128.386719 526.058594 127.929688 C 527.167969 127.46875 528.289062 127.035156 529.417969 126.632812 C 530.546875 126.226562 531.6875 125.851562 532.835938 125.503906 C 533.984375 125.15625 535.140625 124.835938 536.304688 124.542969 C 537.46875 124.253906 538.636719 123.988281 539.816406 123.753906 C 540.992188 123.519531 542.175781 123.316406 543.359375 123.140625 C 544.546875 122.964844 545.738281 122.816406 546.933594 122.699219 C 548.128906 122.582031 549.324219 122.492188 550.523438 122.433594 C 551.722656 122.375 552.921875 122.347656 554.121094 122.347656 C 555.320312 122.347656 556.519531 122.375 557.71875 122.433594 C 558.917969 122.492188 560.113281 122.582031 561.308594 122.699219 C 562.5 122.816406 563.691406 122.964844 564.878906 123.140625 C 566.066406 123.316406 567.246094 123.519531 568.425781 123.753906 C 569.601562 123.988281 570.773438 124.253906 571.9375 124.542969 C 573.101562 124.835938 574.257812 125.15625 575.40625 125.503906 C 576.554688 125.851562 577.691406 126.226562 578.820312 126.632812 C 579.953125 127.035156 581.070312 127.46875 582.179688 127.929688 C 583.289062 128.386719 584.386719 128.875 585.46875 129.386719 C 586.554688 129.898438 587.625 130.4375 588.683594 131.003906 C 589.742188 131.570312 590.785156 132.160156 591.816406 132.777344 C 592.84375 133.394531 593.859375 134.035156 594.855469 134.703125 C 595.855469 135.371094 596.835938 136.0625 597.800781 136.777344 C 598.761719 137.492188 599.707031 138.230469 600.636719 138.988281 C 601.5625 139.75 602.472656 140.535156 603.363281 141.339844 C 604.25 142.148438 605.121094 142.972656 605.96875 143.824219 C 606.816406 144.671875 607.644531 145.539062 608.449219 146.429688 C 609.253906 147.316406 610.039062 148.226562 610.800781 149.152344 C 611.5625 150.082031 612.300781 151.027344 613.015625 151.992188 C 613.730469 152.957031 614.421875 153.9375 615.085938 154.933594 C 615.753906 155.929688 616.394531 156.945312 617.011719 157.972656 C 617.628906 159.003906 618.21875 160.046875 618.785156 161.105469 C 619.351562 162.164062 619.890625 163.234375 620.402344 164.320312 C 620.917969 165.40625 621.402344 166.5 621.863281 167.609375 C 622.320312 168.71875 622.753906 169.839844 623.15625 170.96875 C 623.5625 172.097656 623.9375 173.238281 624.285156 174.386719 C 624.636719 175.535156 624.957031 176.691406 625.246094 177.855469 C 625.539062 179.019531 625.800781 180.1875 626.035156 181.367188 C 626.269531 182.542969 626.472656 183.722656 626.652344 184.910156 C 626.828125 186.097656 626.972656 187.289062 627.089844 188.484375 C 627.207031 189.675781 627.296875 190.875 627.355469 192.074219 C 627.414062 193.269531 627.445312 194.46875 627.445312 195.671875 Z M 627.445312 195.671875 " fill-opacity="1" fill-rule="nonzero"/><path fill="#0c0b0b" d="M 268.996094 554.121094 C 268.996094 555.320312 268.964844 556.519531 268.90625 557.71875 C 268.847656 558.917969 268.757812 560.113281 268.640625 561.308594 C 268.523438 562.5 268.375 563.691406 268.199219 564.878906 C 268.023438 566.066406 267.820312 567.246094 267.585938 568.425781 C 267.351562 569.601562 267.089844 570.773438 266.796875 571.9375 C 266.503906 573.101562 266.183594 574.257812 265.835938 575.40625 C 265.488281 576.554688 265.113281 577.691406 264.707031 578.820312 C 264.304688 579.953125 263.871094 581.070312 263.414062 582.179688 C 262.953125 583.289062 262.46875 584.386719 261.953125 585.46875 C 261.441406 586.554688 260.902344 587.625 260.335938 588.683594 C 259.769531 589.742188 259.179688 590.785156 258.5625 591.816406 C 257.945312 592.84375 257.304688 593.859375 256.636719 594.855469 C 255.96875 595.855469 255.28125 596.835938 254.566406 597.800781 C 253.851562 598.761719 253.113281 599.707031 252.351562 600.636719 C 251.589844 601.5625 250.804688 602.472656 250 603.363281 C 249.195312 604.25 248.367188 605.121094 247.519531 605.96875 C 246.667969 606.816406 245.800781 607.644531 244.910156 608.449219 C 244.023438 609.253906 243.113281 610.039062 242.1875 610.800781 C 241.257812 611.5625 240.3125 612.300781 239.347656 613.015625 C 238.386719 613.730469 237.40625 614.421875 236.40625 615.085938 C 235.410156 615.753906 234.394531 616.394531 233.367188 617.011719 C 232.335938 617.628906 231.292969 618.21875 230.234375 618.785156 C 229.175781 619.351562 228.105469 619.890625 227.019531 620.402344 C 225.9375 620.917969 224.839844 621.402344 223.730469 621.863281 C 222.621094 622.320312 221.503906 622.753906 220.371094 623.15625 C 219.242188 623.5625 218.105469 623.9375 216.957031 624.285156 C 215.808594 624.636719 214.652344 624.957031 213.488281 625.246094 C 212.324219 625.539062 211.152344 625.800781 209.976562 626.035156 C 208.796875 626.269531 207.617188 626.472656 206.429688 626.652344 C 205.242188 626.828125 204.050781 626.972656 202.855469 627.089844 C 201.664062 627.207031 200.464844 627.296875 199.269531 627.355469 C 198.070312 627.414062 196.871094 627.445312 195.671875 627.445312 C 194.46875 627.445312 193.269531 627.414062 192.074219 627.355469 C 190.875 627.296875 189.675781 627.207031 188.484375 627.089844 C 187.289062 626.972656 186.097656 626.828125 184.910156 626.652344 C 183.722656 626.472656 182.542969 626.269531 181.367188 626.035156 C 180.1875 625.800781 179.019531 625.539062 177.855469 625.246094 C 176.691406 624.957031 175.535156 624.636719 174.386719 624.285156 C 173.238281 623.9375 172.097656 623.5625 170.96875 623.15625 C 169.839844 622.753906 168.71875 622.320312 167.609375 621.863281 C 166.5 621.402344 165.40625 620.917969 164.320312 620.402344 C 163.234375 619.890625 162.164062 619.351562 161.105469 618.785156 C 160.046875 618.21875 159.003906 617.628906 157.972656 617.011719 C 156.945312 616.394531 155.929688 615.753906 154.933594 615.085938 C 153.9375 614.421875 152.957031 613.730469 151.992188 613.015625 C 151.027344 612.300781 150.082031 611.5625 149.152344 610.800781 C 148.226562 610.039062 147.316406 609.253906 146.429688 608.449219 C 145.539062 607.644531 144.671875 606.816406 143.824219 605.96875 C 142.972656 605.121094 142.148438 604.25 141.339844 603.363281 C 140.535156 602.472656 139.75 601.5625 138.988281 600.636719 C 138.230469 599.707031 137.492188 598.761719 136.777344 597.800781 C 136.0625 596.835938 135.371094 595.855469 134.703125 594.855469 C 134.035156 593.859375 133.394531 592.84375 132.777344 591.816406 C 132.160156 590.785156 131.570312 589.742188 131.003906 588.683594 C 130.4375 587.625 129.898438 586.554688 129.386719 585.46875 C 128.875 584.386719 128.386719 583.289062 127.929688 582.179688 C 127.46875 581.070312 127.035156 579.953125 126.632812 578.820312 C 126.226562 577.691406 125.851562 576.554688 125.503906 575.40625 C 125.15625 574.257812 124.835938 573.101562 124.542969 571.9375 C 124.253906 570.773438 123.988281 569.601562 123.753906 568.425781 C 123.519531 567.246094 123.316406 566.066406 123.140625 564.878906 C 122.964844 563.691406 122.816406 562.5 122.699219 561.308594 C 122.582031 560.113281 122.492188 558.917969 122.433594 557.71875 C 122.375 556.519531 122.347656 555.320312 122.347656 554.121094 C 122.347656 552.921875 122.375 551.722656 122.433594 550.523438 C 122.492188 549.324219 122.582031 548.128906 122.699219 546.933594 C 122.816406 545.738281 122.964844 544.546875 123.140625 543.359375 C 123.316406 542.175781 123.519531 540.992188 123.753906 539.816406 C 123.988281 538.636719 124.253906 537.46875 124.542969 536.304688 C 124.835938 535.140625 125.15625 533.984375 125.503906 532.835938 C 125.851562 531.6875 126.226562 530.546875 126.632812 529.417969 C 127.035156 528.289062 127.46875 527.167969 127.929688 526.058594 C 128.386719 524.953125 128.875 523.855469 129.386719 522.769531 C 129.898438 521.683594 130.4375 520.613281 131.003906 519.554688 C 131.570312 518.496094 132.160156 517.453125 132.777344 516.425781 C 133.394531 515.394531 134.035156 514.382812 134.703125 513.382812 C 135.371094 512.386719 136.0625 511.40625 136.777344 510.441406 C 137.492188 509.476562 138.230469 508.53125 138.988281 507.605469 C 139.75 506.675781 140.535156 505.769531 141.339844 504.878906 C 142.148438 503.988281 142.972656 503.121094 143.824219 502.273438 C 144.671875 501.421875 145.539062 500.597656 146.429688 499.789062 C 147.316406 498.984375 148.226562 498.199219 149.152344 497.441406 C 150.082031 496.679688 151.027344 495.941406 151.992188 495.226562 C 152.957031 494.511719 153.9375 493.820312 154.933594 493.152344 C 155.929688 492.488281 156.945312 491.84375 157.972656 491.226562 C 159.003906 490.609375 160.046875 490.019531 161.105469 489.453125 C 162.164062 488.886719 163.234375 488.347656 164.320312 487.835938 C 165.40625 487.324219 166.5 486.835938 167.609375 486.378906 C 168.71875 485.917969 169.839844 485.488281 170.96875 485.082031 C 172.097656 484.679688 173.238281 484.300781 174.386719 483.953125 C 175.535156 483.605469 176.691406 483.285156 177.855469 482.992188 C 179.019531 482.703125 180.1875 482.4375 181.367188 482.203125 C 182.542969 481.972656 183.722656 481.765625 184.910156 481.589844 C 186.097656 481.414062 187.289062 481.265625 188.484375 481.148438 C 189.675781 481.03125 190.875 480.941406 192.074219 480.882812 C 193.269531 480.824219 194.46875 480.796875 195.671875 480.796875 C 196.871094 480.796875 198.070312 480.824219 199.269531 480.882812 C 200.464844 480.941406 201.664062 481.03125 202.855469 481.148438 C 204.050781 481.265625 205.242188 481.414062 206.429688 481.589844 C 207.617188 481.765625 208.796875 481.972656 209.976562 482.203125 C 211.152344 482.4375 212.324219 482.703125 213.488281 482.992188 C 214.652344 483.285156 215.808594 483.605469 216.957031 483.953125 C 218.105469 484.300781 219.242188 484.679688 220.371094 485.082031 C 221.503906 485.488281 222.621094 485.917969 223.730469 486.378906 C 224.839844 486.835938 225.9375 487.324219 227.019531 487.835938 C 228.105469 488.347656 229.175781 488.886719 230.234375 489.453125 C 231.292969 490.019531 232.335938 490.609375 233.367188 491.226562 C 234.394531 491.84375 235.410156 492.488281 236.40625 493.152344 C 237.40625 493.820312 238.386719 494.511719 239.347656 495.226562 C 240.3125 495.941406 241.257812 496.679688 242.1875 497.441406 C 243.113281 498.199219 244.023438 498.984375 244.910156 499.789062 C 245.800781 500.597656 246.667969 501.421875 247.519531 502.273438 C 248.367188 503.121094 249.195312 503.988281 250 504.878906 C 250.804688 505.769531 251.589844 506.675781 252.351562 507.605469 C 253.113281 508.53125 253.851562 509.476562 254.566406 510.441406 C 255.28125 511.40625 255.96875 512.386719 256.636719 513.382812 C 257.304688 514.382812 257.945312 515.394531 258.5625 516.425781 C 259.179688 517.453125 259.769531 518.496094 260.335938 519.554688 C 260.902344 520.613281 261.441406 521.683594 261.953125 522.769531 C 262.46875 523.855469 262.953125 524.953125 263.414062 526.058594 C 263.871094 527.167969 264.304688 528.289062 264.707031 529.417969 C 265.113281 530.546875 265.488281 531.6875 265.835938 532.835938 C 266.183594 533.984375 266.503906 535.140625 266.796875 536.304688 C 267.089844 537.46875 267.351562 538.636719 267.585938 539.816406 C 267.820312 540.992188 268.023438 542.175781 268.199219 543.359375 C 268.375 544.546875 268.523438 545.738281 268.640625 546.933594 C 268.757812 548.128906 268.847656 549.324219 268.90625 550.523438 C 268.964844 551.722656 268.996094 552.921875 268.996094 554.121094 Z M 268.996094 554.121094 " fill-opacity="1" fill-rule="nonzero"/></svg>