<svg xmlns="http://www.w3.org/2000/svg" xmlns:xlink="http://www.w3.org/1999/xlink" width="2400" zoomAndPan="magnify" viewBox="0 0 1800 1799.999925" height="2400" preserveAspectRatio="xMidYMid meet" version="1.0"><defs><clipPath id="449104458c"><path d="M 103.5 165 L 622 165 L 622 1800 L 103.5 1800 Z M 103.5 165 " clip-rule="nonzero"/></clipPath><clipPath id="98ffcf8b91"><path d="M 1119 394 L 1696.5 394 L 1696.5 424 L 1119 424 Z M 1119 394 " clip-rule="nonzero"/></clipPath></defs><path fill="#26646f" d="M 586.003906 215.761719 L 139.378906 215.761719 L 139.378906 150.464844 L 586.003906 116.757812 L 586.003906 215.761719 " fill-opacity="1" fill-rule="nonzero"/><g clip-path="url(#449104458c)"><path fill="#45a0b4" d="M 621.660156 1799.925781 L 103.742188 1799.925781 L 103.742188 165.101562 L 621.660156 165.101562 L 621.660156 1799.925781 " fill-opacity="1" fill-rule="nonzero"/></g><path fill="#45a0b4" d="M 230.902344 308.988281 L 162.960938 308.988281 L 162.960938 236.292969 L 230.902344 236.292969 L 230.902344 308.988281 " fill-opacity="1" fill-rule="nonzero"/><path fill="#45a0b4" d="M 341.183594 308.988281 L 273.226562 308.988281 L 273.226562 236.292969 L 341.183594 236.292969 L 341.183594 308.988281 " fill-opacity="1" fill-rule="nonzero"/><path fill="#26646f" d="M 452.160156 308.988281 L 384.242188 308.988281 L 384.242188 236.292969 L 452.160156 236.292969 L 452.160156 308.988281 " fill-opacity="1" fill-rule="nonzero"/><path fill="#1d5271" d="M 562.421875 308.988281 L 494.484375 308.988281 L 494.484375 236.292969 L 562.421875 236.292969 L 562.421875 308.988281 " fill-opacity="1" fill-rule="nonzero"/><path fill="#26646f" d="M 230.902344 427.484375 L 162.960938 427.484375 L 162.960938 354.808594 L 230.902344 354.808594 L 230.902344 427.484375 " fill-opacity="1" fill-rule="nonzero"/><path fill="#1d5271" d="M 341.183594 427.484375 L 273.226562 427.484375 L 273.226562 354.808594 L 341.183594 354.808594 L 341.183594 427.484375 " fill-opacity="1" fill-rule="nonzero"/><path fill="#26646f" d="M 452.160156 427.484375 L 384.242188 427.484375 L 384.242188 354.808594 L 452.160156 354.808594 L 452.160156 427.484375 " fill-opacity="1" fill-rule="nonzero"/><path fill="#26646f" d="M 562.421875 427.484375 L 494.484375 427.484375 L 494.484375 354.808594 L 562.421875 354.808594 L 562.421875 427.484375 " fill-opacity="1" fill-rule="nonzero"/><path fill="#26646f" d="M 230.902344 546 L 162.960938 546 L 162.960938 473.304688 L 230.902344 473.304688 L 230.902344 546 " fill-opacity="1" fill-rule="nonzero"/><path fill="#1d5271" d="M 341.183594 546 L 273.226562 546 L 273.226562 473.304688 L 341.183594 473.304688 L 341.183594 546 " fill-opacity="1" fill-rule="nonzero"/><path fill="#45a0b4" d="M 452.160156 546 L 384.242188 546 L 384.242188 473.304688 L 452.160156 473.304688 L 452.160156 546 " fill-opacity="1" fill-rule="nonzero"/><path fill="#26646f" d="M 562.421875 546 L 494.484375 546 L 494.484375 473.304688 L 562.421875 473.304688 L 562.421875 546 " fill-opacity="1" fill-rule="nonzero"/><path fill="#45a0b4" d="M 230.902344 664.5 L 162.960938 664.5 L 162.960938 591.800781 L 230.902344 591.800781 L 230.902344 664.5 " fill-opacity="1" fill-rule="nonzero"/><path fill="#45a0b4" d="M 341.183594 664.5 L 273.226562 664.5 L 273.226562 591.800781 L 341.183594 591.800781 L 341.183594 664.5 " fill-opacity="1" fill-rule="nonzero"/><path fill="#1d5271" d="M 452.160156 664.5 L 384.242188 664.5 L 384.242188 591.800781 L 452.160156 591.800781 L 452.160156 664.5 " fill-opacity="1" fill-rule="nonzero"/><path fill="#1d5271" d="M 562.421875 664.5 L 494.484375 664.5 L 494.484375 591.800781 L 562.421875 591.800781 L 562.421875 664.5 " fill-opacity="1" fill-rule="nonzero"/><path fill="#26646f" d="M 230.902344 782.996094 L 162.960938 782.996094 L 162.960938 710.320312 L 230.902344 710.320312 L 230.902344 782.996094 " fill-opacity="1" fill-rule="nonzero"/><path fill="#26646f" d="M 341.183594 782.996094 L 273.226562 782.996094 L 273.226562 710.320312 L 341.183594 710.320312 L 341.183594 782.996094 " fill-opacity="1" fill-rule="nonzero"/><path fill="#45a0b4" d="M 452.160156 782.996094 L 384.242188 782.996094 L 384.242188 710.320312 L 452.160156 710.320312 L 452.160156 782.996094 " fill-opacity="1" fill-rule="nonzero"/><path fill="#26646f" d="M 562.421875 782.996094 L 494.484375 782.996094 L 494.484375 710.320312 L 562.421875 710.320312 L 562.421875 782.996094 " fill-opacity="1" fill-rule="nonzero"/><path fill="#1d5271" d="M 230.902344 901.492188 L 162.960938 901.492188 L 162.960938 828.816406 L 230.902344 828.816406 L 230.902344 901.492188 " fill-opacity="1" fill-rule="nonzero"/><path fill="#1d5271" d="M 341.183594 901.492188 L 273.226562 901.492188 L 273.226562 828.816406 L 341.183594 828.816406 L 341.183594 901.492188 " fill-opacity="1" fill-rule="nonzero"/><path fill="#26646f" d="M 452.160156 901.492188 L 384.242188 901.492188 L 384.242188 828.816406 L 452.160156 828.816406 L 452.160156 901.492188 " fill-opacity="1" fill-rule="nonzero"/><path fill="#45a0b4" d="M 562.421875 901.492188 L 494.484375 901.492188 L 494.484375 828.816406 L 562.421875 828.816406 L 562.421875 901.492188 " fill-opacity="1" fill-rule="nonzero"/><path fill="#26646f" d="M 230.902344 1019.988281 L 162.960938 1019.988281 L 162.960938 947.292969 L 230.902344 947.292969 L 230.902344 1019.988281 " fill-opacity="1" fill-rule="nonzero"/><path fill="#45a0b4" d="M 341.183594 1019.988281 L 273.226562 1019.988281 L 273.226562 947.292969 L 341.183594 947.292969 L 341.183594 1019.988281 " fill-opacity="1" fill-rule="nonzero"/><path fill="#1d5271" d="M 452.160156 1019.988281 L 384.242188 1019.988281 L 384.242188 947.292969 L 452.160156 947.292969 L 452.160156 1019.988281 " fill-opacity="1" fill-rule="nonzero"/><path fill="#26646f" d="M 562.421875 1019.988281 L 494.484375 1019.988281 L 494.484375 947.292969 L 562.421875 947.292969 L 562.421875 1019.988281 " fill-opacity="1" fill-rule="nonzero"/><path fill="#45a0b4" d="M 230.902344 1138.507812 L 162.960938 1138.507812 L 162.960938 1065.832031 L 230.902344 1065.832031 L 230.902344 1138.507812 " fill-opacity="1" fill-rule="nonzero"/><path fill="#1d5271" d="M 341.183594 1138.507812 L 273.226562 1138.507812 L 273.226562 1065.832031 L 341.183594 1065.832031 L 341.183594 1138.507812 " fill-opacity="1" fill-rule="nonzero"/><path fill="#26646f" d="M 452.160156 1138.507812 L 384.242188 1138.507812 L 384.242188 1065.832031 L 452.160156 1065.832031 L 452.160156 1138.507812 " fill-opacity="1" fill-rule="nonzero"/><path fill="#1d5271" d="M 562.421875 1138.507812 L 494.484375 1138.507812 L 494.484375 1065.832031 L 562.421875 1065.832031 L 562.421875 1138.507812 " fill-opacity="1" fill-rule="nonzero"/><path fill="#26646f" d="M 230.902344 1257.003906 L 162.960938 1257.003906 L 162.960938 1184.328125 L 230.902344 1184.328125 L 230.902344 1257.003906 " fill-opacity="1" fill-rule="nonzero"/><path fill="#1d5271" d="M 341.183594 1257.003906 L 273.226562 1257.003906 L 273.226562 1184.328125 L 341.183594 1184.328125 L 341.183594 1257.003906 " fill-opacity="1" fill-rule="nonzero"/><path fill="#45a0b4" d="M 452.160156 1257.003906 L 384.242188 1257.003906 L 384.242188 1184.328125 L 452.160156 1184.328125 L 452.160156 1257.003906 " fill-opacity="1" fill-rule="nonzero"/><path fill="#26646f" d="M 562.421875 1257.003906 L 494.484375 1257.003906 L 494.484375 1184.328125 L 562.421875 1184.328125 L 562.421875 1257.003906 " fill-opacity="1" fill-rule="nonzero"/><path fill="#26646f" d="M 230.902344 1375.5 L 162.960938 1375.5 L 162.960938 1302.824219 L 230.902344 1302.824219 L 230.902344 1375.5 " fill-opacity="1" fill-rule="nonzero"/><path fill="#26646f" d="M 341.183594 1375.5 L 273.226562 1375.5 L 273.226562 1302.824219 L 341.183594 1302.824219 L 341.183594 1375.5 " fill-opacity="1" fill-rule="nonzero"/><path fill="#45a0b4" d="M 452.160156 1375.5 L 384.242188 1375.5 L 384.242188 1302.824219 L 452.160156 1302.824219 L 452.160156 1375.5 " fill-opacity="1" fill-rule="nonzero"/><path fill="#26646f" d="M 562.421875 1375.5 L 494.484375 1375.5 L 494.484375 1302.824219 L 562.421875 1302.824219 L 562.421875 1375.5 " fill-opacity="1" fill-rule="nonzero"/><path fill="#1d5271" d="M 230.902344 1493.996094 L 162.960938 1493.996094 L 162.960938 1421.300781 L 230.902344 1421.300781 L 230.902344 1493.996094 " fill-opacity="1" fill-rule="nonzero"/><path fill="#26646f" d="M 341.183594 1493.996094 L 273.226562 1493.996094 L 273.226562 1421.300781 L 341.183594 1421.300781 L 341.183594 1493.996094 " fill-opacity="1" fill-rule="nonzero"/><path fill="#26646f" d="M 452.160156 1493.996094 L 384.242188 1493.996094 L 384.242188 1421.300781 L 452.160156 1421.300781 L 452.160156 1493.996094 " fill-opacity="1" fill-rule="nonzero"/><path fill="#45a0b4" d="M 562.421875 1493.996094 L 494.484375 1493.996094 L 494.484375 1421.300781 L 562.421875 1421.300781 L 562.421875 1493.996094 " fill-opacity="1" fill-rule="nonzero"/><path fill="#45a0b4" d="M 230.902344 1612.492188 L 162.960938 1612.492188 L 162.960938 1539.816406 L 230.902344 1539.816406 L 230.902344 1612.492188 " fill-opacity="1" fill-rule="nonzero"/><path fill="#45a0b4" d="M 341.183594 1612.492188 L 273.226562 1612.492188 L 273.226562 1539.816406 L 341.183594 1539.816406 L 341.183594 1612.492188 " fill-opacity="1" fill-rule="nonzero"/><path fill="#1d5271" d="M 452.160156 1612.492188 L 384.242188 1612.492188 L 384.242188 1539.816406 L 452.160156 1539.816406 L 452.160156 1612.492188 " fill-opacity="1" fill-rule="nonzero"/><path fill="#26646f" d="M 562.421875 1612.492188 L 494.484375 1612.492188 L 494.484375 1539.816406 L 562.421875 1539.816406 L 562.421875 1612.492188 " fill-opacity="1" fill-rule="nonzero"/><path fill="#26646f" d="M 230.902344 1730.988281 L 162.960938 1730.988281 L 162.960938 1658.3125 L 230.902344 1658.3125 L 230.902344 1730.988281 " fill-opacity="1" fill-rule="nonzero"/><path fill="#26646f" d="M 341.183594 1730.988281 L 273.226562 1730.988281 L 273.226562 1658.3125 L 341.183594 1658.3125 L 341.183594 1730.988281 " fill-opacity="1" fill-rule="nonzero"/><path fill="#26646f" d="M 452.160156 1730.988281 L 384.242188 1730.988281 L 384.242188 1658.3125 L 452.160156 1658.3125 L 452.160156 1730.988281 " fill-opacity="1" fill-rule="nonzero"/><path fill="#1d5271" d="M 562.421875 1730.988281 L 494.484375 1730.988281 L 494.484375 1658.3125 L 562.421875 1658.3125 L 562.421875 1730.988281 " fill-opacity="1" fill-rule="nonzero"/><path fill="#85adb2" d="M 699.136719 752.765625 L 699.136719 1799.925781 L 1079.527344 1799.925781 L 1079.527344 752.765625 L 699.136719 752.765625 " fill-opacity="1" fill-rule="nonzero"/><path fill="#26646f" d="M 982.761719 1799.925781 L 1153.808594 1799.925781 L 1153.808594 785.414062 L 982.761719 785.414062 L 982.761719 1799.925781 " fill-opacity="1" fill-rule="nonzero"/><path fill="#26646f" d="M 624.832031 1799.925781 L 795.878906 1799.925781 L 795.878906 785.414062 L 624.832031 785.414062 L 624.832031 1799.925781 " fill-opacity="1" fill-rule="nonzero"/><path fill="#85adb2" d="M 687.363281 951.480469 L 733.347656 951.480469 L 733.347656 902.304688 L 687.363281 902.304688 L 687.363281 951.480469 " fill-opacity="1" fill-rule="nonzero"/><path fill="#26646f" d="M 687.363281 1031.65625 L 733.347656 1031.65625 L 733.347656 982.480469 L 687.363281 982.480469 L 687.363281 1031.65625 " fill-opacity="1" fill-rule="nonzero"/><path fill="#1d5271" d="M 687.363281 1111.855469 L 733.347656 1111.855469 L 733.347656 1062.679688 L 687.363281 1062.679688 L 687.363281 1111.855469 " fill-opacity="1" fill-rule="nonzero"/><path fill="#85adb2" d="M 687.363281 1192.03125 L 733.347656 1192.03125 L 733.347656 1142.855469 L 687.363281 1142.855469 L 687.363281 1192.03125 " fill-opacity="1" fill-rule="nonzero"/><path fill="#1d5271" d="M 687.363281 1272.1875 L 733.347656 1272.1875 L 733.347656 1223.011719 L 687.363281 1223.011719 L 687.363281 1272.1875 " fill-opacity="1" fill-rule="nonzero"/><path fill="#1d5271" d="M 687.363281 1352.386719 L 733.347656 1352.386719 L 733.347656 1303.210938 L 687.363281 1303.210938 L 687.363281 1352.386719 " fill-opacity="1" fill-rule="nonzero"/><path fill="#1d5271" d="M 687.363281 1432.5625 L 733.347656 1432.5625 L 733.347656 1383.386719 L 687.363281 1383.386719 L 687.363281 1432.5625 " fill-opacity="1" fill-rule="nonzero"/><path fill="#26646f" d="M 687.363281 1512.761719 L 733.347656 1512.761719 L 733.347656 1463.5625 L 687.363281 1463.5625 L 687.363281 1512.761719 " fill-opacity="1" fill-rule="nonzero"/><path fill="#85adb2" d="M 687.363281 1592.9375 L 733.347656 1592.9375 L 733.347656 1543.742188 L 687.363281 1543.742188 L 687.363281 1592.9375 " fill-opacity="1" fill-rule="nonzero"/><path fill="#1d5271" d="M 687.363281 1673.113281 L 733.347656 1673.113281 L 733.347656 1623.9375 L 687.363281 1623.9375 L 687.363281 1673.113281 " fill-opacity="1" fill-rule="nonzero"/><path fill="#1d5271" d="M 687.363281 1753.289062 L 733.347656 1753.289062 L 733.347656 1704.113281 L 687.363281 1704.113281 L 687.363281 1753.289062 " fill-opacity="1" fill-rule="nonzero"/><path fill="#85adb2" d="M 1045.316406 951.480469 L 1091.277344 951.480469 L 1091.277344 902.304688 L 1045.316406 902.304688 L 1045.316406 951.480469 " fill-opacity="1" fill-rule="nonzero"/><path fill="#85adb2" d="M 1045.316406 1031.65625 L 1091.277344 1031.65625 L 1091.277344 982.480469 L 1045.316406 982.480469 L 1045.316406 1031.65625 " fill-opacity="1" fill-rule="nonzero"/><path fill="#1d5271" d="M 1045.316406 1111.855469 L 1091.277344 1111.855469 L 1091.277344 1062.679688 L 1045.316406 1062.679688 L 1045.316406 1111.855469 " fill-opacity="1" fill-rule="nonzero"/><path fill="#1d5271" d="M 1045.316406 1192.03125 L 1091.277344 1192.03125 L 1091.277344 1142.855469 L 1045.316406 1142.855469 L 1045.316406 1192.03125 " fill-opacity="1" fill-rule="nonzero"/><path fill="#1d5271" d="M 1045.316406 1272.1875 L 1091.277344 1272.1875 L 1091.277344 1223.011719 L 1045.316406 1223.011719 L 1045.316406 1272.1875 " fill-opacity="1" fill-rule="nonzero"/><path fill="#85adb2" d="M 1045.316406 1352.386719 L 1091.277344 1352.386719 L 1091.277344 1303.210938 L 1045.316406 1303.210938 L 1045.316406 1352.386719 " fill-opacity="1" fill-rule="nonzero"/><path fill="#1d5271" d="M 1045.316406 1432.5625 L 1091.277344 1432.5625 L 1091.277344 1383.386719 L 1045.316406 1383.386719 L 1045.316406 1432.5625 " fill-opacity="1" fill-rule="nonzero"/><path fill="#1d5271" d="M 1045.316406 1512.761719 L 1091.277344 1512.761719 L 1091.277344 1463.5625 L 1045.316406 1463.5625 L 1045.316406 1512.761719 " fill-opacity="1" fill-rule="nonzero"/><path fill="#26646f" d="M 1045.316406 1592.9375 L 1091.277344 1592.9375 L 1091.277344 1543.742188 L 1045.316406 1543.742188 L 1045.316406 1592.9375 " fill-opacity="1" fill-rule="nonzero"/><path fill="#85adb2" d="M 1045.316406 1673.113281 L 1091.277344 1673.113281 L 1091.277344 1623.9375 L 1045.316406 1623.9375 L 1045.316406 1673.113281 " fill-opacity="1" fill-rule="nonzero"/><path fill="#26646f" d="M 1045.316406 1753.289062 L 1091.277344 1753.289062 L 1091.277344 1704.113281 L 1045.316406 1704.113281 L 1045.316406 1753.289062 " fill-opacity="1" fill-rule="nonzero"/><path fill="#1d5271" d="M 903.886719 951.480469 L 949.871094 951.480469 L 949.871094 902.304688 L 903.886719 902.304688 L 903.886719 951.480469 " fill-opacity="1" fill-rule="nonzero"/><path fill="#26646f" d="M 828.773438 951.480469 L 874.753906 951.480469 L 874.753906 902.304688 L 828.773438 902.304688 L 828.773438 951.480469 " fill-opacity="1" fill-rule="nonzero"/><path fill="#1d5271" d="M 828.773438 1111.855469 L 874.753906 1111.855469 L 874.753906 982.480469 L 828.773438 982.480469 L 828.773438 1111.855469 " fill-opacity="1" fill-rule="nonzero"/><path fill="#1d5271" d="M 903.886719 1111.855469 L 949.871094 1111.855469 L 949.871094 982.480469 L 903.886719 982.480469 L 903.886719 1111.855469 " fill-opacity="1" fill-rule="nonzero"/><path fill="#85adb2" d="M 903.886719 1192.03125 L 949.871094 1192.03125 L 949.871094 1142.855469 L 903.886719 1142.855469 L 903.886719 1192.03125 " fill-opacity="1" fill-rule="nonzero"/><path fill="#85adb2" d="M 828.773438 1192.03125 L 874.753906 1192.03125 L 874.753906 1142.855469 L 828.773438 1142.855469 L 828.773438 1192.03125 " fill-opacity="1" fill-rule="nonzero"/><path fill="#26646f" d="M 903.886719 1272.1875 L 949.871094 1272.1875 L 949.871094 1223.011719 L 903.886719 1223.011719 L 903.886719 1272.1875 " fill-opacity="1" fill-rule="nonzero"/><path fill="#1d5271" d="M 828.773438 1272.1875 L 874.753906 1272.1875 L 874.753906 1223.011719 L 828.773438 1223.011719 L 828.773438 1272.1875 " fill-opacity="1" fill-rule="nonzero"/><path fill="#1d5271" d="M 903.886719 1352.386719 L 949.871094 1352.386719 L 949.871094 1303.210938 L 903.886719 1303.210938 L 903.886719 1352.386719 " fill-opacity="1" fill-rule="nonzero"/><path fill="#85adb2" d="M 828.773438 1352.386719 L 874.753906 1352.386719 L 874.753906 1303.210938 L 828.773438 1303.210938 L 828.773438 1352.386719 " fill-opacity="1" fill-rule="nonzero"/><path fill="#85adb2" d="M 903.886719 1432.5625 L 949.871094 1432.5625 L 949.871094 1383.386719 L 903.886719 1383.386719 L 903.886719 1432.5625 " fill-opacity="1" fill-rule="nonzero"/><path fill="#26646f" d="M 828.773438 1432.5625 L 874.753906 1432.5625 L 874.753906 1383.386719 L 828.773438 1383.386719 L 828.773438 1432.5625 " fill-opacity="1" fill-rule="nonzero"/><path fill="#85adb2" d="M 903.886719 1512.761719 L 949.871094 1512.761719 L 949.871094 1463.5625 L 903.886719 1463.5625 L 903.886719 1512.761719 " fill-opacity="1" fill-rule="nonzero"/><path fill="#26646f" d="M 828.773438 1512.761719 L 874.753906 1512.761719 L 874.753906 1463.5625 L 828.773438 1463.5625 L 828.773438 1512.761719 " fill-opacity="1" fill-rule="nonzero"/><path fill="#1d5271" d="M 903.886719 1592.9375 L 949.871094 1592.9375 L 949.871094 1543.742188 L 903.886719 1543.742188 L 903.886719 1592.9375 " fill-opacity="1" fill-rule="nonzero"/><path fill="#1d5271" d="M 828.773438 1592.9375 L 874.753906 1592.9375 L 874.753906 1543.742188 L 828.773438 1543.742188 L 828.773438 1592.9375 " fill-opacity="1" fill-rule="nonzero"/><path fill="#26646f" d="M 903.886719 1673.113281 L 949.871094 1673.113281 L 949.871094 1623.9375 L 903.886719 1623.9375 L 903.886719 1673.113281 " fill-opacity="1" fill-rule="nonzero"/><path fill="#85adb2" d="M 828.773438 1673.113281 L 874.753906 1673.113281 L 874.753906 1623.9375 L 828.773438 1623.9375 L 828.773438 1673.113281 " fill-opacity="1" fill-rule="nonzero"/><path fill="#1d5271" d="M 903.886719 1753.289062 L 949.871094 1753.289062 L 949.871094 1704.113281 L 903.886719 1704.113281 L 903.886719 1753.289062 " fill-opacity="1" fill-rule="nonzero"/><path fill="#85adb2" d="M 828.773438 1753.289062 L 874.753906 1753.289062 L 874.753906 1704.113281 L 828.773438 1704.113281 L 828.773438 1753.289062 " fill-opacity="1" fill-rule="nonzero"/><path fill="#1d5271" d="M 1149.195312 1799.925781 L 1667.113281 1799.925781 L 1667.113281 165.101562 L 1149.195312 0.0703125 L 1149.195312 1799.925781 " fill-opacity="1" fill-rule="nonzero"/><path fill="#ffffff" d="M 1539.976562 265.808594 L 1607.894531 265.808594 L 1607.894531 236.292969 L 1539.976562 236.292969 L 1539.976562 265.808594 " fill-opacity="1" fill-rule="nonzero"/><path fill="#ffffff" d="M 1429.691406 265.808594 L 1497.632812 265.808594 L 1497.632812 236.292969 L 1429.691406 236.292969 L 1429.691406 265.808594 " fill-opacity="1" fill-rule="nonzero"/><path fill="#85adb2" d="M 1318.695312 265.808594 L 1386.65625 265.808594 L 1386.65625 236.292969 L 1318.695312 236.292969 L 1318.695312 265.808594 " fill-opacity="1" fill-rule="nonzero"/><path fill="#85adb2" d="M 1208.453125 265.808594 L 1276.371094 265.808594 L 1276.371094 236.292969 L 1208.453125 236.292969 L 1208.453125 265.808594 " fill-opacity="1" fill-rule="nonzero"/><path fill="#85adb2" d="M 1539.976562 315.308594 L 1607.894531 315.308594 L 1607.894531 285.8125 L 1539.976562 285.8125 L 1539.976562 315.308594 " fill-opacity="1" fill-rule="nonzero"/><path fill="#ffffff" d="M 1429.691406 315.308594 L 1497.632812 315.308594 L 1497.632812 285.8125 L 1429.691406 285.8125 L 1429.691406 315.308594 " fill-opacity="1" fill-rule="nonzero"/><path fill="#85adb2" d="M 1318.695312 315.308594 L 1386.65625 315.308594 L 1386.65625 285.8125 L 1318.695312 285.8125 L 1318.695312 315.308594 " fill-opacity="1" fill-rule="nonzero"/><path fill="#ffffff" d="M 1208.453125 315.308594 L 1276.371094 315.308594 L 1276.371094 285.8125 L 1208.453125 285.8125 L 1208.453125 315.308594 " fill-opacity="1" fill-rule="nonzero"/><path fill="#ffffff" d="M 1497.632812 315.308594 L 1497.632812 285.8125 L 1429.691406 285.8125 " fill-opacity="1" fill-rule="nonzero"/><path fill="#ffffff" d="M 1539.976562 364.8125 L 1607.894531 364.8125 L 1607.894531 335.3125 L 1539.976562 335.3125 L 1539.976562 364.8125 " fill-opacity="1" fill-rule="nonzero"/><path fill="#85adb2" d="M 1429.691406 364.8125 L 1497.632812 364.8125 L 1497.632812 335.3125 L 1429.691406 335.3125 L 1429.691406 364.8125 " fill-opacity="1" fill-rule="nonzero"/><path fill="#85adb2" d="M 1318.695312 364.8125 L 1386.65625 364.8125 L 1386.65625 335.3125 L 1318.695312 335.3125 L 1318.695312 364.8125 " fill-opacity="1" fill-rule="nonzero"/><path fill="#ffffff" d="M 1208.453125 364.8125 L 1276.371094 364.8125 L 1276.371094 335.3125 L 1208.453125 335.3125 L 1208.453125 364.8125 " fill-opacity="1" fill-rule="nonzero"/><path fill="#85adb2" d="M 1539.976562 546 L 1607.894531 546 L 1607.894531 473.304688 L 1539.976562 473.304688 L 1539.976562 546 " fill-opacity="1" fill-rule="nonzero"/><path fill="#1d5271" d="M 1429.691406 546 L 1497.632812 546 L 1497.632812 473.304688 L 1429.691406 473.304688 L 1429.691406 546 " fill-opacity="1" fill-rule="nonzero"/><path fill="#ffffff" d="M 1318.695312 546 L 1386.65625 546 L 1386.65625 473.304688 L 1318.695312 473.304688 L 1318.695312 546 " fill-opacity="1" fill-rule="nonzero"/><path fill="#85adb2" d="M 1208.453125 546 L 1276.371094 546 L 1276.371094 473.304688 L 1208.453125 473.304688 L 1208.453125 546 " fill-opacity="1" fill-rule="nonzero"/><path fill="#ffffff" d="M 1539.976562 664.5 L 1607.894531 664.5 L 1607.894531 591.800781 L 1539.976562 591.800781 L 1539.976562 664.5 " fill-opacity="1" fill-rule="nonzero"/><path fill="#ffffff" d="M 1429.691406 664.5 L 1497.632812 664.5 L 1497.632812 591.800781 L 1429.691406 591.800781 L 1429.691406 664.5 " fill-opacity="1" fill-rule="nonzero"/><path fill="#1d5271" d="M 1318.695312 664.5 L 1386.65625 664.5 L 1386.65625 591.800781 L 1318.695312 591.800781 L 1318.695312 664.5 " fill-opacity="1" fill-rule="nonzero"/><path fill="#1d5271" d="M 1208.453125 664.5 L 1276.371094 664.5 L 1276.371094 591.800781 L 1208.453125 591.800781 L 1208.453125 664.5 " fill-opacity="1" fill-rule="nonzero"/><path fill="#85adb2" d="M 1539.976562 782.996094 L 1607.894531 782.996094 L 1607.894531 710.320312 L 1539.976562 710.320312 L 1539.976562 782.996094 " fill-opacity="1" fill-rule="nonzero"/><path fill="#85adb2" d="M 1429.691406 782.996094 L 1497.632812 782.996094 L 1497.632812 710.320312 L 1429.691406 710.320312 L 1429.691406 782.996094 " fill-opacity="1" fill-rule="nonzero"/><path fill="#ffffff" d="M 1318.695312 782.996094 L 1386.65625 782.996094 L 1386.65625 710.320312 L 1318.695312 710.320312 L 1318.695312 782.996094 " fill-opacity="1" fill-rule="nonzero"/><path fill="#85adb2" d="M 1208.453125 782.996094 L 1276.371094 782.996094 L 1276.371094 710.320312 L 1208.453125 710.320312 L 1208.453125 782.996094 " fill-opacity="1" fill-rule="nonzero"/><path fill="#1d5271" d="M 1539.976562 901.492188 L 1607.894531 901.492188 L 1607.894531 828.816406 L 1539.976562 828.816406 L 1539.976562 901.492188 " fill-opacity="1" fill-rule="nonzero"/><path fill="#1d5271" d="M 1429.691406 901.492188 L 1497.632812 901.492188 L 1497.632812 828.816406 L 1429.691406 828.816406 L 1429.691406 901.492188 " fill-opacity="1" fill-rule="nonzero"/><path fill="#85adb2" d="M 1318.695312 901.492188 L 1386.65625 901.492188 L 1386.65625 828.816406 L 1318.695312 828.816406 L 1318.695312 901.492188 " fill-opacity="1" fill-rule="nonzero"/><path fill="#ffffff" d="M 1208.453125 901.492188 L 1276.371094 901.492188 L 1276.371094 828.816406 L 1208.453125 828.816406 L 1208.453125 901.492188 " fill-opacity="1" fill-rule="nonzero"/><path fill="#85adb2" d="M 1539.976562 1019.988281 L 1607.894531 1019.988281 L 1607.894531 947.292969 L 1539.976562 947.292969 L 1539.976562 1019.988281 " fill-opacity="1" fill-rule="nonzero"/><path fill="#ffffff" d="M 1429.691406 1019.988281 L 1497.632812 1019.988281 L 1497.632812 947.292969 L 1429.691406 947.292969 L 1429.691406 1019.988281 " fill-opacity="1" fill-rule="nonzero"/><path fill="#1d5271" d="M 1318.695312 1019.988281 L 1386.65625 1019.988281 L 1386.65625 947.292969 L 1318.695312 947.292969 L 1318.695312 1019.988281 " fill-opacity="1" fill-rule="nonzero"/><path fill="#85adb2" d="M 1208.453125 1019.988281 L 1276.371094 1019.988281 L 1276.371094 947.292969 L 1208.453125 947.292969 L 1208.453125 1019.988281 " fill-opacity="1" fill-rule="nonzero"/><path fill="#ffffff" d="M 1539.976562 1138.507812 L 1607.894531 1138.507812 L 1607.894531 1065.832031 L 1539.976562 1065.832031 L 1539.976562 1138.507812 " fill-opacity="1" fill-rule="nonzero"/><path fill="#1d5271" d="M 1429.691406 1138.507812 L 1497.632812 1138.507812 L 1497.632812 1065.832031 L 1429.691406 1065.832031 L 1429.691406 1138.507812 " fill-opacity="1" fill-rule="nonzero"/><path fill="#85adb2" d="M 1318.695312 1138.507812 L 1386.65625 1138.507812 L 1386.65625 1065.832031 L 1318.695312 1065.832031 L 1318.695312 1138.507812 " fill-opacity="1" fill-rule="nonzero"/><path fill="#1d5271" d="M 1208.453125 1138.507812 L 1276.371094 1138.507812 L 1276.371094 1065.832031 L 1208.453125 1065.832031 L 1208.453125 1138.507812 " fill-opacity="1" fill-rule="nonzero"/><path fill="#85adb2" d="M 1539.976562 1257.003906 L 1607.894531 1257.003906 L 1607.894531 1184.328125 L 1539.976562 1184.328125 L 1539.976562 1257.003906 " fill-opacity="1" fill-rule="nonzero"/><path fill="#1d5271" d="M 1429.691406 1257.003906 L 1497.632812 1257.003906 L 1497.632812 1184.328125 L 1429.691406 1184.328125 L 1429.691406 1257.003906 " fill-opacity="1" fill-rule="nonzero"/><path fill="#ffffff" d="M 1318.695312 1257.003906 L 1386.65625 1257.003906 L 1386.65625 1184.328125 L 1318.695312 1184.328125 L 1318.695312 1257.003906 " fill-opacity="1" fill-rule="nonzero"/><path fill="#85adb2" d="M 1208.453125 1257.003906 L 1276.371094 1257.003906 L 1276.371094 1184.328125 L 1208.453125 1184.328125 L 1208.453125 1257.003906 " fill-opacity="1" fill-rule="nonzero"/><path fill="#85adb2" d="M 1539.976562 1375.5 L 1607.894531 1375.5 L 1607.894531 1302.824219 L 1539.976562 1302.824219 L 1539.976562 1375.5 " fill-opacity="1" fill-rule="nonzero"/><path fill="#85adb2" d="M 1429.691406 1375.5 L 1497.632812 1375.5 L 1497.632812 1302.824219 L 1429.691406 1302.824219 L 1429.691406 1375.5 " fill-opacity="1" fill-rule="nonzero"/><path fill="#ffffff" d="M 1318.695312 1375.5 L 1386.65625 1375.5 L 1386.65625 1302.824219 L 1318.695312 1302.824219 L 1318.695312 1375.5 " fill-opacity="1" fill-rule="nonzero"/><path fill="#85adb2" d="M 1208.453125 1375.5 L 1276.371094 1375.5 L 1276.371094 1302.824219 L 1208.453125 1302.824219 L 1208.453125 1375.5 " fill-opacity="1" fill-rule="nonzero"/><path fill="#1d5271" d="M 1539.976562 1493.996094 L 1607.894531 1493.996094 L 1607.894531 1421.300781 L 1539.976562 1421.300781 L 1539.976562 1493.996094 " fill-opacity="1" fill-rule="nonzero"/><path fill="#85adb2" d="M 1429.691406 1493.996094 L 1497.632812 1493.996094 L 1497.632812 1421.300781 L 1429.691406 1421.300781 L 1429.691406 1493.996094 " fill-opacity="1" fill-rule="nonzero"/><path fill="#85adb2" d="M 1318.695312 1493.996094 L 1386.65625 1493.996094 L 1386.65625 1421.300781 L 1318.695312 1421.300781 L 1318.695312 1493.996094 " fill-opacity="1" fill-rule="nonzero"/><path fill="#ffffff" d="M 1208.453125 1493.996094 L 1276.371094 1493.996094 L 1276.371094 1421.300781 L 1208.453125 1421.300781 L 1208.453125 1493.996094 " fill-opacity="1" fill-rule="nonzero"/><path fill="#ffffff" d="M 1539.976562 1612.492188 L 1607.894531 1612.492188 L 1607.894531 1539.816406 L 1539.976562 1539.816406 L 1539.976562 1612.492188 " fill-opacity="1" fill-rule="nonzero"/><path fill="#ffffff" d="M 1429.691406 1612.492188 L 1497.632812 1612.492188 L 1497.632812 1539.816406 L 1429.691406 1539.816406 L 1429.691406 1612.492188 " fill-opacity="1" fill-rule="nonzero"/><path fill="#1d5271" d="M 1318.695312 1612.492188 L 1386.65625 1612.492188 L 1386.65625 1539.816406 L 1318.695312 1539.816406 L 1318.695312 1612.492188 " fill-opacity="1" fill-rule="nonzero"/><path fill="#85adb2" d="M 1208.453125 1612.492188 L 1276.371094 1612.492188 L 1276.371094 1539.816406 L 1208.453125 1539.816406 L 1208.453125 1612.492188 " fill-opacity="1" fill-rule="nonzero"/><path fill="#85adb2" d="M 1539.976562 1730.988281 L 1607.894531 1730.988281 L 1607.894531 1658.3125 L 1539.976562 1658.3125 L 1539.976562 1730.988281 " fill-opacity="1" fill-rule="nonzero"/><path fill="#85adb2" d="M 1429.691406 1730.988281 L 1497.632812 1730.988281 L 1497.632812 1658.3125 L 1429.691406 1658.3125 L 1429.691406 1730.988281 " fill-opacity="1" fill-rule="nonzero"/><path fill="#85adb2" d="M 1318.695312 1730.988281 L 1386.65625 1730.988281 L 1386.65625 1658.3125 L 1318.695312 1658.3125 L 1318.695312 1730.988281 " fill-opacity="1" fill-rule="nonzero"/><path fill="#1d5271" d="M 1208.453125 1730.988281 L 1276.371094 1730.988281 L 1276.371094 1658.3125 L 1208.453125 1658.3125 L 1208.453125 1730.988281 " fill-opacity="1" fill-rule="nonzero"/><g clip-path="url(#98ffcf8b91)"><path fill="#85adb2" d="M 1119.554688 408.945312 C 1119.554688 416.792969 1125.917969 423.15625 1133.785156 423.15625 L 1682.5625 423.15625 C 1690.410156 423.15625 1696.773438 416.792969 1696.773438 408.945312 C 1696.773438 401.078125 1690.410156 394.714844 1682.5625 394.714844 L 1133.785156 394.714844 C 1125.917969 394.714844 1119.554688 401.078125 1119.554688 408.945312 " fill-opacity="1" fill-rule="nonzero"/></g></svg>