<svg xmlns="http://www.w3.org/2000/svg" xmlns:xlink="http://www.w3.org/1999/xlink" width="2400" zoomAndPan="magnify" viewBox="0 0 1800 1799.999925" height="2400" preserveAspectRatio="xMidYMid meet" version="1.0"><path fill="#25a26a" d="M 1648.273438 1800 L 151.46875 1800 C 68.09375 1800 0 1731.902344 0 1648.273438 L 0 151.46875 C 0 68.09375 68.09375 0 151.46875 0 L 1648.273438 0 C 1731.902344 0 1799.742188 68.09375 1799.742188 151.46875 L 1799.742188 1648.273438 C 1800 1731.902344 1731.902344 1800 1648.273438 1800 Z M 151.46875 41.425781 C 90.878906 41.425781 41.425781 90.878906 41.425781 151.46875 L 41.425781 1648.273438 C 41.425781 1709.121094 90.878906 1758.574219 151.726562 1758.574219 L 1648.53125 1758.574219 C 1709.378906 1758.574219 1758.832031 1709.121094 1758.832031 1648.273438 L 1758.832031 151.46875 C 1758.832031 90.621094 1709.378906 41.167969 1648.53125 41.167969 L 151.46875 41.167969 Z M 151.46875 41.425781 " fill-opacity="1" fill-rule="nonzero"/><path fill="#ffffff" d="M 1641.542969 1771.257812 L 158.457031 1771.257812 C 86.738281 1771.257812 28.738281 1713.261719 28.738281 1641.542969 L 28.738281 158.457031 C 28.738281 86.738281 86.738281 28.738281 158.457031 28.738281 L 1641.542969 28.738281 C 1713.261719 28.738281 1771.257812 86.738281 1771.257812 158.457031 L 1771.257812 1641.542969 C 1771.257812 1713.261719 1713.261719 1771.257812 1641.542969 1771.257812 Z M 1641.542969 1771.257812 " fill-opacity="1" fill-rule="nonzero"/><path fill="#25a26a" d="M 1609.4375 1733.714844 L 190.5625 1733.714844 C 121.949219 1733.714844 66.542969 1678.050781 66.542969 1609.695312 L 66.542969 190.824219 C 66.542969 122.210938 122.210938 66.800781 190.5625 66.800781 L 1609.4375 66.800781 C 1678.050781 66.800781 1733.457031 122.46875 1733.457031 190.824219 L 1733.457031 1609.695312 C 1733.714844 1678.050781 1678.050781 1733.714844 1609.4375 1733.714844 Z M 1609.4375 1733.714844 " fill-opacity="1" fill-rule="nonzero"/><path fill="#ffffff" d="M 1446.578125 257.363281 L 1437.773438 247.527344 L 1428.96875 237.6875 C 1428.96875 237.6875 1368.125 184.609375 1251.351562 287.917969 C 1165.390625 364.039062 1060.789062 472.007812 1060.789062 472.007812 L 478.480469 339.441406 C 463.722656 336.074219 448.445312 340.996094 438.347656 352.386719 L 394.074219 402.101562 L 881.875 642.636719 L 601.207031 937.800781 L 460.355469 901.554688 C 444.304688 897.410156 427.214844 901.554688 414.785156 912.6875 L 377.242188 946.605469 L 514.730469 1036.449219 L 484.4375 1079.6875 C 484.4375 1079.6875 481.070312 1093.671875 490.648438 1102.992188 C 498.933594 1113.347656 513.175781 1111.535156 513.175781 1111.535156 L 559.261719 1085.644531 L 634.609375 1231.675781 L 672.152344 1197.753906 C 684.578125 1186.621094 690.535156 1170.050781 687.945312 1153.480469 L 666.195312 1009.78125 L 988.289062 760.703125 L 1177.820312 1270.253906 L 1231.933594 1231.414062 C 1244.101562 1222.613281 1250.574219 1207.855469 1248.761719 1192.835938 L 1176.007812 599.914062 C 1176.007812 599.914062 1294.074219 506.703125 1378.480469 429.027344 C 1493.441406 323.128906 1446.578125 257.363281 1446.578125 257.363281 Z M 1446.578125 257.363281 " fill-opacity="1" fill-rule="nonzero"/><path fill="#ffffff" d="M 494.015625 1381.328125 L 434.984375 1575.515625 L 480.292969 1575.515625 L 494.015625 1525.804688 L 549.683594 1525.804688 L 564.699219 1575.515625 L 612.339844 1575.515625 L 551.753906 1381.328125 Z M 500.230469 1492.921875 L 511.882812 1451.753906 C 514.988281 1440.621094 517.835938 1425.863281 520.683594 1414.210938 L 521.203125 1414.210938 C 524.050781 1425.863281 527.417969 1440.101562 531.042969 1451.753906 L 543.210938 1492.921875 Z M 500.230469 1492.921875 " fill-opacity="1" fill-rule="nonzero"/><path fill="#ffffff" d="M 634.609375 1434.664062 L 678.367188 1434.664062 L 678.367188 1575.515625 L 634.609375 1575.515625 Z M 634.609375 1434.664062 " fill-opacity="1" fill-rule="nonzero"/><path fill="#ffffff" d="M 656.617188 1373.5625 C 642.375 1373.5625 633.3125 1383.140625 633.3125 1395.570312 C 633.3125 1407.738281 642.117188 1417.578125 656.097656 1417.578125 C 670.855469 1417.578125 679.660156 1407.738281 679.660156 1395.570312 C 679.402344 1383.140625 670.855469 1373.5625 656.617188 1373.5625 Z M 656.617188 1373.5625 " fill-opacity="1" fill-rule="nonzero"/><path fill="#ffffff" d="M 752.675781 1460.558594 L 751.640625 1460.558594 L 749.828125 1434.664062 L 712.285156 1434.664062 C 713.0625 1446.835938 713.320312 1460.300781 713.320312 1481.011719 L 713.320312 1575.515625 L 757.078125 1575.515625 L 757.078125 1504.054688 C 757.078125 1500.691406 757.335938 1497.066406 757.855469 1494.21875 C 760.703125 1480.753906 771.578125 1471.949219 787.886719 1471.949219 C 792.808594 1471.949219 796.171875 1472.46875 799.796875 1472.984375 L 799.796875 1431.816406 C 796.691406 1431.300781 794.621094 1431.042969 790.476562 1431.042969 C 776.753906 1431.300781 759.925781 1439.84375 752.675781 1460.558594 Z M 752.675781 1460.558594 " fill-opacity="1" fill-rule="nonzero"/><path fill="#ffffff" d="M 909.320312 1431.558594 C 888.867188 1431.558594 872.8125 1439.585938 862.457031 1454.34375 L 861.9375 1454.34375 L 859.867188 1434.667969 L 821.804688 1434.667969 C 822.324219 1447.871094 822.84375 1463.40625 822.84375 1481.789062 L 822.84375 1632.480469 L 866.597656 1632.480469 L 866.597656 1562.570312 L 867.117188 1562.570312 C 873.332031 1571.894531 886.796875 1578.625 903.625 1578.625 C 934.953125 1578.625 967.578125 1554.546875 967.578125 1503.019531 C 967.835938 1458.226562 940.132812 1431.558594 909.320312 1431.558594 Z M 893.269531 1544.964844 C 880.582031 1544.964844 870.484375 1536.160156 867.636719 1524.25 C 867.117188 1521.402344 866.859375 1518.554688 866.859375 1514.929688 L 866.859375 1495.511719 C 866.859375 1492.921875 867.117188 1490.074219 867.636719 1487.746094 C 870.484375 1474.796875 881.359375 1465.476562 893.785156 1465.476562 C 913.464844 1465.476562 923.5625 1482.566406 923.5625 1504.832031 C 923.5625 1529.171875 912.167969 1544.964844 893.269531 1544.964844 Z M 893.269531 1544.964844 " fill-opacity="1" fill-rule="nonzero"/><path fill="#ffffff" d="M 1063.378906 1431.300781 C 1017.808594 1431.300781 987.773438 1460.300781 987.773438 1506.128906 C 987.773438 1551.695312 1019.359375 1578.625 1060.527344 1578.625 C 1098.332031 1578.625 1134.839844 1555.0625 1134.839844 1503.539062 C 1135.097656 1460.816406 1106.359375 1431.300781 1063.378906 1431.300781 Z M 1062.082031 1547.296875 C 1043.441406 1547.296875 1033.34375 1529.171875 1033.34375 1504.832031 C 1033.34375 1484.121094 1041.371094 1462.371094 1062.082031 1462.371094 C 1082.019531 1462.371094 1090.046875 1483.601562 1090.046875 1504.316406 C 1090.046875 1530.207031 1079.429688 1547.296875 1062.082031 1547.296875 Z M 1062.082031 1547.296875 " fill-opacity="1" fill-rule="nonzero"/><path fill="#ffffff" d="M 1201.378906 1460.558594 L 1200.34375 1460.558594 L 1198.53125 1434.664062 L 1160.988281 1434.664062 C 1161.765625 1446.835938 1162.023438 1460.300781 1162.023438 1481.011719 L 1162.023438 1575.515625 L 1205.78125 1575.515625 L 1205.78125 1504.054688 C 1205.78125 1500.691406 1206.042969 1497.066406 1206.558594 1494.21875 C 1209.40625 1480.753906 1220.28125 1471.949219 1236.59375 1471.949219 C 1241.511719 1471.949219 1244.878906 1472.46875 1248.503906 1472.984375 L 1248.503906 1431.816406 C 1245.398438 1431.300781 1243.324219 1431.042969 1239.183594 1431.042969 C 1225.71875 1431.300781 1208.628906 1439.84375 1201.378906 1460.558594 Z M 1201.378906 1460.558594 " fill-opacity="1" fill-rule="nonzero"/><path fill="#ffffff" d="M 1358.285156 1466.773438 L 1358.285156 1434.40625 L 1326.957031 1434.40625 L 1326.957031 1396.347656 L 1283.976562 1408.257812 L 1283.976562 1434.40625 L 1265.332031 1434.40625 L 1265.332031 1466.773438 L 1283.976562 1466.773438 L 1283.976562 1524.511719 C 1283.976562 1544.445312 1288.117188 1557.910156 1296.144531 1566.195312 C 1303.394531 1573.445312 1315.046875 1578.367188 1329.285156 1578.367188 C 1341.457031 1578.367188 1352.070312 1576.554688 1357.507812 1574.742188 L 1357.25 1541.597656 C 1353.105469 1542.375 1350.257812 1542.632812 1344.304688 1542.632812 C 1331.359375 1542.632812 1326.957031 1534.867188 1326.957031 1517.777344 L 1326.957031 1466.773438 Z M 1358.285156 1466.773438 " fill-opacity="1" fill-rule="nonzero"/></svg>