<svg xmlns="http://www.w3.org/2000/svg" xmlns:xlink="http://www.w3.org/1999/xlink" width="2400" zoomAndPan="magnify" viewBox="0 0 1800 1799.999925" height="2400" preserveAspectRatio="xMidYMid meet" version="1.0"><defs><clipPath id="5c3c6ae326"><path d="M 651 367 L 1149.75 367 L 1149.75 392 L 651 392 Z M 651 367 " clip-rule="nonzero"/></clipPath></defs><path fill="#45a0b4" d="M 910.929688 185.347656 L 889.589844 185.347656 L 889.589844 -0.207031 L 910.929688 -0.207031 L 910.929688 185.347656 " fill-opacity="1" fill-rule="nonzero"/><path fill="#26646f" d="M 1023.429688 521.664062 C 1023.429688 555.015625 996.410156 582.058594 963.058594 582.058594 L 837.441406 582.058594 C 804.109375 582.058594 777.070312 555.015625 777.070312 521.664062 L 777.070312 171.050781 C 777.070312 137.699219 804.109375 110.65625 837.441406 110.65625 L 963.058594 110.65625 C 996.410156 110.65625 1023.429688 137.699219 1023.429688 171.050781 L 1023.429688 521.664062 " fill-opacity="1" fill-rule="nonzero"/><path fill="#1d5271" d="M 1096.5625 404.90625 L 703.957031 404.90625 L 703.957031 234.203125 L 1096.5625 204.558594 L 1096.5625 404.90625 " fill-opacity="1" fill-rule="nonzero"/><path fill="#1d5271" d="M 1123.898438 1799.695312 L 676.621094 1799.695312 L 676.621094 387.863281 L 1123.898438 387.863281 L 1123.898438 1799.695312 " fill-opacity="1" fill-rule="nonzero"/><path fill="#85adb2" d="M 786.4375 512.121094 L 727.78125 512.121094 L 727.78125 449.359375 L 786.4375 449.359375 L 786.4375 512.121094 " fill-opacity="1" fill-rule="nonzero"/><path fill="#85adb2" d="M 881.679688 512.121094 L 823.003906 512.121094 L 823.003906 449.359375 L 881.679688 449.359375 L 881.679688 512.121094 " fill-opacity="1" fill-rule="nonzero"/><path fill="#26646f" d="M 977.515625 512.121094 L 918.859375 512.121094 L 918.859375 449.359375 L 977.515625 449.359375 L 977.515625 512.121094 " fill-opacity="1" fill-rule="nonzero"/><path fill="#1d5271" d="M 1072.738281 512.121094 L 1014.0625 512.121094 L 1014.0625 449.359375 L 1072.738281 449.359375 L 1072.738281 512.121094 " fill-opacity="1" fill-rule="nonzero"/><path fill="#26646f" d="M 786.4375 614.460938 L 727.78125 614.460938 L 727.78125 551.683594 L 786.4375 551.683594 L 786.4375 614.460938 " fill-opacity="1" fill-rule="nonzero"/><path fill="#1d5271" d="M 881.679688 614.460938 L 823.003906 614.460938 L 823.003906 551.683594 L 881.679688 551.683594 L 881.679688 614.460938 " fill-opacity="1" fill-rule="nonzero"/><path fill="#26646f" d="M 977.515625 614.460938 L 918.859375 614.460938 L 918.859375 551.683594 L 977.515625 551.683594 L 977.515625 614.460938 " fill-opacity="1" fill-rule="nonzero"/><path fill="#26646f" d="M 1072.738281 614.460938 L 1014.0625 614.460938 L 1014.0625 551.683594 L 1072.738281 551.683594 L 1072.738281 614.460938 " fill-opacity="1" fill-rule="nonzero"/><path fill="#26646f" d="M 786.4375 716.804688 L 727.78125 716.804688 L 727.78125 654.046875 L 786.4375 654.046875 L 786.4375 716.804688 " fill-opacity="1" fill-rule="nonzero"/><path fill="#1d5271" d="M 881.679688 716.804688 L 823.003906 716.804688 L 823.003906 654.046875 L 881.679688 654.046875 L 881.679688 716.804688 " fill-opacity="1" fill-rule="nonzero"/><path fill="#85adb2" d="M 977.515625 716.804688 L 918.859375 716.804688 L 918.859375 654.046875 L 977.515625 654.046875 L 977.515625 716.804688 " fill-opacity="1" fill-rule="nonzero"/><path fill="#26646f" d="M 1072.738281 716.804688 L 1014.0625 716.804688 L 1014.0625 654.046875 L 1072.738281 654.046875 L 1072.738281 716.804688 " fill-opacity="1" fill-rule="nonzero"/><path fill="#85adb2" d="M 786.4375 819.148438 L 727.78125 819.148438 L 727.78125 756.371094 L 786.4375 756.371094 L 786.4375 819.148438 " fill-opacity="1" fill-rule="nonzero"/><path fill="#85adb2" d="M 881.679688 819.148438 L 823.003906 819.148438 L 823.003906 756.371094 L 881.679688 756.371094 L 881.679688 819.148438 " fill-opacity="1" fill-rule="nonzero"/><path fill="#1d5271" d="M 977.515625 819.148438 L 918.859375 819.148438 L 918.859375 756.371094 L 977.515625 756.371094 L 977.515625 819.148438 " fill-opacity="1" fill-rule="nonzero"/><path fill="#1d5271" d="M 1072.738281 819.148438 L 1014.0625 819.148438 L 1014.0625 756.371094 L 1072.738281 756.371094 L 1072.738281 819.148438 " fill-opacity="1" fill-rule="nonzero"/><path fill="#26646f" d="M 786.4375 921.46875 L 727.78125 921.46875 L 727.78125 858.710938 L 786.4375 858.710938 L 786.4375 921.46875 " fill-opacity="1" fill-rule="nonzero"/><path fill="#26646f" d="M 881.679688 921.46875 L 823.003906 921.46875 L 823.003906 858.710938 L 881.679688 858.710938 L 881.679688 921.46875 " fill-opacity="1" fill-rule="nonzero"/><path fill="#85adb2" d="M 977.515625 921.46875 L 918.859375 921.46875 L 918.859375 858.710938 L 977.515625 858.710938 L 977.515625 921.46875 " fill-opacity="1" fill-rule="nonzero"/><path fill="#26646f" d="M 1072.738281 921.46875 L 1014.0625 921.46875 L 1014.0625 858.710938 L 1072.738281 858.710938 L 1072.738281 921.46875 " fill-opacity="1" fill-rule="nonzero"/><path fill="#1d5271" d="M 786.4375 1023.8125 L 727.78125 1023.8125 L 727.78125 961.035156 L 786.4375 961.035156 L 786.4375 1023.8125 " fill-opacity="1" fill-rule="nonzero"/><path fill="#1d5271" d="M 881.679688 1023.8125 L 823.003906 1023.8125 L 823.003906 961.035156 L 881.679688 961.035156 L 881.679688 1023.8125 " fill-opacity="1" fill-rule="nonzero"/><path fill="#26646f" d="M 977.515625 1023.8125 L 918.859375 1023.8125 L 918.859375 961.035156 L 977.515625 961.035156 L 977.515625 1023.8125 " fill-opacity="1" fill-rule="nonzero"/><path fill="#85adb2" d="M 1072.738281 1023.8125 L 1014.0625 1023.8125 L 1014.0625 961.035156 L 1072.738281 961.035156 L 1072.738281 1023.8125 " fill-opacity="1" fill-rule="nonzero"/><path fill="#26646f" d="M 786.4375 1126.15625 L 727.78125 1126.15625 L 727.78125 1063.378906 L 786.4375 1063.378906 L 786.4375 1126.15625 " fill-opacity="1" fill-rule="nonzero"/><path fill="#85adb2" d="M 881.679688 1126.15625 L 823.003906 1126.15625 L 823.003906 1063.378906 L 881.679688 1063.378906 L 881.679688 1126.15625 " fill-opacity="1" fill-rule="nonzero"/><path fill="#1d5271" d="M 977.515625 1126.15625 L 918.859375 1126.15625 L 918.859375 1063.378906 L 977.515625 1063.378906 L 977.515625 1126.15625 " fill-opacity="1" fill-rule="nonzero"/><path fill="#26646f" d="M 1072.738281 1126.15625 L 1014.0625 1126.15625 L 1014.0625 1063.378906 L 1072.738281 1063.378906 L 1072.738281 1126.15625 " fill-opacity="1" fill-rule="nonzero"/><path fill="#85adb2" d="M 786.4375 1228.480469 L 727.78125 1228.480469 L 727.78125 1165.71875 L 786.4375 1165.71875 L 786.4375 1228.480469 " fill-opacity="1" fill-rule="nonzero"/><path fill="#1d5271" d="M 881.679688 1228.480469 L 823.003906 1228.480469 L 823.003906 1165.71875 L 881.679688 1165.71875 L 881.679688 1228.480469 " fill-opacity="1" fill-rule="nonzero"/><path fill="#26646f" d="M 977.515625 1228.480469 L 918.859375 1228.480469 L 918.859375 1165.71875 L 977.515625 1165.71875 L 977.515625 1228.480469 " fill-opacity="1" fill-rule="nonzero"/><path fill="#1d5271" d="M 1072.738281 1228.480469 L 1014.0625 1228.480469 L 1014.0625 1165.71875 L 1072.738281 1165.71875 L 1072.738281 1228.480469 " fill-opacity="1" fill-rule="nonzero"/><path fill="#26646f" d="M 786.4375 1330.820312 L 727.78125 1330.820312 L 727.78125 1268.0625 L 786.4375 1268.0625 L 786.4375 1330.820312 " fill-opacity="1" fill-rule="nonzero"/><path fill="#1d5271" d="M 881.679688 1330.820312 L 823.003906 1330.820312 L 823.003906 1268.0625 L 881.679688 1268.0625 L 881.679688 1330.820312 " fill-opacity="1" fill-rule="nonzero"/><path fill="#85adb2" d="M 977.515625 1330.820312 L 918.859375 1330.820312 L 918.859375 1268.0625 L 977.515625 1268.0625 L 977.515625 1330.820312 " fill-opacity="1" fill-rule="nonzero"/><path fill="#26646f" d="M 1072.738281 1330.820312 L 1014.0625 1330.820312 L 1014.0625 1268.0625 L 1072.738281 1268.0625 L 1072.738281 1330.820312 " fill-opacity="1" fill-rule="nonzero"/><path fill="#26646f" d="M 786.4375 1433.164062 L 727.78125 1433.164062 L 727.78125 1370.386719 L 786.4375 1370.386719 L 786.4375 1433.164062 " fill-opacity="1" fill-rule="nonzero"/><path fill="#26646f" d="M 881.679688 1433.164062 L 823.003906 1433.164062 L 823.003906 1370.386719 L 881.679688 1370.386719 L 881.679688 1433.164062 " fill-opacity="1" fill-rule="nonzero"/><path fill="#85adb2" d="M 977.515625 1433.164062 L 918.859375 1433.164062 L 918.859375 1370.386719 L 977.515625 1370.386719 L 977.515625 1433.164062 " fill-opacity="1" fill-rule="nonzero"/><path fill="#26646f" d="M 1072.738281 1433.164062 L 1014.0625 1433.164062 L 1014.0625 1370.386719 L 1072.738281 1370.386719 L 1072.738281 1433.164062 " fill-opacity="1" fill-rule="nonzero"/><path fill="#1d5271" d="M 786.4375 1535.507812 L 727.78125 1535.507812 L 727.78125 1472.726562 L 786.4375 1472.726562 L 786.4375 1535.507812 " fill-opacity="1" fill-rule="nonzero"/><path fill="#26646f" d="M 881.679688 1535.507812 L 823.003906 1535.507812 L 823.003906 1472.726562 L 881.679688 1472.726562 L 881.679688 1535.507812 " fill-opacity="1" fill-rule="nonzero"/><path fill="#26646f" d="M 977.515625 1535.507812 L 918.859375 1535.507812 L 918.859375 1472.726562 L 977.515625 1472.726562 L 977.515625 1535.507812 " fill-opacity="1" fill-rule="nonzero"/><path fill="#85adb2" d="M 1072.738281 1535.507812 L 1014.0625 1535.507812 L 1014.0625 1472.726562 L 1072.738281 1472.726562 L 1072.738281 1535.507812 " fill-opacity="1" fill-rule="nonzero"/><path fill="#85adb2" d="M 786.4375 1637.828125 L 727.78125 1637.828125 L 727.78125 1575.070312 L 786.4375 1575.070312 L 786.4375 1637.828125 " fill-opacity="1" fill-rule="nonzero"/><path fill="#85adb2" d="M 881.679688 1637.828125 L 823.003906 1637.828125 L 823.003906 1575.070312 L 881.679688 1575.070312 L 881.679688 1637.828125 " fill-opacity="1" fill-rule="nonzero"/><path fill="#1d5271" d="M 977.515625 1637.828125 L 918.859375 1637.828125 L 918.859375 1575.070312 L 977.515625 1575.070312 L 977.515625 1637.828125 " fill-opacity="1" fill-rule="nonzero"/><path fill="#26646f" d="M 1072.738281 1637.828125 L 1014.0625 1637.828125 L 1014.0625 1575.070312 L 1072.738281 1575.070312 L 1072.738281 1637.828125 " fill-opacity="1" fill-rule="nonzero"/><path fill="#26646f" d="M 786.4375 1740.171875 L 727.78125 1740.171875 L 727.78125 1677.394531 L 786.4375 1677.394531 L 786.4375 1740.171875 " fill-opacity="1" fill-rule="nonzero"/><path fill="#26646f" d="M 881.679688 1740.171875 L 823.003906 1740.171875 L 823.003906 1677.394531 L 881.679688 1677.394531 L 881.679688 1740.171875 " fill-opacity="1" fill-rule="nonzero"/><path fill="#26646f" d="M 977.515625 1740.171875 L 918.859375 1740.171875 L 918.859375 1677.394531 L 977.515625 1677.394531 L 977.515625 1740.171875 " fill-opacity="1" fill-rule="nonzero"/><path fill="#1d5271" d="M 1072.738281 1740.171875 L 1014.0625 1740.171875 L 1014.0625 1677.394531 L 1072.738281 1677.394531 L 1072.738281 1740.171875 " fill-opacity="1" fill-rule="nonzero"/><g clip-path="url(#5c3c6ae326)"><path fill="#26646f" d="M 1149.5 379.421875 C 1149.5 386.207031 1144.015625 391.691406 1137.210938 391.691406 L 663.289062 391.691406 C 656.503906 391.691406 651 386.207031 651 379.421875 C 651 372.636719 656.503906 367.136719 663.289062 367.136719 L 1137.210938 367.136719 C 1144.015625 367.136719 1149.5 372.636719 1149.5 379.421875 " fill-opacity="1" fill-rule="nonzero"/></g><path fill="#26646f" d="M 786.4375 296.09375 L 727.78125 296.09375 L 727.78125 270.613281 L 786.4375 270.613281 L 786.4375 296.09375 " fill-opacity="1" fill-rule="nonzero"/><path fill="#26646f" d="M 881.679688 338.832031 L 823.003906 338.832031 L 823.003906 270.613281 L 881.679688 270.613281 L 881.679688 338.832031 " fill-opacity="1" fill-rule="nonzero"/><path fill="#26646f" d="M 977.515625 338.832031 L 918.859375 338.832031 L 918.859375 270.613281 L 977.515625 270.613281 L 977.515625 338.832031 " fill-opacity="1" fill-rule="nonzero"/><path fill="#26646f" d="M 1072.738281 296.09375 L 1014.0625 296.09375 L 1014.0625 270.613281 L 1072.738281 270.613281 L 1072.738281 296.09375 " fill-opacity="1" fill-rule="nonzero"/><path fill="#26646f" d="M 786.4375 338.832031 L 727.78125 338.832031 L 727.78125 313.371094 L 786.4375 313.371094 L 786.4375 338.832031 " fill-opacity="1" fill-rule="nonzero"/><path fill="#26646f" d="M 1072.738281 338.832031 L 1014.0625 338.832031 L 1014.0625 313.371094 L 1072.738281 313.371094 L 1072.738281 338.832031 " fill-opacity="1" fill-rule="nonzero"/></svg>